%TF.GenerationSoftware,KiCad,Pcbnew,7.0.1*%
%TF.CreationDate,2023-04-12T13:53:51+09:00*%
%TF.ProjectId,KiCad,4b694361-642e-46b6-9963-61645f706362,rev?*%
%TF.SameCoordinates,PX7270e00PY8b3c880*%
%TF.FileFunction,Drillmap*%
%TF.FilePolarity,Positive*%
%FSLAX45Y45*%
G04 Gerber Fmt 4.5, Leading zero omitted, Abs format (unit mm)*
G04 Created by KiCad (PCBNEW 7.0.1) date 2023-04-12 13:53:51*
%MOMM*%
%LPD*%
G01*
G04 APERTURE LIST*
%ADD10C,0.100000*%
%ADD11C,0.200000*%
%ADD12C,0.150000*%
%ADD13C,0.180000*%
%ADD14C,0.320000*%
G04 APERTURE END LIST*
D10*
X0Y8600000D02*
X5000000Y8600000D01*
X5000000Y0D01*
X0Y0D01*
X0Y8600000D01*
D11*
D12*
X2182500Y8147000D02*
X2332500Y7997000D01*
X2332500Y8147000D02*
X2182500Y7997000D01*
X2667500Y8147000D02*
X2817500Y7997000D01*
X2817500Y8147000D02*
X2667500Y7997000D01*
D13*
X2317500Y8375000D02*
G75*
G03*
X2317500Y8375000I-90000J0D01*
G01*
X2862500Y8375000D02*
G75*
G03*
X2862500Y8375000I-90000J0D01*
G01*
D14*
X300000Y8460000D02*
X300000Y8140000D01*
X140000Y8300000D02*
X460000Y8300000D01*
X300000Y852000D02*
X300000Y532000D01*
X140000Y692000D02*
X460000Y692000D01*
X4700000Y8460000D02*
X4700000Y8140000D01*
X4540000Y8300000D02*
X4860000Y8300000D01*
X4700000Y852000D02*
X4700000Y532000D01*
X4540000Y692000D02*
X4860000Y692000D01*
D11*
X242619Y-317524D02*
X242619Y-117524D01*
X242619Y-117524D02*
X290238Y-117524D01*
X290238Y-117524D02*
X318810Y-127048D01*
X318810Y-127048D02*
X337857Y-146095D01*
X337857Y-146095D02*
X347381Y-165143D01*
X347381Y-165143D02*
X356905Y-203238D01*
X356905Y-203238D02*
X356905Y-231809D01*
X356905Y-231809D02*
X347381Y-269905D01*
X347381Y-269905D02*
X337857Y-288952D01*
X337857Y-288952D02*
X318810Y-308000D01*
X318810Y-308000D02*
X290238Y-317524D01*
X290238Y-317524D02*
X242619Y-317524D01*
X442619Y-317524D02*
X442619Y-184190D01*
X442619Y-222286D02*
X452143Y-203238D01*
X452143Y-203238D02*
X461667Y-193714D01*
X461667Y-193714D02*
X480714Y-184190D01*
X480714Y-184190D02*
X499762Y-184190D01*
X566429Y-317524D02*
X566429Y-184190D01*
X566429Y-117524D02*
X556905Y-127048D01*
X556905Y-127048D02*
X566429Y-136571D01*
X566429Y-136571D02*
X575952Y-127048D01*
X575952Y-127048D02*
X566429Y-117524D01*
X566429Y-117524D02*
X566429Y-136571D01*
X690238Y-317524D02*
X671190Y-308000D01*
X671190Y-308000D02*
X661667Y-288952D01*
X661667Y-288952D02*
X661667Y-117524D01*
X795000Y-317524D02*
X775952Y-308000D01*
X775952Y-308000D02*
X766428Y-288952D01*
X766428Y-288952D02*
X766428Y-117524D01*
X1023571Y-317524D02*
X1023571Y-117524D01*
X1023571Y-117524D02*
X1090238Y-260381D01*
X1090238Y-260381D02*
X1156905Y-117524D01*
X1156905Y-117524D02*
X1156905Y-317524D01*
X1337857Y-317524D02*
X1337857Y-212762D01*
X1337857Y-212762D02*
X1328333Y-193714D01*
X1328333Y-193714D02*
X1309286Y-184190D01*
X1309286Y-184190D02*
X1271190Y-184190D01*
X1271190Y-184190D02*
X1252143Y-193714D01*
X1337857Y-308000D02*
X1318810Y-317524D01*
X1318810Y-317524D02*
X1271190Y-317524D01*
X1271190Y-317524D02*
X1252143Y-308000D01*
X1252143Y-308000D02*
X1242619Y-288952D01*
X1242619Y-288952D02*
X1242619Y-269905D01*
X1242619Y-269905D02*
X1252143Y-250857D01*
X1252143Y-250857D02*
X1271190Y-241333D01*
X1271190Y-241333D02*
X1318810Y-241333D01*
X1318810Y-241333D02*
X1337857Y-231809D01*
X1433095Y-184190D02*
X1433095Y-384190D01*
X1433095Y-193714D02*
X1452143Y-184190D01*
X1452143Y-184190D02*
X1490238Y-184190D01*
X1490238Y-184190D02*
X1509286Y-193714D01*
X1509286Y-193714D02*
X1518809Y-203238D01*
X1518809Y-203238D02*
X1528333Y-222286D01*
X1528333Y-222286D02*
X1528333Y-279429D01*
X1528333Y-279429D02*
X1518809Y-298476D01*
X1518809Y-298476D02*
X1509286Y-308000D01*
X1509286Y-308000D02*
X1490238Y-317524D01*
X1490238Y-317524D02*
X1452143Y-317524D01*
X1452143Y-317524D02*
X1433095Y-308000D01*
X1614048Y-298476D02*
X1623571Y-308000D01*
X1623571Y-308000D02*
X1614048Y-317524D01*
X1614048Y-317524D02*
X1604524Y-308000D01*
X1604524Y-308000D02*
X1614048Y-298476D01*
X1614048Y-298476D02*
X1614048Y-317524D01*
X1614048Y-193714D02*
X1623571Y-203238D01*
X1623571Y-203238D02*
X1614048Y-212762D01*
X1614048Y-212762D02*
X1604524Y-203238D01*
X1604524Y-203238D02*
X1614048Y-193714D01*
X1614048Y-193714D02*
X1614048Y-212762D01*
D12*
X-155000Y-570000D02*
X-5000Y-720000D01*
X-5000Y-570000D02*
X-155000Y-720000D01*
D11*
X347381Y-737524D02*
X233095Y-737524D01*
X290238Y-737524D02*
X290238Y-537524D01*
X290238Y-537524D02*
X271190Y-566095D01*
X271190Y-566095D02*
X252143Y-585143D01*
X252143Y-585143D02*
X233095Y-594667D01*
X433095Y-718476D02*
X442619Y-728000D01*
X442619Y-728000D02*
X433095Y-737524D01*
X433095Y-737524D02*
X423571Y-728000D01*
X423571Y-728000D02*
X433095Y-718476D01*
X433095Y-718476D02*
X433095Y-737524D01*
X623571Y-537524D02*
X528333Y-537524D01*
X528333Y-537524D02*
X518809Y-632762D01*
X518809Y-632762D02*
X528333Y-623238D01*
X528333Y-623238D02*
X547381Y-613714D01*
X547381Y-613714D02*
X595000Y-613714D01*
X595000Y-613714D02*
X614048Y-623238D01*
X614048Y-623238D02*
X623571Y-632762D01*
X623571Y-632762D02*
X633095Y-651810D01*
X633095Y-651810D02*
X633095Y-699428D01*
X633095Y-699428D02*
X623571Y-718476D01*
X623571Y-718476D02*
X614048Y-728000D01*
X614048Y-728000D02*
X595000Y-737524D01*
X595000Y-737524D02*
X547381Y-737524D01*
X547381Y-737524D02*
X528333Y-728000D01*
X528333Y-728000D02*
X518809Y-718476D01*
X756905Y-537524D02*
X775952Y-537524D01*
X775952Y-537524D02*
X795000Y-547048D01*
X795000Y-547048D02*
X804524Y-556571D01*
X804524Y-556571D02*
X814048Y-575619D01*
X814048Y-575619D02*
X823571Y-613714D01*
X823571Y-613714D02*
X823571Y-661333D01*
X823571Y-661333D02*
X814048Y-699428D01*
X814048Y-699428D02*
X804524Y-718476D01*
X804524Y-718476D02*
X795000Y-728000D01*
X795000Y-728000D02*
X775952Y-737524D01*
X775952Y-737524D02*
X756905Y-737524D01*
X756905Y-737524D02*
X737857Y-728000D01*
X737857Y-728000D02*
X728333Y-718476D01*
X728333Y-718476D02*
X718809Y-699428D01*
X718809Y-699428D02*
X709286Y-661333D01*
X709286Y-661333D02*
X709286Y-613714D01*
X709286Y-613714D02*
X718809Y-575619D01*
X718809Y-575619D02*
X728333Y-556571D01*
X728333Y-556571D02*
X737857Y-547048D01*
X737857Y-547048D02*
X756905Y-537524D01*
X947381Y-537524D02*
X966429Y-537524D01*
X966429Y-537524D02*
X985476Y-547048D01*
X985476Y-547048D02*
X995000Y-556571D01*
X995000Y-556571D02*
X1004524Y-575619D01*
X1004524Y-575619D02*
X1014048Y-613714D01*
X1014048Y-613714D02*
X1014048Y-661333D01*
X1014048Y-661333D02*
X1004524Y-699428D01*
X1004524Y-699428D02*
X995000Y-718476D01*
X995000Y-718476D02*
X985476Y-728000D01*
X985476Y-728000D02*
X966429Y-737524D01*
X966429Y-737524D02*
X947381Y-737524D01*
X947381Y-737524D02*
X928333Y-728000D01*
X928333Y-728000D02*
X918809Y-718476D01*
X918809Y-718476D02*
X909286Y-699428D01*
X909286Y-699428D02*
X899762Y-661333D01*
X899762Y-661333D02*
X899762Y-613714D01*
X899762Y-613714D02*
X909286Y-575619D01*
X909286Y-575619D02*
X918809Y-556571D01*
X918809Y-556571D02*
X928333Y-547048D01*
X928333Y-547048D02*
X947381Y-537524D01*
X1099762Y-737524D02*
X1099762Y-604190D01*
X1099762Y-623238D02*
X1109286Y-613714D01*
X1109286Y-613714D02*
X1128333Y-604190D01*
X1128333Y-604190D02*
X1156905Y-604190D01*
X1156905Y-604190D02*
X1175952Y-613714D01*
X1175952Y-613714D02*
X1185476Y-632762D01*
X1185476Y-632762D02*
X1185476Y-737524D01*
X1185476Y-632762D02*
X1195000Y-613714D01*
X1195000Y-613714D02*
X1214048Y-604190D01*
X1214048Y-604190D02*
X1242619Y-604190D01*
X1242619Y-604190D02*
X1261667Y-613714D01*
X1261667Y-613714D02*
X1271191Y-632762D01*
X1271191Y-632762D02*
X1271191Y-737524D01*
X1366429Y-737524D02*
X1366429Y-604190D01*
X1366429Y-623238D02*
X1375952Y-613714D01*
X1375952Y-613714D02*
X1395000Y-604190D01*
X1395000Y-604190D02*
X1423571Y-604190D01*
X1423571Y-604190D02*
X1442619Y-613714D01*
X1442619Y-613714D02*
X1452143Y-632762D01*
X1452143Y-632762D02*
X1452143Y-737524D01*
X1452143Y-632762D02*
X1461667Y-613714D01*
X1461667Y-613714D02*
X1480714Y-604190D01*
X1480714Y-604190D02*
X1509286Y-604190D01*
X1509286Y-604190D02*
X1528333Y-613714D01*
X1528333Y-613714D02*
X1537857Y-632762D01*
X1537857Y-632762D02*
X1537857Y-737524D01*
X1928333Y-528000D02*
X1756905Y-785143D01*
X2185476Y-537524D02*
X2204524Y-537524D01*
X2204524Y-537524D02*
X2223572Y-547048D01*
X2223572Y-547048D02*
X2233095Y-556571D01*
X2233095Y-556571D02*
X2242619Y-575619D01*
X2242619Y-575619D02*
X2252143Y-613714D01*
X2252143Y-613714D02*
X2252143Y-661333D01*
X2252143Y-661333D02*
X2242619Y-699428D01*
X2242619Y-699428D02*
X2233095Y-718476D01*
X2233095Y-718476D02*
X2223572Y-728000D01*
X2223572Y-728000D02*
X2204524Y-737524D01*
X2204524Y-737524D02*
X2185476Y-737524D01*
X2185476Y-737524D02*
X2166429Y-728000D01*
X2166429Y-728000D02*
X2156905Y-718476D01*
X2156905Y-718476D02*
X2147381Y-699428D01*
X2147381Y-699428D02*
X2137857Y-661333D01*
X2137857Y-661333D02*
X2137857Y-613714D01*
X2137857Y-613714D02*
X2147381Y-575619D01*
X2147381Y-575619D02*
X2156905Y-556571D01*
X2156905Y-556571D02*
X2166429Y-547048D01*
X2166429Y-547048D02*
X2185476Y-537524D01*
X2337857Y-718476D02*
X2347381Y-728000D01*
X2347381Y-728000D02*
X2337857Y-737524D01*
X2337857Y-737524D02*
X2328334Y-728000D01*
X2328334Y-728000D02*
X2337857Y-718476D01*
X2337857Y-718476D02*
X2337857Y-737524D01*
X2471191Y-537524D02*
X2490238Y-537524D01*
X2490238Y-537524D02*
X2509286Y-547048D01*
X2509286Y-547048D02*
X2518810Y-556571D01*
X2518810Y-556571D02*
X2528334Y-575619D01*
X2528334Y-575619D02*
X2537857Y-613714D01*
X2537857Y-613714D02*
X2537857Y-661333D01*
X2537857Y-661333D02*
X2528334Y-699428D01*
X2528334Y-699428D02*
X2518810Y-718476D01*
X2518810Y-718476D02*
X2509286Y-728000D01*
X2509286Y-728000D02*
X2490238Y-737524D01*
X2490238Y-737524D02*
X2471191Y-737524D01*
X2471191Y-737524D02*
X2452143Y-728000D01*
X2452143Y-728000D02*
X2442619Y-718476D01*
X2442619Y-718476D02*
X2433095Y-699428D01*
X2433095Y-699428D02*
X2423572Y-661333D01*
X2423572Y-661333D02*
X2423572Y-613714D01*
X2423572Y-613714D02*
X2433095Y-575619D01*
X2433095Y-575619D02*
X2442619Y-556571D01*
X2442619Y-556571D02*
X2452143Y-547048D01*
X2452143Y-547048D02*
X2471191Y-537524D01*
X2718810Y-537524D02*
X2623572Y-537524D01*
X2623572Y-537524D02*
X2614048Y-632762D01*
X2614048Y-632762D02*
X2623572Y-623238D01*
X2623572Y-623238D02*
X2642619Y-613714D01*
X2642619Y-613714D02*
X2690238Y-613714D01*
X2690238Y-613714D02*
X2709286Y-623238D01*
X2709286Y-623238D02*
X2718810Y-632762D01*
X2718810Y-632762D02*
X2728334Y-651810D01*
X2728334Y-651810D02*
X2728334Y-699428D01*
X2728334Y-699428D02*
X2718810Y-718476D01*
X2718810Y-718476D02*
X2709286Y-728000D01*
X2709286Y-728000D02*
X2690238Y-737524D01*
X2690238Y-737524D02*
X2642619Y-737524D01*
X2642619Y-737524D02*
X2623572Y-728000D01*
X2623572Y-728000D02*
X2614048Y-718476D01*
X2823572Y-737524D02*
X2861667Y-737524D01*
X2861667Y-737524D02*
X2880714Y-728000D01*
X2880714Y-728000D02*
X2890238Y-718476D01*
X2890238Y-718476D02*
X2909286Y-689905D01*
X2909286Y-689905D02*
X2918810Y-651810D01*
X2918810Y-651810D02*
X2918810Y-575619D01*
X2918810Y-575619D02*
X2909286Y-556571D01*
X2909286Y-556571D02*
X2899762Y-547048D01*
X2899762Y-547048D02*
X2880714Y-537524D01*
X2880714Y-537524D02*
X2842619Y-537524D01*
X2842619Y-537524D02*
X2823572Y-547048D01*
X2823572Y-547048D02*
X2814048Y-556571D01*
X2814048Y-556571D02*
X2804524Y-575619D01*
X2804524Y-575619D02*
X2804524Y-623238D01*
X2804524Y-623238D02*
X2814048Y-642286D01*
X2814048Y-642286D02*
X2823572Y-651810D01*
X2823572Y-651810D02*
X2842619Y-661333D01*
X2842619Y-661333D02*
X2880714Y-661333D01*
X2880714Y-661333D02*
X2899762Y-651810D01*
X2899762Y-651810D02*
X2909286Y-642286D01*
X2909286Y-642286D02*
X2918810Y-623238D01*
X3109286Y-737524D02*
X2995000Y-737524D01*
X3052143Y-737524D02*
X3052143Y-537524D01*
X3052143Y-537524D02*
X3033095Y-566095D01*
X3033095Y-566095D02*
X3014048Y-585143D01*
X3014048Y-585143D02*
X2995000Y-594667D01*
X3185476Y-537524D02*
X3185476Y-575619D01*
X3261667Y-537524D02*
X3261667Y-575619D01*
X3556905Y-813714D02*
X3547381Y-804190D01*
X3547381Y-804190D02*
X3528334Y-775619D01*
X3528334Y-775619D02*
X3518810Y-756571D01*
X3518810Y-756571D02*
X3509286Y-728000D01*
X3509286Y-728000D02*
X3499762Y-680381D01*
X3499762Y-680381D02*
X3499762Y-642286D01*
X3499762Y-642286D02*
X3509286Y-594667D01*
X3509286Y-594667D02*
X3518810Y-566095D01*
X3518810Y-566095D02*
X3528334Y-547048D01*
X3528334Y-547048D02*
X3547381Y-518476D01*
X3547381Y-518476D02*
X3556905Y-508952D01*
X3623572Y-556571D02*
X3633095Y-547048D01*
X3633095Y-547048D02*
X3652143Y-537524D01*
X3652143Y-537524D02*
X3699762Y-537524D01*
X3699762Y-537524D02*
X3718810Y-547048D01*
X3718810Y-547048D02*
X3728334Y-556571D01*
X3728334Y-556571D02*
X3737857Y-575619D01*
X3737857Y-575619D02*
X3737857Y-594667D01*
X3737857Y-594667D02*
X3728334Y-623238D01*
X3728334Y-623238D02*
X3614048Y-737524D01*
X3614048Y-737524D02*
X3737857Y-737524D01*
X3975953Y-737524D02*
X3975953Y-537524D01*
X4061667Y-737524D02*
X4061667Y-632762D01*
X4061667Y-632762D02*
X4052143Y-613714D01*
X4052143Y-613714D02*
X4033096Y-604190D01*
X4033096Y-604190D02*
X4004524Y-604190D01*
X4004524Y-604190D02*
X3985476Y-613714D01*
X3985476Y-613714D02*
X3975953Y-623238D01*
X4185476Y-737524D02*
X4166429Y-728000D01*
X4166429Y-728000D02*
X4156905Y-718476D01*
X4156905Y-718476D02*
X4147381Y-699428D01*
X4147381Y-699428D02*
X4147381Y-642286D01*
X4147381Y-642286D02*
X4156905Y-623238D01*
X4156905Y-623238D02*
X4166429Y-613714D01*
X4166429Y-613714D02*
X4185476Y-604190D01*
X4185476Y-604190D02*
X4214048Y-604190D01*
X4214048Y-604190D02*
X4233096Y-613714D01*
X4233096Y-613714D02*
X4242619Y-623238D01*
X4242619Y-623238D02*
X4252143Y-642286D01*
X4252143Y-642286D02*
X4252143Y-699428D01*
X4252143Y-699428D02*
X4242619Y-718476D01*
X4242619Y-718476D02*
X4233096Y-728000D01*
X4233096Y-728000D02*
X4214048Y-737524D01*
X4214048Y-737524D02*
X4185476Y-737524D01*
X4366429Y-737524D02*
X4347381Y-728000D01*
X4347381Y-728000D02*
X4337858Y-708952D01*
X4337858Y-708952D02*
X4337858Y-537524D01*
X4518810Y-728000D02*
X4499762Y-737524D01*
X4499762Y-737524D02*
X4461667Y-737524D01*
X4461667Y-737524D02*
X4442619Y-728000D01*
X4442619Y-728000D02*
X4433096Y-708952D01*
X4433096Y-708952D02*
X4433096Y-632762D01*
X4433096Y-632762D02*
X4442619Y-613714D01*
X4442619Y-613714D02*
X4461667Y-604190D01*
X4461667Y-604190D02*
X4499762Y-604190D01*
X4499762Y-604190D02*
X4518810Y-613714D01*
X4518810Y-613714D02*
X4528334Y-632762D01*
X4528334Y-632762D02*
X4528334Y-651810D01*
X4528334Y-651810D02*
X4433096Y-670857D01*
X4604524Y-728000D02*
X4623572Y-737524D01*
X4623572Y-737524D02*
X4661667Y-737524D01*
X4661667Y-737524D02*
X4680715Y-728000D01*
X4680715Y-728000D02*
X4690239Y-708952D01*
X4690239Y-708952D02*
X4690239Y-699428D01*
X4690239Y-699428D02*
X4680715Y-680381D01*
X4680715Y-680381D02*
X4661667Y-670857D01*
X4661667Y-670857D02*
X4633096Y-670857D01*
X4633096Y-670857D02*
X4614048Y-661333D01*
X4614048Y-661333D02*
X4604524Y-642286D01*
X4604524Y-642286D02*
X4604524Y-632762D01*
X4604524Y-632762D02*
X4614048Y-613714D01*
X4614048Y-613714D02*
X4633096Y-604190D01*
X4633096Y-604190D02*
X4661667Y-604190D01*
X4661667Y-604190D02*
X4680715Y-613714D01*
X4756905Y-813714D02*
X4766429Y-804190D01*
X4766429Y-804190D02*
X4785477Y-775619D01*
X4785477Y-775619D02*
X4795000Y-756571D01*
X4795000Y-756571D02*
X4804524Y-728000D01*
X4804524Y-728000D02*
X4814048Y-680381D01*
X4814048Y-680381D02*
X4814048Y-642286D01*
X4814048Y-642286D02*
X4804524Y-594667D01*
X4804524Y-594667D02*
X4795000Y-566095D01*
X4795000Y-566095D02*
X4785477Y-547048D01*
X4785477Y-547048D02*
X4766429Y-518476D01*
X4766429Y-518476D02*
X4756905Y-508952D01*
X5118810Y-813714D02*
X5109286Y-804190D01*
X5109286Y-804190D02*
X5090239Y-775619D01*
X5090239Y-775619D02*
X5080715Y-756571D01*
X5080715Y-756571D02*
X5071191Y-728000D01*
X5071191Y-728000D02*
X5061667Y-680381D01*
X5061667Y-680381D02*
X5061667Y-642286D01*
X5061667Y-642286D02*
X5071191Y-594667D01*
X5071191Y-594667D02*
X5080715Y-566095D01*
X5080715Y-566095D02*
X5090239Y-547048D01*
X5090239Y-547048D02*
X5109286Y-518476D01*
X5109286Y-518476D02*
X5118810Y-508952D01*
X5195000Y-604190D02*
X5195000Y-737524D01*
X5195000Y-623238D02*
X5204524Y-613714D01*
X5204524Y-613714D02*
X5223572Y-604190D01*
X5223572Y-604190D02*
X5252143Y-604190D01*
X5252143Y-604190D02*
X5271191Y-613714D01*
X5271191Y-613714D02*
X5280715Y-632762D01*
X5280715Y-632762D02*
X5280715Y-737524D01*
X5404524Y-737524D02*
X5385477Y-728000D01*
X5385477Y-728000D02*
X5375953Y-718476D01*
X5375953Y-718476D02*
X5366429Y-699428D01*
X5366429Y-699428D02*
X5366429Y-642286D01*
X5366429Y-642286D02*
X5375953Y-623238D01*
X5375953Y-623238D02*
X5385477Y-613714D01*
X5385477Y-613714D02*
X5404524Y-604190D01*
X5404524Y-604190D02*
X5433096Y-604190D01*
X5433096Y-604190D02*
X5452143Y-613714D01*
X5452143Y-613714D02*
X5461667Y-623238D01*
X5461667Y-623238D02*
X5471191Y-642286D01*
X5471191Y-642286D02*
X5471191Y-699428D01*
X5471191Y-699428D02*
X5461667Y-718476D01*
X5461667Y-718476D02*
X5452143Y-728000D01*
X5452143Y-728000D02*
X5433096Y-737524D01*
X5433096Y-737524D02*
X5404524Y-737524D01*
X5528334Y-604190D02*
X5604524Y-604190D01*
X5556905Y-537524D02*
X5556905Y-708952D01*
X5556905Y-708952D02*
X5566429Y-728000D01*
X5566429Y-728000D02*
X5585477Y-737524D01*
X5585477Y-737524D02*
X5604524Y-737524D01*
X5823572Y-604190D02*
X5823572Y-804190D01*
X5823572Y-613714D02*
X5842619Y-604190D01*
X5842619Y-604190D02*
X5880715Y-604190D01*
X5880715Y-604190D02*
X5899762Y-613714D01*
X5899762Y-613714D02*
X5909286Y-623238D01*
X5909286Y-623238D02*
X5918810Y-642286D01*
X5918810Y-642286D02*
X5918810Y-699428D01*
X5918810Y-699428D02*
X5909286Y-718476D01*
X5909286Y-718476D02*
X5899762Y-728000D01*
X5899762Y-728000D02*
X5880715Y-737524D01*
X5880715Y-737524D02*
X5842619Y-737524D01*
X5842619Y-737524D02*
X5823572Y-728000D01*
X6033096Y-737524D02*
X6014048Y-728000D01*
X6014048Y-728000D02*
X6004524Y-708952D01*
X6004524Y-708952D02*
X6004524Y-537524D01*
X6195000Y-737524D02*
X6195000Y-632762D01*
X6195000Y-632762D02*
X6185477Y-613714D01*
X6185477Y-613714D02*
X6166429Y-604190D01*
X6166429Y-604190D02*
X6128334Y-604190D01*
X6128334Y-604190D02*
X6109286Y-613714D01*
X6195000Y-728000D02*
X6175953Y-737524D01*
X6175953Y-737524D02*
X6128334Y-737524D01*
X6128334Y-737524D02*
X6109286Y-728000D01*
X6109286Y-728000D02*
X6099762Y-708952D01*
X6099762Y-708952D02*
X6099762Y-689905D01*
X6099762Y-689905D02*
X6109286Y-670857D01*
X6109286Y-670857D02*
X6128334Y-661333D01*
X6128334Y-661333D02*
X6175953Y-661333D01*
X6175953Y-661333D02*
X6195000Y-651810D01*
X6261667Y-604190D02*
X6337858Y-604190D01*
X6290239Y-537524D02*
X6290239Y-708952D01*
X6290239Y-708952D02*
X6299762Y-728000D01*
X6299762Y-728000D02*
X6318810Y-737524D01*
X6318810Y-737524D02*
X6337858Y-737524D01*
X6480715Y-728000D02*
X6461667Y-737524D01*
X6461667Y-737524D02*
X6423572Y-737524D01*
X6423572Y-737524D02*
X6404524Y-728000D01*
X6404524Y-728000D02*
X6395000Y-708952D01*
X6395000Y-708952D02*
X6395000Y-632762D01*
X6395000Y-632762D02*
X6404524Y-613714D01*
X6404524Y-613714D02*
X6423572Y-604190D01*
X6423572Y-604190D02*
X6461667Y-604190D01*
X6461667Y-604190D02*
X6480715Y-613714D01*
X6480715Y-613714D02*
X6490239Y-632762D01*
X6490239Y-632762D02*
X6490239Y-651810D01*
X6490239Y-651810D02*
X6395000Y-670857D01*
X6661667Y-737524D02*
X6661667Y-537524D01*
X6661667Y-728000D02*
X6642620Y-737524D01*
X6642620Y-737524D02*
X6604524Y-737524D01*
X6604524Y-737524D02*
X6585477Y-728000D01*
X6585477Y-728000D02*
X6575953Y-718476D01*
X6575953Y-718476D02*
X6566429Y-699428D01*
X6566429Y-699428D02*
X6566429Y-642286D01*
X6566429Y-642286D02*
X6575953Y-623238D01*
X6575953Y-623238D02*
X6585477Y-613714D01*
X6585477Y-613714D02*
X6604524Y-604190D01*
X6604524Y-604190D02*
X6642620Y-604190D01*
X6642620Y-604190D02*
X6661667Y-613714D01*
X6737858Y-813714D02*
X6747381Y-804190D01*
X6747381Y-804190D02*
X6766429Y-775619D01*
X6766429Y-775619D02*
X6775953Y-756571D01*
X6775953Y-756571D02*
X6785477Y-728000D01*
X6785477Y-728000D02*
X6795000Y-680381D01*
X6795000Y-680381D02*
X6795000Y-642286D01*
X6795000Y-642286D02*
X6785477Y-594667D01*
X6785477Y-594667D02*
X6775953Y-566095D01*
X6775953Y-566095D02*
X6766429Y-547048D01*
X6766429Y-547048D02*
X6747381Y-518476D01*
X6747381Y-518476D02*
X6737858Y-508952D01*
D13*
X-5000Y-915000D02*
G75*
G03*
X-5000Y-915000I-90000J0D01*
G01*
D11*
X347381Y-1007524D02*
X233095Y-1007524D01*
X290238Y-1007524D02*
X290238Y-807524D01*
X290238Y-807524D02*
X271190Y-836095D01*
X271190Y-836095D02*
X252143Y-855143D01*
X252143Y-855143D02*
X233095Y-864667D01*
X433095Y-988476D02*
X442619Y-998000D01*
X442619Y-998000D02*
X433095Y-1007524D01*
X433095Y-1007524D02*
X423571Y-998000D01*
X423571Y-998000D02*
X433095Y-988476D01*
X433095Y-988476D02*
X433095Y-1007524D01*
X556905Y-893238D02*
X537857Y-883714D01*
X537857Y-883714D02*
X528333Y-874190D01*
X528333Y-874190D02*
X518809Y-855143D01*
X518809Y-855143D02*
X518809Y-845619D01*
X518809Y-845619D02*
X528333Y-826571D01*
X528333Y-826571D02*
X537857Y-817048D01*
X537857Y-817048D02*
X556905Y-807524D01*
X556905Y-807524D02*
X595000Y-807524D01*
X595000Y-807524D02*
X614048Y-817048D01*
X614048Y-817048D02*
X623571Y-826571D01*
X623571Y-826571D02*
X633095Y-845619D01*
X633095Y-845619D02*
X633095Y-855143D01*
X633095Y-855143D02*
X623571Y-874190D01*
X623571Y-874190D02*
X614048Y-883714D01*
X614048Y-883714D02*
X595000Y-893238D01*
X595000Y-893238D02*
X556905Y-893238D01*
X556905Y-893238D02*
X537857Y-902762D01*
X537857Y-902762D02*
X528333Y-912286D01*
X528333Y-912286D02*
X518809Y-931333D01*
X518809Y-931333D02*
X518809Y-969428D01*
X518809Y-969428D02*
X528333Y-988476D01*
X528333Y-988476D02*
X537857Y-998000D01*
X537857Y-998000D02*
X556905Y-1007524D01*
X556905Y-1007524D02*
X595000Y-1007524D01*
X595000Y-1007524D02*
X614048Y-998000D01*
X614048Y-998000D02*
X623571Y-988476D01*
X623571Y-988476D02*
X633095Y-969428D01*
X633095Y-969428D02*
X633095Y-931333D01*
X633095Y-931333D02*
X623571Y-912286D01*
X623571Y-912286D02*
X614048Y-902762D01*
X614048Y-902762D02*
X595000Y-893238D01*
X756905Y-807524D02*
X775952Y-807524D01*
X775952Y-807524D02*
X795000Y-817048D01*
X795000Y-817048D02*
X804524Y-826571D01*
X804524Y-826571D02*
X814048Y-845619D01*
X814048Y-845619D02*
X823571Y-883714D01*
X823571Y-883714D02*
X823571Y-931333D01*
X823571Y-931333D02*
X814048Y-969428D01*
X814048Y-969428D02*
X804524Y-988476D01*
X804524Y-988476D02*
X795000Y-998000D01*
X795000Y-998000D02*
X775952Y-1007524D01*
X775952Y-1007524D02*
X756905Y-1007524D01*
X756905Y-1007524D02*
X737857Y-998000D01*
X737857Y-998000D02*
X728333Y-988476D01*
X728333Y-988476D02*
X718809Y-969428D01*
X718809Y-969428D02*
X709286Y-931333D01*
X709286Y-931333D02*
X709286Y-883714D01*
X709286Y-883714D02*
X718809Y-845619D01*
X718809Y-845619D02*
X728333Y-826571D01*
X728333Y-826571D02*
X737857Y-817048D01*
X737857Y-817048D02*
X756905Y-807524D01*
X947381Y-807524D02*
X966429Y-807524D01*
X966429Y-807524D02*
X985476Y-817048D01*
X985476Y-817048D02*
X995000Y-826571D01*
X995000Y-826571D02*
X1004524Y-845619D01*
X1004524Y-845619D02*
X1014048Y-883714D01*
X1014048Y-883714D02*
X1014048Y-931333D01*
X1014048Y-931333D02*
X1004524Y-969428D01*
X1004524Y-969428D02*
X995000Y-988476D01*
X995000Y-988476D02*
X985476Y-998000D01*
X985476Y-998000D02*
X966429Y-1007524D01*
X966429Y-1007524D02*
X947381Y-1007524D01*
X947381Y-1007524D02*
X928333Y-998000D01*
X928333Y-998000D02*
X918809Y-988476D01*
X918809Y-988476D02*
X909286Y-969428D01*
X909286Y-969428D02*
X899762Y-931333D01*
X899762Y-931333D02*
X899762Y-883714D01*
X899762Y-883714D02*
X909286Y-845619D01*
X909286Y-845619D02*
X918809Y-826571D01*
X918809Y-826571D02*
X928333Y-817048D01*
X928333Y-817048D02*
X947381Y-807524D01*
X1099762Y-1007524D02*
X1099762Y-874190D01*
X1099762Y-893238D02*
X1109286Y-883714D01*
X1109286Y-883714D02*
X1128333Y-874190D01*
X1128333Y-874190D02*
X1156905Y-874190D01*
X1156905Y-874190D02*
X1175952Y-883714D01*
X1175952Y-883714D02*
X1185476Y-902762D01*
X1185476Y-902762D02*
X1185476Y-1007524D01*
X1185476Y-902762D02*
X1195000Y-883714D01*
X1195000Y-883714D02*
X1214048Y-874190D01*
X1214048Y-874190D02*
X1242619Y-874190D01*
X1242619Y-874190D02*
X1261667Y-883714D01*
X1261667Y-883714D02*
X1271191Y-902762D01*
X1271191Y-902762D02*
X1271191Y-1007524D01*
X1366429Y-1007524D02*
X1366429Y-874190D01*
X1366429Y-893238D02*
X1375952Y-883714D01*
X1375952Y-883714D02*
X1395000Y-874190D01*
X1395000Y-874190D02*
X1423571Y-874190D01*
X1423571Y-874190D02*
X1442619Y-883714D01*
X1442619Y-883714D02*
X1452143Y-902762D01*
X1452143Y-902762D02*
X1452143Y-1007524D01*
X1452143Y-902762D02*
X1461667Y-883714D01*
X1461667Y-883714D02*
X1480714Y-874190D01*
X1480714Y-874190D02*
X1509286Y-874190D01*
X1509286Y-874190D02*
X1528333Y-883714D01*
X1528333Y-883714D02*
X1537857Y-902762D01*
X1537857Y-902762D02*
X1537857Y-1007524D01*
X1928333Y-798000D02*
X1756905Y-1055143D01*
X2185476Y-807524D02*
X2204524Y-807524D01*
X2204524Y-807524D02*
X2223572Y-817048D01*
X2223572Y-817048D02*
X2233095Y-826571D01*
X2233095Y-826571D02*
X2242619Y-845619D01*
X2242619Y-845619D02*
X2252143Y-883714D01*
X2252143Y-883714D02*
X2252143Y-931333D01*
X2252143Y-931333D02*
X2242619Y-969428D01*
X2242619Y-969428D02*
X2233095Y-988476D01*
X2233095Y-988476D02*
X2223572Y-998000D01*
X2223572Y-998000D02*
X2204524Y-1007524D01*
X2204524Y-1007524D02*
X2185476Y-1007524D01*
X2185476Y-1007524D02*
X2166429Y-998000D01*
X2166429Y-998000D02*
X2156905Y-988476D01*
X2156905Y-988476D02*
X2147381Y-969428D01*
X2147381Y-969428D02*
X2137857Y-931333D01*
X2137857Y-931333D02*
X2137857Y-883714D01*
X2137857Y-883714D02*
X2147381Y-845619D01*
X2147381Y-845619D02*
X2156905Y-826571D01*
X2156905Y-826571D02*
X2166429Y-817048D01*
X2166429Y-817048D02*
X2185476Y-807524D01*
X2337857Y-988476D02*
X2347381Y-998000D01*
X2347381Y-998000D02*
X2337857Y-1007524D01*
X2337857Y-1007524D02*
X2328334Y-998000D01*
X2328334Y-998000D02*
X2337857Y-988476D01*
X2337857Y-988476D02*
X2337857Y-1007524D01*
X2471191Y-807524D02*
X2490238Y-807524D01*
X2490238Y-807524D02*
X2509286Y-817048D01*
X2509286Y-817048D02*
X2518810Y-826571D01*
X2518810Y-826571D02*
X2528334Y-845619D01*
X2528334Y-845619D02*
X2537857Y-883714D01*
X2537857Y-883714D02*
X2537857Y-931333D01*
X2537857Y-931333D02*
X2528334Y-969428D01*
X2528334Y-969428D02*
X2518810Y-988476D01*
X2518810Y-988476D02*
X2509286Y-998000D01*
X2509286Y-998000D02*
X2490238Y-1007524D01*
X2490238Y-1007524D02*
X2471191Y-1007524D01*
X2471191Y-1007524D02*
X2452143Y-998000D01*
X2452143Y-998000D02*
X2442619Y-988476D01*
X2442619Y-988476D02*
X2433095Y-969428D01*
X2433095Y-969428D02*
X2423572Y-931333D01*
X2423572Y-931333D02*
X2423572Y-883714D01*
X2423572Y-883714D02*
X2433095Y-845619D01*
X2433095Y-845619D02*
X2442619Y-826571D01*
X2442619Y-826571D02*
X2452143Y-817048D01*
X2452143Y-817048D02*
X2471191Y-807524D01*
X2604524Y-807524D02*
X2737857Y-807524D01*
X2737857Y-807524D02*
X2652143Y-1007524D01*
X2852143Y-807524D02*
X2871191Y-807524D01*
X2871191Y-807524D02*
X2890238Y-817048D01*
X2890238Y-817048D02*
X2899762Y-826571D01*
X2899762Y-826571D02*
X2909286Y-845619D01*
X2909286Y-845619D02*
X2918810Y-883714D01*
X2918810Y-883714D02*
X2918810Y-931333D01*
X2918810Y-931333D02*
X2909286Y-969428D01*
X2909286Y-969428D02*
X2899762Y-988476D01*
X2899762Y-988476D02*
X2890238Y-998000D01*
X2890238Y-998000D02*
X2871191Y-1007524D01*
X2871191Y-1007524D02*
X2852143Y-1007524D01*
X2852143Y-1007524D02*
X2833095Y-998000D01*
X2833095Y-998000D02*
X2823572Y-988476D01*
X2823572Y-988476D02*
X2814048Y-969428D01*
X2814048Y-969428D02*
X2804524Y-931333D01*
X2804524Y-931333D02*
X2804524Y-883714D01*
X2804524Y-883714D02*
X2814048Y-845619D01*
X2814048Y-845619D02*
X2823572Y-826571D01*
X2823572Y-826571D02*
X2833095Y-817048D01*
X2833095Y-817048D02*
X2852143Y-807524D01*
X3014048Y-1007524D02*
X3052143Y-1007524D01*
X3052143Y-1007524D02*
X3071191Y-998000D01*
X3071191Y-998000D02*
X3080714Y-988476D01*
X3080714Y-988476D02*
X3099762Y-959905D01*
X3099762Y-959905D02*
X3109286Y-921809D01*
X3109286Y-921809D02*
X3109286Y-845619D01*
X3109286Y-845619D02*
X3099762Y-826571D01*
X3099762Y-826571D02*
X3090238Y-817048D01*
X3090238Y-817048D02*
X3071191Y-807524D01*
X3071191Y-807524D02*
X3033095Y-807524D01*
X3033095Y-807524D02*
X3014048Y-817048D01*
X3014048Y-817048D02*
X3004524Y-826571D01*
X3004524Y-826571D02*
X2995000Y-845619D01*
X2995000Y-845619D02*
X2995000Y-893238D01*
X2995000Y-893238D02*
X3004524Y-912286D01*
X3004524Y-912286D02*
X3014048Y-921809D01*
X3014048Y-921809D02*
X3033095Y-931333D01*
X3033095Y-931333D02*
X3071191Y-931333D01*
X3071191Y-931333D02*
X3090238Y-921809D01*
X3090238Y-921809D02*
X3099762Y-912286D01*
X3099762Y-912286D02*
X3109286Y-893238D01*
X3185476Y-807524D02*
X3185476Y-845619D01*
X3261667Y-807524D02*
X3261667Y-845619D01*
X3556905Y-1083714D02*
X3547381Y-1074190D01*
X3547381Y-1074190D02*
X3528334Y-1045619D01*
X3528334Y-1045619D02*
X3518810Y-1026571D01*
X3518810Y-1026571D02*
X3509286Y-998000D01*
X3509286Y-998000D02*
X3499762Y-950381D01*
X3499762Y-950381D02*
X3499762Y-912286D01*
X3499762Y-912286D02*
X3509286Y-864667D01*
X3509286Y-864667D02*
X3518810Y-836095D01*
X3518810Y-836095D02*
X3528334Y-817048D01*
X3528334Y-817048D02*
X3547381Y-788476D01*
X3547381Y-788476D02*
X3556905Y-778952D01*
X3623572Y-826571D02*
X3633095Y-817048D01*
X3633095Y-817048D02*
X3652143Y-807524D01*
X3652143Y-807524D02*
X3699762Y-807524D01*
X3699762Y-807524D02*
X3718810Y-817048D01*
X3718810Y-817048D02*
X3728334Y-826571D01*
X3728334Y-826571D02*
X3737857Y-845619D01*
X3737857Y-845619D02*
X3737857Y-864667D01*
X3737857Y-864667D02*
X3728334Y-893238D01*
X3728334Y-893238D02*
X3614048Y-1007524D01*
X3614048Y-1007524D02*
X3737857Y-1007524D01*
X3975953Y-1007524D02*
X3975953Y-807524D01*
X4061667Y-1007524D02*
X4061667Y-902762D01*
X4061667Y-902762D02*
X4052143Y-883714D01*
X4052143Y-883714D02*
X4033096Y-874190D01*
X4033096Y-874190D02*
X4004524Y-874190D01*
X4004524Y-874190D02*
X3985476Y-883714D01*
X3985476Y-883714D02*
X3975953Y-893238D01*
X4185476Y-1007524D02*
X4166429Y-998000D01*
X4166429Y-998000D02*
X4156905Y-988476D01*
X4156905Y-988476D02*
X4147381Y-969428D01*
X4147381Y-969428D02*
X4147381Y-912286D01*
X4147381Y-912286D02*
X4156905Y-893238D01*
X4156905Y-893238D02*
X4166429Y-883714D01*
X4166429Y-883714D02*
X4185476Y-874190D01*
X4185476Y-874190D02*
X4214048Y-874190D01*
X4214048Y-874190D02*
X4233096Y-883714D01*
X4233096Y-883714D02*
X4242619Y-893238D01*
X4242619Y-893238D02*
X4252143Y-912286D01*
X4252143Y-912286D02*
X4252143Y-969428D01*
X4252143Y-969428D02*
X4242619Y-988476D01*
X4242619Y-988476D02*
X4233096Y-998000D01*
X4233096Y-998000D02*
X4214048Y-1007524D01*
X4214048Y-1007524D02*
X4185476Y-1007524D01*
X4366429Y-1007524D02*
X4347381Y-998000D01*
X4347381Y-998000D02*
X4337858Y-978952D01*
X4337858Y-978952D02*
X4337858Y-807524D01*
X4518810Y-998000D02*
X4499762Y-1007524D01*
X4499762Y-1007524D02*
X4461667Y-1007524D01*
X4461667Y-1007524D02*
X4442619Y-998000D01*
X4442619Y-998000D02*
X4433096Y-978952D01*
X4433096Y-978952D02*
X4433096Y-902762D01*
X4433096Y-902762D02*
X4442619Y-883714D01*
X4442619Y-883714D02*
X4461667Y-874190D01*
X4461667Y-874190D02*
X4499762Y-874190D01*
X4499762Y-874190D02*
X4518810Y-883714D01*
X4518810Y-883714D02*
X4528334Y-902762D01*
X4528334Y-902762D02*
X4528334Y-921809D01*
X4528334Y-921809D02*
X4433096Y-940857D01*
X4604524Y-998000D02*
X4623572Y-1007524D01*
X4623572Y-1007524D02*
X4661667Y-1007524D01*
X4661667Y-1007524D02*
X4680715Y-998000D01*
X4680715Y-998000D02*
X4690239Y-978952D01*
X4690239Y-978952D02*
X4690239Y-969428D01*
X4690239Y-969428D02*
X4680715Y-950381D01*
X4680715Y-950381D02*
X4661667Y-940857D01*
X4661667Y-940857D02*
X4633096Y-940857D01*
X4633096Y-940857D02*
X4614048Y-931333D01*
X4614048Y-931333D02*
X4604524Y-912286D01*
X4604524Y-912286D02*
X4604524Y-902762D01*
X4604524Y-902762D02*
X4614048Y-883714D01*
X4614048Y-883714D02*
X4633096Y-874190D01*
X4633096Y-874190D02*
X4661667Y-874190D01*
X4661667Y-874190D02*
X4680715Y-883714D01*
X4756905Y-1083714D02*
X4766429Y-1074190D01*
X4766429Y-1074190D02*
X4785477Y-1045619D01*
X4785477Y-1045619D02*
X4795000Y-1026571D01*
X4795000Y-1026571D02*
X4804524Y-998000D01*
X4804524Y-998000D02*
X4814048Y-950381D01*
X4814048Y-950381D02*
X4814048Y-912286D01*
X4814048Y-912286D02*
X4804524Y-864667D01*
X4804524Y-864667D02*
X4795000Y-836095D01*
X4795000Y-836095D02*
X4785477Y-817048D01*
X4785477Y-817048D02*
X4766429Y-788476D01*
X4766429Y-788476D02*
X4756905Y-778952D01*
X5118810Y-1083714D02*
X5109286Y-1074190D01*
X5109286Y-1074190D02*
X5090239Y-1045619D01*
X5090239Y-1045619D02*
X5080715Y-1026571D01*
X5080715Y-1026571D02*
X5071191Y-998000D01*
X5071191Y-998000D02*
X5061667Y-950381D01*
X5061667Y-950381D02*
X5061667Y-912286D01*
X5061667Y-912286D02*
X5071191Y-864667D01*
X5071191Y-864667D02*
X5080715Y-836095D01*
X5080715Y-836095D02*
X5090239Y-817048D01*
X5090239Y-817048D02*
X5109286Y-788476D01*
X5109286Y-788476D02*
X5118810Y-778952D01*
X5195000Y-874190D02*
X5195000Y-1007524D01*
X5195000Y-893238D02*
X5204524Y-883714D01*
X5204524Y-883714D02*
X5223572Y-874190D01*
X5223572Y-874190D02*
X5252143Y-874190D01*
X5252143Y-874190D02*
X5271191Y-883714D01*
X5271191Y-883714D02*
X5280715Y-902762D01*
X5280715Y-902762D02*
X5280715Y-1007524D01*
X5404524Y-1007524D02*
X5385477Y-998000D01*
X5385477Y-998000D02*
X5375953Y-988476D01*
X5375953Y-988476D02*
X5366429Y-969428D01*
X5366429Y-969428D02*
X5366429Y-912286D01*
X5366429Y-912286D02*
X5375953Y-893238D01*
X5375953Y-893238D02*
X5385477Y-883714D01*
X5385477Y-883714D02*
X5404524Y-874190D01*
X5404524Y-874190D02*
X5433096Y-874190D01*
X5433096Y-874190D02*
X5452143Y-883714D01*
X5452143Y-883714D02*
X5461667Y-893238D01*
X5461667Y-893238D02*
X5471191Y-912286D01*
X5471191Y-912286D02*
X5471191Y-969428D01*
X5471191Y-969428D02*
X5461667Y-988476D01*
X5461667Y-988476D02*
X5452143Y-998000D01*
X5452143Y-998000D02*
X5433096Y-1007524D01*
X5433096Y-1007524D02*
X5404524Y-1007524D01*
X5528334Y-874190D02*
X5604524Y-874190D01*
X5556905Y-807524D02*
X5556905Y-978952D01*
X5556905Y-978952D02*
X5566429Y-998000D01*
X5566429Y-998000D02*
X5585477Y-1007524D01*
X5585477Y-1007524D02*
X5604524Y-1007524D01*
X5823572Y-874190D02*
X5823572Y-1074190D01*
X5823572Y-883714D02*
X5842619Y-874190D01*
X5842619Y-874190D02*
X5880715Y-874190D01*
X5880715Y-874190D02*
X5899762Y-883714D01*
X5899762Y-883714D02*
X5909286Y-893238D01*
X5909286Y-893238D02*
X5918810Y-912286D01*
X5918810Y-912286D02*
X5918810Y-969428D01*
X5918810Y-969428D02*
X5909286Y-988476D01*
X5909286Y-988476D02*
X5899762Y-998000D01*
X5899762Y-998000D02*
X5880715Y-1007524D01*
X5880715Y-1007524D02*
X5842619Y-1007524D01*
X5842619Y-1007524D02*
X5823572Y-998000D01*
X6033096Y-1007524D02*
X6014048Y-998000D01*
X6014048Y-998000D02*
X6004524Y-978952D01*
X6004524Y-978952D02*
X6004524Y-807524D01*
X6195000Y-1007524D02*
X6195000Y-902762D01*
X6195000Y-902762D02*
X6185477Y-883714D01*
X6185477Y-883714D02*
X6166429Y-874190D01*
X6166429Y-874190D02*
X6128334Y-874190D01*
X6128334Y-874190D02*
X6109286Y-883714D01*
X6195000Y-998000D02*
X6175953Y-1007524D01*
X6175953Y-1007524D02*
X6128334Y-1007524D01*
X6128334Y-1007524D02*
X6109286Y-998000D01*
X6109286Y-998000D02*
X6099762Y-978952D01*
X6099762Y-978952D02*
X6099762Y-959905D01*
X6099762Y-959905D02*
X6109286Y-940857D01*
X6109286Y-940857D02*
X6128334Y-931333D01*
X6128334Y-931333D02*
X6175953Y-931333D01*
X6175953Y-931333D02*
X6195000Y-921809D01*
X6261667Y-874190D02*
X6337858Y-874190D01*
X6290239Y-807524D02*
X6290239Y-978952D01*
X6290239Y-978952D02*
X6299762Y-998000D01*
X6299762Y-998000D02*
X6318810Y-1007524D01*
X6318810Y-1007524D02*
X6337858Y-1007524D01*
X6480715Y-998000D02*
X6461667Y-1007524D01*
X6461667Y-1007524D02*
X6423572Y-1007524D01*
X6423572Y-1007524D02*
X6404524Y-998000D01*
X6404524Y-998000D02*
X6395000Y-978952D01*
X6395000Y-978952D02*
X6395000Y-902762D01*
X6395000Y-902762D02*
X6404524Y-883714D01*
X6404524Y-883714D02*
X6423572Y-874190D01*
X6423572Y-874190D02*
X6461667Y-874190D01*
X6461667Y-874190D02*
X6480715Y-883714D01*
X6480715Y-883714D02*
X6490239Y-902762D01*
X6490239Y-902762D02*
X6490239Y-921809D01*
X6490239Y-921809D02*
X6395000Y-940857D01*
X6661667Y-1007524D02*
X6661667Y-807524D01*
X6661667Y-998000D02*
X6642620Y-1007524D01*
X6642620Y-1007524D02*
X6604524Y-1007524D01*
X6604524Y-1007524D02*
X6585477Y-998000D01*
X6585477Y-998000D02*
X6575953Y-988476D01*
X6575953Y-988476D02*
X6566429Y-969428D01*
X6566429Y-969428D02*
X6566429Y-912286D01*
X6566429Y-912286D02*
X6575953Y-893238D01*
X6575953Y-893238D02*
X6585477Y-883714D01*
X6585477Y-883714D02*
X6604524Y-874190D01*
X6604524Y-874190D02*
X6642620Y-874190D01*
X6642620Y-874190D02*
X6661667Y-883714D01*
X6737858Y-1083714D02*
X6747381Y-1074190D01*
X6747381Y-1074190D02*
X6766429Y-1045619D01*
X6766429Y-1045619D02*
X6775953Y-1026571D01*
X6775953Y-1026571D02*
X6785477Y-998000D01*
X6785477Y-998000D02*
X6795000Y-950381D01*
X6795000Y-950381D02*
X6795000Y-912286D01*
X6795000Y-912286D02*
X6785477Y-864667D01*
X6785477Y-864667D02*
X6775953Y-836095D01*
X6775953Y-836095D02*
X6766429Y-817048D01*
X6766429Y-817048D02*
X6747381Y-788476D01*
X6747381Y-788476D02*
X6737858Y-778952D01*
X-105000Y-1115000D02*
X-105000Y-1315000D01*
X-205000Y-1215000D02*
X-5000Y-1215000D01*
X223571Y-1107524D02*
X347381Y-1107524D01*
X347381Y-1107524D02*
X280714Y-1183714D01*
X280714Y-1183714D02*
X309286Y-1183714D01*
X309286Y-1183714D02*
X328333Y-1193238D01*
X328333Y-1193238D02*
X337857Y-1202762D01*
X337857Y-1202762D02*
X347381Y-1221810D01*
X347381Y-1221810D02*
X347381Y-1269429D01*
X347381Y-1269429D02*
X337857Y-1288476D01*
X337857Y-1288476D02*
X328333Y-1298000D01*
X328333Y-1298000D02*
X309286Y-1307524D01*
X309286Y-1307524D02*
X252143Y-1307524D01*
X252143Y-1307524D02*
X233095Y-1298000D01*
X233095Y-1298000D02*
X223571Y-1288476D01*
X433095Y-1288476D02*
X442619Y-1298000D01*
X442619Y-1298000D02*
X433095Y-1307524D01*
X433095Y-1307524D02*
X423571Y-1298000D01*
X423571Y-1298000D02*
X433095Y-1288476D01*
X433095Y-1288476D02*
X433095Y-1307524D01*
X518809Y-1126571D02*
X528333Y-1117048D01*
X528333Y-1117048D02*
X547381Y-1107524D01*
X547381Y-1107524D02*
X595000Y-1107524D01*
X595000Y-1107524D02*
X614048Y-1117048D01*
X614048Y-1117048D02*
X623571Y-1126571D01*
X623571Y-1126571D02*
X633095Y-1145619D01*
X633095Y-1145619D02*
X633095Y-1164667D01*
X633095Y-1164667D02*
X623571Y-1193238D01*
X623571Y-1193238D02*
X509286Y-1307524D01*
X509286Y-1307524D02*
X633095Y-1307524D01*
X756905Y-1107524D02*
X775952Y-1107524D01*
X775952Y-1107524D02*
X795000Y-1117048D01*
X795000Y-1117048D02*
X804524Y-1126571D01*
X804524Y-1126571D02*
X814048Y-1145619D01*
X814048Y-1145619D02*
X823571Y-1183714D01*
X823571Y-1183714D02*
X823571Y-1231333D01*
X823571Y-1231333D02*
X814048Y-1269429D01*
X814048Y-1269429D02*
X804524Y-1288476D01*
X804524Y-1288476D02*
X795000Y-1298000D01*
X795000Y-1298000D02*
X775952Y-1307524D01*
X775952Y-1307524D02*
X756905Y-1307524D01*
X756905Y-1307524D02*
X737857Y-1298000D01*
X737857Y-1298000D02*
X728333Y-1288476D01*
X728333Y-1288476D02*
X718809Y-1269429D01*
X718809Y-1269429D02*
X709286Y-1231333D01*
X709286Y-1231333D02*
X709286Y-1183714D01*
X709286Y-1183714D02*
X718809Y-1145619D01*
X718809Y-1145619D02*
X728333Y-1126571D01*
X728333Y-1126571D02*
X737857Y-1117048D01*
X737857Y-1117048D02*
X756905Y-1107524D01*
X947381Y-1107524D02*
X966429Y-1107524D01*
X966429Y-1107524D02*
X985476Y-1117048D01*
X985476Y-1117048D02*
X995000Y-1126571D01*
X995000Y-1126571D02*
X1004524Y-1145619D01*
X1004524Y-1145619D02*
X1014048Y-1183714D01*
X1014048Y-1183714D02*
X1014048Y-1231333D01*
X1014048Y-1231333D02*
X1004524Y-1269429D01*
X1004524Y-1269429D02*
X995000Y-1288476D01*
X995000Y-1288476D02*
X985476Y-1298000D01*
X985476Y-1298000D02*
X966429Y-1307524D01*
X966429Y-1307524D02*
X947381Y-1307524D01*
X947381Y-1307524D02*
X928333Y-1298000D01*
X928333Y-1298000D02*
X918809Y-1288476D01*
X918809Y-1288476D02*
X909286Y-1269429D01*
X909286Y-1269429D02*
X899762Y-1231333D01*
X899762Y-1231333D02*
X899762Y-1183714D01*
X899762Y-1183714D02*
X909286Y-1145619D01*
X909286Y-1145619D02*
X918809Y-1126571D01*
X918809Y-1126571D02*
X928333Y-1117048D01*
X928333Y-1117048D02*
X947381Y-1107524D01*
X1099762Y-1307524D02*
X1099762Y-1174190D01*
X1099762Y-1193238D02*
X1109286Y-1183714D01*
X1109286Y-1183714D02*
X1128333Y-1174190D01*
X1128333Y-1174190D02*
X1156905Y-1174190D01*
X1156905Y-1174190D02*
X1175952Y-1183714D01*
X1175952Y-1183714D02*
X1185476Y-1202762D01*
X1185476Y-1202762D02*
X1185476Y-1307524D01*
X1185476Y-1202762D02*
X1195000Y-1183714D01*
X1195000Y-1183714D02*
X1214048Y-1174190D01*
X1214048Y-1174190D02*
X1242619Y-1174190D01*
X1242619Y-1174190D02*
X1261667Y-1183714D01*
X1261667Y-1183714D02*
X1271191Y-1202762D01*
X1271191Y-1202762D02*
X1271191Y-1307524D01*
X1366429Y-1307524D02*
X1366429Y-1174190D01*
X1366429Y-1193238D02*
X1375952Y-1183714D01*
X1375952Y-1183714D02*
X1395000Y-1174190D01*
X1395000Y-1174190D02*
X1423571Y-1174190D01*
X1423571Y-1174190D02*
X1442619Y-1183714D01*
X1442619Y-1183714D02*
X1452143Y-1202762D01*
X1452143Y-1202762D02*
X1452143Y-1307524D01*
X1452143Y-1202762D02*
X1461667Y-1183714D01*
X1461667Y-1183714D02*
X1480714Y-1174190D01*
X1480714Y-1174190D02*
X1509286Y-1174190D01*
X1509286Y-1174190D02*
X1528333Y-1183714D01*
X1528333Y-1183714D02*
X1537857Y-1202762D01*
X1537857Y-1202762D02*
X1537857Y-1307524D01*
X1928333Y-1098000D02*
X1756905Y-1355143D01*
X2185476Y-1107524D02*
X2204524Y-1107524D01*
X2204524Y-1107524D02*
X2223572Y-1117048D01*
X2223572Y-1117048D02*
X2233095Y-1126571D01*
X2233095Y-1126571D02*
X2242619Y-1145619D01*
X2242619Y-1145619D02*
X2252143Y-1183714D01*
X2252143Y-1183714D02*
X2252143Y-1231333D01*
X2252143Y-1231333D02*
X2242619Y-1269429D01*
X2242619Y-1269429D02*
X2233095Y-1288476D01*
X2233095Y-1288476D02*
X2223572Y-1298000D01*
X2223572Y-1298000D02*
X2204524Y-1307524D01*
X2204524Y-1307524D02*
X2185476Y-1307524D01*
X2185476Y-1307524D02*
X2166429Y-1298000D01*
X2166429Y-1298000D02*
X2156905Y-1288476D01*
X2156905Y-1288476D02*
X2147381Y-1269429D01*
X2147381Y-1269429D02*
X2137857Y-1231333D01*
X2137857Y-1231333D02*
X2137857Y-1183714D01*
X2137857Y-1183714D02*
X2147381Y-1145619D01*
X2147381Y-1145619D02*
X2156905Y-1126571D01*
X2156905Y-1126571D02*
X2166429Y-1117048D01*
X2166429Y-1117048D02*
X2185476Y-1107524D01*
X2337857Y-1288476D02*
X2347381Y-1298000D01*
X2347381Y-1298000D02*
X2337857Y-1307524D01*
X2337857Y-1307524D02*
X2328334Y-1298000D01*
X2328334Y-1298000D02*
X2337857Y-1288476D01*
X2337857Y-1288476D02*
X2337857Y-1307524D01*
X2537857Y-1307524D02*
X2423572Y-1307524D01*
X2480714Y-1307524D02*
X2480714Y-1107524D01*
X2480714Y-1107524D02*
X2461667Y-1136095D01*
X2461667Y-1136095D02*
X2442619Y-1155143D01*
X2442619Y-1155143D02*
X2423572Y-1164667D01*
X2614048Y-1126571D02*
X2623572Y-1117048D01*
X2623572Y-1117048D02*
X2642619Y-1107524D01*
X2642619Y-1107524D02*
X2690238Y-1107524D01*
X2690238Y-1107524D02*
X2709286Y-1117048D01*
X2709286Y-1117048D02*
X2718810Y-1126571D01*
X2718810Y-1126571D02*
X2728334Y-1145619D01*
X2728334Y-1145619D02*
X2728334Y-1164667D01*
X2728334Y-1164667D02*
X2718810Y-1193238D01*
X2718810Y-1193238D02*
X2604524Y-1307524D01*
X2604524Y-1307524D02*
X2728334Y-1307524D01*
X2899762Y-1107524D02*
X2861667Y-1107524D01*
X2861667Y-1107524D02*
X2842619Y-1117048D01*
X2842619Y-1117048D02*
X2833095Y-1126571D01*
X2833095Y-1126571D02*
X2814048Y-1155143D01*
X2814048Y-1155143D02*
X2804524Y-1193238D01*
X2804524Y-1193238D02*
X2804524Y-1269429D01*
X2804524Y-1269429D02*
X2814048Y-1288476D01*
X2814048Y-1288476D02*
X2823572Y-1298000D01*
X2823572Y-1298000D02*
X2842619Y-1307524D01*
X2842619Y-1307524D02*
X2880714Y-1307524D01*
X2880714Y-1307524D02*
X2899762Y-1298000D01*
X2899762Y-1298000D02*
X2909286Y-1288476D01*
X2909286Y-1288476D02*
X2918810Y-1269429D01*
X2918810Y-1269429D02*
X2918810Y-1221810D01*
X2918810Y-1221810D02*
X2909286Y-1202762D01*
X2909286Y-1202762D02*
X2899762Y-1193238D01*
X2899762Y-1193238D02*
X2880714Y-1183714D01*
X2880714Y-1183714D02*
X2842619Y-1183714D01*
X2842619Y-1183714D02*
X2823572Y-1193238D01*
X2823572Y-1193238D02*
X2814048Y-1202762D01*
X2814048Y-1202762D02*
X2804524Y-1221810D01*
X3042619Y-1107524D02*
X3061667Y-1107524D01*
X3061667Y-1107524D02*
X3080714Y-1117048D01*
X3080714Y-1117048D02*
X3090238Y-1126571D01*
X3090238Y-1126571D02*
X3099762Y-1145619D01*
X3099762Y-1145619D02*
X3109286Y-1183714D01*
X3109286Y-1183714D02*
X3109286Y-1231333D01*
X3109286Y-1231333D02*
X3099762Y-1269429D01*
X3099762Y-1269429D02*
X3090238Y-1288476D01*
X3090238Y-1288476D02*
X3080714Y-1298000D01*
X3080714Y-1298000D02*
X3061667Y-1307524D01*
X3061667Y-1307524D02*
X3042619Y-1307524D01*
X3042619Y-1307524D02*
X3023572Y-1298000D01*
X3023572Y-1298000D02*
X3014048Y-1288476D01*
X3014048Y-1288476D02*
X3004524Y-1269429D01*
X3004524Y-1269429D02*
X2995000Y-1231333D01*
X2995000Y-1231333D02*
X2995000Y-1183714D01*
X2995000Y-1183714D02*
X3004524Y-1145619D01*
X3004524Y-1145619D02*
X3014048Y-1126571D01*
X3014048Y-1126571D02*
X3023572Y-1117048D01*
X3023572Y-1117048D02*
X3042619Y-1107524D01*
X3185476Y-1107524D02*
X3185476Y-1145619D01*
X3261667Y-1107524D02*
X3261667Y-1145619D01*
X3556905Y-1383714D02*
X3547381Y-1374190D01*
X3547381Y-1374190D02*
X3528334Y-1345619D01*
X3528334Y-1345619D02*
X3518810Y-1326571D01*
X3518810Y-1326571D02*
X3509286Y-1298000D01*
X3509286Y-1298000D02*
X3499762Y-1250381D01*
X3499762Y-1250381D02*
X3499762Y-1212286D01*
X3499762Y-1212286D02*
X3509286Y-1164667D01*
X3509286Y-1164667D02*
X3518810Y-1136095D01*
X3518810Y-1136095D02*
X3528334Y-1117048D01*
X3528334Y-1117048D02*
X3547381Y-1088476D01*
X3547381Y-1088476D02*
X3556905Y-1078952D01*
X3718810Y-1174190D02*
X3718810Y-1307524D01*
X3671191Y-1098000D02*
X3623572Y-1240857D01*
X3623572Y-1240857D02*
X3747381Y-1240857D01*
X3975953Y-1307524D02*
X3975953Y-1107524D01*
X4061667Y-1307524D02*
X4061667Y-1202762D01*
X4061667Y-1202762D02*
X4052143Y-1183714D01*
X4052143Y-1183714D02*
X4033096Y-1174190D01*
X4033096Y-1174190D02*
X4004524Y-1174190D01*
X4004524Y-1174190D02*
X3985476Y-1183714D01*
X3985476Y-1183714D02*
X3975953Y-1193238D01*
X4185476Y-1307524D02*
X4166429Y-1298000D01*
X4166429Y-1298000D02*
X4156905Y-1288476D01*
X4156905Y-1288476D02*
X4147381Y-1269429D01*
X4147381Y-1269429D02*
X4147381Y-1212286D01*
X4147381Y-1212286D02*
X4156905Y-1193238D01*
X4156905Y-1193238D02*
X4166429Y-1183714D01*
X4166429Y-1183714D02*
X4185476Y-1174190D01*
X4185476Y-1174190D02*
X4214048Y-1174190D01*
X4214048Y-1174190D02*
X4233096Y-1183714D01*
X4233096Y-1183714D02*
X4242619Y-1193238D01*
X4242619Y-1193238D02*
X4252143Y-1212286D01*
X4252143Y-1212286D02*
X4252143Y-1269429D01*
X4252143Y-1269429D02*
X4242619Y-1288476D01*
X4242619Y-1288476D02*
X4233096Y-1298000D01*
X4233096Y-1298000D02*
X4214048Y-1307524D01*
X4214048Y-1307524D02*
X4185476Y-1307524D01*
X4366429Y-1307524D02*
X4347381Y-1298000D01*
X4347381Y-1298000D02*
X4337858Y-1278952D01*
X4337858Y-1278952D02*
X4337858Y-1107524D01*
X4518810Y-1298000D02*
X4499762Y-1307524D01*
X4499762Y-1307524D02*
X4461667Y-1307524D01*
X4461667Y-1307524D02*
X4442619Y-1298000D01*
X4442619Y-1298000D02*
X4433096Y-1278952D01*
X4433096Y-1278952D02*
X4433096Y-1202762D01*
X4433096Y-1202762D02*
X4442619Y-1183714D01*
X4442619Y-1183714D02*
X4461667Y-1174190D01*
X4461667Y-1174190D02*
X4499762Y-1174190D01*
X4499762Y-1174190D02*
X4518810Y-1183714D01*
X4518810Y-1183714D02*
X4528334Y-1202762D01*
X4528334Y-1202762D02*
X4528334Y-1221810D01*
X4528334Y-1221810D02*
X4433096Y-1240857D01*
X4604524Y-1298000D02*
X4623572Y-1307524D01*
X4623572Y-1307524D02*
X4661667Y-1307524D01*
X4661667Y-1307524D02*
X4680715Y-1298000D01*
X4680715Y-1298000D02*
X4690239Y-1278952D01*
X4690239Y-1278952D02*
X4690239Y-1269429D01*
X4690239Y-1269429D02*
X4680715Y-1250381D01*
X4680715Y-1250381D02*
X4661667Y-1240857D01*
X4661667Y-1240857D02*
X4633096Y-1240857D01*
X4633096Y-1240857D02*
X4614048Y-1231333D01*
X4614048Y-1231333D02*
X4604524Y-1212286D01*
X4604524Y-1212286D02*
X4604524Y-1202762D01*
X4604524Y-1202762D02*
X4614048Y-1183714D01*
X4614048Y-1183714D02*
X4633096Y-1174190D01*
X4633096Y-1174190D02*
X4661667Y-1174190D01*
X4661667Y-1174190D02*
X4680715Y-1183714D01*
X4756905Y-1383714D02*
X4766429Y-1374190D01*
X4766429Y-1374190D02*
X4785477Y-1345619D01*
X4785477Y-1345619D02*
X4795000Y-1326571D01*
X4795000Y-1326571D02*
X4804524Y-1298000D01*
X4804524Y-1298000D02*
X4814048Y-1250381D01*
X4814048Y-1250381D02*
X4814048Y-1212286D01*
X4814048Y-1212286D02*
X4804524Y-1164667D01*
X4804524Y-1164667D02*
X4795000Y-1136095D01*
X4795000Y-1136095D02*
X4785477Y-1117048D01*
X4785477Y-1117048D02*
X4766429Y-1088476D01*
X4766429Y-1088476D02*
X4756905Y-1078952D01*
X5118810Y-1383714D02*
X5109286Y-1374190D01*
X5109286Y-1374190D02*
X5090239Y-1345619D01*
X5090239Y-1345619D02*
X5080715Y-1326571D01*
X5080715Y-1326571D02*
X5071191Y-1298000D01*
X5071191Y-1298000D02*
X5061667Y-1250381D01*
X5061667Y-1250381D02*
X5061667Y-1212286D01*
X5061667Y-1212286D02*
X5071191Y-1164667D01*
X5071191Y-1164667D02*
X5080715Y-1136095D01*
X5080715Y-1136095D02*
X5090239Y-1117048D01*
X5090239Y-1117048D02*
X5109286Y-1088476D01*
X5109286Y-1088476D02*
X5118810Y-1078952D01*
X5195000Y-1174190D02*
X5195000Y-1307524D01*
X5195000Y-1193238D02*
X5204524Y-1183714D01*
X5204524Y-1183714D02*
X5223572Y-1174190D01*
X5223572Y-1174190D02*
X5252143Y-1174190D01*
X5252143Y-1174190D02*
X5271191Y-1183714D01*
X5271191Y-1183714D02*
X5280715Y-1202762D01*
X5280715Y-1202762D02*
X5280715Y-1307524D01*
X5404524Y-1307524D02*
X5385477Y-1298000D01*
X5385477Y-1298000D02*
X5375953Y-1288476D01*
X5375953Y-1288476D02*
X5366429Y-1269429D01*
X5366429Y-1269429D02*
X5366429Y-1212286D01*
X5366429Y-1212286D02*
X5375953Y-1193238D01*
X5375953Y-1193238D02*
X5385477Y-1183714D01*
X5385477Y-1183714D02*
X5404524Y-1174190D01*
X5404524Y-1174190D02*
X5433096Y-1174190D01*
X5433096Y-1174190D02*
X5452143Y-1183714D01*
X5452143Y-1183714D02*
X5461667Y-1193238D01*
X5461667Y-1193238D02*
X5471191Y-1212286D01*
X5471191Y-1212286D02*
X5471191Y-1269429D01*
X5471191Y-1269429D02*
X5461667Y-1288476D01*
X5461667Y-1288476D02*
X5452143Y-1298000D01*
X5452143Y-1298000D02*
X5433096Y-1307524D01*
X5433096Y-1307524D02*
X5404524Y-1307524D01*
X5528334Y-1174190D02*
X5604524Y-1174190D01*
X5556905Y-1107524D02*
X5556905Y-1278952D01*
X5556905Y-1278952D02*
X5566429Y-1298000D01*
X5566429Y-1298000D02*
X5585477Y-1307524D01*
X5585477Y-1307524D02*
X5604524Y-1307524D01*
X5823572Y-1174190D02*
X5823572Y-1374190D01*
X5823572Y-1183714D02*
X5842619Y-1174190D01*
X5842619Y-1174190D02*
X5880715Y-1174190D01*
X5880715Y-1174190D02*
X5899762Y-1183714D01*
X5899762Y-1183714D02*
X5909286Y-1193238D01*
X5909286Y-1193238D02*
X5918810Y-1212286D01*
X5918810Y-1212286D02*
X5918810Y-1269429D01*
X5918810Y-1269429D02*
X5909286Y-1288476D01*
X5909286Y-1288476D02*
X5899762Y-1298000D01*
X5899762Y-1298000D02*
X5880715Y-1307524D01*
X5880715Y-1307524D02*
X5842619Y-1307524D01*
X5842619Y-1307524D02*
X5823572Y-1298000D01*
X6033096Y-1307524D02*
X6014048Y-1298000D01*
X6014048Y-1298000D02*
X6004524Y-1278952D01*
X6004524Y-1278952D02*
X6004524Y-1107524D01*
X6195000Y-1307524D02*
X6195000Y-1202762D01*
X6195000Y-1202762D02*
X6185477Y-1183714D01*
X6185477Y-1183714D02*
X6166429Y-1174190D01*
X6166429Y-1174190D02*
X6128334Y-1174190D01*
X6128334Y-1174190D02*
X6109286Y-1183714D01*
X6195000Y-1298000D02*
X6175953Y-1307524D01*
X6175953Y-1307524D02*
X6128334Y-1307524D01*
X6128334Y-1307524D02*
X6109286Y-1298000D01*
X6109286Y-1298000D02*
X6099762Y-1278952D01*
X6099762Y-1278952D02*
X6099762Y-1259905D01*
X6099762Y-1259905D02*
X6109286Y-1240857D01*
X6109286Y-1240857D02*
X6128334Y-1231333D01*
X6128334Y-1231333D02*
X6175953Y-1231333D01*
X6175953Y-1231333D02*
X6195000Y-1221810D01*
X6261667Y-1174190D02*
X6337858Y-1174190D01*
X6290239Y-1107524D02*
X6290239Y-1278952D01*
X6290239Y-1278952D02*
X6299762Y-1298000D01*
X6299762Y-1298000D02*
X6318810Y-1307524D01*
X6318810Y-1307524D02*
X6337858Y-1307524D01*
X6480715Y-1298000D02*
X6461667Y-1307524D01*
X6461667Y-1307524D02*
X6423572Y-1307524D01*
X6423572Y-1307524D02*
X6404524Y-1298000D01*
X6404524Y-1298000D02*
X6395000Y-1278952D01*
X6395000Y-1278952D02*
X6395000Y-1202762D01*
X6395000Y-1202762D02*
X6404524Y-1183714D01*
X6404524Y-1183714D02*
X6423572Y-1174190D01*
X6423572Y-1174190D02*
X6461667Y-1174190D01*
X6461667Y-1174190D02*
X6480715Y-1183714D01*
X6480715Y-1183714D02*
X6490239Y-1202762D01*
X6490239Y-1202762D02*
X6490239Y-1221810D01*
X6490239Y-1221810D02*
X6395000Y-1240857D01*
X6661667Y-1307524D02*
X6661667Y-1107524D01*
X6661667Y-1298000D02*
X6642620Y-1307524D01*
X6642620Y-1307524D02*
X6604524Y-1307524D01*
X6604524Y-1307524D02*
X6585477Y-1298000D01*
X6585477Y-1298000D02*
X6575953Y-1288476D01*
X6575953Y-1288476D02*
X6566429Y-1269429D01*
X6566429Y-1269429D02*
X6566429Y-1212286D01*
X6566429Y-1212286D02*
X6575953Y-1193238D01*
X6575953Y-1193238D02*
X6585477Y-1183714D01*
X6585477Y-1183714D02*
X6604524Y-1174190D01*
X6604524Y-1174190D02*
X6642620Y-1174190D01*
X6642620Y-1174190D02*
X6661667Y-1183714D01*
X6737858Y-1383714D02*
X6747381Y-1374190D01*
X6747381Y-1374190D02*
X6766429Y-1345619D01*
X6766429Y-1345619D02*
X6775953Y-1326571D01*
X6775953Y-1326571D02*
X6785477Y-1298000D01*
X6785477Y-1298000D02*
X6795000Y-1250381D01*
X6795000Y-1250381D02*
X6795000Y-1212286D01*
X6795000Y-1212286D02*
X6785477Y-1164667D01*
X6785477Y-1164667D02*
X6775953Y-1136095D01*
X6775953Y-1136095D02*
X6766429Y-1117048D01*
X6766429Y-1117048D02*
X6747381Y-1088476D01*
X6747381Y-1088476D02*
X6737858Y-1078952D01*
M02*
