%TF.GenerationSoftware,KiCad,Pcbnew,7.0.1*%
%TF.CreationDate,2023-04-12T13:53:51+09:00*%
%TF.ProjectId,KiCad,4b694361-642e-46b6-9963-61645f706362,rev?*%
%TF.SameCoordinates,PX7270e00PY8b3c880*%
%TF.FileFunction,Drillmap*%
%TF.FilePolarity,Positive*%
%FSLAX45Y45*%
G04 Gerber Fmt 4.5, Leading zero omitted, Abs format (unit mm)*
G04 Created by KiCad (PCBNEW 7.0.1) date 2023-04-12 13:53:51*
%MOMM*%
%LPD*%
G01*
G04 APERTURE LIST*
%ADD10C,0.100000*%
%ADD11C,0.200000*%
%ADD12C,0.040000*%
%ADD13C,0.080000*%
%ADD14C,0.102000*%
%ADD15C,0.150000*%
G04 APERTURE END LIST*
D10*
X0Y8600000D02*
X5000000Y8600000D01*
X5000000Y0D01*
X0Y0D01*
X0Y8600000D01*
D11*
D12*
X157500Y3172500D02*
X197500Y3132500D01*
X197500Y3172500D02*
X157500Y3132500D01*
X340000Y2665000D02*
X380000Y2625000D01*
X380000Y2665000D02*
X340000Y2625000D01*
X755000Y2395000D02*
X795000Y2355000D01*
X795000Y2395000D02*
X755000Y2355000D01*
X922500Y1077500D02*
X962500Y1037500D01*
X962500Y1077500D02*
X922500Y1037500D01*
X922500Y560000D02*
X962500Y520000D01*
X962500Y560000D02*
X922500Y520000D01*
X1405000Y2285000D02*
X1445000Y2245000D01*
X1445000Y2285000D02*
X1405000Y2245000D01*
X1517500Y3210000D02*
X1557500Y3170000D01*
X1557500Y3210000D02*
X1517500Y3170000D01*
X1600000Y3122500D02*
X1640000Y3082500D01*
X1640000Y3122500D02*
X1600000Y3082500D01*
X1792500Y2997500D02*
X1832500Y2957500D01*
X1832500Y2997500D02*
X1792500Y2957500D01*
X1875000Y1800000D02*
X1915000Y1760000D01*
X1915000Y1800000D02*
X1875000Y1760000D01*
X1945000Y1500000D02*
X1985000Y1460000D01*
X1985000Y1500000D02*
X1945000Y1460000D01*
X2127500Y2282500D02*
X2167500Y2242500D01*
X2167500Y2282500D02*
X2127500Y2242500D01*
X2225000Y3210000D02*
X2265000Y3170000D01*
X2265000Y3210000D02*
X2225000Y3170000D01*
X2227500Y2395000D02*
X2267500Y2355000D01*
X2267500Y2395000D02*
X2227500Y2355000D01*
X2352500Y4852500D02*
X2392500Y4812500D01*
X2392500Y4852500D02*
X2352500Y4812500D01*
X2480000Y3000000D02*
X2520000Y2960000D01*
X2520000Y3000000D02*
X2480000Y2960000D01*
X2605000Y5105000D02*
X2645000Y5065000D01*
X2645000Y5105000D02*
X2605000Y5065000D01*
X2732500Y3122500D02*
X2772500Y3082500D01*
X2772500Y3122500D02*
X2732500Y3082500D01*
X2965000Y5612500D02*
X3005000Y5572500D01*
X3005000Y5612500D02*
X2965000Y5572500D01*
X3160000Y1605000D02*
X3200000Y1565000D01*
X3200000Y1605000D02*
X3160000Y1565000D01*
X3205000Y4595000D02*
X3245000Y4555000D01*
X3245000Y4595000D02*
X3205000Y4555000D01*
X3667500Y885000D02*
X3707500Y845000D01*
X3707500Y885000D02*
X3667500Y845000D01*
X3837500Y885000D02*
X3877500Y845000D01*
X3877500Y885000D02*
X3837500Y845000D01*
X4380000Y5107500D02*
X4420000Y5067500D01*
X4420000Y5107500D02*
X4380000Y5067500D01*
X4585000Y1322500D02*
X4625000Y1282500D01*
X4625000Y1322500D02*
X4585000Y1282500D01*
X4695000Y1320000D02*
X4735000Y1280000D01*
X4735000Y1320000D02*
X4695000Y1280000D01*
D13*
X370000Y7640000D02*
G75*
G03*
X370000Y7640000I-40000J0D01*
G01*
X370000Y7140000D02*
G75*
G03*
X370000Y7140000I-40000J0D01*
G01*
X4715000Y7640000D02*
G75*
G03*
X4715000Y7640000I-40000J0D01*
G01*
X4715000Y7140000D02*
G75*
G03*
X4715000Y7140000I-40000J0D01*
G01*
D10*
X849000Y250000D02*
X849000Y150000D01*
X799000Y200000D02*
X899000Y200000D01*
X1060000Y3202500D02*
X1060000Y3102500D01*
X1010000Y3152500D02*
X1110000Y3152500D01*
X1060000Y2948500D02*
X1060000Y2848500D01*
X1010000Y2898500D02*
X1110000Y2898500D01*
X1060000Y2694500D02*
X1060000Y2594500D01*
X1010000Y2644500D02*
X1110000Y2644500D01*
X1060000Y2022500D02*
X1060000Y1922500D01*
X1010000Y1972500D02*
X1110000Y1972500D01*
X1060000Y1768500D02*
X1060000Y1668500D01*
X1010000Y1718500D02*
X1110000Y1718500D01*
X1060000Y1514500D02*
X1060000Y1414500D01*
X1010000Y1464500D02*
X1110000Y1464500D01*
X1103000Y250000D02*
X1103000Y150000D01*
X1053000Y200000D02*
X1153000Y200000D01*
X1357000Y250000D02*
X1357000Y150000D01*
X1307000Y200000D02*
X1407000Y200000D01*
X1609500Y1177500D02*
X1609500Y1077500D01*
X1559500Y1127500D02*
X1659500Y1127500D01*
X1609500Y923500D02*
X1609500Y823500D01*
X1559500Y873500D02*
X1659500Y873500D01*
X1611000Y250000D02*
X1611000Y150000D01*
X1561000Y200000D02*
X1661000Y200000D01*
X1863500Y1177500D02*
X1863500Y1077500D01*
X1813500Y1127500D02*
X1913500Y1127500D01*
X1863500Y923500D02*
X1863500Y823500D01*
X1813500Y873500D02*
X1913500Y873500D01*
X1865000Y250000D02*
X1865000Y150000D01*
X1815000Y200000D02*
X1915000Y200000D01*
X2117500Y1177500D02*
X2117500Y1077500D01*
X2067500Y1127500D02*
X2167500Y1127500D01*
X2117500Y923500D02*
X2117500Y823500D01*
X2067500Y873500D02*
X2167500Y873500D01*
X2119000Y250000D02*
X2119000Y150000D01*
X2069000Y200000D02*
X2169000Y200000D01*
X2250000Y7275000D02*
X2250000Y7175000D01*
X2200000Y7225000D02*
X2300000Y7225000D01*
X2371500Y1177500D02*
X2371500Y1077500D01*
X2321500Y1127500D02*
X2421500Y1127500D01*
X2371500Y923500D02*
X2371500Y823500D01*
X2321500Y873500D02*
X2421500Y873500D01*
X2373000Y250000D02*
X2373000Y150000D01*
X2323000Y200000D02*
X2423000Y200000D01*
X2625500Y1177500D02*
X2625500Y1077500D01*
X2575500Y1127500D02*
X2675500Y1127500D01*
X2625500Y923500D02*
X2625500Y823500D01*
X2575500Y873500D02*
X2675500Y873500D01*
X2627000Y250000D02*
X2627000Y150000D01*
X2577000Y200000D02*
X2677000Y200000D01*
X2879500Y1177500D02*
X2879500Y1077500D01*
X2829500Y1127500D02*
X2929500Y1127500D01*
X2879500Y923500D02*
X2879500Y823500D01*
X2829500Y873500D02*
X2929500Y873500D01*
X2881000Y250000D02*
X2881000Y150000D01*
X2831000Y200000D02*
X2931000Y200000D01*
X3133500Y1177500D02*
X3133500Y1077500D01*
X3083500Y1127500D02*
X3183500Y1127500D01*
X3133500Y923500D02*
X3133500Y823500D01*
X3083500Y873500D02*
X3183500Y873500D01*
X3135000Y250000D02*
X3135000Y150000D01*
X3085000Y200000D02*
X3185000Y200000D01*
X3387500Y1177500D02*
X3387500Y1077500D01*
X3337500Y1127500D02*
X3437500Y1127500D01*
X3387500Y923500D02*
X3387500Y823500D01*
X3337500Y873500D02*
X3437500Y873500D01*
X3389000Y250000D02*
X3389000Y150000D01*
X3339000Y200000D02*
X3439000Y200000D01*
X3643000Y250000D02*
X3643000Y150000D01*
X3593000Y200000D02*
X3693000Y200000D01*
X3897000Y250000D02*
X3897000Y150000D01*
X3847000Y200000D02*
X3947000Y200000D01*
X4151000Y250000D02*
X4151000Y150000D01*
X4101000Y200000D02*
X4201000Y200000D01*
D14*
X1647063Y8351937D02*
X1647063Y8424063D01*
X1574937Y8424063D01*
X1574937Y8351937D01*
X1647063Y8351937D01*
X1647063Y8097937D02*
X1647063Y8170063D01*
X1574937Y8170063D01*
X1574937Y8097937D01*
X1647063Y8097937D01*
X1647063Y7843937D02*
X1647063Y7916063D01*
X1574937Y7916063D01*
X1574937Y7843937D01*
X1647063Y7843937D01*
X1647063Y7589937D02*
X1647063Y7662063D01*
X1574937Y7662063D01*
X1574937Y7589937D01*
X1647063Y7589937D01*
X1647063Y7335937D02*
X1647063Y7408063D01*
X1574937Y7408063D01*
X1574937Y7335937D01*
X1647063Y7335937D01*
X1647063Y7081937D02*
X1647063Y7154063D01*
X1574937Y7154063D01*
X1574937Y7081937D01*
X1647063Y7081937D01*
X1647063Y6827937D02*
X1647063Y6900063D01*
X1574937Y6900063D01*
X1574937Y6827937D01*
X1647063Y6827937D01*
X1647063Y6573937D02*
X1647063Y6646063D01*
X1574937Y6646063D01*
X1574937Y6573937D01*
X1647063Y6573937D01*
X1647063Y6319937D02*
X1647063Y6392063D01*
X1574937Y6392063D01*
X1574937Y6319937D01*
X1647063Y6319937D01*
X1647063Y6065937D02*
X1647063Y6138063D01*
X1574937Y6138063D01*
X1574937Y6065937D01*
X1647063Y6065937D01*
X1647063Y5811937D02*
X1647063Y5884063D01*
X1574937Y5884063D01*
X1574937Y5811937D01*
X1647063Y5811937D01*
X1647063Y5557937D02*
X1647063Y5630063D01*
X1574937Y5630063D01*
X1574937Y5557937D01*
X1647063Y5557937D01*
X1647063Y5303937D02*
X1647063Y5376063D01*
X1574937Y5376063D01*
X1574937Y5303937D01*
X1647063Y5303937D01*
X1647063Y5049937D02*
X1647063Y5122063D01*
X1574937Y5122063D01*
X1574937Y5049937D01*
X1647063Y5049937D01*
X1647063Y4795937D02*
X1647063Y4868063D01*
X1574937Y4868063D01*
X1574937Y4795937D01*
X1647063Y4795937D01*
X1647063Y4541937D02*
X1647063Y4614063D01*
X1574937Y4614063D01*
X1574937Y4541937D01*
X1647063Y4541937D01*
X1647063Y4287937D02*
X1647063Y4360063D01*
X1574937Y4360063D01*
X1574937Y4287937D01*
X1647063Y4287937D01*
X1647063Y4033937D02*
X1647063Y4106063D01*
X1574937Y4106063D01*
X1574937Y4033937D01*
X1647063Y4033937D01*
X1647063Y3779937D02*
X1647063Y3852063D01*
X1574937Y3852063D01*
X1574937Y3779937D01*
X1647063Y3779937D01*
X1647063Y3525937D02*
X1647063Y3598063D01*
X1574937Y3598063D01*
X1574937Y3525937D01*
X1647063Y3525937D01*
X2282063Y3548937D02*
X2282063Y3621063D01*
X2209937Y3621063D01*
X2209937Y3548937D01*
X2282063Y3548937D01*
X2536063Y3548937D02*
X2536063Y3621063D01*
X2463937Y3621063D01*
X2463937Y3548937D01*
X2536063Y3548937D01*
X2790063Y3548937D02*
X2790063Y3621063D01*
X2717937Y3621063D01*
X2717937Y3548937D01*
X2790063Y3548937D01*
X3425063Y8351937D02*
X3425063Y8424063D01*
X3352937Y8424063D01*
X3352937Y8351937D01*
X3425063Y8351937D01*
X3425063Y8097937D02*
X3425063Y8170063D01*
X3352937Y8170063D01*
X3352937Y8097937D01*
X3425063Y8097937D01*
X3425063Y7843937D02*
X3425063Y7916063D01*
X3352937Y7916063D01*
X3352937Y7843937D01*
X3425063Y7843937D01*
X3425063Y7589937D02*
X3425063Y7662063D01*
X3352937Y7662063D01*
X3352937Y7589937D01*
X3425063Y7589937D01*
X3425063Y7335937D02*
X3425063Y7408063D01*
X3352937Y7408063D01*
X3352937Y7335937D01*
X3425063Y7335937D01*
X3425063Y7081937D02*
X3425063Y7154063D01*
X3352937Y7154063D01*
X3352937Y7081937D01*
X3425063Y7081937D01*
X3425063Y6827937D02*
X3425063Y6900063D01*
X3352937Y6900063D01*
X3352937Y6827937D01*
X3425063Y6827937D01*
X3425063Y6573937D02*
X3425063Y6646063D01*
X3352937Y6646063D01*
X3352937Y6573937D01*
X3425063Y6573937D01*
X3425063Y6319937D02*
X3425063Y6392063D01*
X3352937Y6392063D01*
X3352937Y6319937D01*
X3425063Y6319937D01*
X3425063Y6065937D02*
X3425063Y6138063D01*
X3352937Y6138063D01*
X3352937Y6065937D01*
X3425063Y6065937D01*
X3425063Y5811937D02*
X3425063Y5884063D01*
X3352937Y5884063D01*
X3352937Y5811937D01*
X3425063Y5811937D01*
X3425063Y5557937D02*
X3425063Y5630063D01*
X3352937Y5630063D01*
X3352937Y5557937D01*
X3425063Y5557937D01*
X3425063Y5303937D02*
X3425063Y5376063D01*
X3352937Y5376063D01*
X3352937Y5303937D01*
X3425063Y5303937D01*
X3425063Y5049937D02*
X3425063Y5122063D01*
X3352937Y5122063D01*
X3352937Y5049937D01*
X3425063Y5049937D01*
X3425063Y4795937D02*
X3425063Y4868063D01*
X3352937Y4868063D01*
X3352937Y4795937D01*
X3425063Y4795937D01*
X3425063Y4541937D02*
X3425063Y4614063D01*
X3352937Y4614063D01*
X3352937Y4541937D01*
X3425063Y4541937D01*
X3425063Y4287937D02*
X3425063Y4360063D01*
X3352937Y4360063D01*
X3352937Y4287937D01*
X3425063Y4287937D01*
X3425063Y4033937D02*
X3425063Y4106063D01*
X3352937Y4106063D01*
X3352937Y4033937D01*
X3425063Y4033937D01*
X3425063Y3779937D02*
X3425063Y3852063D01*
X3352937Y3852063D01*
X3352937Y3779937D01*
X3425063Y3779937D01*
X3425063Y3525937D02*
X3425063Y3598063D01*
X3352937Y3598063D01*
X3352937Y3525937D01*
X3425063Y3525937D01*
D15*
X580000Y7665000D02*
X655000Y7740000D01*
X580000Y7815000D01*
X505000Y7740000D01*
X580000Y7665000D01*
X580000Y6965000D02*
X655000Y7040000D01*
X580000Y7115000D01*
X505000Y7040000D01*
X580000Y6965000D01*
X4425000Y7665000D02*
X4500000Y7740000D01*
X4425000Y7815000D01*
X4350000Y7740000D01*
X4425000Y7665000D01*
X4425000Y6965000D02*
X4500000Y7040000D01*
X4425000Y7115000D01*
X4350000Y7040000D01*
X4425000Y6965000D01*
D11*
X242619Y-317524D02*
X242619Y-117524D01*
X242619Y-117524D02*
X290238Y-117524D01*
X290238Y-117524D02*
X318810Y-127048D01*
X318810Y-127048D02*
X337857Y-146095D01*
X337857Y-146095D02*
X347381Y-165143D01*
X347381Y-165143D02*
X356905Y-203238D01*
X356905Y-203238D02*
X356905Y-231809D01*
X356905Y-231809D02*
X347381Y-269905D01*
X347381Y-269905D02*
X337857Y-288952D01*
X337857Y-288952D02*
X318810Y-308000D01*
X318810Y-308000D02*
X290238Y-317524D01*
X290238Y-317524D02*
X242619Y-317524D01*
X442619Y-317524D02*
X442619Y-184190D01*
X442619Y-222286D02*
X452143Y-203238D01*
X452143Y-203238D02*
X461667Y-193714D01*
X461667Y-193714D02*
X480714Y-184190D01*
X480714Y-184190D02*
X499762Y-184190D01*
X566429Y-317524D02*
X566429Y-184190D01*
X566429Y-117524D02*
X556905Y-127048D01*
X556905Y-127048D02*
X566429Y-136571D01*
X566429Y-136571D02*
X575952Y-127048D01*
X575952Y-127048D02*
X566429Y-117524D01*
X566429Y-117524D02*
X566429Y-136571D01*
X690238Y-317524D02*
X671190Y-308000D01*
X671190Y-308000D02*
X661667Y-288952D01*
X661667Y-288952D02*
X661667Y-117524D01*
X795000Y-317524D02*
X775952Y-308000D01*
X775952Y-308000D02*
X766428Y-288952D01*
X766428Y-288952D02*
X766428Y-117524D01*
X1023571Y-317524D02*
X1023571Y-117524D01*
X1023571Y-117524D02*
X1090238Y-260381D01*
X1090238Y-260381D02*
X1156905Y-117524D01*
X1156905Y-117524D02*
X1156905Y-317524D01*
X1337857Y-317524D02*
X1337857Y-212762D01*
X1337857Y-212762D02*
X1328333Y-193714D01*
X1328333Y-193714D02*
X1309286Y-184190D01*
X1309286Y-184190D02*
X1271190Y-184190D01*
X1271190Y-184190D02*
X1252143Y-193714D01*
X1337857Y-308000D02*
X1318810Y-317524D01*
X1318810Y-317524D02*
X1271190Y-317524D01*
X1271190Y-317524D02*
X1252143Y-308000D01*
X1252143Y-308000D02*
X1242619Y-288952D01*
X1242619Y-288952D02*
X1242619Y-269905D01*
X1242619Y-269905D02*
X1252143Y-250857D01*
X1252143Y-250857D02*
X1271190Y-241333D01*
X1271190Y-241333D02*
X1318810Y-241333D01*
X1318810Y-241333D02*
X1337857Y-231809D01*
X1433095Y-184190D02*
X1433095Y-384190D01*
X1433095Y-193714D02*
X1452143Y-184190D01*
X1452143Y-184190D02*
X1490238Y-184190D01*
X1490238Y-184190D02*
X1509286Y-193714D01*
X1509286Y-193714D02*
X1518809Y-203238D01*
X1518809Y-203238D02*
X1528333Y-222286D01*
X1528333Y-222286D02*
X1528333Y-279429D01*
X1528333Y-279429D02*
X1518809Y-298476D01*
X1518809Y-298476D02*
X1509286Y-308000D01*
X1509286Y-308000D02*
X1490238Y-317524D01*
X1490238Y-317524D02*
X1452143Y-317524D01*
X1452143Y-317524D02*
X1433095Y-308000D01*
X1614048Y-298476D02*
X1623571Y-308000D01*
X1623571Y-308000D02*
X1614048Y-317524D01*
X1614048Y-317524D02*
X1604524Y-308000D01*
X1604524Y-308000D02*
X1614048Y-298476D01*
X1614048Y-298476D02*
X1614048Y-317524D01*
X1614048Y-193714D02*
X1623571Y-203238D01*
X1623571Y-203238D02*
X1614048Y-212762D01*
X1614048Y-212762D02*
X1604524Y-203238D01*
X1604524Y-203238D02*
X1614048Y-193714D01*
X1614048Y-193714D02*
X1614048Y-212762D01*
D12*
X-45000Y-625000D02*
X-5000Y-665000D01*
X-5000Y-625000D02*
X-45000Y-665000D01*
D11*
X280714Y-537524D02*
X299762Y-537524D01*
X299762Y-537524D02*
X318810Y-547048D01*
X318810Y-547048D02*
X328333Y-556571D01*
X328333Y-556571D02*
X337857Y-575619D01*
X337857Y-575619D02*
X347381Y-613714D01*
X347381Y-613714D02*
X347381Y-661333D01*
X347381Y-661333D02*
X337857Y-699428D01*
X337857Y-699428D02*
X328333Y-718476D01*
X328333Y-718476D02*
X318810Y-728000D01*
X318810Y-728000D02*
X299762Y-737524D01*
X299762Y-737524D02*
X280714Y-737524D01*
X280714Y-737524D02*
X261667Y-728000D01*
X261667Y-728000D02*
X252143Y-718476D01*
X252143Y-718476D02*
X242619Y-699428D01*
X242619Y-699428D02*
X233095Y-661333D01*
X233095Y-661333D02*
X233095Y-613714D01*
X233095Y-613714D02*
X242619Y-575619D01*
X242619Y-575619D02*
X252143Y-556571D01*
X252143Y-556571D02*
X261667Y-547048D01*
X261667Y-547048D02*
X280714Y-537524D01*
X433095Y-718476D02*
X442619Y-728000D01*
X442619Y-728000D02*
X433095Y-737524D01*
X433095Y-737524D02*
X423571Y-728000D01*
X423571Y-728000D02*
X433095Y-718476D01*
X433095Y-718476D02*
X433095Y-737524D01*
X614048Y-604190D02*
X614048Y-737524D01*
X566429Y-528000D02*
X518809Y-670857D01*
X518809Y-670857D02*
X642619Y-670857D01*
X756905Y-537524D02*
X775952Y-537524D01*
X775952Y-537524D02*
X795000Y-547048D01*
X795000Y-547048D02*
X804524Y-556571D01*
X804524Y-556571D02*
X814048Y-575619D01*
X814048Y-575619D02*
X823571Y-613714D01*
X823571Y-613714D02*
X823571Y-661333D01*
X823571Y-661333D02*
X814048Y-699428D01*
X814048Y-699428D02*
X804524Y-718476D01*
X804524Y-718476D02*
X795000Y-728000D01*
X795000Y-728000D02*
X775952Y-737524D01*
X775952Y-737524D02*
X756905Y-737524D01*
X756905Y-737524D02*
X737857Y-728000D01*
X737857Y-728000D02*
X728333Y-718476D01*
X728333Y-718476D02*
X718809Y-699428D01*
X718809Y-699428D02*
X709286Y-661333D01*
X709286Y-661333D02*
X709286Y-613714D01*
X709286Y-613714D02*
X718809Y-575619D01*
X718809Y-575619D02*
X728333Y-556571D01*
X728333Y-556571D02*
X737857Y-547048D01*
X737857Y-547048D02*
X756905Y-537524D01*
X947381Y-537524D02*
X966429Y-537524D01*
X966429Y-537524D02*
X985476Y-547048D01*
X985476Y-547048D02*
X995000Y-556571D01*
X995000Y-556571D02*
X1004524Y-575619D01*
X1004524Y-575619D02*
X1014048Y-613714D01*
X1014048Y-613714D02*
X1014048Y-661333D01*
X1014048Y-661333D02*
X1004524Y-699428D01*
X1004524Y-699428D02*
X995000Y-718476D01*
X995000Y-718476D02*
X985476Y-728000D01*
X985476Y-728000D02*
X966429Y-737524D01*
X966429Y-737524D02*
X947381Y-737524D01*
X947381Y-737524D02*
X928333Y-728000D01*
X928333Y-728000D02*
X918809Y-718476D01*
X918809Y-718476D02*
X909286Y-699428D01*
X909286Y-699428D02*
X899762Y-661333D01*
X899762Y-661333D02*
X899762Y-613714D01*
X899762Y-613714D02*
X909286Y-575619D01*
X909286Y-575619D02*
X918809Y-556571D01*
X918809Y-556571D02*
X928333Y-547048D01*
X928333Y-547048D02*
X947381Y-537524D01*
X1099762Y-737524D02*
X1099762Y-604190D01*
X1099762Y-623238D02*
X1109286Y-613714D01*
X1109286Y-613714D02*
X1128333Y-604190D01*
X1128333Y-604190D02*
X1156905Y-604190D01*
X1156905Y-604190D02*
X1175952Y-613714D01*
X1175952Y-613714D02*
X1185476Y-632762D01*
X1185476Y-632762D02*
X1185476Y-737524D01*
X1185476Y-632762D02*
X1195000Y-613714D01*
X1195000Y-613714D02*
X1214048Y-604190D01*
X1214048Y-604190D02*
X1242619Y-604190D01*
X1242619Y-604190D02*
X1261667Y-613714D01*
X1261667Y-613714D02*
X1271191Y-632762D01*
X1271191Y-632762D02*
X1271191Y-737524D01*
X1366429Y-737524D02*
X1366429Y-604190D01*
X1366429Y-623238D02*
X1375952Y-613714D01*
X1375952Y-613714D02*
X1395000Y-604190D01*
X1395000Y-604190D02*
X1423571Y-604190D01*
X1423571Y-604190D02*
X1442619Y-613714D01*
X1442619Y-613714D02*
X1452143Y-632762D01*
X1452143Y-632762D02*
X1452143Y-737524D01*
X1452143Y-632762D02*
X1461667Y-613714D01*
X1461667Y-613714D02*
X1480714Y-604190D01*
X1480714Y-604190D02*
X1509286Y-604190D01*
X1509286Y-604190D02*
X1528333Y-613714D01*
X1528333Y-613714D02*
X1537857Y-632762D01*
X1537857Y-632762D02*
X1537857Y-737524D01*
X1928333Y-528000D02*
X1756905Y-785143D01*
X2185476Y-537524D02*
X2204524Y-537524D01*
X2204524Y-537524D02*
X2223572Y-547048D01*
X2223572Y-547048D02*
X2233095Y-556571D01*
X2233095Y-556571D02*
X2242619Y-575619D01*
X2242619Y-575619D02*
X2252143Y-613714D01*
X2252143Y-613714D02*
X2252143Y-661333D01*
X2252143Y-661333D02*
X2242619Y-699428D01*
X2242619Y-699428D02*
X2233095Y-718476D01*
X2233095Y-718476D02*
X2223572Y-728000D01*
X2223572Y-728000D02*
X2204524Y-737524D01*
X2204524Y-737524D02*
X2185476Y-737524D01*
X2185476Y-737524D02*
X2166429Y-728000D01*
X2166429Y-728000D02*
X2156905Y-718476D01*
X2156905Y-718476D02*
X2147381Y-699428D01*
X2147381Y-699428D02*
X2137857Y-661333D01*
X2137857Y-661333D02*
X2137857Y-613714D01*
X2137857Y-613714D02*
X2147381Y-575619D01*
X2147381Y-575619D02*
X2156905Y-556571D01*
X2156905Y-556571D02*
X2166429Y-547048D01*
X2166429Y-547048D02*
X2185476Y-537524D01*
X2337857Y-718476D02*
X2347381Y-728000D01*
X2347381Y-728000D02*
X2337857Y-737524D01*
X2337857Y-737524D02*
X2328334Y-728000D01*
X2328334Y-728000D02*
X2337857Y-718476D01*
X2337857Y-718476D02*
X2337857Y-737524D01*
X2471191Y-537524D02*
X2490238Y-537524D01*
X2490238Y-537524D02*
X2509286Y-547048D01*
X2509286Y-547048D02*
X2518810Y-556571D01*
X2518810Y-556571D02*
X2528334Y-575619D01*
X2528334Y-575619D02*
X2537857Y-613714D01*
X2537857Y-613714D02*
X2537857Y-661333D01*
X2537857Y-661333D02*
X2528334Y-699428D01*
X2528334Y-699428D02*
X2518810Y-718476D01*
X2518810Y-718476D02*
X2509286Y-728000D01*
X2509286Y-728000D02*
X2490238Y-737524D01*
X2490238Y-737524D02*
X2471191Y-737524D01*
X2471191Y-737524D02*
X2452143Y-728000D01*
X2452143Y-728000D02*
X2442619Y-718476D01*
X2442619Y-718476D02*
X2433095Y-699428D01*
X2433095Y-699428D02*
X2423572Y-661333D01*
X2423572Y-661333D02*
X2423572Y-613714D01*
X2423572Y-613714D02*
X2433095Y-575619D01*
X2433095Y-575619D02*
X2442619Y-556571D01*
X2442619Y-556571D02*
X2452143Y-547048D01*
X2452143Y-547048D02*
X2471191Y-537524D01*
X2728334Y-737524D02*
X2614048Y-737524D01*
X2671191Y-737524D02*
X2671191Y-537524D01*
X2671191Y-537524D02*
X2652143Y-566095D01*
X2652143Y-566095D02*
X2633095Y-585143D01*
X2633095Y-585143D02*
X2614048Y-594667D01*
X2909286Y-537524D02*
X2814048Y-537524D01*
X2814048Y-537524D02*
X2804524Y-632762D01*
X2804524Y-632762D02*
X2814048Y-623238D01*
X2814048Y-623238D02*
X2833095Y-613714D01*
X2833095Y-613714D02*
X2880714Y-613714D01*
X2880714Y-613714D02*
X2899762Y-623238D01*
X2899762Y-623238D02*
X2909286Y-632762D01*
X2909286Y-632762D02*
X2918810Y-651810D01*
X2918810Y-651810D02*
X2918810Y-699428D01*
X2918810Y-699428D02*
X2909286Y-718476D01*
X2909286Y-718476D02*
X2899762Y-728000D01*
X2899762Y-728000D02*
X2880714Y-737524D01*
X2880714Y-737524D02*
X2833095Y-737524D01*
X2833095Y-737524D02*
X2814048Y-728000D01*
X2814048Y-728000D02*
X2804524Y-718476D01*
X2985476Y-537524D02*
X3118810Y-537524D01*
X3118810Y-537524D02*
X3033095Y-737524D01*
X3185476Y-537524D02*
X3185476Y-575619D01*
X3261667Y-537524D02*
X3261667Y-575619D01*
X3556905Y-813714D02*
X3547381Y-804190D01*
X3547381Y-804190D02*
X3528334Y-775619D01*
X3528334Y-775619D02*
X3518810Y-756571D01*
X3518810Y-756571D02*
X3509286Y-728000D01*
X3509286Y-728000D02*
X3499762Y-680381D01*
X3499762Y-680381D02*
X3499762Y-642286D01*
X3499762Y-642286D02*
X3509286Y-594667D01*
X3509286Y-594667D02*
X3518810Y-566095D01*
X3518810Y-566095D02*
X3528334Y-547048D01*
X3528334Y-547048D02*
X3547381Y-518476D01*
X3547381Y-518476D02*
X3556905Y-508952D01*
X3623572Y-556571D02*
X3633095Y-547048D01*
X3633095Y-547048D02*
X3652143Y-537524D01*
X3652143Y-537524D02*
X3699762Y-537524D01*
X3699762Y-537524D02*
X3718810Y-547048D01*
X3718810Y-547048D02*
X3728334Y-556571D01*
X3728334Y-556571D02*
X3737857Y-575619D01*
X3737857Y-575619D02*
X3737857Y-594667D01*
X3737857Y-594667D02*
X3728334Y-623238D01*
X3728334Y-623238D02*
X3614048Y-737524D01*
X3614048Y-737524D02*
X3737857Y-737524D01*
X3909286Y-537524D02*
X3871191Y-537524D01*
X3871191Y-537524D02*
X3852143Y-547048D01*
X3852143Y-547048D02*
X3842619Y-556571D01*
X3842619Y-556571D02*
X3823572Y-585143D01*
X3823572Y-585143D02*
X3814048Y-623238D01*
X3814048Y-623238D02*
X3814048Y-699428D01*
X3814048Y-699428D02*
X3823572Y-718476D01*
X3823572Y-718476D02*
X3833095Y-728000D01*
X3833095Y-728000D02*
X3852143Y-737524D01*
X3852143Y-737524D02*
X3890238Y-737524D01*
X3890238Y-737524D02*
X3909286Y-728000D01*
X3909286Y-728000D02*
X3918810Y-718476D01*
X3918810Y-718476D02*
X3928334Y-699428D01*
X3928334Y-699428D02*
X3928334Y-651810D01*
X3928334Y-651810D02*
X3918810Y-632762D01*
X3918810Y-632762D02*
X3909286Y-623238D01*
X3909286Y-623238D02*
X3890238Y-613714D01*
X3890238Y-613714D02*
X3852143Y-613714D01*
X3852143Y-613714D02*
X3833095Y-623238D01*
X3833095Y-623238D02*
X3823572Y-632762D01*
X3823572Y-632762D02*
X3814048Y-651810D01*
X4166429Y-737524D02*
X4166429Y-537524D01*
X4252143Y-737524D02*
X4252143Y-632762D01*
X4252143Y-632762D02*
X4242619Y-613714D01*
X4242619Y-613714D02*
X4223572Y-604190D01*
X4223572Y-604190D02*
X4195000Y-604190D01*
X4195000Y-604190D02*
X4175953Y-613714D01*
X4175953Y-613714D02*
X4166429Y-623238D01*
X4375953Y-737524D02*
X4356905Y-728000D01*
X4356905Y-728000D02*
X4347381Y-718476D01*
X4347381Y-718476D02*
X4337858Y-699428D01*
X4337858Y-699428D02*
X4337858Y-642286D01*
X4337858Y-642286D02*
X4347381Y-623238D01*
X4347381Y-623238D02*
X4356905Y-613714D01*
X4356905Y-613714D02*
X4375953Y-604190D01*
X4375953Y-604190D02*
X4404524Y-604190D01*
X4404524Y-604190D02*
X4423572Y-613714D01*
X4423572Y-613714D02*
X4433096Y-623238D01*
X4433096Y-623238D02*
X4442619Y-642286D01*
X4442619Y-642286D02*
X4442619Y-699428D01*
X4442619Y-699428D02*
X4433096Y-718476D01*
X4433096Y-718476D02*
X4423572Y-728000D01*
X4423572Y-728000D02*
X4404524Y-737524D01*
X4404524Y-737524D02*
X4375953Y-737524D01*
X4556905Y-737524D02*
X4537858Y-728000D01*
X4537858Y-728000D02*
X4528334Y-708952D01*
X4528334Y-708952D02*
X4528334Y-537524D01*
X4709286Y-728000D02*
X4690239Y-737524D01*
X4690239Y-737524D02*
X4652143Y-737524D01*
X4652143Y-737524D02*
X4633096Y-728000D01*
X4633096Y-728000D02*
X4623572Y-708952D01*
X4623572Y-708952D02*
X4623572Y-632762D01*
X4623572Y-632762D02*
X4633096Y-613714D01*
X4633096Y-613714D02*
X4652143Y-604190D01*
X4652143Y-604190D02*
X4690239Y-604190D01*
X4690239Y-604190D02*
X4709286Y-613714D01*
X4709286Y-613714D02*
X4718810Y-632762D01*
X4718810Y-632762D02*
X4718810Y-651810D01*
X4718810Y-651810D02*
X4623572Y-670857D01*
X4795000Y-728000D02*
X4814048Y-737524D01*
X4814048Y-737524D02*
X4852143Y-737524D01*
X4852143Y-737524D02*
X4871191Y-728000D01*
X4871191Y-728000D02*
X4880715Y-708952D01*
X4880715Y-708952D02*
X4880715Y-699428D01*
X4880715Y-699428D02*
X4871191Y-680381D01*
X4871191Y-680381D02*
X4852143Y-670857D01*
X4852143Y-670857D02*
X4823572Y-670857D01*
X4823572Y-670857D02*
X4804524Y-661333D01*
X4804524Y-661333D02*
X4795000Y-642286D01*
X4795000Y-642286D02*
X4795000Y-632762D01*
X4795000Y-632762D02*
X4804524Y-613714D01*
X4804524Y-613714D02*
X4823572Y-604190D01*
X4823572Y-604190D02*
X4852143Y-604190D01*
X4852143Y-604190D02*
X4871191Y-613714D01*
X4947381Y-813714D02*
X4956905Y-804190D01*
X4956905Y-804190D02*
X4975953Y-775619D01*
X4975953Y-775619D02*
X4985477Y-756571D01*
X4985477Y-756571D02*
X4995000Y-728000D01*
X4995000Y-728000D02*
X5004524Y-680381D01*
X5004524Y-680381D02*
X5004524Y-642286D01*
X5004524Y-642286D02*
X4995000Y-594667D01*
X4995000Y-594667D02*
X4985477Y-566095D01*
X4985477Y-566095D02*
X4975953Y-547048D01*
X4975953Y-547048D02*
X4956905Y-518476D01*
X4956905Y-518476D02*
X4947381Y-508952D01*
D13*
X-5000Y-909000D02*
G75*
G03*
X-5000Y-909000I-40000J0D01*
G01*
D11*
X280714Y-801524D02*
X299762Y-801524D01*
X299762Y-801524D02*
X318810Y-811048D01*
X318810Y-811048D02*
X328333Y-820571D01*
X328333Y-820571D02*
X337857Y-839619D01*
X337857Y-839619D02*
X347381Y-877714D01*
X347381Y-877714D02*
X347381Y-925333D01*
X347381Y-925333D02*
X337857Y-963428D01*
X337857Y-963428D02*
X328333Y-982476D01*
X328333Y-982476D02*
X318810Y-992000D01*
X318810Y-992000D02*
X299762Y-1001524D01*
X299762Y-1001524D02*
X280714Y-1001524D01*
X280714Y-1001524D02*
X261667Y-992000D01*
X261667Y-992000D02*
X252143Y-982476D01*
X252143Y-982476D02*
X242619Y-963428D01*
X242619Y-963428D02*
X233095Y-925333D01*
X233095Y-925333D02*
X233095Y-877714D01*
X233095Y-877714D02*
X242619Y-839619D01*
X242619Y-839619D02*
X252143Y-820571D01*
X252143Y-820571D02*
X261667Y-811048D01*
X261667Y-811048D02*
X280714Y-801524D01*
X433095Y-982476D02*
X442619Y-992000D01*
X442619Y-992000D02*
X433095Y-1001524D01*
X433095Y-1001524D02*
X423571Y-992000D01*
X423571Y-992000D02*
X433095Y-982476D01*
X433095Y-982476D02*
X433095Y-1001524D01*
X556905Y-887238D02*
X537857Y-877714D01*
X537857Y-877714D02*
X528333Y-868190D01*
X528333Y-868190D02*
X518809Y-849143D01*
X518809Y-849143D02*
X518809Y-839619D01*
X518809Y-839619D02*
X528333Y-820571D01*
X528333Y-820571D02*
X537857Y-811048D01*
X537857Y-811048D02*
X556905Y-801524D01*
X556905Y-801524D02*
X595000Y-801524D01*
X595000Y-801524D02*
X614048Y-811048D01*
X614048Y-811048D02*
X623571Y-820571D01*
X623571Y-820571D02*
X633095Y-839619D01*
X633095Y-839619D02*
X633095Y-849143D01*
X633095Y-849143D02*
X623571Y-868190D01*
X623571Y-868190D02*
X614048Y-877714D01*
X614048Y-877714D02*
X595000Y-887238D01*
X595000Y-887238D02*
X556905Y-887238D01*
X556905Y-887238D02*
X537857Y-896762D01*
X537857Y-896762D02*
X528333Y-906286D01*
X528333Y-906286D02*
X518809Y-925333D01*
X518809Y-925333D02*
X518809Y-963428D01*
X518809Y-963428D02*
X528333Y-982476D01*
X528333Y-982476D02*
X537857Y-992000D01*
X537857Y-992000D02*
X556905Y-1001524D01*
X556905Y-1001524D02*
X595000Y-1001524D01*
X595000Y-1001524D02*
X614048Y-992000D01*
X614048Y-992000D02*
X623571Y-982476D01*
X623571Y-982476D02*
X633095Y-963428D01*
X633095Y-963428D02*
X633095Y-925333D01*
X633095Y-925333D02*
X623571Y-906286D01*
X623571Y-906286D02*
X614048Y-896762D01*
X614048Y-896762D02*
X595000Y-887238D01*
X756905Y-801524D02*
X775952Y-801524D01*
X775952Y-801524D02*
X795000Y-811048D01*
X795000Y-811048D02*
X804524Y-820571D01*
X804524Y-820571D02*
X814048Y-839619D01*
X814048Y-839619D02*
X823571Y-877714D01*
X823571Y-877714D02*
X823571Y-925333D01*
X823571Y-925333D02*
X814048Y-963428D01*
X814048Y-963428D02*
X804524Y-982476D01*
X804524Y-982476D02*
X795000Y-992000D01*
X795000Y-992000D02*
X775952Y-1001524D01*
X775952Y-1001524D02*
X756905Y-1001524D01*
X756905Y-1001524D02*
X737857Y-992000D01*
X737857Y-992000D02*
X728333Y-982476D01*
X728333Y-982476D02*
X718809Y-963428D01*
X718809Y-963428D02*
X709286Y-925333D01*
X709286Y-925333D02*
X709286Y-877714D01*
X709286Y-877714D02*
X718809Y-839619D01*
X718809Y-839619D02*
X728333Y-820571D01*
X728333Y-820571D02*
X737857Y-811048D01*
X737857Y-811048D02*
X756905Y-801524D01*
X947381Y-801524D02*
X966429Y-801524D01*
X966429Y-801524D02*
X985476Y-811048D01*
X985476Y-811048D02*
X995000Y-820571D01*
X995000Y-820571D02*
X1004524Y-839619D01*
X1004524Y-839619D02*
X1014048Y-877714D01*
X1014048Y-877714D02*
X1014048Y-925333D01*
X1014048Y-925333D02*
X1004524Y-963428D01*
X1004524Y-963428D02*
X995000Y-982476D01*
X995000Y-982476D02*
X985476Y-992000D01*
X985476Y-992000D02*
X966429Y-1001524D01*
X966429Y-1001524D02*
X947381Y-1001524D01*
X947381Y-1001524D02*
X928333Y-992000D01*
X928333Y-992000D02*
X918809Y-982476D01*
X918809Y-982476D02*
X909286Y-963428D01*
X909286Y-963428D02*
X899762Y-925333D01*
X899762Y-925333D02*
X899762Y-877714D01*
X899762Y-877714D02*
X909286Y-839619D01*
X909286Y-839619D02*
X918809Y-820571D01*
X918809Y-820571D02*
X928333Y-811048D01*
X928333Y-811048D02*
X947381Y-801524D01*
X1099762Y-1001524D02*
X1099762Y-868190D01*
X1099762Y-887238D02*
X1109286Y-877714D01*
X1109286Y-877714D02*
X1128333Y-868190D01*
X1128333Y-868190D02*
X1156905Y-868190D01*
X1156905Y-868190D02*
X1175952Y-877714D01*
X1175952Y-877714D02*
X1185476Y-896762D01*
X1185476Y-896762D02*
X1185476Y-1001524D01*
X1185476Y-896762D02*
X1195000Y-877714D01*
X1195000Y-877714D02*
X1214048Y-868190D01*
X1214048Y-868190D02*
X1242619Y-868190D01*
X1242619Y-868190D02*
X1261667Y-877714D01*
X1261667Y-877714D02*
X1271191Y-896762D01*
X1271191Y-896762D02*
X1271191Y-1001524D01*
X1366429Y-1001524D02*
X1366429Y-868190D01*
X1366429Y-887238D02*
X1375952Y-877714D01*
X1375952Y-877714D02*
X1395000Y-868190D01*
X1395000Y-868190D02*
X1423571Y-868190D01*
X1423571Y-868190D02*
X1442619Y-877714D01*
X1442619Y-877714D02*
X1452143Y-896762D01*
X1452143Y-896762D02*
X1452143Y-1001524D01*
X1452143Y-896762D02*
X1461667Y-877714D01*
X1461667Y-877714D02*
X1480714Y-868190D01*
X1480714Y-868190D02*
X1509286Y-868190D01*
X1509286Y-868190D02*
X1528333Y-877714D01*
X1528333Y-877714D02*
X1537857Y-896762D01*
X1537857Y-896762D02*
X1537857Y-1001524D01*
X1928333Y-792000D02*
X1756905Y-1049143D01*
X2185476Y-801524D02*
X2204524Y-801524D01*
X2204524Y-801524D02*
X2223572Y-811048D01*
X2223572Y-811048D02*
X2233095Y-820571D01*
X2233095Y-820571D02*
X2242619Y-839619D01*
X2242619Y-839619D02*
X2252143Y-877714D01*
X2252143Y-877714D02*
X2252143Y-925333D01*
X2252143Y-925333D02*
X2242619Y-963428D01*
X2242619Y-963428D02*
X2233095Y-982476D01*
X2233095Y-982476D02*
X2223572Y-992000D01*
X2223572Y-992000D02*
X2204524Y-1001524D01*
X2204524Y-1001524D02*
X2185476Y-1001524D01*
X2185476Y-1001524D02*
X2166429Y-992000D01*
X2166429Y-992000D02*
X2156905Y-982476D01*
X2156905Y-982476D02*
X2147381Y-963428D01*
X2147381Y-963428D02*
X2137857Y-925333D01*
X2137857Y-925333D02*
X2137857Y-877714D01*
X2137857Y-877714D02*
X2147381Y-839619D01*
X2147381Y-839619D02*
X2156905Y-820571D01*
X2156905Y-820571D02*
X2166429Y-811048D01*
X2166429Y-811048D02*
X2185476Y-801524D01*
X2337857Y-982476D02*
X2347381Y-992000D01*
X2347381Y-992000D02*
X2337857Y-1001524D01*
X2337857Y-1001524D02*
X2328334Y-992000D01*
X2328334Y-992000D02*
X2337857Y-982476D01*
X2337857Y-982476D02*
X2337857Y-1001524D01*
X2471191Y-801524D02*
X2490238Y-801524D01*
X2490238Y-801524D02*
X2509286Y-811048D01*
X2509286Y-811048D02*
X2518810Y-820571D01*
X2518810Y-820571D02*
X2528334Y-839619D01*
X2528334Y-839619D02*
X2537857Y-877714D01*
X2537857Y-877714D02*
X2537857Y-925333D01*
X2537857Y-925333D02*
X2528334Y-963428D01*
X2528334Y-963428D02*
X2518810Y-982476D01*
X2518810Y-982476D02*
X2509286Y-992000D01*
X2509286Y-992000D02*
X2490238Y-1001524D01*
X2490238Y-1001524D02*
X2471191Y-1001524D01*
X2471191Y-1001524D02*
X2452143Y-992000D01*
X2452143Y-992000D02*
X2442619Y-982476D01*
X2442619Y-982476D02*
X2433095Y-963428D01*
X2433095Y-963428D02*
X2423572Y-925333D01*
X2423572Y-925333D02*
X2423572Y-877714D01*
X2423572Y-877714D02*
X2433095Y-839619D01*
X2433095Y-839619D02*
X2442619Y-820571D01*
X2442619Y-820571D02*
X2452143Y-811048D01*
X2452143Y-811048D02*
X2471191Y-801524D01*
X2604524Y-801524D02*
X2728334Y-801524D01*
X2728334Y-801524D02*
X2661667Y-877714D01*
X2661667Y-877714D02*
X2690238Y-877714D01*
X2690238Y-877714D02*
X2709286Y-887238D01*
X2709286Y-887238D02*
X2718810Y-896762D01*
X2718810Y-896762D02*
X2728334Y-915809D01*
X2728334Y-915809D02*
X2728334Y-963428D01*
X2728334Y-963428D02*
X2718810Y-982476D01*
X2718810Y-982476D02*
X2709286Y-992000D01*
X2709286Y-992000D02*
X2690238Y-1001524D01*
X2690238Y-1001524D02*
X2633095Y-1001524D01*
X2633095Y-1001524D02*
X2614048Y-992000D01*
X2614048Y-992000D02*
X2604524Y-982476D01*
X2918810Y-1001524D02*
X2804524Y-1001524D01*
X2861667Y-1001524D02*
X2861667Y-801524D01*
X2861667Y-801524D02*
X2842619Y-830095D01*
X2842619Y-830095D02*
X2823572Y-849143D01*
X2823572Y-849143D02*
X2804524Y-858667D01*
X3099762Y-801524D02*
X3004524Y-801524D01*
X3004524Y-801524D02*
X2995000Y-896762D01*
X2995000Y-896762D02*
X3004524Y-887238D01*
X3004524Y-887238D02*
X3023572Y-877714D01*
X3023572Y-877714D02*
X3071191Y-877714D01*
X3071191Y-877714D02*
X3090238Y-887238D01*
X3090238Y-887238D02*
X3099762Y-896762D01*
X3099762Y-896762D02*
X3109286Y-915809D01*
X3109286Y-915809D02*
X3109286Y-963428D01*
X3109286Y-963428D02*
X3099762Y-982476D01*
X3099762Y-982476D02*
X3090238Y-992000D01*
X3090238Y-992000D02*
X3071191Y-1001524D01*
X3071191Y-1001524D02*
X3023572Y-1001524D01*
X3023572Y-1001524D02*
X3004524Y-992000D01*
X3004524Y-992000D02*
X2995000Y-982476D01*
X3185476Y-801524D02*
X3185476Y-839619D01*
X3261667Y-801524D02*
X3261667Y-839619D01*
X3556905Y-1077714D02*
X3547381Y-1068190D01*
X3547381Y-1068190D02*
X3528334Y-1039619D01*
X3528334Y-1039619D02*
X3518810Y-1020571D01*
X3518810Y-1020571D02*
X3509286Y-992000D01*
X3509286Y-992000D02*
X3499762Y-944381D01*
X3499762Y-944381D02*
X3499762Y-906286D01*
X3499762Y-906286D02*
X3509286Y-858667D01*
X3509286Y-858667D02*
X3518810Y-830095D01*
X3518810Y-830095D02*
X3528334Y-811048D01*
X3528334Y-811048D02*
X3547381Y-782476D01*
X3547381Y-782476D02*
X3556905Y-772952D01*
X3718810Y-868190D02*
X3718810Y-1001524D01*
X3671191Y-792000D02*
X3623572Y-934857D01*
X3623572Y-934857D02*
X3747381Y-934857D01*
X3975953Y-1001524D02*
X3975953Y-801524D01*
X4061667Y-1001524D02*
X4061667Y-896762D01*
X4061667Y-896762D02*
X4052143Y-877714D01*
X4052143Y-877714D02*
X4033096Y-868190D01*
X4033096Y-868190D02*
X4004524Y-868190D01*
X4004524Y-868190D02*
X3985476Y-877714D01*
X3985476Y-877714D02*
X3975953Y-887238D01*
X4185476Y-1001524D02*
X4166429Y-992000D01*
X4166429Y-992000D02*
X4156905Y-982476D01*
X4156905Y-982476D02*
X4147381Y-963428D01*
X4147381Y-963428D02*
X4147381Y-906286D01*
X4147381Y-906286D02*
X4156905Y-887238D01*
X4156905Y-887238D02*
X4166429Y-877714D01*
X4166429Y-877714D02*
X4185476Y-868190D01*
X4185476Y-868190D02*
X4214048Y-868190D01*
X4214048Y-868190D02*
X4233096Y-877714D01*
X4233096Y-877714D02*
X4242619Y-887238D01*
X4242619Y-887238D02*
X4252143Y-906286D01*
X4252143Y-906286D02*
X4252143Y-963428D01*
X4252143Y-963428D02*
X4242619Y-982476D01*
X4242619Y-982476D02*
X4233096Y-992000D01*
X4233096Y-992000D02*
X4214048Y-1001524D01*
X4214048Y-1001524D02*
X4185476Y-1001524D01*
X4366429Y-1001524D02*
X4347381Y-992000D01*
X4347381Y-992000D02*
X4337858Y-972952D01*
X4337858Y-972952D02*
X4337858Y-801524D01*
X4518810Y-992000D02*
X4499762Y-1001524D01*
X4499762Y-1001524D02*
X4461667Y-1001524D01*
X4461667Y-1001524D02*
X4442619Y-992000D01*
X4442619Y-992000D02*
X4433096Y-972952D01*
X4433096Y-972952D02*
X4433096Y-896762D01*
X4433096Y-896762D02*
X4442619Y-877714D01*
X4442619Y-877714D02*
X4461667Y-868190D01*
X4461667Y-868190D02*
X4499762Y-868190D01*
X4499762Y-868190D02*
X4518810Y-877714D01*
X4518810Y-877714D02*
X4528334Y-896762D01*
X4528334Y-896762D02*
X4528334Y-915809D01*
X4528334Y-915809D02*
X4433096Y-934857D01*
X4604524Y-992000D02*
X4623572Y-1001524D01*
X4623572Y-1001524D02*
X4661667Y-1001524D01*
X4661667Y-1001524D02*
X4680715Y-992000D01*
X4680715Y-992000D02*
X4690239Y-972952D01*
X4690239Y-972952D02*
X4690239Y-963428D01*
X4690239Y-963428D02*
X4680715Y-944381D01*
X4680715Y-944381D02*
X4661667Y-934857D01*
X4661667Y-934857D02*
X4633096Y-934857D01*
X4633096Y-934857D02*
X4614048Y-925333D01*
X4614048Y-925333D02*
X4604524Y-906286D01*
X4604524Y-906286D02*
X4604524Y-896762D01*
X4604524Y-896762D02*
X4614048Y-877714D01*
X4614048Y-877714D02*
X4633096Y-868190D01*
X4633096Y-868190D02*
X4661667Y-868190D01*
X4661667Y-868190D02*
X4680715Y-877714D01*
X4756905Y-1077714D02*
X4766429Y-1068190D01*
X4766429Y-1068190D02*
X4785477Y-1039619D01*
X4785477Y-1039619D02*
X4795000Y-1020571D01*
X4795000Y-1020571D02*
X4804524Y-992000D01*
X4804524Y-992000D02*
X4814048Y-944381D01*
X4814048Y-944381D02*
X4814048Y-906286D01*
X4814048Y-906286D02*
X4804524Y-858667D01*
X4804524Y-858667D02*
X4795000Y-830095D01*
X4795000Y-830095D02*
X4785477Y-811048D01*
X4785477Y-811048D02*
X4766429Y-782476D01*
X4766429Y-782476D02*
X4756905Y-772952D01*
D10*
X-55000Y-1123000D02*
X-55000Y-1223000D01*
X-105000Y-1173000D02*
X-5000Y-1173000D01*
D11*
X347381Y-1265524D02*
X233095Y-1265524D01*
X290238Y-1265524D02*
X290238Y-1065524D01*
X290238Y-1065524D02*
X271190Y-1094095D01*
X271190Y-1094095D02*
X252143Y-1113143D01*
X252143Y-1113143D02*
X233095Y-1122667D01*
X433095Y-1246476D02*
X442619Y-1256000D01*
X442619Y-1256000D02*
X433095Y-1265524D01*
X433095Y-1265524D02*
X423571Y-1256000D01*
X423571Y-1256000D02*
X433095Y-1246476D01*
X433095Y-1246476D02*
X433095Y-1265524D01*
X566429Y-1065524D02*
X585476Y-1065524D01*
X585476Y-1065524D02*
X604524Y-1075048D01*
X604524Y-1075048D02*
X614048Y-1084571D01*
X614048Y-1084571D02*
X623571Y-1103619D01*
X623571Y-1103619D02*
X633095Y-1141714D01*
X633095Y-1141714D02*
X633095Y-1189333D01*
X633095Y-1189333D02*
X623571Y-1227429D01*
X623571Y-1227429D02*
X614048Y-1246476D01*
X614048Y-1246476D02*
X604524Y-1256000D01*
X604524Y-1256000D02*
X585476Y-1265524D01*
X585476Y-1265524D02*
X566429Y-1265524D01*
X566429Y-1265524D02*
X547381Y-1256000D01*
X547381Y-1256000D02*
X537857Y-1246476D01*
X537857Y-1246476D02*
X528333Y-1227429D01*
X528333Y-1227429D02*
X518809Y-1189333D01*
X518809Y-1189333D02*
X518809Y-1141714D01*
X518809Y-1141714D02*
X528333Y-1103619D01*
X528333Y-1103619D02*
X537857Y-1084571D01*
X537857Y-1084571D02*
X547381Y-1075048D01*
X547381Y-1075048D02*
X566429Y-1065524D01*
X756905Y-1065524D02*
X775952Y-1065524D01*
X775952Y-1065524D02*
X795000Y-1075048D01*
X795000Y-1075048D02*
X804524Y-1084571D01*
X804524Y-1084571D02*
X814048Y-1103619D01*
X814048Y-1103619D02*
X823571Y-1141714D01*
X823571Y-1141714D02*
X823571Y-1189333D01*
X823571Y-1189333D02*
X814048Y-1227429D01*
X814048Y-1227429D02*
X804524Y-1246476D01*
X804524Y-1246476D02*
X795000Y-1256000D01*
X795000Y-1256000D02*
X775952Y-1265524D01*
X775952Y-1265524D02*
X756905Y-1265524D01*
X756905Y-1265524D02*
X737857Y-1256000D01*
X737857Y-1256000D02*
X728333Y-1246476D01*
X728333Y-1246476D02*
X718809Y-1227429D01*
X718809Y-1227429D02*
X709286Y-1189333D01*
X709286Y-1189333D02*
X709286Y-1141714D01*
X709286Y-1141714D02*
X718809Y-1103619D01*
X718809Y-1103619D02*
X728333Y-1084571D01*
X728333Y-1084571D02*
X737857Y-1075048D01*
X737857Y-1075048D02*
X756905Y-1065524D01*
X947381Y-1065524D02*
X966429Y-1065524D01*
X966429Y-1065524D02*
X985476Y-1075048D01*
X985476Y-1075048D02*
X995000Y-1084571D01*
X995000Y-1084571D02*
X1004524Y-1103619D01*
X1004524Y-1103619D02*
X1014048Y-1141714D01*
X1014048Y-1141714D02*
X1014048Y-1189333D01*
X1014048Y-1189333D02*
X1004524Y-1227429D01*
X1004524Y-1227429D02*
X995000Y-1246476D01*
X995000Y-1246476D02*
X985476Y-1256000D01*
X985476Y-1256000D02*
X966429Y-1265524D01*
X966429Y-1265524D02*
X947381Y-1265524D01*
X947381Y-1265524D02*
X928333Y-1256000D01*
X928333Y-1256000D02*
X918809Y-1246476D01*
X918809Y-1246476D02*
X909286Y-1227429D01*
X909286Y-1227429D02*
X899762Y-1189333D01*
X899762Y-1189333D02*
X899762Y-1141714D01*
X899762Y-1141714D02*
X909286Y-1103619D01*
X909286Y-1103619D02*
X918809Y-1084571D01*
X918809Y-1084571D02*
X928333Y-1075048D01*
X928333Y-1075048D02*
X947381Y-1065524D01*
X1099762Y-1265524D02*
X1099762Y-1132190D01*
X1099762Y-1151238D02*
X1109286Y-1141714D01*
X1109286Y-1141714D02*
X1128333Y-1132190D01*
X1128333Y-1132190D02*
X1156905Y-1132190D01*
X1156905Y-1132190D02*
X1175952Y-1141714D01*
X1175952Y-1141714D02*
X1185476Y-1160762D01*
X1185476Y-1160762D02*
X1185476Y-1265524D01*
X1185476Y-1160762D02*
X1195000Y-1141714D01*
X1195000Y-1141714D02*
X1214048Y-1132190D01*
X1214048Y-1132190D02*
X1242619Y-1132190D01*
X1242619Y-1132190D02*
X1261667Y-1141714D01*
X1261667Y-1141714D02*
X1271191Y-1160762D01*
X1271191Y-1160762D02*
X1271191Y-1265524D01*
X1366429Y-1265524D02*
X1366429Y-1132190D01*
X1366429Y-1151238D02*
X1375952Y-1141714D01*
X1375952Y-1141714D02*
X1395000Y-1132190D01*
X1395000Y-1132190D02*
X1423571Y-1132190D01*
X1423571Y-1132190D02*
X1442619Y-1141714D01*
X1442619Y-1141714D02*
X1452143Y-1160762D01*
X1452143Y-1160762D02*
X1452143Y-1265524D01*
X1452143Y-1160762D02*
X1461667Y-1141714D01*
X1461667Y-1141714D02*
X1480714Y-1132190D01*
X1480714Y-1132190D02*
X1509286Y-1132190D01*
X1509286Y-1132190D02*
X1528333Y-1141714D01*
X1528333Y-1141714D02*
X1537857Y-1160762D01*
X1537857Y-1160762D02*
X1537857Y-1265524D01*
X1928333Y-1056000D02*
X1756905Y-1313143D01*
X2185476Y-1065524D02*
X2204524Y-1065524D01*
X2204524Y-1065524D02*
X2223572Y-1075048D01*
X2223572Y-1075048D02*
X2233095Y-1084571D01*
X2233095Y-1084571D02*
X2242619Y-1103619D01*
X2242619Y-1103619D02*
X2252143Y-1141714D01*
X2252143Y-1141714D02*
X2252143Y-1189333D01*
X2252143Y-1189333D02*
X2242619Y-1227429D01*
X2242619Y-1227429D02*
X2233095Y-1246476D01*
X2233095Y-1246476D02*
X2223572Y-1256000D01*
X2223572Y-1256000D02*
X2204524Y-1265524D01*
X2204524Y-1265524D02*
X2185476Y-1265524D01*
X2185476Y-1265524D02*
X2166429Y-1256000D01*
X2166429Y-1256000D02*
X2156905Y-1246476D01*
X2156905Y-1246476D02*
X2147381Y-1227429D01*
X2147381Y-1227429D02*
X2137857Y-1189333D01*
X2137857Y-1189333D02*
X2137857Y-1141714D01*
X2137857Y-1141714D02*
X2147381Y-1103619D01*
X2147381Y-1103619D02*
X2156905Y-1084571D01*
X2156905Y-1084571D02*
X2166429Y-1075048D01*
X2166429Y-1075048D02*
X2185476Y-1065524D01*
X2337857Y-1246476D02*
X2347381Y-1256000D01*
X2347381Y-1256000D02*
X2337857Y-1265524D01*
X2337857Y-1265524D02*
X2328334Y-1256000D01*
X2328334Y-1256000D02*
X2337857Y-1246476D01*
X2337857Y-1246476D02*
X2337857Y-1265524D01*
X2471191Y-1065524D02*
X2490238Y-1065524D01*
X2490238Y-1065524D02*
X2509286Y-1075048D01*
X2509286Y-1075048D02*
X2518810Y-1084571D01*
X2518810Y-1084571D02*
X2528334Y-1103619D01*
X2528334Y-1103619D02*
X2537857Y-1141714D01*
X2537857Y-1141714D02*
X2537857Y-1189333D01*
X2537857Y-1189333D02*
X2528334Y-1227429D01*
X2528334Y-1227429D02*
X2518810Y-1246476D01*
X2518810Y-1246476D02*
X2509286Y-1256000D01*
X2509286Y-1256000D02*
X2490238Y-1265524D01*
X2490238Y-1265524D02*
X2471191Y-1265524D01*
X2471191Y-1265524D02*
X2452143Y-1256000D01*
X2452143Y-1256000D02*
X2442619Y-1246476D01*
X2442619Y-1246476D02*
X2433095Y-1227429D01*
X2433095Y-1227429D02*
X2423572Y-1189333D01*
X2423572Y-1189333D02*
X2423572Y-1141714D01*
X2423572Y-1141714D02*
X2433095Y-1103619D01*
X2433095Y-1103619D02*
X2442619Y-1084571D01*
X2442619Y-1084571D02*
X2452143Y-1075048D01*
X2452143Y-1075048D02*
X2471191Y-1065524D01*
X2604524Y-1065524D02*
X2728334Y-1065524D01*
X2728334Y-1065524D02*
X2661667Y-1141714D01*
X2661667Y-1141714D02*
X2690238Y-1141714D01*
X2690238Y-1141714D02*
X2709286Y-1151238D01*
X2709286Y-1151238D02*
X2718810Y-1160762D01*
X2718810Y-1160762D02*
X2728334Y-1179810D01*
X2728334Y-1179810D02*
X2728334Y-1227429D01*
X2728334Y-1227429D02*
X2718810Y-1246476D01*
X2718810Y-1246476D02*
X2709286Y-1256000D01*
X2709286Y-1256000D02*
X2690238Y-1265524D01*
X2690238Y-1265524D02*
X2633095Y-1265524D01*
X2633095Y-1265524D02*
X2614048Y-1256000D01*
X2614048Y-1256000D02*
X2604524Y-1246476D01*
X2823572Y-1265524D02*
X2861667Y-1265524D01*
X2861667Y-1265524D02*
X2880714Y-1256000D01*
X2880714Y-1256000D02*
X2890238Y-1246476D01*
X2890238Y-1246476D02*
X2909286Y-1217905D01*
X2909286Y-1217905D02*
X2918810Y-1179810D01*
X2918810Y-1179810D02*
X2918810Y-1103619D01*
X2918810Y-1103619D02*
X2909286Y-1084571D01*
X2909286Y-1084571D02*
X2899762Y-1075048D01*
X2899762Y-1075048D02*
X2880714Y-1065524D01*
X2880714Y-1065524D02*
X2842619Y-1065524D01*
X2842619Y-1065524D02*
X2823572Y-1075048D01*
X2823572Y-1075048D02*
X2814048Y-1084571D01*
X2814048Y-1084571D02*
X2804524Y-1103619D01*
X2804524Y-1103619D02*
X2804524Y-1151238D01*
X2804524Y-1151238D02*
X2814048Y-1170286D01*
X2814048Y-1170286D02*
X2823572Y-1179810D01*
X2823572Y-1179810D02*
X2842619Y-1189333D01*
X2842619Y-1189333D02*
X2880714Y-1189333D01*
X2880714Y-1189333D02*
X2899762Y-1179810D01*
X2899762Y-1179810D02*
X2909286Y-1170286D01*
X2909286Y-1170286D02*
X2918810Y-1151238D01*
X3090238Y-1132190D02*
X3090238Y-1265524D01*
X3042619Y-1056000D02*
X2995000Y-1198857D01*
X2995000Y-1198857D02*
X3118810Y-1198857D01*
X3185476Y-1065524D02*
X3185476Y-1103619D01*
X3261667Y-1065524D02*
X3261667Y-1103619D01*
X3556905Y-1341714D02*
X3547381Y-1332190D01*
X3547381Y-1332190D02*
X3528334Y-1303619D01*
X3528334Y-1303619D02*
X3518810Y-1284571D01*
X3518810Y-1284571D02*
X3509286Y-1256000D01*
X3509286Y-1256000D02*
X3499762Y-1208381D01*
X3499762Y-1208381D02*
X3499762Y-1170286D01*
X3499762Y-1170286D02*
X3509286Y-1122667D01*
X3509286Y-1122667D02*
X3518810Y-1094095D01*
X3518810Y-1094095D02*
X3528334Y-1075048D01*
X3528334Y-1075048D02*
X3547381Y-1046476D01*
X3547381Y-1046476D02*
X3556905Y-1036952D01*
X3614048Y-1065524D02*
X3737857Y-1065524D01*
X3737857Y-1065524D02*
X3671191Y-1141714D01*
X3671191Y-1141714D02*
X3699762Y-1141714D01*
X3699762Y-1141714D02*
X3718810Y-1151238D01*
X3718810Y-1151238D02*
X3728334Y-1160762D01*
X3728334Y-1160762D02*
X3737857Y-1179810D01*
X3737857Y-1179810D02*
X3737857Y-1227429D01*
X3737857Y-1227429D02*
X3728334Y-1246476D01*
X3728334Y-1246476D02*
X3718810Y-1256000D01*
X3718810Y-1256000D02*
X3699762Y-1265524D01*
X3699762Y-1265524D02*
X3642619Y-1265524D01*
X3642619Y-1265524D02*
X3623572Y-1256000D01*
X3623572Y-1256000D02*
X3614048Y-1246476D01*
X3804524Y-1065524D02*
X3937857Y-1065524D01*
X3937857Y-1065524D02*
X3852143Y-1265524D01*
X4166429Y-1265524D02*
X4166429Y-1065524D01*
X4252143Y-1265524D02*
X4252143Y-1160762D01*
X4252143Y-1160762D02*
X4242619Y-1141714D01*
X4242619Y-1141714D02*
X4223572Y-1132190D01*
X4223572Y-1132190D02*
X4195000Y-1132190D01*
X4195000Y-1132190D02*
X4175953Y-1141714D01*
X4175953Y-1141714D02*
X4166429Y-1151238D01*
X4375953Y-1265524D02*
X4356905Y-1256000D01*
X4356905Y-1256000D02*
X4347381Y-1246476D01*
X4347381Y-1246476D02*
X4337858Y-1227429D01*
X4337858Y-1227429D02*
X4337858Y-1170286D01*
X4337858Y-1170286D02*
X4347381Y-1151238D01*
X4347381Y-1151238D02*
X4356905Y-1141714D01*
X4356905Y-1141714D02*
X4375953Y-1132190D01*
X4375953Y-1132190D02*
X4404524Y-1132190D01*
X4404524Y-1132190D02*
X4423572Y-1141714D01*
X4423572Y-1141714D02*
X4433096Y-1151238D01*
X4433096Y-1151238D02*
X4442619Y-1170286D01*
X4442619Y-1170286D02*
X4442619Y-1227429D01*
X4442619Y-1227429D02*
X4433096Y-1246476D01*
X4433096Y-1246476D02*
X4423572Y-1256000D01*
X4423572Y-1256000D02*
X4404524Y-1265524D01*
X4404524Y-1265524D02*
X4375953Y-1265524D01*
X4556905Y-1265524D02*
X4537858Y-1256000D01*
X4537858Y-1256000D02*
X4528334Y-1236952D01*
X4528334Y-1236952D02*
X4528334Y-1065524D01*
X4709286Y-1256000D02*
X4690239Y-1265524D01*
X4690239Y-1265524D02*
X4652143Y-1265524D01*
X4652143Y-1265524D02*
X4633096Y-1256000D01*
X4633096Y-1256000D02*
X4623572Y-1236952D01*
X4623572Y-1236952D02*
X4623572Y-1160762D01*
X4623572Y-1160762D02*
X4633096Y-1141714D01*
X4633096Y-1141714D02*
X4652143Y-1132190D01*
X4652143Y-1132190D02*
X4690239Y-1132190D01*
X4690239Y-1132190D02*
X4709286Y-1141714D01*
X4709286Y-1141714D02*
X4718810Y-1160762D01*
X4718810Y-1160762D02*
X4718810Y-1179810D01*
X4718810Y-1179810D02*
X4623572Y-1198857D01*
X4795000Y-1256000D02*
X4814048Y-1265524D01*
X4814048Y-1265524D02*
X4852143Y-1265524D01*
X4852143Y-1265524D02*
X4871191Y-1256000D01*
X4871191Y-1256000D02*
X4880715Y-1236952D01*
X4880715Y-1236952D02*
X4880715Y-1227429D01*
X4880715Y-1227429D02*
X4871191Y-1208381D01*
X4871191Y-1208381D02*
X4852143Y-1198857D01*
X4852143Y-1198857D02*
X4823572Y-1198857D01*
X4823572Y-1198857D02*
X4804524Y-1189333D01*
X4804524Y-1189333D02*
X4795000Y-1170286D01*
X4795000Y-1170286D02*
X4795000Y-1160762D01*
X4795000Y-1160762D02*
X4804524Y-1141714D01*
X4804524Y-1141714D02*
X4823572Y-1132190D01*
X4823572Y-1132190D02*
X4852143Y-1132190D01*
X4852143Y-1132190D02*
X4871191Y-1141714D01*
X4947381Y-1341714D02*
X4956905Y-1332190D01*
X4956905Y-1332190D02*
X4975953Y-1303619D01*
X4975953Y-1303619D02*
X4985477Y-1284571D01*
X4985477Y-1284571D02*
X4995000Y-1256000D01*
X4995000Y-1256000D02*
X5004524Y-1208381D01*
X5004524Y-1208381D02*
X5004524Y-1170286D01*
X5004524Y-1170286D02*
X4995000Y-1122667D01*
X4995000Y-1122667D02*
X4985477Y-1094095D01*
X4985477Y-1094095D02*
X4975953Y-1075048D01*
X4975953Y-1075048D02*
X4956905Y-1046476D01*
X4956905Y-1046476D02*
X4947381Y-1036952D01*
D14*
X-19937Y-1473063D02*
X-19937Y-1400937D01*
X-92063Y-1400937D01*
X-92063Y-1473063D01*
X-19937Y-1473063D01*
D11*
X347381Y-1529524D02*
X233095Y-1529524D01*
X290238Y-1529524D02*
X290238Y-1329524D01*
X290238Y-1329524D02*
X271190Y-1358095D01*
X271190Y-1358095D02*
X252143Y-1377143D01*
X252143Y-1377143D02*
X233095Y-1386667D01*
X433095Y-1510476D02*
X442619Y-1520000D01*
X442619Y-1520000D02*
X433095Y-1529524D01*
X433095Y-1529524D02*
X423571Y-1520000D01*
X423571Y-1520000D02*
X433095Y-1510476D01*
X433095Y-1510476D02*
X433095Y-1529524D01*
X566429Y-1329524D02*
X585476Y-1329524D01*
X585476Y-1329524D02*
X604524Y-1339048D01*
X604524Y-1339048D02*
X614048Y-1348571D01*
X614048Y-1348571D02*
X623571Y-1367619D01*
X623571Y-1367619D02*
X633095Y-1405714D01*
X633095Y-1405714D02*
X633095Y-1453333D01*
X633095Y-1453333D02*
X623571Y-1491428D01*
X623571Y-1491428D02*
X614048Y-1510476D01*
X614048Y-1510476D02*
X604524Y-1520000D01*
X604524Y-1520000D02*
X585476Y-1529524D01*
X585476Y-1529524D02*
X566429Y-1529524D01*
X566429Y-1529524D02*
X547381Y-1520000D01*
X547381Y-1520000D02*
X537857Y-1510476D01*
X537857Y-1510476D02*
X528333Y-1491428D01*
X528333Y-1491428D02*
X518809Y-1453333D01*
X518809Y-1453333D02*
X518809Y-1405714D01*
X518809Y-1405714D02*
X528333Y-1367619D01*
X528333Y-1367619D02*
X537857Y-1348571D01*
X537857Y-1348571D02*
X547381Y-1339048D01*
X547381Y-1339048D02*
X566429Y-1329524D01*
X709286Y-1348571D02*
X718809Y-1339048D01*
X718809Y-1339048D02*
X737857Y-1329524D01*
X737857Y-1329524D02*
X785476Y-1329524D01*
X785476Y-1329524D02*
X804524Y-1339048D01*
X804524Y-1339048D02*
X814048Y-1348571D01*
X814048Y-1348571D02*
X823571Y-1367619D01*
X823571Y-1367619D02*
X823571Y-1386667D01*
X823571Y-1386667D02*
X814048Y-1415238D01*
X814048Y-1415238D02*
X699762Y-1529524D01*
X699762Y-1529524D02*
X823571Y-1529524D01*
X947381Y-1329524D02*
X966429Y-1329524D01*
X966429Y-1329524D02*
X985476Y-1339048D01*
X985476Y-1339048D02*
X995000Y-1348571D01*
X995000Y-1348571D02*
X1004524Y-1367619D01*
X1004524Y-1367619D02*
X1014048Y-1405714D01*
X1014048Y-1405714D02*
X1014048Y-1453333D01*
X1014048Y-1453333D02*
X1004524Y-1491428D01*
X1004524Y-1491428D02*
X995000Y-1510476D01*
X995000Y-1510476D02*
X985476Y-1520000D01*
X985476Y-1520000D02*
X966429Y-1529524D01*
X966429Y-1529524D02*
X947381Y-1529524D01*
X947381Y-1529524D02*
X928333Y-1520000D01*
X928333Y-1520000D02*
X918809Y-1510476D01*
X918809Y-1510476D02*
X909286Y-1491428D01*
X909286Y-1491428D02*
X899762Y-1453333D01*
X899762Y-1453333D02*
X899762Y-1405714D01*
X899762Y-1405714D02*
X909286Y-1367619D01*
X909286Y-1367619D02*
X918809Y-1348571D01*
X918809Y-1348571D02*
X928333Y-1339048D01*
X928333Y-1339048D02*
X947381Y-1329524D01*
X1099762Y-1529524D02*
X1099762Y-1396190D01*
X1099762Y-1415238D02*
X1109286Y-1405714D01*
X1109286Y-1405714D02*
X1128333Y-1396190D01*
X1128333Y-1396190D02*
X1156905Y-1396190D01*
X1156905Y-1396190D02*
X1175952Y-1405714D01*
X1175952Y-1405714D02*
X1185476Y-1424762D01*
X1185476Y-1424762D02*
X1185476Y-1529524D01*
X1185476Y-1424762D02*
X1195000Y-1405714D01*
X1195000Y-1405714D02*
X1214048Y-1396190D01*
X1214048Y-1396190D02*
X1242619Y-1396190D01*
X1242619Y-1396190D02*
X1261667Y-1405714D01*
X1261667Y-1405714D02*
X1271191Y-1424762D01*
X1271191Y-1424762D02*
X1271191Y-1529524D01*
X1366429Y-1529524D02*
X1366429Y-1396190D01*
X1366429Y-1415238D02*
X1375952Y-1405714D01*
X1375952Y-1405714D02*
X1395000Y-1396190D01*
X1395000Y-1396190D02*
X1423571Y-1396190D01*
X1423571Y-1396190D02*
X1442619Y-1405714D01*
X1442619Y-1405714D02*
X1452143Y-1424762D01*
X1452143Y-1424762D02*
X1452143Y-1529524D01*
X1452143Y-1424762D02*
X1461667Y-1405714D01*
X1461667Y-1405714D02*
X1480714Y-1396190D01*
X1480714Y-1396190D02*
X1509286Y-1396190D01*
X1509286Y-1396190D02*
X1528333Y-1405714D01*
X1528333Y-1405714D02*
X1537857Y-1424762D01*
X1537857Y-1424762D02*
X1537857Y-1529524D01*
X1928333Y-1320000D02*
X1756905Y-1577143D01*
X2185476Y-1329524D02*
X2204524Y-1329524D01*
X2204524Y-1329524D02*
X2223572Y-1339048D01*
X2223572Y-1339048D02*
X2233095Y-1348571D01*
X2233095Y-1348571D02*
X2242619Y-1367619D01*
X2242619Y-1367619D02*
X2252143Y-1405714D01*
X2252143Y-1405714D02*
X2252143Y-1453333D01*
X2252143Y-1453333D02*
X2242619Y-1491428D01*
X2242619Y-1491428D02*
X2233095Y-1510476D01*
X2233095Y-1510476D02*
X2223572Y-1520000D01*
X2223572Y-1520000D02*
X2204524Y-1529524D01*
X2204524Y-1529524D02*
X2185476Y-1529524D01*
X2185476Y-1529524D02*
X2166429Y-1520000D01*
X2166429Y-1520000D02*
X2156905Y-1510476D01*
X2156905Y-1510476D02*
X2147381Y-1491428D01*
X2147381Y-1491428D02*
X2137857Y-1453333D01*
X2137857Y-1453333D02*
X2137857Y-1405714D01*
X2137857Y-1405714D02*
X2147381Y-1367619D01*
X2147381Y-1367619D02*
X2156905Y-1348571D01*
X2156905Y-1348571D02*
X2166429Y-1339048D01*
X2166429Y-1339048D02*
X2185476Y-1329524D01*
X2337857Y-1510476D02*
X2347381Y-1520000D01*
X2347381Y-1520000D02*
X2337857Y-1529524D01*
X2337857Y-1529524D02*
X2328334Y-1520000D01*
X2328334Y-1520000D02*
X2337857Y-1510476D01*
X2337857Y-1510476D02*
X2337857Y-1529524D01*
X2471191Y-1329524D02*
X2490238Y-1329524D01*
X2490238Y-1329524D02*
X2509286Y-1339048D01*
X2509286Y-1339048D02*
X2518810Y-1348571D01*
X2518810Y-1348571D02*
X2528334Y-1367619D01*
X2528334Y-1367619D02*
X2537857Y-1405714D01*
X2537857Y-1405714D02*
X2537857Y-1453333D01*
X2537857Y-1453333D02*
X2528334Y-1491428D01*
X2528334Y-1491428D02*
X2518810Y-1510476D01*
X2518810Y-1510476D02*
X2509286Y-1520000D01*
X2509286Y-1520000D02*
X2490238Y-1529524D01*
X2490238Y-1529524D02*
X2471191Y-1529524D01*
X2471191Y-1529524D02*
X2452143Y-1520000D01*
X2452143Y-1520000D02*
X2442619Y-1510476D01*
X2442619Y-1510476D02*
X2433095Y-1491428D01*
X2433095Y-1491428D02*
X2423572Y-1453333D01*
X2423572Y-1453333D02*
X2423572Y-1405714D01*
X2423572Y-1405714D02*
X2433095Y-1367619D01*
X2433095Y-1367619D02*
X2442619Y-1348571D01*
X2442619Y-1348571D02*
X2452143Y-1339048D01*
X2452143Y-1339048D02*
X2471191Y-1329524D01*
X2709286Y-1396190D02*
X2709286Y-1529524D01*
X2661667Y-1320000D02*
X2614048Y-1462857D01*
X2614048Y-1462857D02*
X2737857Y-1462857D01*
X2852143Y-1329524D02*
X2871191Y-1329524D01*
X2871191Y-1329524D02*
X2890238Y-1339048D01*
X2890238Y-1339048D02*
X2899762Y-1348571D01*
X2899762Y-1348571D02*
X2909286Y-1367619D01*
X2909286Y-1367619D02*
X2918810Y-1405714D01*
X2918810Y-1405714D02*
X2918810Y-1453333D01*
X2918810Y-1453333D02*
X2909286Y-1491428D01*
X2909286Y-1491428D02*
X2899762Y-1510476D01*
X2899762Y-1510476D02*
X2890238Y-1520000D01*
X2890238Y-1520000D02*
X2871191Y-1529524D01*
X2871191Y-1529524D02*
X2852143Y-1529524D01*
X2852143Y-1529524D02*
X2833095Y-1520000D01*
X2833095Y-1520000D02*
X2823572Y-1510476D01*
X2823572Y-1510476D02*
X2814048Y-1491428D01*
X2814048Y-1491428D02*
X2804524Y-1453333D01*
X2804524Y-1453333D02*
X2804524Y-1405714D01*
X2804524Y-1405714D02*
X2814048Y-1367619D01*
X2814048Y-1367619D02*
X2823572Y-1348571D01*
X2823572Y-1348571D02*
X2833095Y-1339048D01*
X2833095Y-1339048D02*
X2852143Y-1329524D01*
X2995000Y-1348571D02*
X3004524Y-1339048D01*
X3004524Y-1339048D02*
X3023572Y-1329524D01*
X3023572Y-1329524D02*
X3071191Y-1329524D01*
X3071191Y-1329524D02*
X3090238Y-1339048D01*
X3090238Y-1339048D02*
X3099762Y-1348571D01*
X3099762Y-1348571D02*
X3109286Y-1367619D01*
X3109286Y-1367619D02*
X3109286Y-1386667D01*
X3109286Y-1386667D02*
X3099762Y-1415238D01*
X3099762Y-1415238D02*
X2985476Y-1529524D01*
X2985476Y-1529524D02*
X3109286Y-1529524D01*
X3185476Y-1329524D02*
X3185476Y-1367619D01*
X3261667Y-1329524D02*
X3261667Y-1367619D01*
X3556905Y-1605714D02*
X3547381Y-1596190D01*
X3547381Y-1596190D02*
X3528334Y-1567619D01*
X3528334Y-1567619D02*
X3518810Y-1548571D01*
X3518810Y-1548571D02*
X3509286Y-1520000D01*
X3509286Y-1520000D02*
X3499762Y-1472381D01*
X3499762Y-1472381D02*
X3499762Y-1434286D01*
X3499762Y-1434286D02*
X3509286Y-1386667D01*
X3509286Y-1386667D02*
X3518810Y-1358095D01*
X3518810Y-1358095D02*
X3528334Y-1339048D01*
X3528334Y-1339048D02*
X3547381Y-1310476D01*
X3547381Y-1310476D02*
X3556905Y-1300952D01*
X3718810Y-1396190D02*
X3718810Y-1529524D01*
X3671191Y-1320000D02*
X3623572Y-1462857D01*
X3623572Y-1462857D02*
X3747381Y-1462857D01*
X3804524Y-1329524D02*
X3928334Y-1329524D01*
X3928334Y-1329524D02*
X3861667Y-1405714D01*
X3861667Y-1405714D02*
X3890238Y-1405714D01*
X3890238Y-1405714D02*
X3909286Y-1415238D01*
X3909286Y-1415238D02*
X3918810Y-1424762D01*
X3918810Y-1424762D02*
X3928334Y-1443809D01*
X3928334Y-1443809D02*
X3928334Y-1491428D01*
X3928334Y-1491428D02*
X3918810Y-1510476D01*
X3918810Y-1510476D02*
X3909286Y-1520000D01*
X3909286Y-1520000D02*
X3890238Y-1529524D01*
X3890238Y-1529524D02*
X3833095Y-1529524D01*
X3833095Y-1529524D02*
X3814048Y-1520000D01*
X3814048Y-1520000D02*
X3804524Y-1510476D01*
X4166429Y-1529524D02*
X4166429Y-1329524D01*
X4252143Y-1529524D02*
X4252143Y-1424762D01*
X4252143Y-1424762D02*
X4242619Y-1405714D01*
X4242619Y-1405714D02*
X4223572Y-1396190D01*
X4223572Y-1396190D02*
X4195000Y-1396190D01*
X4195000Y-1396190D02*
X4175953Y-1405714D01*
X4175953Y-1405714D02*
X4166429Y-1415238D01*
X4375953Y-1529524D02*
X4356905Y-1520000D01*
X4356905Y-1520000D02*
X4347381Y-1510476D01*
X4347381Y-1510476D02*
X4337858Y-1491428D01*
X4337858Y-1491428D02*
X4337858Y-1434286D01*
X4337858Y-1434286D02*
X4347381Y-1415238D01*
X4347381Y-1415238D02*
X4356905Y-1405714D01*
X4356905Y-1405714D02*
X4375953Y-1396190D01*
X4375953Y-1396190D02*
X4404524Y-1396190D01*
X4404524Y-1396190D02*
X4423572Y-1405714D01*
X4423572Y-1405714D02*
X4433096Y-1415238D01*
X4433096Y-1415238D02*
X4442619Y-1434286D01*
X4442619Y-1434286D02*
X4442619Y-1491428D01*
X4442619Y-1491428D02*
X4433096Y-1510476D01*
X4433096Y-1510476D02*
X4423572Y-1520000D01*
X4423572Y-1520000D02*
X4404524Y-1529524D01*
X4404524Y-1529524D02*
X4375953Y-1529524D01*
X4556905Y-1529524D02*
X4537858Y-1520000D01*
X4537858Y-1520000D02*
X4528334Y-1500952D01*
X4528334Y-1500952D02*
X4528334Y-1329524D01*
X4709286Y-1520000D02*
X4690239Y-1529524D01*
X4690239Y-1529524D02*
X4652143Y-1529524D01*
X4652143Y-1529524D02*
X4633096Y-1520000D01*
X4633096Y-1520000D02*
X4623572Y-1500952D01*
X4623572Y-1500952D02*
X4623572Y-1424762D01*
X4623572Y-1424762D02*
X4633096Y-1405714D01*
X4633096Y-1405714D02*
X4652143Y-1396190D01*
X4652143Y-1396190D02*
X4690239Y-1396190D01*
X4690239Y-1396190D02*
X4709286Y-1405714D01*
X4709286Y-1405714D02*
X4718810Y-1424762D01*
X4718810Y-1424762D02*
X4718810Y-1443809D01*
X4718810Y-1443809D02*
X4623572Y-1462857D01*
X4795000Y-1520000D02*
X4814048Y-1529524D01*
X4814048Y-1529524D02*
X4852143Y-1529524D01*
X4852143Y-1529524D02*
X4871191Y-1520000D01*
X4871191Y-1520000D02*
X4880715Y-1500952D01*
X4880715Y-1500952D02*
X4880715Y-1491428D01*
X4880715Y-1491428D02*
X4871191Y-1472381D01*
X4871191Y-1472381D02*
X4852143Y-1462857D01*
X4852143Y-1462857D02*
X4823572Y-1462857D01*
X4823572Y-1462857D02*
X4804524Y-1453333D01*
X4804524Y-1453333D02*
X4795000Y-1434286D01*
X4795000Y-1434286D02*
X4795000Y-1424762D01*
X4795000Y-1424762D02*
X4804524Y-1405714D01*
X4804524Y-1405714D02*
X4823572Y-1396190D01*
X4823572Y-1396190D02*
X4852143Y-1396190D01*
X4852143Y-1396190D02*
X4871191Y-1405714D01*
X4947381Y-1605714D02*
X4956905Y-1596190D01*
X4956905Y-1596190D02*
X4975953Y-1567619D01*
X4975953Y-1567619D02*
X4985477Y-1548571D01*
X4985477Y-1548571D02*
X4995000Y-1520000D01*
X4995000Y-1520000D02*
X5004524Y-1472381D01*
X5004524Y-1472381D02*
X5004524Y-1434286D01*
X5004524Y-1434286D02*
X4995000Y-1386667D01*
X4995000Y-1386667D02*
X4985477Y-1358095D01*
X4985477Y-1358095D02*
X4975953Y-1339048D01*
X4975953Y-1339048D02*
X4956905Y-1310476D01*
X4956905Y-1310476D02*
X4947381Y-1300952D01*
D15*
X-80000Y-1776000D02*
X-5000Y-1701000D01*
X-80000Y-1626000D01*
X-155000Y-1701000D01*
X-80000Y-1776000D01*
D11*
X347381Y-1793524D02*
X233095Y-1793524D01*
X290238Y-1793524D02*
X290238Y-1593524D01*
X290238Y-1593524D02*
X271190Y-1622095D01*
X271190Y-1622095D02*
X252143Y-1641143D01*
X252143Y-1641143D02*
X233095Y-1650667D01*
X433095Y-1774476D02*
X442619Y-1784000D01*
X442619Y-1784000D02*
X433095Y-1793524D01*
X433095Y-1793524D02*
X423571Y-1784000D01*
X423571Y-1784000D02*
X433095Y-1774476D01*
X433095Y-1774476D02*
X433095Y-1793524D01*
X623571Y-1593524D02*
X528333Y-1593524D01*
X528333Y-1593524D02*
X518809Y-1688762D01*
X518809Y-1688762D02*
X528333Y-1679238D01*
X528333Y-1679238D02*
X547381Y-1669714D01*
X547381Y-1669714D02*
X595000Y-1669714D01*
X595000Y-1669714D02*
X614048Y-1679238D01*
X614048Y-1679238D02*
X623571Y-1688762D01*
X623571Y-1688762D02*
X633095Y-1707809D01*
X633095Y-1707809D02*
X633095Y-1755428D01*
X633095Y-1755428D02*
X623571Y-1774476D01*
X623571Y-1774476D02*
X614048Y-1784000D01*
X614048Y-1784000D02*
X595000Y-1793524D01*
X595000Y-1793524D02*
X547381Y-1793524D01*
X547381Y-1793524D02*
X528333Y-1784000D01*
X528333Y-1784000D02*
X518809Y-1774476D01*
X756905Y-1593524D02*
X775952Y-1593524D01*
X775952Y-1593524D02*
X795000Y-1603048D01*
X795000Y-1603048D02*
X804524Y-1612571D01*
X804524Y-1612571D02*
X814048Y-1631619D01*
X814048Y-1631619D02*
X823571Y-1669714D01*
X823571Y-1669714D02*
X823571Y-1717333D01*
X823571Y-1717333D02*
X814048Y-1755428D01*
X814048Y-1755428D02*
X804524Y-1774476D01*
X804524Y-1774476D02*
X795000Y-1784000D01*
X795000Y-1784000D02*
X775952Y-1793524D01*
X775952Y-1793524D02*
X756905Y-1793524D01*
X756905Y-1793524D02*
X737857Y-1784000D01*
X737857Y-1784000D02*
X728333Y-1774476D01*
X728333Y-1774476D02*
X718809Y-1755428D01*
X718809Y-1755428D02*
X709286Y-1717333D01*
X709286Y-1717333D02*
X709286Y-1669714D01*
X709286Y-1669714D02*
X718809Y-1631619D01*
X718809Y-1631619D02*
X728333Y-1612571D01*
X728333Y-1612571D02*
X737857Y-1603048D01*
X737857Y-1603048D02*
X756905Y-1593524D01*
X947381Y-1593524D02*
X966429Y-1593524D01*
X966429Y-1593524D02*
X985476Y-1603048D01*
X985476Y-1603048D02*
X995000Y-1612571D01*
X995000Y-1612571D02*
X1004524Y-1631619D01*
X1004524Y-1631619D02*
X1014048Y-1669714D01*
X1014048Y-1669714D02*
X1014048Y-1717333D01*
X1014048Y-1717333D02*
X1004524Y-1755428D01*
X1004524Y-1755428D02*
X995000Y-1774476D01*
X995000Y-1774476D02*
X985476Y-1784000D01*
X985476Y-1784000D02*
X966429Y-1793524D01*
X966429Y-1793524D02*
X947381Y-1793524D01*
X947381Y-1793524D02*
X928333Y-1784000D01*
X928333Y-1784000D02*
X918809Y-1774476D01*
X918809Y-1774476D02*
X909286Y-1755428D01*
X909286Y-1755428D02*
X899762Y-1717333D01*
X899762Y-1717333D02*
X899762Y-1669714D01*
X899762Y-1669714D02*
X909286Y-1631619D01*
X909286Y-1631619D02*
X918809Y-1612571D01*
X918809Y-1612571D02*
X928333Y-1603048D01*
X928333Y-1603048D02*
X947381Y-1593524D01*
X1099762Y-1793524D02*
X1099762Y-1660190D01*
X1099762Y-1679238D02*
X1109286Y-1669714D01*
X1109286Y-1669714D02*
X1128333Y-1660190D01*
X1128333Y-1660190D02*
X1156905Y-1660190D01*
X1156905Y-1660190D02*
X1175952Y-1669714D01*
X1175952Y-1669714D02*
X1185476Y-1688762D01*
X1185476Y-1688762D02*
X1185476Y-1793524D01*
X1185476Y-1688762D02*
X1195000Y-1669714D01*
X1195000Y-1669714D02*
X1214048Y-1660190D01*
X1214048Y-1660190D02*
X1242619Y-1660190D01*
X1242619Y-1660190D02*
X1261667Y-1669714D01*
X1261667Y-1669714D02*
X1271191Y-1688762D01*
X1271191Y-1688762D02*
X1271191Y-1793524D01*
X1366429Y-1793524D02*
X1366429Y-1660190D01*
X1366429Y-1679238D02*
X1375952Y-1669714D01*
X1375952Y-1669714D02*
X1395000Y-1660190D01*
X1395000Y-1660190D02*
X1423571Y-1660190D01*
X1423571Y-1660190D02*
X1442619Y-1669714D01*
X1442619Y-1669714D02*
X1452143Y-1688762D01*
X1452143Y-1688762D02*
X1452143Y-1793524D01*
X1452143Y-1688762D02*
X1461667Y-1669714D01*
X1461667Y-1669714D02*
X1480714Y-1660190D01*
X1480714Y-1660190D02*
X1509286Y-1660190D01*
X1509286Y-1660190D02*
X1528333Y-1669714D01*
X1528333Y-1669714D02*
X1537857Y-1688762D01*
X1537857Y-1688762D02*
X1537857Y-1793524D01*
X1928333Y-1584000D02*
X1756905Y-1841143D01*
X2185476Y-1593524D02*
X2204524Y-1593524D01*
X2204524Y-1593524D02*
X2223572Y-1603048D01*
X2223572Y-1603048D02*
X2233095Y-1612571D01*
X2233095Y-1612571D02*
X2242619Y-1631619D01*
X2242619Y-1631619D02*
X2252143Y-1669714D01*
X2252143Y-1669714D02*
X2252143Y-1717333D01*
X2252143Y-1717333D02*
X2242619Y-1755428D01*
X2242619Y-1755428D02*
X2233095Y-1774476D01*
X2233095Y-1774476D02*
X2223572Y-1784000D01*
X2223572Y-1784000D02*
X2204524Y-1793524D01*
X2204524Y-1793524D02*
X2185476Y-1793524D01*
X2185476Y-1793524D02*
X2166429Y-1784000D01*
X2166429Y-1784000D02*
X2156905Y-1774476D01*
X2156905Y-1774476D02*
X2147381Y-1755428D01*
X2147381Y-1755428D02*
X2137857Y-1717333D01*
X2137857Y-1717333D02*
X2137857Y-1669714D01*
X2137857Y-1669714D02*
X2147381Y-1631619D01*
X2147381Y-1631619D02*
X2156905Y-1612571D01*
X2156905Y-1612571D02*
X2166429Y-1603048D01*
X2166429Y-1603048D02*
X2185476Y-1593524D01*
X2337857Y-1774476D02*
X2347381Y-1784000D01*
X2347381Y-1784000D02*
X2337857Y-1793524D01*
X2337857Y-1793524D02*
X2328334Y-1784000D01*
X2328334Y-1784000D02*
X2337857Y-1774476D01*
X2337857Y-1774476D02*
X2337857Y-1793524D01*
X2471191Y-1593524D02*
X2490238Y-1593524D01*
X2490238Y-1593524D02*
X2509286Y-1603048D01*
X2509286Y-1603048D02*
X2518810Y-1612571D01*
X2518810Y-1612571D02*
X2528334Y-1631619D01*
X2528334Y-1631619D02*
X2537857Y-1669714D01*
X2537857Y-1669714D02*
X2537857Y-1717333D01*
X2537857Y-1717333D02*
X2528334Y-1755428D01*
X2528334Y-1755428D02*
X2518810Y-1774476D01*
X2518810Y-1774476D02*
X2509286Y-1784000D01*
X2509286Y-1784000D02*
X2490238Y-1793524D01*
X2490238Y-1793524D02*
X2471191Y-1793524D01*
X2471191Y-1793524D02*
X2452143Y-1784000D01*
X2452143Y-1784000D02*
X2442619Y-1774476D01*
X2442619Y-1774476D02*
X2433095Y-1755428D01*
X2433095Y-1755428D02*
X2423572Y-1717333D01*
X2423572Y-1717333D02*
X2423572Y-1669714D01*
X2423572Y-1669714D02*
X2433095Y-1631619D01*
X2433095Y-1631619D02*
X2442619Y-1612571D01*
X2442619Y-1612571D02*
X2452143Y-1603048D01*
X2452143Y-1603048D02*
X2471191Y-1593524D01*
X2718810Y-1593524D02*
X2623572Y-1593524D01*
X2623572Y-1593524D02*
X2614048Y-1688762D01*
X2614048Y-1688762D02*
X2623572Y-1679238D01*
X2623572Y-1679238D02*
X2642619Y-1669714D01*
X2642619Y-1669714D02*
X2690238Y-1669714D01*
X2690238Y-1669714D02*
X2709286Y-1679238D01*
X2709286Y-1679238D02*
X2718810Y-1688762D01*
X2718810Y-1688762D02*
X2728334Y-1707809D01*
X2728334Y-1707809D02*
X2728334Y-1755428D01*
X2728334Y-1755428D02*
X2718810Y-1774476D01*
X2718810Y-1774476D02*
X2709286Y-1784000D01*
X2709286Y-1784000D02*
X2690238Y-1793524D01*
X2690238Y-1793524D02*
X2642619Y-1793524D01*
X2642619Y-1793524D02*
X2623572Y-1784000D01*
X2623572Y-1784000D02*
X2614048Y-1774476D01*
X2823572Y-1793524D02*
X2861667Y-1793524D01*
X2861667Y-1793524D02*
X2880714Y-1784000D01*
X2880714Y-1784000D02*
X2890238Y-1774476D01*
X2890238Y-1774476D02*
X2909286Y-1745905D01*
X2909286Y-1745905D02*
X2918810Y-1707809D01*
X2918810Y-1707809D02*
X2918810Y-1631619D01*
X2918810Y-1631619D02*
X2909286Y-1612571D01*
X2909286Y-1612571D02*
X2899762Y-1603048D01*
X2899762Y-1603048D02*
X2880714Y-1593524D01*
X2880714Y-1593524D02*
X2842619Y-1593524D01*
X2842619Y-1593524D02*
X2823572Y-1603048D01*
X2823572Y-1603048D02*
X2814048Y-1612571D01*
X2814048Y-1612571D02*
X2804524Y-1631619D01*
X2804524Y-1631619D02*
X2804524Y-1679238D01*
X2804524Y-1679238D02*
X2814048Y-1698286D01*
X2814048Y-1698286D02*
X2823572Y-1707809D01*
X2823572Y-1707809D02*
X2842619Y-1717333D01*
X2842619Y-1717333D02*
X2880714Y-1717333D01*
X2880714Y-1717333D02*
X2899762Y-1707809D01*
X2899762Y-1707809D02*
X2909286Y-1698286D01*
X2909286Y-1698286D02*
X2918810Y-1679238D01*
X3109286Y-1793524D02*
X2995000Y-1793524D01*
X3052143Y-1793524D02*
X3052143Y-1593524D01*
X3052143Y-1593524D02*
X3033095Y-1622095D01*
X3033095Y-1622095D02*
X3014048Y-1641143D01*
X3014048Y-1641143D02*
X2995000Y-1650667D01*
X3185476Y-1593524D02*
X3185476Y-1631619D01*
X3261667Y-1593524D02*
X3261667Y-1631619D01*
X3556905Y-1869714D02*
X3547381Y-1860190D01*
X3547381Y-1860190D02*
X3528334Y-1831619D01*
X3528334Y-1831619D02*
X3518810Y-1812571D01*
X3518810Y-1812571D02*
X3509286Y-1784000D01*
X3509286Y-1784000D02*
X3499762Y-1736381D01*
X3499762Y-1736381D02*
X3499762Y-1698286D01*
X3499762Y-1698286D02*
X3509286Y-1650667D01*
X3509286Y-1650667D02*
X3518810Y-1622095D01*
X3518810Y-1622095D02*
X3528334Y-1603048D01*
X3528334Y-1603048D02*
X3547381Y-1574476D01*
X3547381Y-1574476D02*
X3556905Y-1564952D01*
X3718810Y-1660190D02*
X3718810Y-1793524D01*
X3671191Y-1584000D02*
X3623572Y-1726857D01*
X3623572Y-1726857D02*
X3747381Y-1726857D01*
X3975953Y-1793524D02*
X3975953Y-1593524D01*
X4061667Y-1793524D02*
X4061667Y-1688762D01*
X4061667Y-1688762D02*
X4052143Y-1669714D01*
X4052143Y-1669714D02*
X4033096Y-1660190D01*
X4033096Y-1660190D02*
X4004524Y-1660190D01*
X4004524Y-1660190D02*
X3985476Y-1669714D01*
X3985476Y-1669714D02*
X3975953Y-1679238D01*
X4185476Y-1793524D02*
X4166429Y-1784000D01*
X4166429Y-1784000D02*
X4156905Y-1774476D01*
X4156905Y-1774476D02*
X4147381Y-1755428D01*
X4147381Y-1755428D02*
X4147381Y-1698286D01*
X4147381Y-1698286D02*
X4156905Y-1679238D01*
X4156905Y-1679238D02*
X4166429Y-1669714D01*
X4166429Y-1669714D02*
X4185476Y-1660190D01*
X4185476Y-1660190D02*
X4214048Y-1660190D01*
X4214048Y-1660190D02*
X4233096Y-1669714D01*
X4233096Y-1669714D02*
X4242619Y-1679238D01*
X4242619Y-1679238D02*
X4252143Y-1698286D01*
X4252143Y-1698286D02*
X4252143Y-1755428D01*
X4252143Y-1755428D02*
X4242619Y-1774476D01*
X4242619Y-1774476D02*
X4233096Y-1784000D01*
X4233096Y-1784000D02*
X4214048Y-1793524D01*
X4214048Y-1793524D02*
X4185476Y-1793524D01*
X4366429Y-1793524D02*
X4347381Y-1784000D01*
X4347381Y-1784000D02*
X4337858Y-1764952D01*
X4337858Y-1764952D02*
X4337858Y-1593524D01*
X4518810Y-1784000D02*
X4499762Y-1793524D01*
X4499762Y-1793524D02*
X4461667Y-1793524D01*
X4461667Y-1793524D02*
X4442619Y-1784000D01*
X4442619Y-1784000D02*
X4433096Y-1764952D01*
X4433096Y-1764952D02*
X4433096Y-1688762D01*
X4433096Y-1688762D02*
X4442619Y-1669714D01*
X4442619Y-1669714D02*
X4461667Y-1660190D01*
X4461667Y-1660190D02*
X4499762Y-1660190D01*
X4499762Y-1660190D02*
X4518810Y-1669714D01*
X4518810Y-1669714D02*
X4528334Y-1688762D01*
X4528334Y-1688762D02*
X4528334Y-1707809D01*
X4528334Y-1707809D02*
X4433096Y-1726857D01*
X4604524Y-1784000D02*
X4623572Y-1793524D01*
X4623572Y-1793524D02*
X4661667Y-1793524D01*
X4661667Y-1793524D02*
X4680715Y-1784000D01*
X4680715Y-1784000D02*
X4690239Y-1764952D01*
X4690239Y-1764952D02*
X4690239Y-1755428D01*
X4690239Y-1755428D02*
X4680715Y-1736381D01*
X4680715Y-1736381D02*
X4661667Y-1726857D01*
X4661667Y-1726857D02*
X4633096Y-1726857D01*
X4633096Y-1726857D02*
X4614048Y-1717333D01*
X4614048Y-1717333D02*
X4604524Y-1698286D01*
X4604524Y-1698286D02*
X4604524Y-1688762D01*
X4604524Y-1688762D02*
X4614048Y-1669714D01*
X4614048Y-1669714D02*
X4633096Y-1660190D01*
X4633096Y-1660190D02*
X4661667Y-1660190D01*
X4661667Y-1660190D02*
X4680715Y-1669714D01*
X4756905Y-1869714D02*
X4766429Y-1860190D01*
X4766429Y-1860190D02*
X4785477Y-1831619D01*
X4785477Y-1831619D02*
X4795000Y-1812571D01*
X4795000Y-1812571D02*
X4804524Y-1784000D01*
X4804524Y-1784000D02*
X4814048Y-1736381D01*
X4814048Y-1736381D02*
X4814048Y-1698286D01*
X4814048Y-1698286D02*
X4804524Y-1650667D01*
X4804524Y-1650667D02*
X4795000Y-1622095D01*
X4795000Y-1622095D02*
X4785477Y-1603048D01*
X4785477Y-1603048D02*
X4766429Y-1574476D01*
X4766429Y-1574476D02*
X4756905Y-1564952D01*
M02*
