%TF.GenerationSoftware,KiCad,Pcbnew,7.0.1*%
%TF.CreationDate,2023-04-12T13:42:12+09:00*%
%TF.ProjectId,KiCad,4b694361-642e-46b6-9963-61645f706362,rev?*%
%TF.SameCoordinates,PX7270e00PY8b3c880*%
%TF.FileFunction,Copper,L1,Top*%
%TF.FilePolarity,Positive*%
%FSLAX46Y46*%
G04 Gerber Fmt 4.6, Leading zero omitted, Abs format (unit mm)*
G04 Created by KiCad (PCBNEW 7.0.1) date 2023-04-12 13:42:12*
%MOMM*%
%LPD*%
G01*
G04 APERTURE LIST*
G04 Aperture macros list*
%AMRoundRect*
0 Rectangle with rounded corners*
0 $1 Rounding radius*
0 $2 $3 $4 $5 $6 $7 $8 $9 X,Y pos of 4 corners*
0 Add a 4 corners polygon primitive as box body*
4,1,4,$2,$3,$4,$5,$6,$7,$8,$9,$2,$3,0*
0 Add four circle primitives for the rounded corners*
1,1,$1+$1,$2,$3*
1,1,$1+$1,$4,$5*
1,1,$1+$1,$6,$7*
1,1,$1+$1,$8,$9*
0 Add four rect primitives between the rounded corners*
20,1,$1+$1,$2,$3,$4,$5,0*
20,1,$1+$1,$4,$5,$6,$7,0*
20,1,$1+$1,$6,$7,$8,$9,0*
20,1,$1+$1,$8,$9,$2,$3,0*%
G04 Aperture macros list end*
%TA.AperFunction,SMDPad,CuDef*%
%ADD10RoundRect,0.237500X0.237500X-0.300000X0.237500X0.300000X-0.237500X0.300000X-0.237500X-0.300000X0*%
%TD*%
%TA.AperFunction,ComponentPad*%
%ADD11O,1.700000X1.700000*%
%TD*%
%TA.AperFunction,SMDPad,CuDef*%
%ADD12R,3.500000X1.700000*%
%TD*%
%TA.AperFunction,ComponentPad*%
%ADD13R,1.700000X1.700000*%
%TD*%
%TA.AperFunction,SMDPad,CuDef*%
%ADD14R,1.700000X3.500000*%
%TD*%
%TA.AperFunction,ComponentPad*%
%ADD15R,1.500000X1.500000*%
%TD*%
%TA.AperFunction,SMDPad,CuDef*%
%ADD16RoundRect,0.237500X-0.237500X0.250000X-0.237500X-0.250000X0.237500X-0.250000X0.237500X0.250000X0*%
%TD*%
%TA.AperFunction,SMDPad,CuDef*%
%ADD17RoundRect,0.237500X0.250000X0.237500X-0.250000X0.237500X-0.250000X-0.237500X0.250000X-0.237500X0*%
%TD*%
%TA.AperFunction,SMDPad,CuDef*%
%ADD18RoundRect,0.237500X0.237500X-0.250000X0.237500X0.250000X-0.237500X0.250000X-0.237500X-0.250000X0*%
%TD*%
%TA.AperFunction,ComponentPad*%
%ADD19C,1.800000*%
%TD*%
%TA.AperFunction,ComponentPad*%
%ADD20C,2.600000*%
%TD*%
%TA.AperFunction,SMDPad,CuDef*%
%ADD21RoundRect,0.237500X-0.250000X-0.237500X0.250000X-0.237500X0.250000X0.237500X-0.250000X0.237500X0*%
%TD*%
%TA.AperFunction,ViaPad*%
%ADD22C,0.800000*%
%TD*%
%TA.AperFunction,Conductor*%
%ADD23C,0.400000*%
%TD*%
%TA.AperFunction,Conductor*%
%ADD24C,1.000000*%
%TD*%
G04 APERTURE END LIST*
D10*
%TO.P,C1,2*%
%TO.N,GND*%
X9425000Y9025000D03*
%TO.P,C1,1*%
%TO.N,/3V3*%
X9425000Y7300000D03*
%TD*%
D11*
%TO.P,U1,1,GPIO0*%
%TO.N,/GP0*%
X16110000Y83880000D03*
D12*
X15210000Y83880000D03*
D11*
%TO.P,U1,2,GPIO1*%
%TO.N,/GP1*%
X16110000Y81340000D03*
D12*
X15210000Y81340000D03*
D13*
%TO.P,U1,3,GND*%
%TO.N,GND*%
X16110000Y78800000D03*
D12*
X15210000Y78800000D03*
D11*
%TO.P,U1,4,GPIO2*%
%TO.N,/GP2*%
X16110000Y76260000D03*
D12*
X15210000Y76260000D03*
D11*
%TO.P,U1,5,GPIO3*%
%TO.N,/GP3*%
X16110000Y73720000D03*
D12*
X15210000Y73720000D03*
D11*
%TO.P,U1,6,GPIO4*%
%TO.N,/GP4*%
X16110000Y71180000D03*
D12*
X15210000Y71180000D03*
D11*
%TO.P,U1,7,GPIO5*%
%TO.N,/GP5*%
X16110000Y68640000D03*
D12*
X15210000Y68640000D03*
D13*
%TO.P,U1,8,GND*%
%TO.N,GND*%
X16110000Y66100000D03*
D12*
X15210000Y66100000D03*
D11*
%TO.P,U1,9,GPIO6*%
%TO.N,/GP6*%
X16110000Y63560000D03*
D12*
X15210000Y63560000D03*
D11*
%TO.P,U1,10,GPIO7*%
%TO.N,/GP7*%
X16110000Y61020000D03*
D12*
X15210000Y61020000D03*
D11*
%TO.P,U1,11,GPIO8*%
%TO.N,/GP8*%
X16110000Y58480000D03*
D12*
X15210000Y58480000D03*
D11*
%TO.P,U1,12,GPIO9*%
%TO.N,/GP9*%
X16110000Y55940000D03*
D12*
X15210000Y55940000D03*
D13*
%TO.P,U1,13,GND*%
%TO.N,GND*%
X16110000Y53400000D03*
D12*
X15210000Y53400000D03*
D11*
%TO.P,U1,14,GPIO10*%
%TO.N,/GP10*%
X16110000Y50860000D03*
D12*
X15210000Y50860000D03*
D11*
%TO.P,U1,15,GPIO11*%
%TO.N,/GP11*%
X16110000Y48320000D03*
D12*
X15210000Y48320000D03*
D11*
%TO.P,U1,16,GPIO12*%
%TO.N,/GP12*%
X16110000Y45780000D03*
D12*
X15210000Y45780000D03*
D11*
%TO.P,U1,17,GPIO13*%
%TO.N,/GP13*%
X16110000Y43240000D03*
D12*
X15210000Y43240000D03*
D13*
%TO.P,U1,18,GND*%
%TO.N,GND*%
X16110000Y40700000D03*
D12*
X15210000Y40700000D03*
D11*
%TO.P,U1,19,GPIO14*%
%TO.N,/GP14*%
X16110000Y38160000D03*
D12*
X15210000Y38160000D03*
D11*
%TO.P,U1,20,GPIO15*%
%TO.N,/GP15*%
X16110000Y35620000D03*
D12*
X15210000Y35620000D03*
D11*
%TO.P,U1,21,GPIO16*%
%TO.N,/GP16*%
X33890000Y35620000D03*
D12*
X34790000Y35620000D03*
D11*
%TO.P,U1,22,GPIO17*%
%TO.N,/GP17*%
X33890000Y38160000D03*
D12*
X34790000Y38160000D03*
D13*
%TO.P,U1,23,GND*%
%TO.N,GND*%
X33890000Y40700000D03*
D12*
X34790000Y40700000D03*
D11*
%TO.P,U1,24,GPIO18*%
%TO.N,/GP18*%
X33890000Y43240000D03*
D12*
X34790000Y43240000D03*
D11*
%TO.P,U1,25,GPIO19*%
%TO.N,/GP19*%
X33890000Y45780000D03*
D12*
X34790000Y45780000D03*
D11*
%TO.P,U1,26,GPIO20*%
%TO.N,/GP20*%
X33890000Y48320000D03*
D12*
X34790000Y48320000D03*
D11*
%TO.P,U1,27,GPIO21*%
%TO.N,/GP21*%
X33890000Y50860000D03*
D12*
X34790000Y50860000D03*
D13*
%TO.P,U1,28,GND*%
%TO.N,GND*%
X33890000Y53400000D03*
D12*
X34790000Y53400000D03*
D11*
%TO.P,U1,29,GPIO22*%
%TO.N,/GP22*%
X33890000Y55940000D03*
D12*
X34790000Y55940000D03*
D11*
%TO.P,U1,30,RUN*%
%TO.N,/RUN*%
X33890000Y58480000D03*
D12*
X34790000Y58480000D03*
D11*
%TO.P,U1,31,GPIO26_ADC0*%
%TO.N,/GP26*%
X33890000Y61020000D03*
D12*
X34790000Y61020000D03*
D11*
%TO.P,U1,32,GPIO27_ADC1*%
%TO.N,/GP27*%
X33890000Y63560000D03*
D12*
X34790000Y63560000D03*
D13*
%TO.P,U1,33,AGND*%
%TO.N,GND*%
X33890000Y66100000D03*
D12*
X34790000Y66100000D03*
D11*
%TO.P,U1,34,GPIO28_ADC2*%
%TO.N,/GP28*%
X33890000Y68640000D03*
D12*
X34790000Y68640000D03*
D11*
%TO.P,U1,35,ADC_VREF*%
%TO.N,/ADC_VREF*%
X33890000Y71180000D03*
D12*
X34790000Y71180000D03*
D11*
%TO.P,U1,36,3V3*%
%TO.N,/3V3*%
X33890000Y73720000D03*
D12*
X34790000Y73720000D03*
D11*
%TO.P,U1,37,3V3_EN*%
%TO.N,/3V3_EN*%
X33890000Y76260000D03*
D12*
X34790000Y76260000D03*
D13*
%TO.P,U1,38,GND*%
%TO.N,GND*%
X33890000Y78800000D03*
D12*
X34790000Y78800000D03*
D11*
%TO.P,U1,39,VSYS*%
%TO.N,/VSYS*%
X33890000Y81340000D03*
D12*
X34790000Y81340000D03*
D11*
%TO.P,U1,40,VBUS*%
%TO.N,/VBUS*%
X33890000Y83880000D03*
D12*
X34790000Y83880000D03*
D11*
%TO.P,U1,41,SWCLK*%
%TO.N,Net-(U1-SWCLK)*%
X22460000Y35850000D03*
D14*
X22460000Y34950000D03*
D13*
%TO.P,U1,42,GND*%
%TO.N,GND*%
X25000000Y35850000D03*
D14*
X25000000Y34950000D03*
D11*
%TO.P,U1,43,SWDIO*%
%TO.N,Net-(U1-SWDIO)*%
X27540000Y35850000D03*
D14*
X27540000Y34950000D03*
D15*
%TO.P,U1,44,TP6*%
%TO.N,Net-(U1-TP6)*%
X22500000Y72250000D03*
%TD*%
D16*
%TO.P,R15,1*%
%TO.N,/GP19*%
X41900000Y6942500D03*
%TO.P,R15,2*%
%TO.N,Net-(LCD1-T_DO)*%
X41900000Y5117500D03*
%TD*%
%TO.P,R14,1*%
%TO.N,/GP18*%
X40650000Y43225000D03*
%TO.P,R14,2*%
%TO.N,Net-(LCD1-T_DIN)*%
X40650000Y41400000D03*
%TD*%
%TO.P,R13,1*%
%TO.N,/GP16*%
X37725000Y33350000D03*
%TO.P,R13,2*%
%TO.N,Net-(LCD1-T_CS)*%
X37725000Y31525000D03*
%TD*%
%TO.P,R12,1*%
%TO.N,/GP17*%
X39575000Y33350000D03*
%TO.P,R12,2*%
%TO.N,Net-(LCD1-T_CLK)*%
X39575000Y31525000D03*
%TD*%
D17*
%TO.P,R11,1*%
%TO.N,/GP12*%
X30600000Y5400000D03*
%TO.P,R11,2*%
%TO.N,Net-(LCD1-MISO)*%
X28775000Y5400000D03*
%TD*%
D16*
%TO.P,R10,1*%
%TO.N,/GP10*%
X7750000Y48300000D03*
%TO.P,R10,2*%
%TO.N,Net-(LCD1-SCK)*%
X7750000Y46475000D03*
%TD*%
%TO.P,R9,1*%
%TO.N,/GP11*%
X9485000Y48300000D03*
%TO.P,R9,2*%
%TO.N,Net-(LCD1-MOSI)*%
X9485000Y46475000D03*
%TD*%
%TO.P,R8,1*%
%TO.N,/GP8*%
X7775000Y55975000D03*
%TO.P,R8,2*%
%TO.N,Net-(LCD1-DC{slash}RS)*%
X7775000Y54150000D03*
%TD*%
%TO.P,R7,1*%
%TO.N,/GP9*%
X9525000Y55975000D03*
%TO.P,R7,2*%
%TO.N,Net-(LCD1-~{CS})*%
X9525000Y54150000D03*
%TD*%
D17*
%TO.P,R2,2*%
%TO.N,/GP21*%
X40420000Y50850000D03*
%TO.P,R2,1*%
%TO.N,/3V3*%
X42245000Y50850000D03*
%TD*%
%TO.P,R1,1*%
%TO.N,/3V3*%
X42285000Y48310000D03*
%TO.P,R1,2*%
%TO.N,/GP20*%
X40460000Y48310000D03*
%TD*%
D18*
%TO.P,R4,1*%
%TO.N,/UART0_RX*%
X3575000Y35900000D03*
%TO.P,R4,2*%
%TO.N,/GP1*%
X3575000Y37725000D03*
%TD*%
D19*
%TO.P,SW1,1,1*%
%TO.N,/RUN*%
X46750000Y71400000D03*
%TO.P,SW1,2,2*%
%TO.N,GND*%
X46750000Y76400000D03*
D20*
%TO.P,SW1,3,3*%
X44250000Y77400000D03*
%TO.P,SW1,4,4*%
X44250000Y70400000D03*
%TD*%
D21*
%TO.P,R6,1*%
%TO.N,/SWDIO*%
X13510000Y14640000D03*
%TO.P,R6,2*%
%TO.N,Net-(U1-SWDIO)*%
X15335000Y14640000D03*
%TD*%
D19*
%TO.P,SW2,1,1*%
%TO.N,Net-(U1-TP6)*%
X3300000Y76400000D03*
%TO.P,SW2,2,2*%
%TO.N,GND*%
X3300000Y71400000D03*
D20*
%TO.P,SW2,3,3*%
X5800000Y70400000D03*
%TO.P,SW2,4,4*%
X5800000Y77400000D03*
%TD*%
D13*
%TO.P,LCD1,1,VCC*%
%TO.N,/3V3*%
X8490000Y2000000D03*
D11*
%TO.P,LCD1,2,GND*%
%TO.N,GND*%
X11030000Y2000000D03*
%TO.P,LCD1,3,~{CS}*%
%TO.N,Net-(LCD1-~{CS})*%
X13570000Y2000000D03*
%TO.P,LCD1,4,~{RESET}*%
%TO.N,/GP15*%
X16110000Y2000000D03*
%TO.P,LCD1,5,DC/RS*%
%TO.N,Net-(LCD1-DC{slash}RS)*%
X18650000Y2000000D03*
%TO.P,LCD1,6,MOSI*%
%TO.N,Net-(LCD1-MOSI)*%
X21190000Y2000000D03*
%TO.P,LCD1,7,SCK*%
%TO.N,Net-(LCD1-SCK)*%
X23730000Y2000000D03*
%TO.P,LCD1,8,LED*%
%TO.N,/GP13*%
X26270000Y2000000D03*
%TO.P,LCD1,9,MISO*%
%TO.N,Net-(LCD1-MISO)*%
X28810000Y2000000D03*
%TO.P,LCD1,10,T_CLK*%
%TO.N,Net-(LCD1-T_CLK)*%
X31350000Y2000000D03*
%TO.P,LCD1,11,T_CS*%
%TO.N,Net-(LCD1-T_CS)*%
X33890000Y2000000D03*
%TO.P,LCD1,12,T_DIN*%
%TO.N,Net-(LCD1-T_DIN)*%
X36430000Y2000000D03*
%TO.P,LCD1,13,T_DO*%
%TO.N,Net-(LCD1-T_DO)*%
X38970000Y2000000D03*
%TO.P,LCD1,14,T-IRQ*%
%TO.N,unconnected-(LCD1-T-IRQ-Pad14)*%
X41510000Y2000000D03*
%TD*%
D13*
%TO.P,J1,1,Pin_1*%
%TO.N,/GP27*%
X33875000Y11275000D03*
D11*
%TO.P,J1,2,Pin_2*%
%TO.N,/GP28*%
X33875000Y8735000D03*
%TO.P,J1,3,Pin_3*%
%TO.N,/GP26*%
X31335000Y11275000D03*
%TO.P,J1,4,Pin_4*%
%TO.N,/VSYS*%
X31335000Y8735000D03*
%TO.P,J1,5,Pin_5*%
%TO.N,/GP22*%
X28795000Y11275000D03*
%TO.P,J1,6,Pin_6*%
%TO.N,/VSYS*%
X28795000Y8735000D03*
%TO.P,J1,7,Pin_7*%
%TO.N,/GP21*%
X26255000Y11275000D03*
%TO.P,J1,8,Pin_8*%
%TO.N,/3V3*%
X26255000Y8735000D03*
%TO.P,J1,9,Pin_9*%
%TO.N,/GP20*%
X23715000Y11275000D03*
%TO.P,J1,10,Pin_10*%
%TO.N,/3V3*%
X23715000Y8735000D03*
%TO.P,J1,11,Pin_11*%
%TO.N,/GP6*%
X21175000Y11275000D03*
%TO.P,J1,12,Pin_12*%
%TO.N,GND*%
X21175000Y8735000D03*
%TO.P,J1,13,Pin_13*%
%TO.N,/GP5*%
X18635000Y11275000D03*
%TO.P,J1,14,Pin_14*%
%TO.N,GND*%
X18635000Y8735000D03*
%TO.P,J1,15,Pin_15*%
%TO.N,/GP4*%
X16095000Y11275000D03*
%TO.P,J1,16,Pin_16*%
%TO.N,GND*%
X16095000Y8735000D03*
%TD*%
D18*
%TO.P,R3,1*%
%TO.N,/UART0_TX*%
X1775000Y35900000D03*
%TO.P,R3,2*%
%TO.N,/GP0*%
X1775000Y37725000D03*
%TD*%
D21*
%TO.P,R5,2*%
%TO.N,Net-(U1-SWCLK)*%
X15375000Y19720000D03*
%TO.P,R5,1*%
%TO.N,/SWCLK*%
X13550000Y19720000D03*
%TD*%
D13*
%TO.P,J2,1,Pin_1*%
%TO.N,/SWCLK*%
X10600000Y19725000D03*
D11*
%TO.P,J2,2,Pin_2*%
%TO.N,GND*%
X10600000Y17185000D03*
%TO.P,J2,3,Pin_3*%
%TO.N,/SWDIO*%
X10600000Y14645000D03*
%TD*%
%TO.P,J3,3,Pin_3*%
%TO.N,/UART0_RX*%
X10600000Y26445000D03*
%TO.P,J3,2,Pin_2*%
%TO.N,GND*%
X10600000Y28985000D03*
D13*
%TO.P,J3,1,Pin_1*%
%TO.N,/UART0_TX*%
X10600000Y31525000D03*
%TD*%
D22*
%TO.N,/GP4*%
X19650000Y14800000D03*
%TO.N,Net-(LCD1-MOSI)*%
X21475000Y22625000D03*
%TO.N,Net-(LCD1-SCK)*%
X22475000Y23750000D03*
%TO.N,Net-(LCD1-T_CLK)*%
X38575000Y8650000D03*
X36875000Y8650000D03*
%TO.N,/GP26*%
X31800000Y15850000D03*
%TO.N,Net-(LCD1-MOSI)*%
X14250000Y22650000D03*
%TO.N,/GP21*%
X26250000Y50850000D03*
%TO.N,/GP20*%
X23725000Y48325000D03*
%TO.N,/GP22*%
X29850000Y55925000D03*
%TO.N,/GP6*%
X18950000Y17800000D03*
%TO.N,/UART0_RX*%
X3600000Y26450000D03*
%TO.N,/UART0_TX*%
X1775000Y31525000D03*
%TO.N,GND*%
X9425000Y10575000D03*
%TO.N,/3V3*%
X9425000Y5400000D03*
%TO.N,Net-(LCD1-SCK)*%
X7750000Y23750000D03*
%TO.N,/GP12*%
X32250000Y45750000D03*
%TO.N,/GP13*%
X18125000Y29775000D03*
X25000000Y29800000D03*
%TO.N,Net-(U1-SWDIO)*%
X16200000Y31025000D03*
X27525000Y31025000D03*
%TO.N,Net-(U1-SWCLK)*%
X22450000Y31900000D03*
X15375000Y31900000D03*
%TO.N,/VSYS*%
X46050000Y13025000D03*
%TO.N,/3V3*%
X44000000Y50875000D03*
%TO.N,/VSYS*%
X47150000Y13000000D03*
%TD*%
D23*
%TO.N,/GP0*%
X8650000Y83880000D02*
X16110000Y83880000D01*
X8625000Y83855000D02*
X8650000Y83880000D01*
X8625000Y67800000D02*
X8625000Y83855000D01*
X8575000Y67750000D02*
X8625000Y67800000D01*
X1775000Y67750000D02*
X8575000Y67750000D01*
X1775000Y37725000D02*
X1775000Y67750000D01*
%TO.N,/GP1*%
X9550000Y81340000D02*
X16110000Y81340000D01*
X9550000Y66800000D02*
X9550000Y81340000D01*
X2550000Y38750000D02*
X2550000Y66775000D01*
X2550000Y66775000D02*
X9525000Y66775000D01*
X3575000Y37725000D02*
X2550000Y38750000D01*
X9525000Y66775000D02*
X9550000Y66800000D01*
%TO.N,/GP5*%
X18762500Y15812500D02*
X19750000Y16800000D01*
X18635000Y15685000D02*
X18762500Y15812500D01*
X18635000Y11275000D02*
X18635000Y15685000D01*
X19750000Y16800000D02*
X19750000Y68550000D01*
X19660000Y68640000D02*
X16110000Y68640000D01*
X19750000Y68550000D02*
X19660000Y68640000D01*
%TO.N,/GP4*%
X19654084Y14804084D02*
X19650000Y14800000D01*
%TO.N,Net-(LCD1-MOSI)*%
X21475000Y15125000D02*
X21475000Y22625000D01*
X19925000Y13575000D02*
X21475000Y15125000D01*
%TO.N,Net-(LCD1-SCK)*%
X22465000Y23740000D02*
X22475000Y23750000D01*
X23730000Y2000000D02*
X22465000Y3265000D01*
X22465000Y3265000D02*
X22465000Y23740000D01*
%TO.N,Net-(LCD1-MOSI)*%
X19925000Y3265000D02*
X19925000Y13575000D01*
X21190000Y2000000D02*
X19925000Y3265000D01*
%TO.N,/GP19*%
X41975000Y45675000D02*
X41870000Y45780000D01*
X41870000Y45780000D02*
X33890000Y45780000D01*
X41974501Y45674501D02*
X41975000Y45675000D01*
X41974501Y7017001D02*
X41974501Y45674501D01*
X41900000Y6942500D02*
X41974501Y7017001D01*
%TO.N,Net-(LCD1-T_DIN)*%
X40625000Y6195000D02*
X40625000Y41375000D01*
X36430000Y2000000D02*
X40625000Y6195000D01*
%TO.N,/GP26*%
X31450000Y16200000D02*
X31800000Y15850000D01*
X31595000Y61020000D02*
X31450000Y60875000D01*
X33890000Y61020000D02*
X31595000Y61020000D01*
X31450000Y60875000D02*
X31450000Y16200000D01*
%TO.N,/GP27*%
X33875000Y14525000D02*
X33875000Y11275000D01*
X30723501Y63498501D02*
X30723501Y14576499D01*
X30785000Y63560000D02*
X30723501Y63498501D01*
X30723501Y14576499D02*
X33823501Y14576499D01*
X33890000Y63560000D02*
X30785000Y63560000D01*
X33823501Y14576499D02*
X33875000Y14525000D01*
%TO.N,/GP6*%
X18950000Y63375000D02*
X18950000Y17800000D01*
X18765000Y63560000D02*
X18950000Y63375000D01*
X16110000Y63560000D02*
X18765000Y63560000D01*
%TO.N,/GP4*%
X20420000Y71180000D02*
X16110000Y71180000D01*
X20500000Y15650000D02*
X20500000Y71100000D01*
X19654084Y14804084D02*
X20500000Y15650000D01*
X20500000Y71100000D02*
X20420000Y71180000D01*
%TO.N,Net-(LCD1-T_CLK)*%
X33425000Y4075000D02*
X31350000Y2000000D01*
X36875000Y6800000D02*
X34150000Y4075000D01*
X36875000Y8650000D02*
X36875000Y6800000D01*
X38575000Y26450000D02*
X38575000Y8650000D01*
X34150000Y4075000D02*
X33425000Y4075000D01*
X39600000Y27475000D02*
X38575000Y26450000D01*
X39600000Y29125000D02*
X39600000Y27475000D01*
%TO.N,Net-(LCD1-T_DO)*%
X41900000Y4930000D02*
X41900000Y5117500D01*
X38970000Y2000000D02*
X41900000Y4930000D01*
%TO.N,Net-(LCD1-T_CLK)*%
X39600000Y31500000D02*
X39575000Y31525000D01*
X39600000Y29125000D02*
X39600000Y31500000D01*
%TO.N,/GP28*%
X27575000Y7475000D02*
X32615000Y7475000D01*
X32615000Y7475000D02*
X33875000Y8735000D01*
X27545000Y7505000D02*
X27575000Y7475000D01*
X27545000Y14245000D02*
X27545000Y7505000D01*
X29050000Y15750000D02*
X27545000Y14245000D01*
X29050000Y68650000D02*
X29050000Y15750000D01*
X29060000Y68640000D02*
X29050000Y68650000D01*
X33890000Y68640000D02*
X29060000Y68640000D01*
%TO.N,Net-(LCD1-T_CS)*%
X37725000Y5835000D02*
X37725000Y31525000D01*
X33890000Y2000000D02*
X37725000Y5835000D01*
%TO.N,/GP12*%
X30600000Y5400000D02*
X33800000Y5400000D01*
X33800000Y5400000D02*
X35700000Y7300000D01*
X35700000Y7300000D02*
X35700000Y9950000D01*
X32250000Y30225000D02*
X32250000Y45750000D01*
X35700000Y26775000D02*
X32250000Y30225000D01*
X35700000Y9950000D02*
X35700000Y26775000D01*
%TO.N,Net-(LCD1-MOSI)*%
X8650000Y22650000D02*
X14250000Y22650000D01*
%TO.N,/GP21*%
X26255000Y50845000D02*
X26250000Y50850000D01*
X26255000Y45674336D02*
X26255000Y50845000D01*
%TO.N,/GP20*%
X23715000Y48315000D02*
X23725000Y48325000D01*
X23715000Y44614001D02*
X23715000Y48315000D01*
%TO.N,/GP22*%
X29850000Y55599500D02*
X29850000Y55925000D01*
X29850000Y12330000D02*
X29850000Y55599500D01*
X28795000Y11275000D02*
X29850000Y12330000D01*
%TO.N,/GP13*%
X18125000Y43175000D02*
X18125000Y29775000D01*
X18060000Y43240000D02*
X18125000Y43175000D01*
X16110000Y43240000D02*
X18060000Y43240000D01*
%TO.N,/UART0_RX*%
X3600000Y26450000D02*
X3600000Y35875000D01*
X3600000Y35875000D02*
X3575000Y35900000D01*
%TO.N,/UART0_TX*%
X1775000Y31525000D02*
X1775000Y35900000D01*
%TO.N,GND*%
X9425000Y9025000D02*
X9425000Y10575000D01*
%TO.N,/3V3*%
X9425000Y7300000D02*
X9425000Y5400000D01*
%TO.N,/GP21*%
X26255000Y11275000D02*
X26255000Y45674336D01*
%TO.N,/GP20*%
X23715000Y11275000D02*
X23715000Y44614001D01*
%TO.N,Net-(LCD1-MOSI)*%
X8650000Y44075000D02*
X8650000Y22650000D01*
X9485000Y44910000D02*
X8650000Y44075000D01*
X9485000Y46475000D02*
X9485000Y44910000D01*
%TO.N,Net-(LCD1-SCK)*%
X7750000Y38375706D02*
X7750000Y23750000D01*
%TO.N,Net-(LCD1-MISO)*%
X28810000Y2000000D02*
X28810000Y5365000D01*
%TO.N,/GP15*%
X16110000Y35620000D02*
X16505000Y35620000D01*
X16505000Y35620000D02*
X17150000Y34975000D01*
X17150000Y13600000D02*
X17150000Y34975000D01*
X13250000Y3725000D02*
X13250000Y13175000D01*
X16100000Y3475000D02*
X16100000Y3725000D01*
X16100000Y3725000D02*
X13250000Y3725000D01*
X13250000Y13175000D02*
X16725000Y13175000D01*
X16110000Y3465000D02*
X16100000Y3475000D01*
X16725000Y13175000D02*
X17150000Y13600000D01*
X16110000Y2000000D02*
X16110000Y3465000D01*
%TO.N,Net-(U1-SWDIO)*%
X15345000Y14650000D02*
X15335000Y14640000D01*
X16475000Y14925000D02*
X16200000Y14650000D01*
X16200000Y14650000D02*
X15345000Y14650000D01*
X16200000Y21525000D02*
X16475000Y21250000D01*
X16475000Y21250000D02*
X16475000Y14925000D01*
X16200000Y31025000D02*
X16200000Y21525000D01*
%TO.N,/GP13*%
X25000000Y14500000D02*
X25000000Y29800000D01*
X24965000Y3305000D02*
X24965000Y14465000D01*
X24965000Y14465000D02*
X25000000Y14500000D01*
X26270000Y2000000D02*
X24965000Y3305000D01*
%TO.N,Net-(U1-SWDIO)*%
X27540000Y31040000D02*
X27525000Y31025000D01*
X27540000Y35850000D02*
X27540000Y31040000D01*
%TO.N,Net-(U1-SWCLK)*%
X15375000Y31900000D02*
X15375000Y19720000D01*
X22460000Y31910000D02*
X22450000Y31900000D01*
X22460000Y35850000D02*
X22460000Y31910000D01*
%TO.N,Net-(LCD1-~{CS})*%
X11745000Y3825000D02*
X13570000Y2000000D01*
X7950000Y3825000D02*
X11745000Y3825000D01*
X7950000Y9150000D02*
X7950000Y3825000D01*
X5925000Y52750000D02*
X5925000Y11175000D01*
X9525000Y52750000D02*
X5925000Y52750000D01*
X9525000Y54150000D02*
X9525000Y52750000D01*
X5925000Y11175000D02*
X7950000Y9150000D01*
%TO.N,Net-(LCD1-DC{slash}RS)*%
X18650000Y600000D02*
X18650000Y2000000D01*
X6900000Y8950000D02*
X6900000Y650000D01*
X5075000Y10775000D02*
X6900000Y8950000D01*
X6900000Y650000D02*
X6975000Y575000D01*
X6975000Y575000D02*
X18625000Y575000D01*
X5075000Y54150000D02*
X5075000Y10775000D01*
X7775000Y54150000D02*
X5075000Y54150000D01*
X18625000Y575000D02*
X18650000Y600000D01*
D24*
%TO.N,/VSYS*%
X46600000Y13000000D02*
X48700000Y13000000D01*
X40160000Y81340000D02*
X33890000Y81340000D01*
X40500000Y81000000D02*
X40160000Y81340000D01*
X46600000Y13000000D02*
X45500000Y13000000D01*
X40500000Y73800000D02*
X40500000Y81000000D01*
X48700000Y73800000D02*
X40500000Y73800000D01*
X48700000Y13000000D02*
X48700000Y73800000D01*
D23*
%TO.N,Net-(LCD1-SCK)*%
X7750000Y46475000D02*
X7750000Y38375706D01*
%TO.N,/3V3*%
X43975000Y50850000D02*
X44000000Y50875000D01*
X42245000Y50850000D02*
X43975000Y50850000D01*
X42245000Y48350000D02*
X42285000Y48310000D01*
X42245000Y50850000D02*
X42245000Y48350000D01*
%TO.N,/SWDIO*%
X10605000Y14640000D02*
X10600000Y14645000D01*
X13510000Y14640000D02*
X10605000Y14640000D01*
%TO.N,/SWCLK*%
X13550000Y19720000D02*
X10605000Y19720000D01*
X10605000Y19720000D02*
X10600000Y19725000D01*
%TO.N,/GP8*%
X7775000Y58450000D02*
X7775000Y55975000D01*
X7805000Y58480000D02*
X7775000Y58450000D01*
X16110000Y58480000D02*
X7805000Y58480000D01*
%TO.N,/GP9*%
X9560000Y55940000D02*
X9525000Y55975000D01*
X16110000Y55940000D02*
X9560000Y55940000D01*
%TO.N,/GP10*%
X7785000Y50860000D02*
X7750000Y50825000D01*
X7750000Y50825000D02*
X7750000Y48300000D01*
X16110000Y50860000D02*
X7785000Y50860000D01*
%TO.N,/GP11*%
X16110000Y48320000D02*
X9505000Y48320000D01*
X9505000Y48320000D02*
X9485000Y48300000D01*
%TO.N,/GP17*%
X39575000Y38100000D02*
X39515000Y38160000D01*
X39515000Y38160000D02*
X33890000Y38160000D01*
X39575000Y33350000D02*
X39575000Y38100000D01*
%TO.N,/GP16*%
X37680000Y35620000D02*
X33890000Y35620000D01*
X37725000Y35575000D02*
X37680000Y35620000D01*
X37725000Y33350000D02*
X37725000Y35575000D01*
%TO.N,/GP18*%
X40635000Y43240000D02*
X40650000Y43225000D01*
X33890000Y43240000D02*
X40635000Y43240000D01*
%TO.N,/GP20*%
X40450000Y48320000D02*
X40460000Y48310000D01*
X33890000Y48320000D02*
X40450000Y48320000D01*
%TO.N,/GP21*%
X40410000Y50860000D02*
X40420000Y50850000D01*
X33890000Y50860000D02*
X40410000Y50860000D01*
%TO.N,Net-(LCD1-T_DO)*%
X41882500Y5100000D02*
X41900000Y5117500D01*
%TD*%
M02*
