%TF.GenerationSoftware,KiCad,Pcbnew,7.0.1*%
%TF.CreationDate,2023-04-12T13:42:12+09:00*%
%TF.ProjectId,KiCad,4b694361-642e-46b6-9963-61645f706362,rev?*%
%TF.SameCoordinates,PX7270e00PY8b3c880*%
%TF.FileFunction,Copper,L2,Bot*%
%TF.FilePolarity,Positive*%
%FSLAX46Y46*%
G04 Gerber Fmt 4.6, Leading zero omitted, Abs format (unit mm)*
G04 Created by KiCad (PCBNEW 7.0.1) date 2023-04-12 13:42:12*
%MOMM*%
%LPD*%
G01*
G04 APERTURE LIST*
%TA.AperFunction,ComponentPad*%
%ADD10O,1.700000X1.700000*%
%TD*%
%TA.AperFunction,ComponentPad*%
%ADD11R,1.700000X1.700000*%
%TD*%
%TA.AperFunction,ComponentPad*%
%ADD12R,1.500000X1.500000*%
%TD*%
%TA.AperFunction,ComponentPad*%
%ADD13C,1.800000*%
%TD*%
%TA.AperFunction,ComponentPad*%
%ADD14C,2.600000*%
%TD*%
%TA.AperFunction,ViaPad*%
%ADD15C,0.800000*%
%TD*%
%TA.AperFunction,Conductor*%
%ADD16C,0.400000*%
%TD*%
%TA.AperFunction,Conductor*%
%ADD17C,1.000000*%
%TD*%
G04 APERTURE END LIST*
D10*
%TO.P,U1,1,GPIO0*%
%TO.N,/GP0*%
X16110000Y83880000D03*
%TO.P,U1,2,GPIO1*%
%TO.N,/GP1*%
X16110000Y81340000D03*
D11*
%TO.P,U1,3,GND*%
%TO.N,GND*%
X16110000Y78800000D03*
D10*
%TO.P,U1,4,GPIO2*%
%TO.N,/GP2*%
X16110000Y76260000D03*
%TO.P,U1,5,GPIO3*%
%TO.N,/GP3*%
X16110000Y73720000D03*
%TO.P,U1,6,GPIO4*%
%TO.N,/GP4*%
X16110000Y71180000D03*
%TO.P,U1,7,GPIO5*%
%TO.N,/GP5*%
X16110000Y68640000D03*
D11*
%TO.P,U1,8,GND*%
%TO.N,GND*%
X16110000Y66100000D03*
D10*
%TO.P,U1,9,GPIO6*%
%TO.N,/GP6*%
X16110000Y63560000D03*
%TO.P,U1,10,GPIO7*%
%TO.N,/GP7*%
X16110000Y61020000D03*
%TO.P,U1,11,GPIO8*%
%TO.N,/GP8*%
X16110000Y58480000D03*
%TO.P,U1,12,GPIO9*%
%TO.N,/GP9*%
X16110000Y55940000D03*
D11*
%TO.P,U1,13,GND*%
%TO.N,GND*%
X16110000Y53400000D03*
D10*
%TO.P,U1,14,GPIO10*%
%TO.N,/GP10*%
X16110000Y50860000D03*
%TO.P,U1,15,GPIO11*%
%TO.N,/GP11*%
X16110000Y48320000D03*
%TO.P,U1,16,GPIO12*%
%TO.N,/GP12*%
X16110000Y45780000D03*
%TO.P,U1,17,GPIO13*%
%TO.N,/GP13*%
X16110000Y43240000D03*
D11*
%TO.P,U1,18,GND*%
%TO.N,GND*%
X16110000Y40700000D03*
D10*
%TO.P,U1,19,GPIO14*%
%TO.N,/GP14*%
X16110000Y38160000D03*
%TO.P,U1,20,GPIO15*%
%TO.N,/GP15*%
X16110000Y35620000D03*
%TO.P,U1,21,GPIO16*%
%TO.N,/GP16*%
X33890000Y35620000D03*
%TO.P,U1,22,GPIO17*%
%TO.N,/GP17*%
X33890000Y38160000D03*
D11*
%TO.P,U1,23,GND*%
%TO.N,GND*%
X33890000Y40700000D03*
D10*
%TO.P,U1,24,GPIO18*%
%TO.N,/GP18*%
X33890000Y43240000D03*
%TO.P,U1,25,GPIO19*%
%TO.N,/GP19*%
X33890000Y45780000D03*
%TO.P,U1,26,GPIO20*%
%TO.N,/GP20*%
X33890000Y48320000D03*
%TO.P,U1,27,GPIO21*%
%TO.N,/GP21*%
X33890000Y50860000D03*
D11*
%TO.P,U1,28,GND*%
%TO.N,GND*%
X33890000Y53400000D03*
D10*
%TO.P,U1,29,GPIO22*%
%TO.N,/GP22*%
X33890000Y55940000D03*
%TO.P,U1,30,RUN*%
%TO.N,/RUN*%
X33890000Y58480000D03*
%TO.P,U1,31,GPIO26_ADC0*%
%TO.N,/GP26*%
X33890000Y61020000D03*
%TO.P,U1,32,GPIO27_ADC1*%
%TO.N,/GP27*%
X33890000Y63560000D03*
D11*
%TO.P,U1,33,AGND*%
%TO.N,GND*%
X33890000Y66100000D03*
D10*
%TO.P,U1,34,GPIO28_ADC2*%
%TO.N,/GP28*%
X33890000Y68640000D03*
%TO.P,U1,35,ADC_VREF*%
%TO.N,/ADC_VREF*%
X33890000Y71180000D03*
%TO.P,U1,36,3V3*%
%TO.N,/3V3*%
X33890000Y73720000D03*
%TO.P,U1,37,3V3_EN*%
%TO.N,/3V3_EN*%
X33890000Y76260000D03*
D11*
%TO.P,U1,38,GND*%
%TO.N,GND*%
X33890000Y78800000D03*
D10*
%TO.P,U1,39,VSYS*%
%TO.N,/VSYS*%
X33890000Y81340000D03*
%TO.P,U1,40,VBUS*%
%TO.N,/VBUS*%
X33890000Y83880000D03*
%TO.P,U1,41,SWCLK*%
%TO.N,Net-(U1-SWCLK)*%
X22460000Y35850000D03*
D11*
%TO.P,U1,42,GND*%
%TO.N,GND*%
X25000000Y35850000D03*
D10*
%TO.P,U1,43,SWDIO*%
%TO.N,Net-(U1-SWDIO)*%
X27540000Y35850000D03*
D12*
%TO.P,U1,44,TP6*%
%TO.N,Net-(U1-TP6)*%
X22500000Y72250000D03*
%TD*%
D13*
%TO.P,SW1,1,1*%
%TO.N,/RUN*%
X46750000Y71400000D03*
%TO.P,SW1,2,2*%
%TO.N,GND*%
X46750000Y76400000D03*
D14*
%TO.P,SW1,3,3*%
X44250000Y77400000D03*
%TO.P,SW1,4,4*%
X44250000Y70400000D03*
%TD*%
D13*
%TO.P,SW2,1,1*%
%TO.N,Net-(U1-TP6)*%
X3300000Y76400000D03*
%TO.P,SW2,2,2*%
%TO.N,GND*%
X3300000Y71400000D03*
D14*
%TO.P,SW2,3,3*%
X5800000Y70400000D03*
%TO.P,SW2,4,4*%
X5800000Y77400000D03*
%TD*%
D11*
%TO.P,LCD1,1,VCC*%
%TO.N,/3V3*%
X8490000Y2000000D03*
D10*
%TO.P,LCD1,2,GND*%
%TO.N,GND*%
X11030000Y2000000D03*
%TO.P,LCD1,3,~{CS}*%
%TO.N,Net-(LCD1-~{CS})*%
X13570000Y2000000D03*
%TO.P,LCD1,4,~{RESET}*%
%TO.N,/GP15*%
X16110000Y2000000D03*
%TO.P,LCD1,5,DC/RS*%
%TO.N,Net-(LCD1-DC{slash}RS)*%
X18650000Y2000000D03*
%TO.P,LCD1,6,MOSI*%
%TO.N,Net-(LCD1-MOSI)*%
X21190000Y2000000D03*
%TO.P,LCD1,7,SCK*%
%TO.N,Net-(LCD1-SCK)*%
X23730000Y2000000D03*
%TO.P,LCD1,8,LED*%
%TO.N,/GP13*%
X26270000Y2000000D03*
%TO.P,LCD1,9,MISO*%
%TO.N,Net-(LCD1-MISO)*%
X28810000Y2000000D03*
%TO.P,LCD1,10,T_CLK*%
%TO.N,Net-(LCD1-T_CLK)*%
X31350000Y2000000D03*
%TO.P,LCD1,11,T_CS*%
%TO.N,Net-(LCD1-T_CS)*%
X33890000Y2000000D03*
%TO.P,LCD1,12,T_DIN*%
%TO.N,Net-(LCD1-T_DIN)*%
X36430000Y2000000D03*
%TO.P,LCD1,13,T_DO*%
%TO.N,Net-(LCD1-T_DO)*%
X38970000Y2000000D03*
%TO.P,LCD1,14,T-IRQ*%
%TO.N,unconnected-(LCD1-T-IRQ-Pad14)*%
X41510000Y2000000D03*
%TD*%
D11*
%TO.P,J1,1,Pin_1*%
%TO.N,/GP27*%
X33875000Y11275000D03*
D10*
%TO.P,J1,2,Pin_2*%
%TO.N,/GP28*%
X33875000Y8735000D03*
%TO.P,J1,3,Pin_3*%
%TO.N,/GP26*%
X31335000Y11275000D03*
%TO.P,J1,4,Pin_4*%
%TO.N,/VSYS*%
X31335000Y8735000D03*
%TO.P,J1,5,Pin_5*%
%TO.N,/GP22*%
X28795000Y11275000D03*
%TO.P,J1,6,Pin_6*%
%TO.N,/VSYS*%
X28795000Y8735000D03*
%TO.P,J1,7,Pin_7*%
%TO.N,/GP21*%
X26255000Y11275000D03*
%TO.P,J1,8,Pin_8*%
%TO.N,/3V3*%
X26255000Y8735000D03*
%TO.P,J1,9,Pin_9*%
%TO.N,/GP20*%
X23715000Y11275000D03*
%TO.P,J1,10,Pin_10*%
%TO.N,/3V3*%
X23715000Y8735000D03*
%TO.P,J1,11,Pin_11*%
%TO.N,/GP6*%
X21175000Y11275000D03*
%TO.P,J1,12,Pin_12*%
%TO.N,GND*%
X21175000Y8735000D03*
%TO.P,J1,13,Pin_13*%
%TO.N,/GP5*%
X18635000Y11275000D03*
%TO.P,J1,14,Pin_14*%
%TO.N,GND*%
X18635000Y8735000D03*
%TO.P,J1,15,Pin_15*%
%TO.N,/GP4*%
X16095000Y11275000D03*
%TO.P,J1,16,Pin_16*%
%TO.N,GND*%
X16095000Y8735000D03*
%TD*%
D11*
%TO.P,J2,1,Pin_1*%
%TO.N,/SWCLK*%
X10600000Y19725000D03*
D10*
%TO.P,J2,2,Pin_2*%
%TO.N,GND*%
X10600000Y17185000D03*
%TO.P,J2,3,Pin_3*%
%TO.N,/SWDIO*%
X10600000Y14645000D03*
%TD*%
%TO.P,J3,3,Pin_3*%
%TO.N,/UART0_RX*%
X10600000Y26445000D03*
%TO.P,J3,2,Pin_2*%
%TO.N,GND*%
X10600000Y28985000D03*
D11*
%TO.P,J3,1,Pin_1*%
%TO.N,/UART0_TX*%
X10600000Y31525000D03*
%TD*%
D15*
%TO.N,/GP4*%
X19650000Y14800000D03*
%TO.N,Net-(LCD1-MOSI)*%
X21475000Y22625000D03*
%TO.N,Net-(LCD1-SCK)*%
X22475000Y23750000D03*
%TO.N,Net-(LCD1-T_CLK)*%
X38575000Y8650000D03*
X36875000Y8650000D03*
%TO.N,/GP26*%
X31800000Y15850000D03*
%TO.N,Net-(LCD1-MOSI)*%
X14250000Y22650000D03*
%TO.N,/GP21*%
X26250000Y50850000D03*
%TO.N,/GP20*%
X23725000Y48325000D03*
%TO.N,/GP22*%
X29850000Y55925000D03*
%TO.N,/GP6*%
X18950000Y17800000D03*
%TO.N,/UART0_RX*%
X3600000Y26450000D03*
%TO.N,/UART0_TX*%
X1775000Y31525000D03*
%TO.N,GND*%
X9425000Y10575000D03*
%TO.N,/3V3*%
X9425000Y5400000D03*
%TO.N,Net-(LCD1-SCK)*%
X7750000Y23750000D03*
%TO.N,/GP12*%
X32250000Y45750000D03*
%TO.N,/GP13*%
X18125000Y29775000D03*
X25000000Y29800000D03*
%TO.N,Net-(U1-SWDIO)*%
X16200000Y31025000D03*
X27525000Y31025000D03*
%TO.N,Net-(U1-SWCLK)*%
X22450000Y31900000D03*
X15375000Y31900000D03*
%TO.N,/VSYS*%
X46050000Y13025000D03*
%TO.N,/3V3*%
X44000000Y50875000D03*
%TO.N,/VSYS*%
X47150000Y13000000D03*
%TD*%
D16*
%TO.N,/GP4*%
X19620000Y14800000D02*
X16095000Y11275000D01*
X19650000Y14800000D02*
X19620000Y14800000D01*
%TO.N,Net-(LCD1-MOSI)*%
X21475000Y22625000D02*
X14275000Y22625000D01*
X14275000Y22625000D02*
X14250000Y22650000D01*
%TO.N,Net-(LCD1-SCK)*%
X7750000Y23750000D02*
X22475000Y23750000D01*
%TO.N,Net-(U1-TP6)*%
X3300000Y75000000D02*
X3300000Y76400000D01*
X3330000Y74970000D02*
X3300000Y75000000D01*
X18850000Y74875000D02*
X18755000Y74970000D01*
X18850000Y72275000D02*
X18850000Y74875000D01*
X18755000Y74970000D02*
X3330000Y74970000D01*
X22500000Y72250000D02*
X18875000Y72250000D01*
X18875000Y72250000D02*
X18850000Y72275000D01*
%TO.N,Net-(LCD1-T_CLK)*%
X38575000Y8650000D02*
X36875000Y8650000D01*
%TO.N,/GP26*%
X31800000Y13525000D02*
X31335000Y13060000D01*
X31800000Y15850000D02*
X31800000Y13525000D01*
X31335000Y13060000D02*
X31335000Y11275000D01*
%TO.N,/GP21*%
X27875000Y50850000D02*
X27885000Y50860000D01*
X26250000Y50850000D02*
X27875000Y50850000D01*
%TO.N,/GP20*%
X27415999Y48325000D02*
X27420999Y48320000D01*
X23725000Y48325000D02*
X27415999Y48325000D01*
%TO.N,/GP22*%
X29865000Y55940000D02*
X33890000Y55940000D01*
X29850000Y55925000D02*
X29865000Y55940000D01*
%TO.N,/GP6*%
X21175000Y11275000D02*
X21175000Y17800000D01*
X18950000Y17800000D02*
X21175000Y17800000D01*
%TO.N,/GP13*%
X18150000Y29800000D02*
X18125000Y29775000D01*
X25000000Y29800000D02*
X18150000Y29800000D01*
%TO.N,/UART0_RX*%
X3605000Y26445000D02*
X3600000Y26450000D01*
X10600000Y26445000D02*
X3605000Y26445000D01*
%TO.N,/UART0_TX*%
X10600000Y31525000D02*
X1775000Y31525000D01*
D17*
%TO.N,/3V3*%
X9425000Y5400000D02*
X8500000Y5400000D01*
X23700000Y5400000D02*
X9425000Y5400000D01*
D16*
%TO.N,/GP20*%
X33890000Y48320000D02*
X27420999Y48320000D01*
%TO.N,/GP12*%
X32220000Y45780000D02*
X16110000Y45780000D01*
X32250000Y45750000D02*
X32220000Y45780000D01*
%TO.N,Net-(U1-SWDIO)*%
X27525000Y31025000D02*
X16200000Y31025000D01*
%TO.N,Net-(U1-SWCLK)*%
X22450000Y31900000D02*
X15375000Y31900000D01*
D17*
%TO.N,/VSYS*%
X31335000Y8735000D02*
X31335000Y7265000D01*
X31700000Y6900000D02*
X40300000Y6900000D01*
X31335000Y7265000D02*
X31700000Y6900000D01*
X40300000Y6900000D02*
X40300000Y11900000D01*
X40300000Y11900000D02*
X41400000Y13000000D01*
X41400000Y13000000D02*
X46600000Y13000000D01*
D16*
%TO.N,/GP21*%
X27885000Y50860000D02*
X33890000Y50860000D01*
D17*
%TO.N,/3V3*%
X48700000Y50875000D02*
X48700000Y11600000D01*
D16*
X44000000Y50875000D02*
X48700000Y50875000D01*
D17*
X48700000Y61100000D02*
X48700000Y50875000D01*
D16*
%TO.N,/RUN*%
X31000000Y72375000D02*
X31055000Y72430000D01*
X31055000Y72430000D02*
X45720000Y72430000D01*
X31000000Y58475000D02*
X31000000Y72375000D01*
X45720000Y72430000D02*
X46750000Y71400000D01*
X33890000Y58480000D02*
X31005000Y58480000D01*
X31005000Y58480000D02*
X31000000Y58475000D01*
D17*
%TO.N,/3V3*%
X8490000Y5390000D02*
X8490000Y2000000D01*
X48700000Y73700000D02*
X48700000Y61100000D01*
X23715000Y5415000D02*
X23700000Y5400000D01*
X48700000Y11600000D02*
X42100000Y11600000D01*
X41900000Y11400000D02*
X41900000Y5400000D01*
X23715000Y8735000D02*
X23715000Y5415000D01*
X23715000Y8735000D02*
X26255000Y8735000D01*
X33890000Y73720000D02*
X48680000Y73720000D01*
X42100000Y11600000D02*
X41900000Y11400000D01*
X48680000Y73720000D02*
X48700000Y73700000D01*
X8500000Y5400000D02*
X8490000Y5390000D01*
X28800000Y5400000D02*
X23700000Y5400000D01*
X41900000Y5400000D02*
X28800000Y5400000D01*
%TO.N,/VSYS*%
X28795000Y8735000D02*
X31335000Y8735000D01*
%TD*%
%TA.AperFunction,Conductor*%
%TO.N,GND*%
G36*
X49937500Y85982887D02*
G01*
X49982887Y85937500D01*
X49999500Y85875500D01*
X49999500Y124500D01*
X49982887Y62500D01*
X49937500Y17113D01*
X49875500Y500D01*
X124500Y500D01*
X62500Y17113D01*
X17113Y62500D01*
X500Y124500D01*
X500Y1102131D01*
X7139500Y1102131D01*
X7141455Y1083947D01*
X7145909Y1042517D01*
X7196204Y907669D01*
X7282454Y792454D01*
X7397669Y706204D01*
X7532517Y655909D01*
X7592127Y649500D01*
X9387872Y649501D01*
X9447483Y655909D01*
X9582331Y706204D01*
X9697546Y792454D01*
X9783796Y907669D01*
X9833003Y1039602D01*
X9867981Y1089979D01*
X9922826Y1117432D01*
X9984119Y1115243D01*
X10036865Y1083947D01*
X10158918Y961894D01*
X10352423Y826400D01*
X10566507Y726570D01*
X10779999Y669365D01*
X10780000Y669364D01*
X10780000Y669365D01*
X11280000Y669365D01*
X11493492Y726570D01*
X11707576Y826400D01*
X11901081Y961894D01*
X12068109Y1128922D01*
X12198119Y1314595D01*
X12242437Y1353461D01*
X12299694Y1367472D01*
X12356951Y1353461D01*
X12401267Y1314598D01*
X12531505Y1128599D01*
X12698599Y961505D01*
X12892170Y825965D01*
X13106337Y726097D01*
X13334592Y664937D01*
X13570000Y644341D01*
X13805408Y664937D01*
X14033663Y726097D01*
X14247830Y825965D01*
X14441401Y961505D01*
X14608495Y1128599D01*
X14738426Y1314161D01*
X14782743Y1353025D01*
X14840000Y1367036D01*
X14897257Y1353025D01*
X14941573Y1314161D01*
X15071505Y1128599D01*
X15238599Y961505D01*
X15432170Y825965D01*
X15646337Y726097D01*
X15874592Y664937D01*
X16110000Y644341D01*
X16345408Y664937D01*
X16573663Y726097D01*
X16787830Y825965D01*
X16981401Y961505D01*
X17148495Y1128599D01*
X17278426Y1314161D01*
X17322743Y1353025D01*
X17380000Y1367036D01*
X17437257Y1353025D01*
X17481573Y1314161D01*
X17611505Y1128599D01*
X17778599Y961505D01*
X17972170Y825965D01*
X18186337Y726097D01*
X18414592Y664937D01*
X18650000Y644341D01*
X18885408Y664937D01*
X19113663Y726097D01*
X19327830Y825965D01*
X19521401Y961505D01*
X19688495Y1128599D01*
X19818426Y1314161D01*
X19862743Y1353025D01*
X19920000Y1367036D01*
X19977257Y1353025D01*
X20021573Y1314161D01*
X20151505Y1128599D01*
X20318599Y961505D01*
X20512170Y825965D01*
X20726337Y726097D01*
X20954592Y664937D01*
X21190000Y644341D01*
X21425408Y664937D01*
X21653663Y726097D01*
X21867830Y825965D01*
X22061401Y961505D01*
X22228495Y1128599D01*
X22358426Y1314161D01*
X22402743Y1353025D01*
X22460000Y1367036D01*
X22517257Y1353025D01*
X22561573Y1314161D01*
X22691505Y1128599D01*
X22858599Y961505D01*
X23052170Y825965D01*
X23266337Y726097D01*
X23494592Y664937D01*
X23730000Y644341D01*
X23965408Y664937D01*
X24193663Y726097D01*
X24407830Y825965D01*
X24601401Y961505D01*
X24768495Y1128599D01*
X24898426Y1314161D01*
X24942743Y1353025D01*
X25000000Y1367036D01*
X25057257Y1353025D01*
X25101573Y1314161D01*
X25231505Y1128599D01*
X25398599Y961505D01*
X25592170Y825965D01*
X25806337Y726097D01*
X26034592Y664937D01*
X26270000Y644341D01*
X26505408Y664937D01*
X26733663Y726097D01*
X26947830Y825965D01*
X27141401Y961505D01*
X27308495Y1128599D01*
X27438426Y1314161D01*
X27482743Y1353025D01*
X27540000Y1367036D01*
X27597257Y1353025D01*
X27641573Y1314161D01*
X27771505Y1128599D01*
X27938599Y961505D01*
X28132170Y825965D01*
X28346337Y726097D01*
X28574592Y664937D01*
X28810000Y644341D01*
X29045408Y664937D01*
X29273663Y726097D01*
X29487830Y825965D01*
X29681401Y961505D01*
X29848495Y1128599D01*
X29978426Y1314161D01*
X30022743Y1353025D01*
X30080000Y1367036D01*
X30137257Y1353025D01*
X30181573Y1314161D01*
X30311505Y1128599D01*
X30478599Y961505D01*
X30672170Y825965D01*
X30886337Y726097D01*
X31114592Y664937D01*
X31350000Y644341D01*
X31585408Y664937D01*
X31813663Y726097D01*
X32027830Y825965D01*
X32221401Y961505D01*
X32388495Y1128599D01*
X32518426Y1314161D01*
X32562743Y1353025D01*
X32620000Y1367036D01*
X32677257Y1353025D01*
X32721573Y1314161D01*
X32851505Y1128599D01*
X33018599Y961505D01*
X33212170Y825965D01*
X33426337Y726097D01*
X33654592Y664937D01*
X33890000Y644341D01*
X34125408Y664937D01*
X34353663Y726097D01*
X34567830Y825965D01*
X34761401Y961505D01*
X34928495Y1128599D01*
X35058426Y1314161D01*
X35102743Y1353025D01*
X35160000Y1367036D01*
X35217257Y1353025D01*
X35261573Y1314161D01*
X35391505Y1128599D01*
X35558599Y961505D01*
X35752170Y825965D01*
X35966337Y726097D01*
X36194592Y664937D01*
X36430000Y644341D01*
X36665408Y664937D01*
X36893663Y726097D01*
X37107830Y825965D01*
X37301401Y961505D01*
X37468495Y1128599D01*
X37598426Y1314161D01*
X37642743Y1353025D01*
X37700000Y1367036D01*
X37757257Y1353025D01*
X37801573Y1314161D01*
X37931505Y1128599D01*
X38098599Y961505D01*
X38292170Y825965D01*
X38506337Y726097D01*
X38734592Y664937D01*
X38970000Y644341D01*
X39205408Y664937D01*
X39433663Y726097D01*
X39647830Y825965D01*
X39841401Y961505D01*
X40008495Y1128599D01*
X40138426Y1314161D01*
X40182743Y1353025D01*
X40240000Y1367036D01*
X40297257Y1353025D01*
X40341573Y1314161D01*
X40471505Y1128599D01*
X40638599Y961505D01*
X40832170Y825965D01*
X41046337Y726097D01*
X41274592Y664937D01*
X41510000Y644341D01*
X41745408Y664937D01*
X41973663Y726097D01*
X42187830Y825965D01*
X42381401Y961505D01*
X42548495Y1128599D01*
X42684035Y1322170D01*
X42783903Y1536337D01*
X42845063Y1764592D01*
X42865659Y2000000D01*
X42845063Y2235408D01*
X42783903Y2463663D01*
X42684035Y2677829D01*
X42548495Y2871401D01*
X42381401Y3038495D01*
X42187830Y3174035D01*
X41973663Y3273903D01*
X41912501Y3290291D01*
X41745407Y3335064D01*
X41510000Y3355660D01*
X41274592Y3335064D01*
X41046336Y3273903D01*
X40832170Y3174035D01*
X40638598Y3038495D01*
X40471505Y2871402D01*
X40341575Y2685841D01*
X40297257Y2646975D01*
X40240000Y2632964D01*
X40182743Y2646975D01*
X40138425Y2685841D01*
X40008494Y2871402D01*
X39841404Y3038492D01*
X39841401Y3038495D01*
X39647830Y3174035D01*
X39433663Y3273903D01*
X39372501Y3290291D01*
X39205407Y3335064D01*
X38970000Y3355660D01*
X38734592Y3335064D01*
X38506336Y3273903D01*
X38292170Y3174035D01*
X38098598Y3038495D01*
X37931505Y2871402D01*
X37801575Y2685841D01*
X37757257Y2646975D01*
X37700000Y2632964D01*
X37642743Y2646975D01*
X37598425Y2685841D01*
X37468494Y2871402D01*
X37301404Y3038492D01*
X37301401Y3038495D01*
X37107830Y3174035D01*
X36893663Y3273903D01*
X36832501Y3290291D01*
X36665407Y3335064D01*
X36430000Y3355660D01*
X36194592Y3335064D01*
X35966336Y3273903D01*
X35752170Y3174035D01*
X35558598Y3038495D01*
X35391505Y2871402D01*
X35261575Y2685841D01*
X35217257Y2646975D01*
X35160000Y2632964D01*
X35102743Y2646975D01*
X35058425Y2685841D01*
X34928494Y2871402D01*
X34761404Y3038492D01*
X34761401Y3038495D01*
X34567830Y3174035D01*
X34353663Y3273903D01*
X34292501Y3290291D01*
X34125407Y3335064D01*
X33890000Y3355660D01*
X33654592Y3335064D01*
X33426336Y3273903D01*
X33212170Y3174035D01*
X33018598Y3038495D01*
X32851505Y2871402D01*
X32721575Y2685841D01*
X32677257Y2646975D01*
X32620000Y2632964D01*
X32562743Y2646975D01*
X32518425Y2685841D01*
X32388494Y2871402D01*
X32221404Y3038492D01*
X32221401Y3038495D01*
X32027830Y3174035D01*
X31813663Y3273903D01*
X31752501Y3290291D01*
X31585407Y3335064D01*
X31350000Y3355660D01*
X31114592Y3335064D01*
X30886336Y3273903D01*
X30672170Y3174035D01*
X30478598Y3038495D01*
X30311505Y2871402D01*
X30181575Y2685841D01*
X30137257Y2646975D01*
X30080000Y2632964D01*
X30022743Y2646975D01*
X29978425Y2685841D01*
X29848494Y2871402D01*
X29681404Y3038492D01*
X29681401Y3038495D01*
X29487830Y3174035D01*
X29273663Y3273903D01*
X29212501Y3290291D01*
X29045407Y3335064D01*
X28810000Y3355660D01*
X28574592Y3335064D01*
X28346336Y3273903D01*
X28132170Y3174035D01*
X27938598Y3038495D01*
X27771505Y2871402D01*
X27641575Y2685841D01*
X27597257Y2646975D01*
X27540000Y2632964D01*
X27482743Y2646975D01*
X27438425Y2685841D01*
X27308494Y2871402D01*
X27141404Y3038492D01*
X27141401Y3038495D01*
X26947830Y3174035D01*
X26733663Y3273903D01*
X26672501Y3290291D01*
X26505407Y3335064D01*
X26270000Y3355660D01*
X26034592Y3335064D01*
X25806336Y3273903D01*
X25592170Y3174035D01*
X25398598Y3038495D01*
X25231505Y2871402D01*
X25101575Y2685841D01*
X25057257Y2646975D01*
X25000000Y2632964D01*
X24942743Y2646975D01*
X24898425Y2685841D01*
X24768494Y2871402D01*
X24601404Y3038492D01*
X24601401Y3038495D01*
X24407830Y3174035D01*
X24193663Y3273903D01*
X24132501Y3290291D01*
X23965407Y3335064D01*
X23730000Y3355660D01*
X23494592Y3335064D01*
X23266336Y3273903D01*
X23052170Y3174035D01*
X22858598Y3038495D01*
X22691505Y2871402D01*
X22561575Y2685841D01*
X22517257Y2646975D01*
X22460000Y2632964D01*
X22402743Y2646975D01*
X22358425Y2685841D01*
X22228494Y2871402D01*
X22061404Y3038492D01*
X22061401Y3038495D01*
X21867830Y3174035D01*
X21653663Y3273903D01*
X21592501Y3290291D01*
X21425407Y3335064D01*
X21190000Y3355660D01*
X20954592Y3335064D01*
X20726336Y3273903D01*
X20512170Y3174035D01*
X20318598Y3038495D01*
X20151505Y2871402D01*
X20021575Y2685841D01*
X19977257Y2646975D01*
X19920000Y2632964D01*
X19862743Y2646975D01*
X19818425Y2685841D01*
X19688494Y2871402D01*
X19521404Y3038492D01*
X19521401Y3038495D01*
X19327830Y3174035D01*
X19113663Y3273903D01*
X19052501Y3290291D01*
X18885407Y3335064D01*
X18650000Y3355660D01*
X18414592Y3335064D01*
X18186336Y3273903D01*
X17972170Y3174035D01*
X17778598Y3038495D01*
X17611505Y2871402D01*
X17481575Y2685841D01*
X17437257Y2646975D01*
X17380000Y2632964D01*
X17322743Y2646975D01*
X17278425Y2685841D01*
X17148494Y2871402D01*
X16981404Y3038492D01*
X16981401Y3038495D01*
X16787830Y3174035D01*
X16573663Y3273903D01*
X16512501Y3290291D01*
X16345407Y3335064D01*
X16110000Y3355660D01*
X15874592Y3335064D01*
X15646336Y3273903D01*
X15432170Y3174035D01*
X15238598Y3038495D01*
X15071505Y2871402D01*
X14941575Y2685841D01*
X14897257Y2646975D01*
X14840000Y2632964D01*
X14782743Y2646975D01*
X14738425Y2685841D01*
X14608494Y2871402D01*
X14441404Y3038492D01*
X14441401Y3038495D01*
X14247830Y3174035D01*
X14033663Y3273903D01*
X13972501Y3290291D01*
X13805407Y3335064D01*
X13570000Y3355660D01*
X13334592Y3335064D01*
X13106336Y3273903D01*
X12892170Y3174035D01*
X12698598Y3038495D01*
X12531508Y2871405D01*
X12401269Y2685404D01*
X12356951Y2646539D01*
X12299694Y2632528D01*
X12242437Y2646539D01*
X12198119Y2685405D01*
X12068109Y2871079D01*
X11901081Y3038107D01*
X11707576Y3173601D01*
X11493492Y3273431D01*
X11280000Y3330636D01*
X11280000Y669365D01*
X10780000Y669365D01*
X10780000Y3330636D01*
X10779999Y3330636D01*
X10566507Y3273431D01*
X10352421Y3173600D01*
X10158924Y3038112D01*
X10036865Y2916053D01*
X9984118Y2884758D01*
X9922825Y2882569D01*
X9867981Y2910022D01*
X9833002Y2960402D01*
X9804018Y3038112D01*
X9783796Y3092331D01*
X9697546Y3207546D01*
X9582331Y3293796D01*
X9579307Y3294924D01*
X9571165Y3297961D01*
X9528929Y3324400D01*
X9500512Y3365330D01*
X9490500Y3414142D01*
X9490500Y4275500D01*
X9507113Y4337500D01*
X9552500Y4382887D01*
X9614500Y4399500D01*
X23598259Y4399500D01*
X23685721Y4399500D01*
X23688863Y4399460D01*
X23776359Y4397243D01*
X23776359Y4397244D01*
X23776363Y4397243D01*
X23778105Y4397556D01*
X23799981Y4399500D01*
X28698259Y4399500D01*
X28850742Y4399500D01*
X41871499Y4399500D01*
X41877778Y4399342D01*
X41950936Y4395631D01*
X42023339Y4406724D01*
X42029557Y4407516D01*
X42102438Y4414926D01*
X42117801Y4419747D01*
X42136150Y4424005D01*
X42143372Y4425112D01*
X42152071Y4426444D01*
X42220777Y4451891D01*
X42226672Y4453906D01*
X42296588Y4475841D01*
X42310674Y4483661D01*
X42327781Y4491521D01*
X42342887Y4497114D01*
X42405056Y4535866D01*
X42410450Y4539041D01*
X42474502Y4574591D01*
X42486720Y4585082D01*
X42501898Y4596227D01*
X42515571Y4604748D01*
X42568692Y4655245D01*
X42573328Y4659432D01*
X42628895Y4707134D01*
X42638752Y4719869D01*
X42651375Y4733841D01*
X42663053Y4744941D01*
X42704939Y4805123D01*
X42708577Y4810076D01*
X42753448Y4868042D01*
X42760546Y4882515D01*
X42770093Y4898732D01*
X42779295Y4911951D01*
X42808186Y4979278D01*
X42810791Y4984946D01*
X42843060Y5050729D01*
X42847096Y5066320D01*
X42853186Y5084139D01*
X42859540Y5098942D01*
X42874288Y5170713D01*
X42875694Y5176778D01*
X42894063Y5247715D01*
X42894879Y5263807D01*
X42897258Y5282484D01*
X42900500Y5298258D01*
X42900500Y5371499D01*
X42900659Y5377780D01*
X42904369Y5450936D01*
X42901930Y5466856D01*
X42900500Y5485635D01*
X42900500Y6852236D01*
X45145787Y6852236D01*
X45175413Y6582984D01*
X45195774Y6505102D01*
X45243928Y6320912D01*
X45321788Y6137693D01*
X45349871Y6071608D01*
X45490982Y5840389D01*
X45664253Y5632182D01*
X45664255Y5632180D01*
X45865998Y5451418D01*
X46091910Y5301956D01*
X46099799Y5298258D01*
X46337177Y5186979D01*
X46596562Y5108942D01*
X46596569Y5108940D01*
X46864561Y5069500D01*
X47067631Y5069500D01*
X47067634Y5069500D01*
X47270156Y5084323D01*
X47270156Y5084324D01*
X47534553Y5143220D01*
X47787558Y5239986D01*
X48023777Y5372559D01*
X48238177Y5538112D01*
X48426186Y5733119D01*
X48583799Y5953421D01*
X48707656Y6194325D01*
X48795118Y6450695D01*
X48844319Y6717067D01*
X48854212Y6987765D01*
X48824586Y7257018D01*
X48756072Y7519088D01*
X48650130Y7768390D01*
X48534489Y7957875D01*
X48509017Y7999612D01*
X48335746Y8207819D01*
X48264855Y8271337D01*
X48134002Y8388582D01*
X47908090Y8538044D01*
X47908086Y8538046D01*
X47662822Y8653022D01*
X47403437Y8731059D01*
X47403431Y8731060D01*
X47135439Y8770500D01*
X46932369Y8770500D01*
X46932366Y8770500D01*
X46729843Y8755678D01*
X46465449Y8696781D01*
X46212441Y8600014D01*
X45976223Y8467441D01*
X45761825Y8301891D01*
X45573813Y8106880D01*
X45416201Y7886580D01*
X45292342Y7645671D01*
X45204881Y7389305D01*
X45155680Y7122934D01*
X45145787Y6852236D01*
X42900500Y6852236D01*
X42900500Y10475500D01*
X42917113Y10537500D01*
X42962500Y10582887D01*
X43024500Y10599500D01*
X48671499Y10599500D01*
X48677778Y10599342D01*
X48750936Y10595631D01*
X48823339Y10606724D01*
X48829557Y10607516D01*
X48902438Y10614926D01*
X48917801Y10619747D01*
X48936150Y10624005D01*
X48943372Y10625112D01*
X48952071Y10626444D01*
X49020777Y10651891D01*
X49026672Y10653906D01*
X49096588Y10675841D01*
X49110674Y10683661D01*
X49127781Y10691521D01*
X49142887Y10697114D01*
X49205056Y10735866D01*
X49210450Y10739041D01*
X49274502Y10774591D01*
X49286720Y10785082D01*
X49301898Y10796227D01*
X49315571Y10804748D01*
X49368692Y10855245D01*
X49373328Y10859432D01*
X49428895Y10907134D01*
X49438752Y10919869D01*
X49451375Y10933841D01*
X49463053Y10944941D01*
X49504939Y11005123D01*
X49508577Y11010076D01*
X49553448Y11068042D01*
X49560546Y11082515D01*
X49570093Y11098732D01*
X49579295Y11111951D01*
X49608186Y11179278D01*
X49610791Y11184946D01*
X49643060Y11250729D01*
X49647096Y11266320D01*
X49653186Y11284139D01*
X49659540Y11298942D01*
X49674288Y11370713D01*
X49675694Y11376778D01*
X49694063Y11447715D01*
X49694879Y11463807D01*
X49697258Y11482484D01*
X49700500Y11498258D01*
X49700500Y11571499D01*
X49700659Y11577780D01*
X49704369Y11650936D01*
X49701930Y11666856D01*
X49700500Y11685635D01*
X49700500Y73685761D01*
X49700540Y73688903D01*
X49702756Y73776362D01*
X49692351Y73834415D01*
X49691042Y73843747D01*
X49685074Y73902438D01*
X49675967Y73931463D01*
X49672223Y73946714D01*
X49666857Y73976657D01*
X49644976Y74031435D01*
X49641816Y74040311D01*
X49639056Y74049108D01*
X49624159Y74096588D01*
X49609395Y74123188D01*
X49602660Y74137369D01*
X49599412Y74145500D01*
X49591377Y74165617D01*
X49558917Y74214869D01*
X49554036Y74222926D01*
X49530326Y74265643D01*
X49525409Y74274502D01*
X49505582Y74297597D01*
X49496146Y74310112D01*
X49479402Y74335519D01*
X49437681Y74377239D01*
X49431288Y74384138D01*
X49392865Y74428897D01*
X49376389Y74441650D01*
X49362416Y74454274D01*
X49335059Y74483054D01*
X49286642Y74516753D01*
X49279119Y74522425D01*
X49233405Y74559700D01*
X49206440Y74573785D01*
X49193019Y74581916D01*
X49168049Y74599295D01*
X49168048Y74599296D01*
X49168046Y74599297D01*
X49113845Y74622557D01*
X49105336Y74626598D01*
X49053053Y74653908D01*
X49047126Y74655604D01*
X49023798Y74662279D01*
X49009020Y74667541D01*
X48981058Y74679540D01*
X48923272Y74691417D01*
X48914128Y74693662D01*
X48857421Y74709887D01*
X48827075Y74712198D01*
X48811534Y74714378D01*
X48781742Y74720500D01*
X48781741Y74720500D01*
X48722758Y74720500D01*
X48713344Y74720858D01*
X48704198Y74721555D01*
X48654524Y74725337D01*
X48654523Y74725337D01*
X48624349Y74721494D01*
X48608683Y74720500D01*
X34850758Y74720500D01*
X34803305Y74729939D01*
X34763077Y74756819D01*
X34761401Y74758495D01*
X34686239Y74811124D01*
X34575839Y74888427D01*
X34536975Y74932743D01*
X34522964Y74990000D01*
X34536975Y75047257D01*
X34575839Y75091574D01*
X34761401Y75221505D01*
X34787545Y75247649D01*
X45951199Y75247649D01*
X45981650Y75223949D01*
X46185700Y75113523D01*
X46405140Y75038189D01*
X46633993Y75000000D01*
X46866007Y75000000D01*
X47094859Y75038189D01*
X47314296Y75113522D01*
X47518353Y75223952D01*
X47548798Y75247649D01*
X46750000Y76046447D01*
X45951199Y75247649D01*
X34787545Y75247649D01*
X34928495Y75388599D01*
X35064035Y75582170D01*
X35163903Y75796337D01*
X35208104Y75961298D01*
X43164848Y75961298D01*
X43347479Y75836783D01*
X43590542Y75719730D01*
X43848339Y75640209D01*
X44115109Y75600000D01*
X44384891Y75600000D01*
X44651660Y75640209D01*
X44909460Y75719730D01*
X45152523Y75836783D01*
X45272185Y75918367D01*
X45322350Y75938341D01*
X45376247Y75935101D01*
X45423658Y75909263D01*
X45455593Y75865724D01*
X45514516Y75731391D01*
X45598812Y75602367D01*
X46396446Y76400000D01*
X47103553Y76400000D01*
X47901186Y75602366D01*
X47985483Y75731393D01*
X48078680Y75943862D01*
X48135638Y76168783D01*
X48154798Y76400000D01*
X48135638Y76631218D01*
X48078680Y76856140D01*
X47985484Y77068608D01*
X47901186Y77197636D01*
X47103553Y76400000D01*
X46396446Y76400000D01*
X46750000Y76753553D01*
X47548799Y77552353D01*
X47518349Y77576052D01*
X47314299Y77686478D01*
X47094859Y77761812D01*
X46866007Y77800000D01*
X46633993Y77800000D01*
X46405140Y77761812D01*
X46175981Y77683141D01*
X46175274Y77685199D01*
X46136851Y77674750D01*
X46081320Y77685720D01*
X46036451Y77720227D01*
X46011593Y77771081D01*
X45974853Y77932049D01*
X45876291Y78183179D01*
X45741398Y78416822D01*
X45687704Y78484153D01*
X44250000Y77046447D01*
X43164848Y75961298D01*
X35208104Y75961298D01*
X35225063Y76024592D01*
X35245659Y76260000D01*
X35225063Y76495408D01*
X35163903Y76723663D01*
X35064035Y76937829D01*
X34928495Y77131401D01*
X34806181Y77253716D01*
X34774885Y77306461D01*
X34772696Y77367754D01*
X34788837Y77400000D01*
X42444952Y77400000D01*
X42465113Y77130974D01*
X42525146Y76867951D01*
X42623708Y76616822D01*
X42758598Y76383184D01*
X42812295Y76315850D01*
X43896447Y77399999D01*
X43896447Y77400000D01*
X42812295Y78484152D01*
X42758598Y78416818D01*
X42623708Y78183179D01*
X42525146Y77932050D01*
X42465113Y77669027D01*
X42444952Y77400000D01*
X34788837Y77400000D01*
X34800149Y77422599D01*
X34850528Y77457578D01*
X34982089Y77506648D01*
X35097188Y77592812D01*
X35183352Y77707911D01*
X35233597Y77842625D01*
X35240000Y77902176D01*
X35240000Y78550000D01*
X32540000Y78550000D01*
X32540000Y77902176D01*
X32546402Y77842625D01*
X32596647Y77707911D01*
X32682811Y77592812D01*
X32797911Y77506648D01*
X32929471Y77457578D01*
X32979850Y77422599D01*
X33007303Y77367754D01*
X33005114Y77306461D01*
X32973819Y77253715D01*
X32851503Y77131399D01*
X32715965Y76937830D01*
X32616097Y76723664D01*
X32554936Y76495408D01*
X32534340Y76260001D01*
X32554936Y76024593D01*
X32585839Y75909263D01*
X32616097Y75796337D01*
X32715965Y75582170D01*
X32851505Y75388599D01*
X33018599Y75221505D01*
X33204160Y75091574D01*
X33243024Y75047257D01*
X33257035Y74990000D01*
X33243024Y74932743D01*
X33204158Y74888425D01*
X33063695Y74790071D01*
X33018595Y74758492D01*
X32851505Y74591402D01*
X32715965Y74397830D01*
X32616097Y74183664D01*
X32554936Y73955408D01*
X32534340Y73720001D01*
X32554936Y73484593D01*
X32607990Y73286593D01*
X32609832Y73230309D01*
X32586591Y73179014D01*
X32543059Y73143288D01*
X32488215Y73130500D01*
X31079921Y73130500D01*
X31072434Y73130726D01*
X31012391Y73134359D01*
X30953227Y73123517D01*
X30945828Y73122390D01*
X30886124Y73115140D01*
X30876651Y73111547D01*
X30855047Y73105524D01*
X30845069Y73103695D01*
X30790225Y73079013D01*
X30783310Y73076149D01*
X30727070Y73054819D01*
X30718723Y73049057D01*
X30699187Y73038039D01*
X30689944Y73033879D01*
X30642608Y72996795D01*
X30636582Y72992361D01*
X30587072Y72958184D01*
X30547184Y72913162D01*
X30542052Y72907711D01*
X30522290Y72887949D01*
X30516838Y72882817D01*
X30471816Y72842930D01*
X30437649Y72793432D01*
X30433213Y72787403D01*
X30396121Y72740058D01*
X30391961Y72730814D01*
X30380941Y72711275D01*
X30375182Y72702931D01*
X30353853Y72646695D01*
X30350989Y72639781D01*
X30326303Y72584930D01*
X30324475Y72574953D01*
X30318454Y72553352D01*
X30314859Y72543872D01*
X30307609Y72484173D01*
X30306483Y72476774D01*
X30295641Y72417609D01*
X30299274Y72357566D01*
X30299500Y72350079D01*
X30299500Y58549927D01*
X30297469Y58527576D01*
X30295642Y58517607D01*
X30299274Y58457566D01*
X30299500Y58450079D01*
X30299500Y58432622D01*
X30301603Y58415297D01*
X30302281Y58407844D01*
X30305913Y58347802D01*
X30308927Y58338132D01*
X30313638Y58316191D01*
X30314860Y58306126D01*
X30336189Y58249882D01*
X30338631Y58242806D01*
X30356522Y58185393D01*
X30361762Y58176725D01*
X30371586Y58156550D01*
X30375182Y58147069D01*
X30409348Y58097570D01*
X30413414Y58091283D01*
X30444529Y58039814D01*
X30451692Y58032651D01*
X30466060Y58015411D01*
X30471817Y58007071D01*
X30516846Y57967179D01*
X30522283Y57962060D01*
X30564815Y57919528D01*
X30573489Y57914285D01*
X30591560Y57900989D01*
X30599148Y57894266D01*
X30599150Y57894265D01*
X30652386Y57866324D01*
X30658909Y57862645D01*
X30710392Y57831523D01*
X30710394Y57831522D01*
X30720064Y57828509D01*
X30740795Y57819924D01*
X30749775Y57815210D01*
X30808185Y57800814D01*
X30815374Y57798810D01*
X30872804Y57780914D01*
X30882916Y57780303D01*
X30905104Y57776926D01*
X30914944Y57774500D01*
X30975079Y57774500D01*
X30982566Y57774274D01*
X30985706Y57774085D01*
X31042606Y57770642D01*
X31052575Y57772469D01*
X31074927Y57774500D01*
X31085058Y57774500D01*
X31090726Y57775897D01*
X31120399Y57779500D01*
X32667289Y57779500D01*
X32724546Y57765489D01*
X32768863Y57726624D01*
X32851505Y57608599D01*
X33018599Y57441505D01*
X33204160Y57311574D01*
X33243024Y57267257D01*
X33257035Y57210000D01*
X33243024Y57152743D01*
X33204159Y57108425D01*
X33018595Y56978492D01*
X32851505Y56811402D01*
X32768864Y56693377D01*
X32724546Y56654511D01*
X32667289Y56640500D01*
X30437510Y56640500D01*
X30399192Y56646569D01*
X30364625Y56664182D01*
X30345063Y56678395D01*
X30302727Y56709154D01*
X30129802Y56786145D01*
X29944648Y56825500D01*
X29944646Y56825500D01*
X29755354Y56825500D01*
X29755352Y56825500D01*
X29570197Y56786145D01*
X29397269Y56709152D01*
X29244129Y56597890D01*
X29117466Y56457217D01*
X29022820Y56293285D01*
X28964326Y56113258D01*
X28944540Y55925000D01*
X28964326Y55736743D01*
X29022820Y55556716D01*
X29117466Y55392784D01*
X29244129Y55252111D01*
X29397269Y55140849D01*
X29570197Y55063856D01*
X29755352Y55024500D01*
X29755354Y55024500D01*
X29944646Y55024500D01*
X29944648Y55024500D01*
X30068084Y55050738D01*
X30129803Y55063856D01*
X30302730Y55140849D01*
X30405917Y55215819D01*
X30440484Y55233431D01*
X30478802Y55239500D01*
X32667289Y55239500D01*
X32724546Y55225489D01*
X32768864Y55186623D01*
X32851505Y55068599D01*
X32973818Y54946286D01*
X33005114Y54893540D01*
X33007303Y54832247D01*
X32979850Y54777403D01*
X32929472Y54742424D01*
X32797913Y54693354D01*
X32682811Y54607189D01*
X32596647Y54492090D01*
X32546402Y54357376D01*
X32540000Y54297824D01*
X32540000Y53650000D01*
X35240000Y53650000D01*
X35240000Y54297824D01*
X35233597Y54357376D01*
X35183352Y54492090D01*
X35097188Y54607189D01*
X34982088Y54693353D01*
X34850528Y54742423D01*
X34800149Y54777403D01*
X34772696Y54832248D01*
X34774885Y54893540D01*
X34806178Y54946283D01*
X34928495Y55068599D01*
X35064035Y55262170D01*
X35163903Y55476337D01*
X35225063Y55704592D01*
X35245659Y55940000D01*
X35225063Y56175408D01*
X35163903Y56403663D01*
X35064035Y56617829D01*
X34928495Y56811401D01*
X34761401Y56978495D01*
X34575839Y57108427D01*
X34536975Y57152743D01*
X34522964Y57210000D01*
X34536975Y57267257D01*
X34575839Y57311574D01*
X34761401Y57441505D01*
X34928495Y57608599D01*
X35064035Y57802170D01*
X35163903Y58016337D01*
X35225063Y58244592D01*
X35245659Y58480000D01*
X35225063Y58715408D01*
X35163903Y58943663D01*
X35064035Y59157829D01*
X34928495Y59351401D01*
X34761401Y59518495D01*
X34575839Y59648427D01*
X34536975Y59692743D01*
X34522964Y59750000D01*
X34536975Y59807257D01*
X34575839Y59851574D01*
X34761401Y59981505D01*
X34928495Y60148599D01*
X35064035Y60342170D01*
X35163903Y60556337D01*
X35225063Y60784592D01*
X35245659Y61020000D01*
X35225063Y61255408D01*
X35163903Y61483663D01*
X35064035Y61697829D01*
X34928495Y61891401D01*
X34761401Y62058495D01*
X34575839Y62188427D01*
X34536975Y62232743D01*
X34522964Y62290000D01*
X34536975Y62347257D01*
X34575839Y62391574D01*
X34761401Y62521505D01*
X34928495Y62688599D01*
X35064035Y62882170D01*
X35163903Y63096337D01*
X35225063Y63324592D01*
X35245659Y63560000D01*
X35225063Y63795408D01*
X35163903Y64023663D01*
X35064035Y64237829D01*
X34928495Y64431401D01*
X34806181Y64553716D01*
X34774885Y64606461D01*
X34772696Y64667754D01*
X34800149Y64722599D01*
X34850528Y64757578D01*
X34982089Y64806648D01*
X35097188Y64892812D01*
X35183352Y65007911D01*
X35233597Y65142625D01*
X35240000Y65202176D01*
X35240000Y65850000D01*
X32540000Y65850000D01*
X32540000Y65202176D01*
X32546402Y65142625D01*
X32596647Y65007911D01*
X32682811Y64892812D01*
X32797911Y64806648D01*
X32929471Y64757578D01*
X32979850Y64722599D01*
X33007303Y64667754D01*
X33005114Y64606461D01*
X32973819Y64553715D01*
X32851503Y64431399D01*
X32715965Y64237830D01*
X32616097Y64023664D01*
X32554936Y63795408D01*
X32534340Y63560001D01*
X32554936Y63324593D01*
X32599709Y63157499D01*
X32616097Y63096337D01*
X32715965Y62882170D01*
X32851505Y62688599D01*
X33018599Y62521505D01*
X33204160Y62391574D01*
X33243024Y62347257D01*
X33257035Y62290000D01*
X33243024Y62232743D01*
X33204159Y62188425D01*
X33018595Y62058492D01*
X32851505Y61891402D01*
X32715965Y61697830D01*
X32616097Y61483664D01*
X32554936Y61255408D01*
X32534340Y61020000D01*
X32554936Y60784593D01*
X32599709Y60617498D01*
X32616097Y60556337D01*
X32715965Y60342170D01*
X32851505Y60148599D01*
X33018599Y59981505D01*
X33204160Y59851574D01*
X33243024Y59807257D01*
X33257035Y59750000D01*
X33243024Y59692743D01*
X33204159Y59648425D01*
X33018595Y59518492D01*
X32851505Y59351402D01*
X32768864Y59233377D01*
X32724546Y59194511D01*
X32667289Y59180500D01*
X31824500Y59180500D01*
X31762500Y59197113D01*
X31717113Y59242500D01*
X31700500Y59304500D01*
X31700500Y71605500D01*
X31717113Y71667500D01*
X31762500Y71712887D01*
X31824500Y71729500D01*
X32477497Y71729500D01*
X32532341Y71716712D01*
X32575873Y71680986D01*
X32599114Y71629691D01*
X32597272Y71573407D01*
X32554936Y71415408D01*
X32534340Y71180000D01*
X32554936Y70944593D01*
X32599709Y70777498D01*
X32616097Y70716337D01*
X32715965Y70502170D01*
X32851505Y70308599D01*
X33018599Y70141505D01*
X33204160Y70011574D01*
X33243024Y69967257D01*
X33257035Y69910000D01*
X33243024Y69852743D01*
X33204159Y69808425D01*
X33018595Y69678492D01*
X32851505Y69511402D01*
X32715965Y69317830D01*
X32616097Y69103664D01*
X32554936Y68875408D01*
X32534340Y68640001D01*
X32554936Y68404593D01*
X32599709Y68237498D01*
X32616097Y68176337D01*
X32715965Y67962170D01*
X32851505Y67768599D01*
X32851508Y67768596D01*
X32973818Y67646286D01*
X33005114Y67593540D01*
X33007303Y67532247D01*
X32979850Y67477403D01*
X32929472Y67442424D01*
X32797913Y67393354D01*
X32682811Y67307189D01*
X32596647Y67192090D01*
X32546402Y67057376D01*
X32540000Y66997824D01*
X32540000Y66350000D01*
X35240000Y66350000D01*
X35240000Y66997824D01*
X35233597Y67057376D01*
X35183352Y67192090D01*
X35097188Y67307189D01*
X34982088Y67393353D01*
X34850528Y67442423D01*
X34800149Y67477403D01*
X34772696Y67532248D01*
X34774885Y67593540D01*
X34806178Y67646283D01*
X34928495Y67768599D01*
X35064035Y67962170D01*
X35163903Y68176337D01*
X35225063Y68404592D01*
X35245659Y68640000D01*
X35225063Y68875408D01*
X35202049Y68961298D01*
X43164848Y68961298D01*
X43347479Y68836783D01*
X43590542Y68719730D01*
X43848339Y68640209D01*
X44115109Y68600000D01*
X44384891Y68600000D01*
X44651660Y68640209D01*
X44909460Y68719730D01*
X45152523Y68836783D01*
X45335150Y68961298D01*
X44250000Y70046447D01*
X43164848Y68961298D01*
X35202049Y68961298D01*
X35163903Y69103663D01*
X35064035Y69317829D01*
X34928495Y69511401D01*
X34761401Y69678495D01*
X34575839Y69808427D01*
X34536976Y69852743D01*
X34522965Y69910000D01*
X34536976Y69967257D01*
X34575839Y70011574D01*
X34761401Y70141505D01*
X34928495Y70308599D01*
X35064035Y70502170D01*
X35163903Y70716337D01*
X35225063Y70944592D01*
X35245659Y71180000D01*
X35225063Y71415408D01*
X35187262Y71556485D01*
X35182728Y71573407D01*
X35180886Y71629691D01*
X35204127Y71680986D01*
X35247659Y71716712D01*
X35302503Y71729500D01*
X42750466Y71729500D01*
X42816438Y71710494D01*
X42862186Y71659301D01*
X42873686Y71591616D01*
X42847413Y71528187D01*
X42758599Y71416819D01*
X42623708Y71183179D01*
X42525146Y70932050D01*
X42465113Y70669027D01*
X42444952Y70400000D01*
X42465113Y70130974D01*
X42525146Y69867951D01*
X42623708Y69616822D01*
X42758598Y69383184D01*
X42812295Y69315850D01*
X44162318Y70665872D01*
X44217905Y70697966D01*
X44282093Y70697966D01*
X44337680Y70665872D01*
X45687703Y69315849D01*
X45687704Y69315850D01*
X45741400Y69383182D01*
X45876291Y69616822D01*
X45974853Y69867952D01*
X46011478Y70028415D01*
X46036346Y70079281D01*
X46081234Y70113788D01*
X46136783Y70124744D01*
X46175063Y70114317D01*
X46175779Y70116400D01*
X46405015Y70037703D01*
X46405017Y70037703D01*
X46405019Y70037702D01*
X46633951Y69999500D01*
X46866048Y69999500D01*
X46866049Y69999500D01*
X47094981Y70037702D01*
X47314503Y70113064D01*
X47516486Y70222373D01*
X47578062Y70237290D01*
X47638974Y70219839D01*
X47683312Y70174575D01*
X47699500Y70113316D01*
X47699500Y51699500D01*
X47682887Y51637500D01*
X47637500Y51592113D01*
X47575500Y51575500D01*
X44608156Y51575500D01*
X44569838Y51581569D01*
X44535270Y51599182D01*
X44515732Y51613377D01*
X44452730Y51659151D01*
X44452729Y51659152D01*
X44452727Y51659153D01*
X44279802Y51736145D01*
X44094648Y51775500D01*
X44094646Y51775500D01*
X43905354Y51775500D01*
X43905352Y51775500D01*
X43720197Y51736145D01*
X43547269Y51659152D01*
X43394129Y51547890D01*
X43267466Y51407217D01*
X43172820Y51243285D01*
X43114326Y51063258D01*
X43094540Y50875000D01*
X43114326Y50686743D01*
X43172820Y50506716D01*
X43267466Y50342784D01*
X43394129Y50202111D01*
X43547269Y50090849D01*
X43720197Y50013856D01*
X43905352Y49974500D01*
X43905354Y49974500D01*
X44094646Y49974500D01*
X44094648Y49974500D01*
X44218083Y50000738D01*
X44279803Y50013856D01*
X44452730Y50090849D01*
X44535271Y50150819D01*
X44569838Y50168431D01*
X44608156Y50174500D01*
X47575500Y50174500D01*
X47637500Y50157887D01*
X47682887Y50112500D01*
X47699500Y50050500D01*
X47699500Y13932010D01*
X47684473Y13872842D01*
X47643035Y13828015D01*
X47585228Y13808392D01*
X47525064Y13818731D01*
X47429802Y13861145D01*
X47244648Y13900500D01*
X47244646Y13900500D01*
X47064119Y13900500D01*
X47015220Y13910549D01*
X46901058Y13959540D01*
X46701741Y14000500D01*
X46701739Y14000500D01*
X41414279Y14000500D01*
X41411137Y14000540D01*
X41323637Y14002758D01*
X41265580Y13992352D01*
X41256251Y13991043D01*
X41197562Y13985074D01*
X41168527Y13975965D01*
X41153290Y13972226D01*
X41123350Y13966859D01*
X41068567Y13944978D01*
X41059698Y13941821D01*
X41003410Y13924159D01*
X40976809Y13909395D01*
X40962639Y13902665D01*
X40934385Y13891378D01*
X40885121Y13858913D01*
X40877070Y13854036D01*
X40825498Y13825410D01*
X40802414Y13805593D01*
X40789887Y13796147D01*
X40764481Y13779402D01*
X40722775Y13737697D01*
X40715868Y13731296D01*
X40671103Y13692865D01*
X40652480Y13668807D01*
X40642108Y13657031D01*
X39602645Y12617567D01*
X39600398Y12615376D01*
X39536948Y12555060D01*
X39503244Y12506638D01*
X39497573Y12499118D01*
X39460301Y12453407D01*
X39446210Y12426434D01*
X39438082Y12413017D01*
X39420705Y12388050D01*
X39397439Y12333835D01*
X39393399Y12325329D01*
X39366090Y12273048D01*
X39357720Y12243799D01*
X39352459Y12229022D01*
X39340460Y12201058D01*
X39328587Y12143287D01*
X39326342Y12134140D01*
X39310113Y12077420D01*
X39307802Y12047075D01*
X39305622Y12031534D01*
X39299500Y12001741D01*
X39299500Y11942758D01*
X39299142Y11933344D01*
X39294663Y11874523D01*
X39298506Y11844349D01*
X39299500Y11828683D01*
X39299500Y9480063D01*
X39281227Y9415273D01*
X39231795Y9369578D01*
X39165771Y9356445D01*
X39102615Y9379745D01*
X39027730Y9434152D01*
X38854802Y9511145D01*
X38669648Y9550500D01*
X38669646Y9550500D01*
X38480354Y9550500D01*
X38480352Y9550500D01*
X38295197Y9511145D01*
X38122272Y9434153D01*
X38070406Y9396470D01*
X38047387Y9379745D01*
X38039730Y9374182D01*
X38005162Y9356569D01*
X37966844Y9350500D01*
X37483156Y9350500D01*
X37444838Y9356569D01*
X37410270Y9374182D01*
X37402613Y9379745D01*
X37327730Y9434151D01*
X37327729Y9434152D01*
X37327727Y9434153D01*
X37154802Y9511145D01*
X36969648Y9550500D01*
X36969646Y9550500D01*
X36780354Y9550500D01*
X36780352Y9550500D01*
X36595197Y9511145D01*
X36422269Y9434152D01*
X36269129Y9322890D01*
X36142466Y9182217D01*
X36047820Y9018285D01*
X35989326Y8838258D01*
X35969540Y8650001D01*
X35989326Y8461743D01*
X36047820Y8281716D01*
X36142466Y8117784D01*
X36151752Y8107471D01*
X36179033Y8057845D01*
X36181404Y8001264D01*
X36158370Y7949529D01*
X36114736Y7913432D01*
X36059601Y7900500D01*
X35170619Y7900500D01*
X35110976Y7915786D01*
X35066038Y7957875D01*
X35046884Y8016390D01*
X35058236Y8076903D01*
X35148903Y8271337D01*
X35210063Y8499592D01*
X35230659Y8735000D01*
X35210063Y8970408D01*
X35148903Y9198663D01*
X35049035Y9412829D01*
X34913495Y9606401D01*
X34791569Y9728327D01*
X34760273Y9781073D01*
X34758084Y9842366D01*
X34785537Y9897211D01*
X34835916Y9932190D01*
X34967331Y9981204D01*
X35082546Y10067454D01*
X35168796Y10182669D01*
X35219091Y10317517D01*
X35225500Y10377127D01*
X35225499Y12172872D01*
X35219091Y12232483D01*
X35168796Y12367331D01*
X35082546Y12482546D01*
X34967331Y12568796D01*
X34832483Y12619091D01*
X34772873Y12625500D01*
X34772869Y12625500D01*
X32977130Y12625500D01*
X32917515Y12619091D01*
X32782669Y12568796D01*
X32667454Y12482546D01*
X32581204Y12367331D01*
X32532189Y12235917D01*
X32497209Y12185538D01*
X32442365Y12158085D01*
X32381072Y12160274D01*
X32328326Y12191570D01*
X32206401Y12313495D01*
X32129515Y12367331D01*
X32088376Y12396137D01*
X32049511Y12440454D01*
X32035500Y12497711D01*
X32035500Y12718481D01*
X32044939Y12765933D01*
X32071816Y12806160D01*
X32277747Y13012092D01*
X32283151Y13017178D01*
X32328183Y13057071D01*
X32362358Y13106584D01*
X32366779Y13112593D01*
X32403877Y13159943D01*
X32408033Y13169180D01*
X32419058Y13188727D01*
X32424818Y13197070D01*
X32446154Y13253332D01*
X32449014Y13260234D01*
X32473694Y13315068D01*
X32475519Y13325029D01*
X32481545Y13346652D01*
X32485140Y13356128D01*
X32492389Y13415835D01*
X32493516Y13423238D01*
X32493849Y13425057D01*
X32504357Y13482394D01*
X32500726Y13542423D01*
X32500500Y13549910D01*
X32500500Y15234608D01*
X32508736Y15279045D01*
X32532350Y15317580D01*
X32532533Y15317784D01*
X32627179Y15481716D01*
X32660462Y15584151D01*
X32685674Y15661744D01*
X32705460Y15850000D01*
X32685674Y16038256D01*
X32627179Y16218284D01*
X32627179Y16218285D01*
X32532533Y16382217D01*
X32405870Y16522890D01*
X32252730Y16634152D01*
X32079802Y16711145D01*
X31894648Y16750500D01*
X31894646Y16750500D01*
X31705354Y16750500D01*
X31705352Y16750500D01*
X31520197Y16711145D01*
X31347269Y16634152D01*
X31194129Y16522890D01*
X31067466Y16382217D01*
X30972820Y16218285D01*
X30914326Y16038258D01*
X30894540Y15850000D01*
X30914326Y15661743D01*
X30972820Y15481716D01*
X31067466Y15317784D01*
X31067650Y15317580D01*
X31091264Y15279045D01*
X31099500Y15234608D01*
X31099500Y13866519D01*
X31090061Y13819066D01*
X31063183Y13778841D01*
X30890851Y13606509D01*
X30857290Y13572948D01*
X30851838Y13567817D01*
X30806816Y13527930D01*
X30772649Y13478432D01*
X30768213Y13472403D01*
X30731121Y13425058D01*
X30726961Y13415814D01*
X30715941Y13396275D01*
X30710182Y13387931D01*
X30688853Y13331695D01*
X30685989Y13324781D01*
X30661303Y13269930D01*
X30659475Y13259953D01*
X30653454Y13238352D01*
X30649859Y13228872D01*
X30642609Y13169173D01*
X30641483Y13161774D01*
X30630641Y13102609D01*
X30634274Y13042566D01*
X30634500Y13035079D01*
X30634500Y12497711D01*
X30620489Y12440454D01*
X30581623Y12396136D01*
X30463598Y12313495D01*
X30296505Y12146402D01*
X30166575Y11960841D01*
X30122257Y11921975D01*
X30065000Y11907964D01*
X30007743Y11921975D01*
X29963425Y11960841D01*
X29908531Y12039238D01*
X29833495Y12146401D01*
X29666401Y12313495D01*
X29472830Y12449035D01*
X29258663Y12548903D01*
X29197502Y12565291D01*
X29030407Y12610064D01*
X28795000Y12630660D01*
X28559592Y12610064D01*
X28331336Y12548903D01*
X28117170Y12449035D01*
X27923598Y12313495D01*
X27756505Y12146402D01*
X27626575Y11960841D01*
X27582257Y11921975D01*
X27525000Y11907964D01*
X27467743Y11921975D01*
X27423425Y11960841D01*
X27368531Y12039238D01*
X27293495Y12146401D01*
X27126401Y12313495D01*
X26932830Y12449035D01*
X26718663Y12548903D01*
X26657502Y12565291D01*
X26490407Y12610064D01*
X26255000Y12630660D01*
X26019592Y12610064D01*
X25791336Y12548903D01*
X25577170Y12449035D01*
X25383598Y12313495D01*
X25216505Y12146402D01*
X25086575Y11960841D01*
X25042257Y11921975D01*
X24985000Y11907964D01*
X24927743Y11921975D01*
X24883425Y11960841D01*
X24828531Y12039238D01*
X24753495Y12146401D01*
X24586401Y12313495D01*
X24392830Y12449035D01*
X24178663Y12548903D01*
X24117502Y12565291D01*
X23950407Y12610064D01*
X23715000Y12630660D01*
X23479592Y12610064D01*
X23251336Y12548903D01*
X23037170Y12449035D01*
X22843598Y12313495D01*
X22676505Y12146402D01*
X22546575Y11960841D01*
X22502257Y11921975D01*
X22445000Y11907964D01*
X22387743Y11921975D01*
X22343425Y11960841D01*
X22288531Y12039238D01*
X22213495Y12146401D01*
X22046401Y12313495D01*
X21928376Y12396137D01*
X21889511Y12440454D01*
X21875500Y12497711D01*
X21875500Y17885056D01*
X21867080Y17919214D01*
X21864380Y17933947D01*
X21860140Y17968872D01*
X21847665Y18001767D01*
X21843210Y18016063D01*
X21834790Y18050224D01*
X21834790Y18050225D01*
X21818433Y18081390D01*
X21812297Y18095025D01*
X21799818Y18127930D01*
X21779829Y18156888D01*
X21772082Y18169703D01*
X21755734Y18200852D01*
X21732394Y18227198D01*
X21723178Y18238962D01*
X21703183Y18267929D01*
X21703181Y18267932D01*
X21676847Y18291261D01*
X21666263Y18301844D01*
X21642929Y18328183D01*
X21642925Y18328186D01*
X21613965Y18348177D01*
X21602180Y18357410D01*
X21575851Y18380735D01*
X21544705Y18397082D01*
X21531891Y18404828D01*
X21502929Y18424819D01*
X21470026Y18437298D01*
X21456377Y18443441D01*
X21425227Y18459789D01*
X21425226Y18459790D01*
X21425225Y18459790D01*
X21391048Y18468215D01*
X21376776Y18472662D01*
X21343872Y18485140D01*
X21343867Y18485142D01*
X21308942Y18489383D01*
X21294220Y18492081D01*
X21260059Y18500500D01*
X21260056Y18500500D01*
X21217372Y18500500D01*
X19558156Y18500500D01*
X19519838Y18506569D01*
X19485270Y18524182D01*
X19402727Y18584153D01*
X19229802Y18661145D01*
X19044648Y18700500D01*
X19044646Y18700500D01*
X18855354Y18700500D01*
X18855352Y18700500D01*
X18670197Y18661145D01*
X18497269Y18584152D01*
X18344129Y18472890D01*
X18217466Y18332217D01*
X18122820Y18168285D01*
X18064326Y17988258D01*
X18044540Y17800001D01*
X18064326Y17611743D01*
X18122820Y17431716D01*
X18217466Y17267784D01*
X18344129Y17127111D01*
X18497269Y17015849D01*
X18670197Y16938856D01*
X18855352Y16899500D01*
X18855354Y16899500D01*
X19044646Y16899500D01*
X19044648Y16899500D01*
X19168084Y16925738D01*
X19229803Y16938856D01*
X19402730Y17015849D01*
X19485271Y17075819D01*
X19519838Y17093431D01*
X19558156Y17099500D01*
X20350500Y17099500D01*
X20412500Y17082887D01*
X20457887Y17037500D01*
X20474500Y16975500D01*
X20474500Y15553107D01*
X20460389Y15495658D01*
X20421268Y15451284D01*
X20366041Y15430085D01*
X20307277Y15436884D01*
X20258350Y15470135D01*
X20255869Y15472890D01*
X20102730Y15584152D01*
X19929802Y15661145D01*
X19744648Y15700500D01*
X19744646Y15700500D01*
X19555354Y15700500D01*
X19555352Y15700500D01*
X19370197Y15661145D01*
X19197269Y15584152D01*
X19044129Y15472890D01*
X18917466Y15332217D01*
X18822820Y15168285D01*
X18764325Y14988253D01*
X18762658Y14972394D01*
X18751258Y14931974D01*
X18727019Y14897678D01*
X16466994Y12637653D01*
X16411408Y12605560D01*
X16347222Y12605559D01*
X16330410Y12610064D01*
X16094999Y12630660D01*
X15859592Y12610064D01*
X15631336Y12548903D01*
X15417170Y12449035D01*
X15223598Y12313495D01*
X15056505Y12146402D01*
X14920965Y11952830D01*
X14821097Y11738664D01*
X14759936Y11510408D01*
X14739340Y11275000D01*
X14759936Y11039593D01*
X14804709Y10872498D01*
X14821097Y10811337D01*
X14920965Y10597170D01*
X15056505Y10403599D01*
X15223599Y10236505D01*
X15409597Y10106268D01*
X15448460Y10061952D01*
X15462471Y10004695D01*
X15448461Y9947439D01*
X15409595Y9903120D01*
X15223919Y9773108D01*
X15056890Y9606079D01*
X14921400Y9412579D01*
X14821569Y9198493D01*
X14764364Y8985001D01*
X14764364Y8985000D01*
X21301000Y8985000D01*
X21363000Y8968387D01*
X21408387Y8923000D01*
X21425000Y8861000D01*
X21425000Y7404365D01*
X21638492Y7461570D01*
X21852576Y7561400D01*
X22046081Y7696894D01*
X22213109Y7863922D01*
X22343119Y8049595D01*
X22387437Y8088461D01*
X22444694Y8102472D01*
X22501951Y8088461D01*
X22546267Y8049598D01*
X22676505Y7863599D01*
X22676508Y7863596D01*
X22678181Y7861923D01*
X22705061Y7821695D01*
X22714500Y7774242D01*
X22714500Y6524500D01*
X22697887Y6462500D01*
X22652500Y6417113D01*
X22590500Y6400500D01*
X9526741Y6400500D01*
X8514262Y6400500D01*
X8511121Y6400540D01*
X8509839Y6400573D01*
X8423637Y6402758D01*
X8365580Y6392352D01*
X8356251Y6391043D01*
X8297562Y6385074D01*
X8268527Y6375965D01*
X8253290Y6372226D01*
X8223350Y6366859D01*
X8168567Y6344978D01*
X8159698Y6341821D01*
X8103410Y6324159D01*
X8076809Y6309395D01*
X8062639Y6302665D01*
X8034385Y6291378D01*
X7985121Y6258913D01*
X7977070Y6254036D01*
X7925498Y6225410D01*
X7902414Y6205593D01*
X7889887Y6196147D01*
X7864481Y6179402D01*
X7822771Y6137693D01*
X7815863Y6131292D01*
X7771104Y6092866D01*
X7759794Y6078256D01*
X7747176Y6064290D01*
X7726946Y6045060D01*
X7693245Y5996640D01*
X7687573Y5989118D01*
X7650301Y5943407D01*
X7636210Y5916434D01*
X7628082Y5903017D01*
X7610705Y5878050D01*
X7587439Y5823835D01*
X7583399Y5815329D01*
X7556090Y5763048D01*
X7547720Y5733799D01*
X7542459Y5719022D01*
X7530460Y5691058D01*
X7518587Y5633287D01*
X7516342Y5624140D01*
X7500113Y5567420D01*
X7497802Y5537075D01*
X7495622Y5521534D01*
X7489500Y5491741D01*
X7489500Y5432758D01*
X7489142Y5423344D01*
X7484663Y5364523D01*
X7488506Y5334349D01*
X7489500Y5318683D01*
X7489500Y3414142D01*
X7479488Y3365330D01*
X7451071Y3324400D01*
X7408835Y3297961D01*
X7397671Y3293797D01*
X7397670Y3293797D01*
X7397669Y3293796D01*
X7370465Y3273431D01*
X7282454Y3207546D01*
X7196204Y3092332D01*
X7145909Y2957484D01*
X7139500Y2897870D01*
X7139500Y1102131D01*
X500Y1102131D01*
X500Y6852236D01*
X1145787Y6852236D01*
X1175413Y6582984D01*
X1195774Y6505102D01*
X1243928Y6320912D01*
X1321788Y6137693D01*
X1349871Y6071608D01*
X1490982Y5840389D01*
X1664253Y5632182D01*
X1664255Y5632180D01*
X1865998Y5451418D01*
X2091910Y5301956D01*
X2099799Y5298258D01*
X2337177Y5186979D01*
X2596562Y5108942D01*
X2596569Y5108940D01*
X2864561Y5069500D01*
X3067631Y5069500D01*
X3067634Y5069500D01*
X3270156Y5084323D01*
X3270156Y5084324D01*
X3534553Y5143220D01*
X3787558Y5239986D01*
X4023777Y5372559D01*
X4238177Y5538112D01*
X4426186Y5733119D01*
X4583799Y5953421D01*
X4707656Y6194325D01*
X4795118Y6450695D01*
X4844319Y6717067D01*
X4854212Y6987765D01*
X4824586Y7257018D01*
X4756072Y7519088D01*
X4650130Y7768390D01*
X4534489Y7957875D01*
X4509017Y7999612D01*
X4335746Y8207819D01*
X4264855Y8271337D01*
X4134002Y8388582D01*
X3988266Y8485000D01*
X14764364Y8485000D01*
X14821569Y8271508D01*
X14921399Y8057424D01*
X15056893Y7863919D01*
X15223918Y7696894D01*
X15417423Y7561400D01*
X15631507Y7461570D01*
X15844999Y7404365D01*
X15845000Y7404364D01*
X15845000Y8485000D01*
X16345000Y8485000D01*
X16345000Y7404365D01*
X16558492Y7461570D01*
X16772576Y7561400D01*
X16966081Y7696894D01*
X17133106Y7863919D01*
X17263425Y8050032D01*
X17307743Y8088897D01*
X17365000Y8102908D01*
X17422257Y8088897D01*
X17466575Y8050032D01*
X17596893Y7863919D01*
X17763918Y7696894D01*
X17957423Y7561400D01*
X18171507Y7461570D01*
X18384999Y7404365D01*
X18385000Y7404364D01*
X18385000Y8485000D01*
X18885000Y8485000D01*
X18885000Y7404365D01*
X19098492Y7461570D01*
X19312576Y7561400D01*
X19506081Y7696894D01*
X19673106Y7863919D01*
X19803425Y8050032D01*
X19847743Y8088897D01*
X19905000Y8102908D01*
X19962257Y8088897D01*
X20006575Y8050032D01*
X20136893Y7863919D01*
X20303918Y7696894D01*
X20497423Y7561400D01*
X20711507Y7461570D01*
X20924999Y7404365D01*
X20925000Y7404364D01*
X20925000Y8485000D01*
X18885000Y8485000D01*
X18385000Y8485000D01*
X16345000Y8485000D01*
X15845000Y8485000D01*
X14764364Y8485000D01*
X3988266Y8485000D01*
X3908090Y8538044D01*
X3908086Y8538046D01*
X3662822Y8653022D01*
X3403437Y8731059D01*
X3403431Y8731060D01*
X3135439Y8770500D01*
X2932369Y8770500D01*
X2932366Y8770500D01*
X2729843Y8755678D01*
X2465449Y8696781D01*
X2212441Y8600014D01*
X1976223Y8467441D01*
X1761825Y8301891D01*
X1573813Y8106880D01*
X1416201Y7886580D01*
X1292342Y7645671D01*
X1204881Y7389305D01*
X1155680Y7122934D01*
X1145787Y6852236D01*
X500Y6852236D01*
X500Y14645001D01*
X9244340Y14645001D01*
X9264936Y14409593D01*
X9302934Y14267784D01*
X9326097Y14181337D01*
X9425965Y13967170D01*
X9561505Y13773599D01*
X9728599Y13606505D01*
X9922170Y13470965D01*
X10136337Y13371097D01*
X10364592Y13309937D01*
X10600000Y13289341D01*
X10835408Y13309937D01*
X11063663Y13371097D01*
X11277830Y13470965D01*
X11471401Y13606505D01*
X11638495Y13773599D01*
X11774035Y13967170D01*
X11873903Y14181337D01*
X11935063Y14409592D01*
X11955659Y14645000D01*
X11935063Y14880408D01*
X11873903Y15108663D01*
X11774035Y15322829D01*
X11638495Y15516401D01*
X11471401Y15683495D01*
X11285402Y15813733D01*
X11246539Y15858049D01*
X11232528Y15915306D01*
X11246539Y15972563D01*
X11285405Y16016881D01*
X11471078Y16146891D01*
X11638106Y16313919D01*
X11773600Y16507424D01*
X11873430Y16721508D01*
X11930636Y16935000D01*
X9269364Y16935000D01*
X9326569Y16721508D01*
X9426399Y16507424D01*
X9561893Y16313919D01*
X9728918Y16146894D01*
X9914595Y16016881D01*
X9953460Y15972563D01*
X9967471Y15915306D01*
X9953460Y15858049D01*
X9914595Y15813731D01*
X9728595Y15683492D01*
X9561505Y15516402D01*
X9425965Y15322830D01*
X9326097Y15108664D01*
X9264936Y14880408D01*
X9244340Y14645001D01*
X500Y14645001D01*
X500Y18827131D01*
X9249500Y18827131D01*
X9255909Y18767517D01*
X9306204Y18632669D01*
X9392454Y18517454D01*
X9507669Y18431204D01*
X9639598Y18381998D01*
X9689978Y18347019D01*
X9717431Y18292175D01*
X9715242Y18230882D01*
X9683947Y18178135D01*
X9561888Y18056076D01*
X9426400Y17862579D01*
X9326569Y17648493D01*
X9269364Y17435001D01*
X9269364Y17435000D01*
X11930636Y17435000D01*
X11930635Y17435001D01*
X11873430Y17648493D01*
X11773599Y17862579D01*
X11638109Y18056079D01*
X11516053Y18178135D01*
X11484757Y18230881D01*
X11482568Y18292174D01*
X11510021Y18347019D01*
X11560398Y18381997D01*
X11692331Y18431204D01*
X11807546Y18517454D01*
X11893796Y18632669D01*
X11944091Y18767517D01*
X11950500Y18827127D01*
X11950499Y20622872D01*
X11944091Y20682483D01*
X11893796Y20817331D01*
X11807546Y20932546D01*
X11692331Y21018796D01*
X11557483Y21069091D01*
X11497873Y21075500D01*
X11497869Y21075500D01*
X9702130Y21075500D01*
X9642515Y21069091D01*
X9507669Y21018796D01*
X9392454Y20932546D01*
X9306204Y20817332D01*
X9255909Y20682484D01*
X9249500Y20622870D01*
X9249500Y18827131D01*
X500Y18827131D01*
X500Y23750000D01*
X6844540Y23750000D01*
X6864326Y23561743D01*
X6922820Y23381716D01*
X7017466Y23217784D01*
X7144129Y23077111D01*
X7297269Y22965849D01*
X7470197Y22888856D01*
X7655352Y22849500D01*
X7655354Y22849500D01*
X7844646Y22849500D01*
X7844648Y22849500D01*
X7968083Y22875738D01*
X8029803Y22888856D01*
X8202730Y22965849D01*
X8285271Y23025819D01*
X8319838Y23043431D01*
X8358156Y23049500D01*
X13262292Y23049500D01*
X13318587Y23035985D01*
X13362610Y22998386D01*
X13384765Y22944898D01*
X13380223Y22887183D01*
X13364326Y22838260D01*
X13344540Y22650000D01*
X13364326Y22461743D01*
X13422820Y22281716D01*
X13517466Y22117784D01*
X13644129Y21977111D01*
X13797269Y21865849D01*
X13970197Y21788856D01*
X14155352Y21749500D01*
X14155354Y21749500D01*
X14344646Y21749500D01*
X14344648Y21749500D01*
X14468083Y21775738D01*
X14529803Y21788856D01*
X14702730Y21865849D01*
X14750863Y21900821D01*
X14785428Y21918431D01*
X14823746Y21924500D01*
X20866844Y21924500D01*
X20905162Y21918431D01*
X20939728Y21900819D01*
X21022270Y21840849D01*
X21022271Y21840849D01*
X21022272Y21840848D01*
X21195197Y21763856D01*
X21380352Y21724500D01*
X21380354Y21724500D01*
X21569646Y21724500D01*
X21569648Y21724500D01*
X21693083Y21750738D01*
X21754803Y21763856D01*
X21927730Y21840849D01*
X22080871Y21952112D01*
X22207533Y22092784D01*
X22302179Y22256716D01*
X22360674Y22436744D01*
X22380460Y22625000D01*
X22371259Y22712541D01*
X22383130Y22779858D01*
X22428870Y22830658D01*
X22494580Y22849500D01*
X22569648Y22849500D01*
X22693083Y22875738D01*
X22754803Y22888856D01*
X22927730Y22965849D01*
X23010271Y23025818D01*
X23080870Y23077111D01*
X23207533Y23217784D01*
X23302179Y23381716D01*
X23302179Y23381717D01*
X23360674Y23561744D01*
X23380460Y23750000D01*
X23360674Y23938256D01*
X23302179Y24118284D01*
X23302179Y24118285D01*
X23207533Y24282217D01*
X23080870Y24422890D01*
X22927730Y24534152D01*
X22754802Y24611145D01*
X22569648Y24650500D01*
X22569646Y24650500D01*
X22380354Y24650500D01*
X22380352Y24650500D01*
X22195197Y24611145D01*
X22022272Y24534153D01*
X21939730Y24474182D01*
X21905162Y24456569D01*
X21866844Y24450500D01*
X8358156Y24450500D01*
X8319838Y24456569D01*
X8285270Y24474182D01*
X8202727Y24534153D01*
X8029802Y24611145D01*
X7844648Y24650500D01*
X7844646Y24650500D01*
X7655354Y24650500D01*
X7655352Y24650500D01*
X7470197Y24611145D01*
X7297269Y24534152D01*
X7144129Y24422890D01*
X7017466Y24282217D01*
X6922820Y24118285D01*
X6864326Y23938258D01*
X6844540Y23750000D01*
X500Y23750000D01*
X500Y26450000D01*
X2694540Y26450000D01*
X2714326Y26261743D01*
X2772820Y26081716D01*
X2867466Y25917784D01*
X2994129Y25777111D01*
X3147269Y25665849D01*
X3320197Y25588856D01*
X3505352Y25549500D01*
X3505354Y25549500D01*
X3694646Y25549500D01*
X3694648Y25549500D01*
X3818084Y25575738D01*
X3879803Y25588856D01*
X4052730Y25665849D01*
X4128389Y25720819D01*
X4162956Y25738431D01*
X4201274Y25744500D01*
X9377289Y25744500D01*
X9434546Y25730489D01*
X9478863Y25691624D01*
X9561505Y25573599D01*
X9728599Y25406505D01*
X9922170Y25270965D01*
X10136337Y25171097D01*
X10364592Y25109937D01*
X10600000Y25089341D01*
X10835408Y25109937D01*
X11063663Y25171097D01*
X11277830Y25270965D01*
X11471401Y25406505D01*
X11638495Y25573599D01*
X11774035Y25767170D01*
X11873903Y25981337D01*
X11935063Y26209592D01*
X11955659Y26445000D01*
X11935063Y26680408D01*
X11873903Y26908663D01*
X11774035Y27122829D01*
X11638495Y27316401D01*
X11471401Y27483495D01*
X11285402Y27613733D01*
X11246539Y27658049D01*
X11232528Y27715306D01*
X11246539Y27772563D01*
X11285405Y27816881D01*
X11471078Y27946891D01*
X11638106Y28113919D01*
X11773600Y28307424D01*
X11873430Y28521508D01*
X11930636Y28735000D01*
X9269364Y28735000D01*
X9326569Y28521508D01*
X9426399Y28307424D01*
X9561893Y28113919D01*
X9728918Y27946894D01*
X9914595Y27816881D01*
X9953460Y27772563D01*
X9967471Y27715306D01*
X9953460Y27658049D01*
X9914595Y27613731D01*
X9728595Y27483492D01*
X9561505Y27316402D01*
X9478864Y27198377D01*
X9434546Y27159511D01*
X9377289Y27145500D01*
X4215038Y27145500D01*
X4176720Y27151569D01*
X4142152Y27169182D01*
X4101968Y27198377D01*
X4052730Y27234151D01*
X4052729Y27234152D01*
X4052727Y27234153D01*
X3879802Y27311145D01*
X3694648Y27350500D01*
X3694646Y27350500D01*
X3505354Y27350500D01*
X3505352Y27350500D01*
X3320197Y27311145D01*
X3147269Y27234152D01*
X2994129Y27122890D01*
X2867466Y26982217D01*
X2772820Y26818285D01*
X2714326Y26638258D01*
X2694540Y26450000D01*
X500Y26450000D01*
X500Y31525000D01*
X869540Y31525000D01*
X889326Y31336743D01*
X947820Y31156716D01*
X1042466Y30992784D01*
X1169129Y30852111D01*
X1322269Y30740849D01*
X1495197Y30663856D01*
X1680352Y30624500D01*
X1680354Y30624500D01*
X1869646Y30624500D01*
X1869648Y30624500D01*
X1993084Y30650738D01*
X2054803Y30663856D01*
X2227730Y30740849D01*
X2310271Y30800819D01*
X2344838Y30818431D01*
X2383156Y30824500D01*
X9125501Y30824500D01*
X9187501Y30807887D01*
X9232888Y30762500D01*
X9249501Y30700500D01*
X9249501Y30627128D01*
X9255909Y30567517D01*
X9306204Y30432669D01*
X9392454Y30317454D01*
X9507669Y30231204D01*
X9639598Y30181998D01*
X9689978Y30147019D01*
X9717431Y30092175D01*
X9715242Y30030882D01*
X9683947Y29978135D01*
X9561888Y29856076D01*
X9426400Y29662579D01*
X9326569Y29448493D01*
X9269364Y29235001D01*
X9269364Y29235000D01*
X11930636Y29235000D01*
X11930635Y29235001D01*
X11873430Y29448493D01*
X11773599Y29662579D01*
X11638109Y29856079D01*
X11516053Y29978135D01*
X11484757Y30030881D01*
X11482568Y30092174D01*
X11510021Y30147019D01*
X11560398Y30181997D01*
X11692331Y30231204D01*
X11807546Y30317454D01*
X11893796Y30432669D01*
X11944091Y30567517D01*
X11950500Y30627127D01*
X11950499Y31900001D01*
X14469540Y31900001D01*
X14489326Y31711743D01*
X14547820Y31531716D01*
X14642466Y31367784D01*
X14769129Y31227111D01*
X14922269Y31115849D01*
X15095197Y31038856D01*
X15209481Y31014564D01*
X15256586Y30993593D01*
X15291088Y30955275D01*
X15307022Y30906237D01*
X15314326Y30836743D01*
X15372820Y30656716D01*
X15467466Y30492784D01*
X15594129Y30352111D01*
X15747269Y30240849D01*
X15920197Y30163856D01*
X16105352Y30124500D01*
X16105354Y30124500D01*
X16294646Y30124500D01*
X16294648Y30124500D01*
X16441333Y30155679D01*
X16479803Y30163856D01*
X16652730Y30240849D01*
X16735271Y30300819D01*
X16769838Y30318431D01*
X16808156Y30324500D01*
X17187672Y30324500D01*
X17249674Y30307886D01*
X17295061Y30262497D01*
X17311672Y30200495D01*
X17299836Y30156333D01*
X17301848Y30155679D01*
X17239326Y29963258D01*
X17219540Y29775000D01*
X17239326Y29586743D01*
X17297820Y29406716D01*
X17392466Y29242784D01*
X17519129Y29102111D01*
X17672269Y28990849D01*
X17845197Y28913856D01*
X18030352Y28874500D01*
X18030354Y28874500D01*
X18219646Y28874500D01*
X18219648Y28874500D01*
X18343083Y28900738D01*
X18404803Y28913856D01*
X18577730Y28990849D01*
X18577729Y28990849D01*
X18694681Y29075818D01*
X18729248Y29093431D01*
X18767566Y29099500D01*
X24391844Y29099500D01*
X24430162Y29093431D01*
X24464728Y29075819D01*
X24547270Y29015849D01*
X24547271Y29015849D01*
X24547272Y29015848D01*
X24720197Y28938856D01*
X24905352Y28899500D01*
X24905354Y28899500D01*
X25094646Y28899500D01*
X25094648Y28899500D01*
X25218084Y28925738D01*
X25279803Y28938856D01*
X25452730Y29015849D01*
X25571460Y29102111D01*
X25605870Y29127111D01*
X25732533Y29267784D01*
X25827179Y29431716D01*
X25832630Y29448493D01*
X25885674Y29611744D01*
X25905460Y29800000D01*
X25885674Y29988256D01*
X25851909Y30092174D01*
X25829162Y30162182D01*
X25824620Y30219898D01*
X25846775Y30273385D01*
X25890798Y30310985D01*
X25947093Y30324500D01*
X26916844Y30324500D01*
X26955162Y30318431D01*
X26989728Y30300819D01*
X27072270Y30240849D01*
X27072271Y30240849D01*
X27072272Y30240848D01*
X27245197Y30163856D01*
X27430352Y30124500D01*
X27430354Y30124500D01*
X27619646Y30124500D01*
X27619648Y30124500D01*
X27766333Y30155679D01*
X27804803Y30163856D01*
X27977730Y30240849D01*
X28069999Y30307886D01*
X28130870Y30352111D01*
X28257533Y30492784D01*
X28352179Y30656716D01*
X28379515Y30740848D01*
X28410674Y30836744D01*
X28430460Y31025000D01*
X28410674Y31213256D01*
X28380332Y31306637D01*
X28352179Y31393285D01*
X28257533Y31557217D01*
X28130870Y31697890D01*
X27977730Y31809152D01*
X27804802Y31886145D01*
X27619648Y31925500D01*
X27619646Y31925500D01*
X27430354Y31925500D01*
X27430352Y31925500D01*
X27245197Y31886145D01*
X27072272Y31809153D01*
X26989730Y31749182D01*
X26955162Y31731569D01*
X26916844Y31725500D01*
X23474835Y31725500D01*
X23409125Y31744342D01*
X23363384Y31795142D01*
X23351514Y31862460D01*
X23355460Y31900000D01*
X23335674Y32088256D01*
X23300052Y32197890D01*
X23277179Y32268285D01*
X23182533Y32432217D01*
X23055870Y32572890D01*
X22902730Y32684152D01*
X22729802Y32761145D01*
X22544648Y32800500D01*
X22544646Y32800500D01*
X22355354Y32800500D01*
X22355352Y32800500D01*
X22170197Y32761145D01*
X21997272Y32684153D01*
X21914730Y32624182D01*
X21880162Y32606569D01*
X21841844Y32600500D01*
X15983156Y32600500D01*
X15944838Y32606569D01*
X15910270Y32624182D01*
X15827727Y32684153D01*
X15654802Y32761145D01*
X15469648Y32800500D01*
X15469646Y32800500D01*
X15280354Y32800500D01*
X15280352Y32800500D01*
X15095197Y32761145D01*
X14922269Y32684152D01*
X14769129Y32572890D01*
X14642466Y32432217D01*
X14547820Y32268285D01*
X14489326Y32088258D01*
X14469540Y31900001D01*
X11950499Y31900001D01*
X11950499Y32422872D01*
X11944091Y32482483D01*
X11893796Y32617331D01*
X11807546Y32732546D01*
X11692331Y32818796D01*
X11557483Y32869091D01*
X11497873Y32875500D01*
X11497869Y32875500D01*
X9702130Y32875500D01*
X9642515Y32869091D01*
X9507669Y32818796D01*
X9392454Y32732546D01*
X9306204Y32617332D01*
X9255909Y32482485D01*
X9255909Y32482483D01*
X9249783Y32425500D01*
X9249500Y32422869D01*
X9249500Y32349500D01*
X9232887Y32287500D01*
X9187500Y32242113D01*
X9125500Y32225500D01*
X2383156Y32225500D01*
X2344838Y32231569D01*
X2310270Y32249182D01*
X2283978Y32268284D01*
X2227730Y32309151D01*
X2227729Y32309152D01*
X2227727Y32309153D01*
X2054802Y32386145D01*
X1869648Y32425500D01*
X1869646Y32425500D01*
X1680354Y32425500D01*
X1680352Y32425500D01*
X1495197Y32386145D01*
X1322269Y32309152D01*
X1169129Y32197890D01*
X1042466Y32057217D01*
X947820Y31893285D01*
X889326Y31713258D01*
X869540Y31525000D01*
X500Y31525000D01*
X500Y35620000D01*
X14754340Y35620000D01*
X14774936Y35384593D01*
X14819709Y35217499D01*
X14836097Y35156337D01*
X14935965Y34942170D01*
X15071505Y34748599D01*
X15238599Y34581505D01*
X15432170Y34445965D01*
X15646337Y34346097D01*
X15874592Y34284937D01*
X16110000Y34264341D01*
X16345408Y34284937D01*
X16573663Y34346097D01*
X16787830Y34445965D01*
X16981401Y34581505D01*
X17148495Y34748599D01*
X17284035Y34942170D01*
X17383903Y35156337D01*
X17445063Y35384592D01*
X17465659Y35620000D01*
X17445536Y35850000D01*
X21104340Y35850000D01*
X21124936Y35614593D01*
X21169709Y35447499D01*
X21186097Y35386337D01*
X21285965Y35172170D01*
X21421505Y34978599D01*
X21588599Y34811505D01*
X21782170Y34675965D01*
X21996337Y34576097D01*
X22224592Y34514937D01*
X22460000Y34494341D01*
X22695408Y34514937D01*
X22923663Y34576097D01*
X23137830Y34675965D01*
X23331401Y34811505D01*
X23453717Y34933822D01*
X23506460Y34965115D01*
X23567752Y34967304D01*
X23622597Y34939851D01*
X23657577Y34889472D01*
X23706647Y34757912D01*
X23792811Y34642812D01*
X23907910Y34556648D01*
X24042624Y34506403D01*
X24102176Y34500000D01*
X24750000Y34500000D01*
X25250000Y34500000D01*
X25897824Y34500000D01*
X25957375Y34506403D01*
X26092089Y34556648D01*
X26207188Y34642812D01*
X26293352Y34757911D01*
X26342422Y34889472D01*
X26377401Y34939851D01*
X26432246Y34967304D01*
X26493539Y34965115D01*
X26546285Y34933819D01*
X26668599Y34811505D01*
X26862170Y34675965D01*
X27076337Y34576097D01*
X27304592Y34514937D01*
X27540000Y34494341D01*
X27775408Y34514937D01*
X28003663Y34576097D01*
X28217830Y34675965D01*
X28411401Y34811505D01*
X28578495Y34978599D01*
X28714035Y35172170D01*
X28813903Y35386337D01*
X28875063Y35614592D01*
X28875536Y35620001D01*
X32534340Y35620001D01*
X32554936Y35384593D01*
X32599709Y35217499D01*
X32616097Y35156337D01*
X32715965Y34942170D01*
X32851505Y34748599D01*
X33018599Y34581505D01*
X33212170Y34445965D01*
X33426337Y34346097D01*
X33654592Y34284937D01*
X33890000Y34264341D01*
X34125408Y34284937D01*
X34353663Y34346097D01*
X34567830Y34445965D01*
X34761401Y34581505D01*
X34928495Y34748599D01*
X35064035Y34942170D01*
X35163903Y35156337D01*
X35225063Y35384592D01*
X35245659Y35620000D01*
X35225063Y35855408D01*
X35163903Y36083663D01*
X35064035Y36297829D01*
X34928495Y36491401D01*
X34761401Y36658495D01*
X34575839Y36788427D01*
X34536975Y36832743D01*
X34522964Y36890000D01*
X34536975Y36947257D01*
X34575839Y36991574D01*
X34761401Y37121505D01*
X34928495Y37288599D01*
X35064035Y37482170D01*
X35163903Y37696337D01*
X35225063Y37924592D01*
X35245659Y38160000D01*
X35225063Y38395408D01*
X35163903Y38623663D01*
X35064035Y38837829D01*
X34928495Y39031401D01*
X34806181Y39153715D01*
X34774885Y39206461D01*
X34772696Y39267754D01*
X34800149Y39322599D01*
X34850528Y39357578D01*
X34982089Y39406648D01*
X35097188Y39492812D01*
X35183352Y39607911D01*
X35233597Y39742625D01*
X35240000Y39802176D01*
X35240000Y40450000D01*
X32540000Y40450000D01*
X32540000Y39802176D01*
X32546402Y39742625D01*
X32596647Y39607911D01*
X32682811Y39492812D01*
X32797911Y39406648D01*
X32929471Y39357578D01*
X32979850Y39322599D01*
X33007303Y39267754D01*
X33005114Y39206461D01*
X32973819Y39153715D01*
X32851503Y39031399D01*
X32715965Y38837830D01*
X32616097Y38623664D01*
X32554936Y38395408D01*
X32534340Y38160000D01*
X32554936Y37924593D01*
X32599709Y37757498D01*
X32616097Y37696337D01*
X32715965Y37482170D01*
X32851505Y37288599D01*
X33018599Y37121505D01*
X33204160Y36991574D01*
X33243024Y36947257D01*
X33257035Y36890000D01*
X33243024Y36832743D01*
X33204158Y36788425D01*
X33108439Y36721401D01*
X33018595Y36658492D01*
X32851505Y36491402D01*
X32715965Y36297830D01*
X32616097Y36083664D01*
X32554936Y35855408D01*
X32534340Y35620001D01*
X28875536Y35620001D01*
X28895659Y35850000D01*
X28875063Y36085408D01*
X28813903Y36313663D01*
X28714035Y36527829D01*
X28578495Y36721401D01*
X28411401Y36888495D01*
X28217830Y37024035D01*
X28003663Y37123903D01*
X27931074Y37143353D01*
X27775407Y37185064D01*
X27540000Y37205660D01*
X27304592Y37185064D01*
X27076336Y37123903D01*
X26862170Y37024035D01*
X26668601Y36888497D01*
X26546285Y36766181D01*
X26493539Y36734886D01*
X26432246Y36732697D01*
X26377401Y36760150D01*
X26342422Y36810529D01*
X26293352Y36942089D01*
X26207188Y37057189D01*
X26092089Y37143353D01*
X25957375Y37193598D01*
X25897824Y37200000D01*
X25250000Y37200000D01*
X25250000Y34500000D01*
X24750000Y34500000D01*
X24750000Y37200000D01*
X24102176Y37200000D01*
X24042624Y37193598D01*
X23907910Y37143353D01*
X23792811Y37057189D01*
X23706646Y36942087D01*
X23657576Y36810528D01*
X23622597Y36760150D01*
X23567753Y36732697D01*
X23506460Y36734886D01*
X23453714Y36766182D01*
X23331404Y36888492D01*
X23331401Y36888495D01*
X23137830Y37024035D01*
X22923663Y37123903D01*
X22851074Y37143353D01*
X22695407Y37185064D01*
X22460000Y37205660D01*
X22224592Y37185064D01*
X21996336Y37123903D01*
X21782170Y37024035D01*
X21588598Y36888495D01*
X21421505Y36721402D01*
X21285965Y36527830D01*
X21186097Y36313664D01*
X21124936Y36085408D01*
X21104340Y35850000D01*
X17445536Y35850000D01*
X17445063Y35855408D01*
X17383903Y36083663D01*
X17284035Y36297829D01*
X17148495Y36491401D01*
X16981401Y36658495D01*
X16795839Y36788427D01*
X16756975Y36832743D01*
X16742964Y36890000D01*
X16756975Y36947257D01*
X16795839Y36991574D01*
X16981401Y37121505D01*
X17148495Y37288599D01*
X17284035Y37482170D01*
X17383903Y37696337D01*
X17445063Y37924592D01*
X17465659Y38160000D01*
X17445063Y38395408D01*
X17383903Y38623663D01*
X17284035Y38837829D01*
X17148495Y39031401D01*
X17026181Y39153715D01*
X16994885Y39206461D01*
X16992696Y39267754D01*
X17020149Y39322599D01*
X17070528Y39357578D01*
X17202089Y39406648D01*
X17317188Y39492812D01*
X17403352Y39607911D01*
X17453597Y39742625D01*
X17460000Y39802176D01*
X17460000Y40450000D01*
X14760000Y40450000D01*
X14760000Y39802176D01*
X14766402Y39742625D01*
X14816647Y39607911D01*
X14902811Y39492812D01*
X15017911Y39406648D01*
X15149471Y39357578D01*
X15199850Y39322599D01*
X15227303Y39267754D01*
X15225114Y39206461D01*
X15193819Y39153715D01*
X15071503Y39031399D01*
X14935965Y38837830D01*
X14836097Y38623664D01*
X14774936Y38395408D01*
X14754340Y38160000D01*
X14774936Y37924593D01*
X14819709Y37757498D01*
X14836097Y37696337D01*
X14935965Y37482170D01*
X15071505Y37288599D01*
X15238599Y37121505D01*
X15424160Y36991574D01*
X15463024Y36947257D01*
X15477035Y36890000D01*
X15463024Y36832743D01*
X15424158Y36788425D01*
X15328439Y36721401D01*
X15238595Y36658492D01*
X15071505Y36491402D01*
X14935965Y36297830D01*
X14836097Y36083664D01*
X14774936Y35855408D01*
X14754340Y35620000D01*
X500Y35620000D01*
X500Y43240001D01*
X14754340Y43240001D01*
X14774936Y43004593D01*
X14819709Y42837499D01*
X14836097Y42776337D01*
X14935965Y42562170D01*
X15071505Y42368599D01*
X15071508Y42368596D01*
X15193818Y42246286D01*
X15225114Y42193540D01*
X15227303Y42132247D01*
X15199850Y42077403D01*
X15149472Y42042424D01*
X15017913Y41993354D01*
X14902811Y41907189D01*
X14816647Y41792090D01*
X14766402Y41657376D01*
X14760000Y41597824D01*
X14760000Y40950000D01*
X17460000Y40950000D01*
X17460000Y41597824D01*
X17453597Y41657376D01*
X17403352Y41792090D01*
X17317188Y41907189D01*
X17202088Y41993353D01*
X17070528Y42042423D01*
X17020149Y42077403D01*
X16992696Y42132248D01*
X16994885Y42193540D01*
X17026178Y42246283D01*
X17148495Y42368599D01*
X17284035Y42562170D01*
X17383903Y42776337D01*
X17445063Y43004592D01*
X17465659Y43240000D01*
X17445063Y43475408D01*
X17383903Y43703663D01*
X17284035Y43917829D01*
X17148495Y44111401D01*
X16981401Y44278495D01*
X16795839Y44408427D01*
X16756975Y44452743D01*
X16742964Y44510000D01*
X16756975Y44567257D01*
X16795839Y44611574D01*
X16981401Y44741505D01*
X17148495Y44908599D01*
X17231136Y45026624D01*
X17275454Y45065489D01*
X17332711Y45079500D01*
X31600552Y45079500D01*
X31638870Y45073431D01*
X31673437Y45055818D01*
X31797269Y44965849D01*
X31970197Y44888856D01*
X32155352Y44849500D01*
X32155354Y44849500D01*
X32344646Y44849500D01*
X32344648Y44849500D01*
X32529800Y44888855D01*
X32529801Y44888856D01*
X32529803Y44888856D01*
X32692209Y44961165D01*
X32747690Y44971782D01*
X32802127Y44956686D01*
X32844215Y44919010D01*
X32851505Y44908599D01*
X33018599Y44741505D01*
X33204160Y44611574D01*
X33243024Y44567257D01*
X33257035Y44510000D01*
X33243024Y44452743D01*
X33204159Y44408425D01*
X33018595Y44278492D01*
X32851505Y44111402D01*
X32715965Y43917830D01*
X32616097Y43703664D01*
X32554936Y43475408D01*
X32534340Y43240000D01*
X32554936Y43004593D01*
X32599709Y42837499D01*
X32616097Y42776337D01*
X32715965Y42562170D01*
X32851505Y42368599D01*
X32851508Y42368596D01*
X32973818Y42246286D01*
X33005114Y42193540D01*
X33007303Y42132247D01*
X32979850Y42077403D01*
X32929472Y42042424D01*
X32797913Y41993354D01*
X32682811Y41907189D01*
X32596647Y41792090D01*
X32546402Y41657376D01*
X32540000Y41597824D01*
X32540000Y40950000D01*
X35240000Y40950000D01*
X35240000Y41597824D01*
X35233597Y41657376D01*
X35183352Y41792090D01*
X35097188Y41907189D01*
X34982088Y41993353D01*
X34850528Y42042423D01*
X34800149Y42077403D01*
X34772696Y42132248D01*
X34774885Y42193540D01*
X34806178Y42246283D01*
X34928495Y42368599D01*
X35064035Y42562170D01*
X35163903Y42776337D01*
X35225063Y43004592D01*
X35245659Y43240000D01*
X35225063Y43475408D01*
X35163903Y43703663D01*
X35064035Y43917829D01*
X34928495Y44111401D01*
X34761401Y44278495D01*
X34575839Y44408427D01*
X34536975Y44452743D01*
X34522964Y44510000D01*
X34536975Y44567257D01*
X34575839Y44611574D01*
X34761401Y44741505D01*
X34928495Y44908599D01*
X35064035Y45102170D01*
X35163903Y45316337D01*
X35225063Y45544592D01*
X35245659Y45780000D01*
X35225063Y46015408D01*
X35163903Y46243663D01*
X35064035Y46457829D01*
X34928495Y46651401D01*
X34761401Y46818495D01*
X34575839Y46948427D01*
X34536975Y46992743D01*
X34522964Y47050000D01*
X34536975Y47107257D01*
X34575839Y47151574D01*
X34761401Y47281505D01*
X34928495Y47448599D01*
X35064035Y47642170D01*
X35163903Y47856337D01*
X35225063Y48084592D01*
X35245659Y48320000D01*
X35225063Y48555408D01*
X35163903Y48783663D01*
X35064035Y48997829D01*
X34928495Y49191401D01*
X34761401Y49358495D01*
X34575839Y49488427D01*
X34536974Y49532745D01*
X34522964Y49590001D01*
X34536975Y49647258D01*
X34575837Y49691572D01*
X34761401Y49821505D01*
X34928495Y49988599D01*
X35064035Y50182170D01*
X35163903Y50396337D01*
X35225063Y50624592D01*
X35245659Y50860000D01*
X35225063Y51095408D01*
X35163903Y51323663D01*
X35064035Y51537829D01*
X34928495Y51731401D01*
X34806181Y51853716D01*
X34774885Y51906461D01*
X34772696Y51967754D01*
X34800149Y52022599D01*
X34850528Y52057578D01*
X34982089Y52106648D01*
X35097188Y52192812D01*
X35183352Y52307911D01*
X35233597Y52442625D01*
X35240000Y52502176D01*
X35240000Y53150000D01*
X32540000Y53150000D01*
X32540000Y52502176D01*
X32546402Y52442625D01*
X32596647Y52307911D01*
X32682811Y52192812D01*
X32797911Y52106648D01*
X32929471Y52057578D01*
X32979850Y52022599D01*
X33007303Y51967754D01*
X33005114Y51906461D01*
X32973819Y51853715D01*
X32851503Y51731399D01*
X32768864Y51613377D01*
X32724546Y51574511D01*
X32667289Y51560500D01*
X27909910Y51560500D01*
X27902423Y51560726D01*
X27842391Y51564358D01*
X27783231Y51553517D01*
X27775846Y51552392D01*
X27773378Y51552093D01*
X27767725Y51551406D01*
X27752771Y51550500D01*
X26858156Y51550500D01*
X26819838Y51556569D01*
X26785270Y51574182D01*
X26784817Y51574511D01*
X26702730Y51634151D01*
X26702729Y51634152D01*
X26702727Y51634153D01*
X26529802Y51711145D01*
X26344648Y51750500D01*
X26344646Y51750500D01*
X26155354Y51750500D01*
X26155352Y51750500D01*
X25970197Y51711145D01*
X25797269Y51634152D01*
X25644129Y51522890D01*
X25517466Y51382217D01*
X25422820Y51218285D01*
X25364326Y51038258D01*
X25344540Y50850001D01*
X25364326Y50661743D01*
X25422820Y50481716D01*
X25517466Y50317784D01*
X25644129Y50177111D01*
X25797269Y50065849D01*
X25970197Y49988856D01*
X26155352Y49949500D01*
X26155354Y49949500D01*
X26344646Y49949500D01*
X26344648Y49949500D01*
X26468084Y49975738D01*
X26529803Y49988856D01*
X26702730Y50065849D01*
X26785271Y50125819D01*
X26819838Y50143431D01*
X26858156Y50149500D01*
X27850079Y50149500D01*
X27857566Y50149274D01*
X27861113Y50149060D01*
X27917606Y50145642D01*
X27976804Y50156491D01*
X27984173Y50157612D01*
X27992292Y50158598D01*
X28007226Y50159500D01*
X32667289Y50159500D01*
X32724546Y50145489D01*
X32768863Y50106624D01*
X32851505Y49988599D01*
X33018599Y49821505D01*
X33204160Y49691574D01*
X33243024Y49647257D01*
X33257035Y49590000D01*
X33243024Y49532743D01*
X33204159Y49488425D01*
X33018595Y49358492D01*
X32851505Y49191402D01*
X32768864Y49073377D01*
X32724546Y49034511D01*
X32667289Y49020500D01*
X27518211Y49020500D01*
X27495860Y49022531D01*
X27458605Y49029358D01*
X27398565Y49025726D01*
X27391078Y49025500D01*
X24333156Y49025500D01*
X24294838Y49031569D01*
X24260270Y49049182D01*
X24226968Y49073377D01*
X24177730Y49109151D01*
X24177729Y49109152D01*
X24177727Y49109153D01*
X24004802Y49186145D01*
X23819648Y49225500D01*
X23819646Y49225500D01*
X23630354Y49225500D01*
X23630352Y49225500D01*
X23445197Y49186145D01*
X23272269Y49109152D01*
X23119129Y48997890D01*
X22992466Y48857217D01*
X22897820Y48693285D01*
X22839326Y48513258D01*
X22819540Y48325000D01*
X22839326Y48136743D01*
X22897820Y47956716D01*
X22992466Y47792784D01*
X23119129Y47652111D01*
X23272269Y47540849D01*
X23445197Y47463856D01*
X23630352Y47424500D01*
X23630354Y47424500D01*
X23819646Y47424500D01*
X23819648Y47424500D01*
X23943084Y47450738D01*
X24004803Y47463856D01*
X24177730Y47540849D01*
X24260271Y47600819D01*
X24294838Y47618431D01*
X24333156Y47624500D01*
X27318787Y47624500D01*
X27341138Y47622469D01*
X27378393Y47615642D01*
X27435462Y47619095D01*
X27438433Y47619274D01*
X27445920Y47619500D01*
X32667289Y47619500D01*
X32724546Y47605489D01*
X32768863Y47566624D01*
X32851505Y47448599D01*
X33018599Y47281505D01*
X33204160Y47151574D01*
X33243024Y47107257D01*
X33257035Y47050000D01*
X33243024Y46992743D01*
X33204159Y46948425D01*
X33018595Y46818492D01*
X32851506Y46651403D01*
X32812188Y46595252D01*
X32770097Y46557576D01*
X32715662Y46542480D01*
X32660179Y46553097D01*
X32529800Y46611146D01*
X32344648Y46650500D01*
X32344646Y46650500D01*
X32155354Y46650500D01*
X32155352Y46650500D01*
X31970197Y46611145D01*
X31797273Y46534154D01*
X31777270Y46519621D01*
X31756017Y46504180D01*
X31721454Y46486569D01*
X31683136Y46480500D01*
X17332711Y46480500D01*
X17275454Y46494511D01*
X17231136Y46533377D01*
X17176683Y46611144D01*
X17148495Y46651401D01*
X16981401Y46818495D01*
X16795839Y46948427D01*
X16756975Y46992743D01*
X16742964Y47050000D01*
X16756975Y47107257D01*
X16795839Y47151574D01*
X16981401Y47281505D01*
X17148495Y47448599D01*
X17284035Y47642170D01*
X17383903Y47856337D01*
X17445063Y48084592D01*
X17465659Y48320000D01*
X17445063Y48555408D01*
X17383903Y48783663D01*
X17284035Y48997829D01*
X17148495Y49191401D01*
X16981401Y49358495D01*
X16795839Y49488427D01*
X16756974Y49532745D01*
X16742964Y49590001D01*
X16756975Y49647258D01*
X16795837Y49691572D01*
X16981401Y49821505D01*
X17148495Y49988599D01*
X17284035Y50182170D01*
X17383903Y50396337D01*
X17445063Y50624592D01*
X17465659Y50860000D01*
X17445063Y51095408D01*
X17383903Y51323663D01*
X17284035Y51537829D01*
X17148495Y51731401D01*
X17026181Y51853716D01*
X16994885Y51906461D01*
X16992696Y51967754D01*
X17020149Y52022599D01*
X17070528Y52057578D01*
X17202089Y52106648D01*
X17317188Y52192812D01*
X17403352Y52307911D01*
X17453597Y52442625D01*
X17460000Y52502176D01*
X17460000Y53150000D01*
X14760000Y53150000D01*
X14760000Y52502176D01*
X14766402Y52442625D01*
X14816647Y52307911D01*
X14902811Y52192812D01*
X15017911Y52106648D01*
X15149471Y52057578D01*
X15199850Y52022599D01*
X15227303Y51967754D01*
X15225114Y51906461D01*
X15193819Y51853715D01*
X15071503Y51731399D01*
X14935965Y51537830D01*
X14836097Y51323664D01*
X14774936Y51095408D01*
X14754340Y50860001D01*
X14774936Y50624593D01*
X14806521Y50506716D01*
X14836097Y50396337D01*
X14935965Y50182170D01*
X15071505Y49988599D01*
X15238599Y49821505D01*
X15424160Y49691574D01*
X15463024Y49647257D01*
X15477035Y49590000D01*
X15463024Y49532743D01*
X15424159Y49488425D01*
X15238595Y49358492D01*
X15071505Y49191402D01*
X14935965Y48997830D01*
X14836097Y48783664D01*
X14774936Y48555408D01*
X14754340Y48320000D01*
X14774936Y48084593D01*
X14809201Y47956716D01*
X14836097Y47856337D01*
X14935965Y47642170D01*
X15071505Y47448599D01*
X15238599Y47281505D01*
X15424160Y47151574D01*
X15463024Y47107257D01*
X15477035Y47050000D01*
X15463024Y46992743D01*
X15424159Y46948425D01*
X15238595Y46818492D01*
X15071505Y46651402D01*
X14935965Y46457830D01*
X14836097Y46243664D01*
X14774936Y46015408D01*
X14754340Y45780000D01*
X14774936Y45544593D01*
X14819709Y45377499D01*
X14836097Y45316337D01*
X14935965Y45102170D01*
X15071505Y44908599D01*
X15238599Y44741505D01*
X15424160Y44611574D01*
X15463024Y44567257D01*
X15477035Y44510000D01*
X15463024Y44452743D01*
X15424159Y44408425D01*
X15238595Y44278492D01*
X15071505Y44111402D01*
X14935965Y43917830D01*
X14836097Y43703664D01*
X14774936Y43475408D01*
X14754340Y43240001D01*
X500Y43240001D01*
X500Y55940000D01*
X14754340Y55940000D01*
X14774936Y55704593D01*
X14814560Y55556716D01*
X14836097Y55476337D01*
X14935965Y55262170D01*
X15071505Y55068599D01*
X15071508Y55068596D01*
X15193818Y54946286D01*
X15225114Y54893540D01*
X15227303Y54832247D01*
X15199850Y54777403D01*
X15149472Y54742424D01*
X15017913Y54693354D01*
X14902811Y54607189D01*
X14816647Y54492090D01*
X14766402Y54357376D01*
X14760000Y54297824D01*
X14760000Y53650000D01*
X17460000Y53650000D01*
X17460000Y54297824D01*
X17453597Y54357376D01*
X17403352Y54492090D01*
X17317188Y54607189D01*
X17202088Y54693353D01*
X17070528Y54742423D01*
X17020149Y54777403D01*
X16992696Y54832248D01*
X16994885Y54893540D01*
X17026178Y54946283D01*
X17148495Y55068599D01*
X17284035Y55262170D01*
X17383903Y55476337D01*
X17445063Y55704592D01*
X17465659Y55940000D01*
X17445063Y56175408D01*
X17383903Y56403663D01*
X17284035Y56617829D01*
X17148495Y56811401D01*
X16981401Y56978495D01*
X16795839Y57108427D01*
X16756975Y57152743D01*
X16742964Y57210000D01*
X16756975Y57267257D01*
X16795839Y57311574D01*
X16981401Y57441505D01*
X17148495Y57608599D01*
X17284035Y57802170D01*
X17383903Y58016337D01*
X17445063Y58244592D01*
X17465659Y58480000D01*
X17445063Y58715408D01*
X17383903Y58943663D01*
X17284035Y59157829D01*
X17148495Y59351401D01*
X16981401Y59518495D01*
X16795839Y59648427D01*
X16756975Y59692743D01*
X16742964Y59750000D01*
X16756975Y59807257D01*
X16795839Y59851574D01*
X16981401Y59981505D01*
X17148495Y60148599D01*
X17284035Y60342170D01*
X17383903Y60556337D01*
X17445063Y60784592D01*
X17465659Y61020000D01*
X17445063Y61255408D01*
X17383903Y61483663D01*
X17284035Y61697829D01*
X17148495Y61891401D01*
X16981401Y62058495D01*
X16795839Y62188427D01*
X16756975Y62232743D01*
X16742964Y62290000D01*
X16756975Y62347257D01*
X16795839Y62391574D01*
X16981401Y62521505D01*
X17148495Y62688599D01*
X17284035Y62882170D01*
X17383903Y63096337D01*
X17445063Y63324592D01*
X17465659Y63560000D01*
X17445063Y63795408D01*
X17383903Y64023663D01*
X17284035Y64237829D01*
X17148495Y64431401D01*
X17026181Y64553716D01*
X16994885Y64606461D01*
X16992696Y64667754D01*
X17020149Y64722599D01*
X17070528Y64757578D01*
X17202089Y64806648D01*
X17317188Y64892812D01*
X17403352Y65007911D01*
X17453597Y65142625D01*
X17460000Y65202176D01*
X17460000Y65850000D01*
X14760000Y65850000D01*
X14760000Y65202176D01*
X14766402Y65142625D01*
X14816647Y65007911D01*
X14902811Y64892812D01*
X15017911Y64806648D01*
X15149471Y64757578D01*
X15199850Y64722599D01*
X15227303Y64667754D01*
X15225114Y64606461D01*
X15193819Y64553715D01*
X15071503Y64431399D01*
X14935965Y64237830D01*
X14836097Y64023664D01*
X14774936Y63795408D01*
X14754340Y63560000D01*
X14774936Y63324593D01*
X14819709Y63157499D01*
X14836097Y63096337D01*
X14935965Y62882170D01*
X15071505Y62688599D01*
X15238599Y62521505D01*
X15424160Y62391574D01*
X15463024Y62347257D01*
X15477035Y62290000D01*
X15463024Y62232743D01*
X15424159Y62188425D01*
X15238595Y62058492D01*
X15071505Y61891402D01*
X14935965Y61697830D01*
X14836097Y61483664D01*
X14774936Y61255408D01*
X14754340Y61020001D01*
X14774936Y60784593D01*
X14819709Y60617498D01*
X14836097Y60556337D01*
X14935965Y60342170D01*
X15071505Y60148599D01*
X15238599Y59981505D01*
X15424160Y59851574D01*
X15463024Y59807257D01*
X15477035Y59750000D01*
X15463024Y59692743D01*
X15424159Y59648425D01*
X15238595Y59518492D01*
X15071505Y59351402D01*
X14935965Y59157830D01*
X14836097Y58943664D01*
X14774936Y58715408D01*
X14754340Y58480001D01*
X14774936Y58244593D01*
X14819709Y58077499D01*
X14836097Y58016337D01*
X14935965Y57802170D01*
X15071505Y57608599D01*
X15238599Y57441505D01*
X15424160Y57311574D01*
X15463024Y57267257D01*
X15477035Y57210000D01*
X15463024Y57152743D01*
X15424159Y57108425D01*
X15238595Y56978492D01*
X15071505Y56811402D01*
X14935965Y56617830D01*
X14836097Y56403664D01*
X14774936Y56175408D01*
X14754340Y55940000D01*
X500Y55940000D01*
X500Y68961298D01*
X4714848Y68961298D01*
X4897479Y68836783D01*
X5140542Y68719730D01*
X5398339Y68640209D01*
X5665109Y68600000D01*
X5934891Y68600000D01*
X6201660Y68640209D01*
X6459460Y68719730D01*
X6702523Y68836783D01*
X6885150Y68961298D01*
X5800000Y70046447D01*
X4714848Y68961298D01*
X500Y68961298D01*
X500Y70247649D01*
X2501199Y70247649D01*
X2531650Y70223949D01*
X2735700Y70113523D01*
X2955140Y70038189D01*
X3183993Y70000000D01*
X3416007Y70000000D01*
X3644859Y70038189D01*
X3874019Y70116859D01*
X3874726Y70114799D01*
X3913114Y70125250D01*
X3968657Y70114290D01*
X4013540Y70079783D01*
X4038406Y70028921D01*
X4075146Y69867951D01*
X4173708Y69616822D01*
X4308598Y69383184D01*
X4362295Y69315850D01*
X5446447Y70400000D01*
X6153553Y70400000D01*
X7237703Y69315849D01*
X7237704Y69315850D01*
X7291400Y69383182D01*
X7426291Y69616822D01*
X7524853Y69867951D01*
X7584886Y70130974D01*
X7605047Y70400000D01*
X7584886Y70669027D01*
X7524853Y70932050D01*
X7426291Y71183179D01*
X7291398Y71416822D01*
X7237704Y71484153D01*
X6153553Y70400000D01*
X5446447Y70400000D01*
X5800000Y70753553D01*
X6885150Y71838704D01*
X6702519Y71963220D01*
X6459460Y72080271D01*
X6201660Y72159792D01*
X5934891Y72200000D01*
X5665109Y72200000D01*
X5398339Y72159792D01*
X5140542Y72080271D01*
X4897475Y71963217D01*
X4777814Y71881633D01*
X4727650Y71861660D01*
X4673752Y71864900D01*
X4626342Y71890739D01*
X4594407Y71934277D01*
X4535484Y72068608D01*
X4451186Y72197636D01*
X3300000Y71046447D01*
X2501199Y70247649D01*
X500Y70247649D01*
X500Y71400000D01*
X1895201Y71400000D01*
X1914361Y71168783D01*
X1971319Y70943861D01*
X2064516Y70731391D01*
X2148812Y70602367D01*
X2946447Y71399999D01*
X2946447Y71400000D01*
X2148812Y72197635D01*
X2064516Y72068610D01*
X1971319Y71856140D01*
X1914361Y71631218D01*
X1895201Y71400000D01*
X500Y71400000D01*
X500Y72552353D01*
X2501200Y72552353D01*
X3300000Y71753553D01*
X3300001Y71753553D01*
X4098799Y72552352D01*
X4098799Y72552353D01*
X4068349Y72576052D01*
X3864299Y72686478D01*
X3644859Y72761812D01*
X3416007Y72800000D01*
X3183993Y72800000D01*
X2955140Y72761812D01*
X2735703Y72686479D01*
X2531645Y72576048D01*
X2501200Y72552354D01*
X2501200Y72552353D01*
X500Y72552353D01*
X500Y76400000D01*
X1894699Y76400000D01*
X1913865Y76168701D01*
X1913865Y76168699D01*
X1913866Y76168695D01*
X1966387Y75961298D01*
X1970844Y75943697D01*
X2011959Y75849966D01*
X2064076Y75731151D01*
X2191021Y75536847D01*
X2348216Y75366087D01*
X2531374Y75223530D01*
X2534521Y75221827D01*
X2538636Y75217879D01*
X2539482Y75217220D01*
X2539413Y75217133D01*
X2582024Y75176246D01*
X2599500Y75112774D01*
X2599500Y75024921D01*
X2599274Y75017434D01*
X2595641Y74957393D01*
X2606483Y74898229D01*
X2607610Y74890828D01*
X2614860Y74831127D01*
X2618450Y74821661D01*
X2624475Y74800048D01*
X2626303Y74790071D01*
X2650991Y74735217D01*
X2653856Y74728299D01*
X2675180Y74672074D01*
X2675182Y74672070D01*
X2680941Y74663727D01*
X2691961Y74644187D01*
X2696120Y74634946D01*
X2733216Y74587595D01*
X2737651Y74581568D01*
X2771817Y74532071D01*
X2814067Y74494641D01*
X2824639Y74484069D01*
X2851035Y74454274D01*
X2862072Y74441816D01*
X2911569Y74407651D01*
X2917602Y74403212D01*
X2964943Y74366123D01*
X2974174Y74361969D01*
X2993726Y74350942D01*
X3002070Y74345182D01*
X3058322Y74323849D01*
X3065228Y74320988D01*
X3120068Y74296306D01*
X3130030Y74294481D01*
X3151650Y74288454D01*
X3161125Y74284861D01*
X3161128Y74284860D01*
X3220856Y74277608D01*
X3228201Y74276491D01*
X3287394Y74265643D01*
X3347421Y74269274D01*
X3354909Y74269500D01*
X14697497Y74269500D01*
X14752341Y74256712D01*
X14795873Y74220986D01*
X14819114Y74169691D01*
X14817272Y74113407D01*
X14774936Y73955408D01*
X14754340Y73720000D01*
X14774936Y73484593D01*
X14785868Y73443796D01*
X14836097Y73256337D01*
X14935965Y73042170D01*
X15071505Y72848599D01*
X15238599Y72681505D01*
X15424160Y72551574D01*
X15463024Y72507257D01*
X15477035Y72450000D01*
X15463024Y72392743D01*
X15424160Y72348426D01*
X15258448Y72232393D01*
X15238595Y72218492D01*
X15071505Y72051402D01*
X14935965Y71857830D01*
X14836097Y71643664D01*
X14774936Y71415408D01*
X14754340Y71180001D01*
X14774936Y70944593D01*
X14819709Y70777498D01*
X14836097Y70716337D01*
X14935965Y70502170D01*
X15071505Y70308599D01*
X15238599Y70141505D01*
X15424160Y70011574D01*
X15463024Y69967257D01*
X15477035Y69910000D01*
X15463024Y69852743D01*
X15424159Y69808425D01*
X15238595Y69678492D01*
X15071505Y69511402D01*
X14935965Y69317830D01*
X14836097Y69103664D01*
X14774936Y68875408D01*
X14754340Y68640001D01*
X14774936Y68404593D01*
X14819709Y68237498D01*
X14836097Y68176337D01*
X14935965Y67962170D01*
X15071505Y67768599D01*
X15071508Y67768596D01*
X15193818Y67646286D01*
X15225114Y67593540D01*
X15227303Y67532247D01*
X15199850Y67477403D01*
X15149472Y67442424D01*
X15017913Y67393354D01*
X14902811Y67307189D01*
X14816647Y67192090D01*
X14766402Y67057376D01*
X14760000Y66997824D01*
X14760000Y66350000D01*
X17460000Y66350000D01*
X17460000Y66997824D01*
X17453597Y67057376D01*
X17403352Y67192090D01*
X17317188Y67307189D01*
X17202088Y67393353D01*
X17070528Y67442423D01*
X17020149Y67477403D01*
X16992696Y67532248D01*
X16994885Y67593540D01*
X17026178Y67646283D01*
X17148495Y67768599D01*
X17284035Y67962170D01*
X17383903Y68176337D01*
X17445063Y68404592D01*
X17465659Y68640000D01*
X17445063Y68875408D01*
X17383903Y69103663D01*
X17284035Y69317829D01*
X17148495Y69511401D01*
X16981401Y69678495D01*
X16795839Y69808427D01*
X16756976Y69852743D01*
X16742965Y69910000D01*
X16756976Y69967257D01*
X16795839Y70011574D01*
X16981401Y70141505D01*
X17148495Y70308599D01*
X17284035Y70502170D01*
X17383903Y70716337D01*
X17445063Y70944592D01*
X17465659Y71180000D01*
X17445063Y71415408D01*
X17383903Y71643663D01*
X17284035Y71857829D01*
X17148495Y72051401D01*
X16981401Y72218495D01*
X16795839Y72348427D01*
X16756974Y72392745D01*
X16742964Y72450001D01*
X16756975Y72507258D01*
X16795837Y72551572D01*
X16981401Y72681505D01*
X17148495Y72848599D01*
X17284035Y73042170D01*
X17383903Y73256337D01*
X17445063Y73484592D01*
X17465659Y73720000D01*
X17445063Y73955408D01*
X17445062Y73955409D01*
X17402728Y74113407D01*
X17400886Y74169691D01*
X17424127Y74220986D01*
X17467659Y74256712D01*
X17522503Y74269500D01*
X18025500Y74269500D01*
X18087500Y74252887D01*
X18132887Y74207500D01*
X18149500Y74145500D01*
X18149500Y72299921D01*
X18149274Y72292434D01*
X18145641Y72232393D01*
X18156483Y72173229D01*
X18157610Y72165828D01*
X18164860Y72106127D01*
X18168450Y72096661D01*
X18174475Y72075048D01*
X18176303Y72065071D01*
X18200991Y72010217D01*
X18203856Y72003299D01*
X18219058Y71963217D01*
X18225182Y71947070D01*
X18230941Y71938727D01*
X18241961Y71919187D01*
X18246120Y71909946D01*
X18283216Y71862595D01*
X18287651Y71856568D01*
X18321817Y71807071D01*
X18361411Y71771994D01*
X18371992Y71761413D01*
X18407071Y71721817D01*
X18423475Y71710494D01*
X18456569Y71687651D01*
X18462602Y71683212D01*
X18482657Y71667500D01*
X18509943Y71646123D01*
X18519174Y71641969D01*
X18538726Y71630942D01*
X18547070Y71625182D01*
X18603322Y71603849D01*
X18610228Y71600988D01*
X18665068Y71576306D01*
X18675030Y71574481D01*
X18696650Y71568454D01*
X18706125Y71564861D01*
X18706128Y71564860D01*
X18765856Y71557608D01*
X18773201Y71556491D01*
X18832394Y71545643D01*
X18892422Y71549274D01*
X18899910Y71549500D01*
X21127649Y71549500D01*
X21185777Y71535031D01*
X21230340Y71495002D01*
X21250938Y71438754D01*
X21255909Y71392517D01*
X21306204Y71257669D01*
X21392454Y71142454D01*
X21507669Y71056204D01*
X21642517Y71005909D01*
X21702127Y70999500D01*
X23297872Y70999501D01*
X23357483Y71005909D01*
X23492331Y71056204D01*
X23607546Y71142454D01*
X23693796Y71257669D01*
X23744091Y71392517D01*
X23750500Y71452127D01*
X23750499Y73047872D01*
X23744091Y73107483D01*
X23693796Y73242331D01*
X23607546Y73357546D01*
X23492331Y73443796D01*
X23357483Y73494091D01*
X23297873Y73500500D01*
X23297869Y73500500D01*
X21702130Y73500500D01*
X21642515Y73494091D01*
X21507669Y73443796D01*
X21392454Y73357546D01*
X21306204Y73242332D01*
X21255909Y73107485D01*
X21255909Y73107483D01*
X21252683Y73077473D01*
X21250938Y73061245D01*
X21230339Y73004997D01*
X21185776Y72964968D01*
X21127648Y72950500D01*
X19674500Y72950500D01*
X19612500Y72967113D01*
X19567113Y73012500D01*
X19550500Y73074500D01*
X19550500Y74850090D01*
X19550726Y74857577D01*
X19550793Y74858697D01*
X19554357Y74917606D01*
X19543509Y74976799D01*
X19542392Y74984144D01*
X19535140Y75043872D01*
X19535139Y75043875D01*
X19531546Y75053350D01*
X19525519Y75074971D01*
X19523694Y75084932D01*
X19499012Y75139772D01*
X19496151Y75146678D01*
X19474818Y75202930D01*
X19469058Y75211274D01*
X19458030Y75230828D01*
X19453877Y75240057D01*
X19416788Y75287398D01*
X19412349Y75293431D01*
X19378184Y75342928D01*
X19378183Y75342929D01*
X19333153Y75382822D01*
X19327715Y75387942D01*
X19267940Y75447717D01*
X19262822Y75453153D01*
X19222929Y75498183D01*
X19173432Y75532349D01*
X19167405Y75536784D01*
X19120054Y75573880D01*
X19110813Y75578039D01*
X19091273Y75589059D01*
X19082930Y75594818D01*
X19082927Y75594819D01*
X19082926Y75594820D01*
X19026701Y75616144D01*
X19019783Y75619009D01*
X18964929Y75643697D01*
X18954952Y75645525D01*
X18933339Y75651550D01*
X18923873Y75655140D01*
X18864172Y75662390D01*
X18856771Y75663517D01*
X18797607Y75674359D01*
X18737566Y75670726D01*
X18730079Y75670500D01*
X17511785Y75670500D01*
X17456941Y75683288D01*
X17413409Y75719014D01*
X17390168Y75770309D01*
X17392010Y75826593D01*
X17421952Y75938341D01*
X17445063Y76024592D01*
X17465659Y76260000D01*
X17445063Y76495408D01*
X17383903Y76723663D01*
X17284035Y76937829D01*
X17148495Y77131401D01*
X17026181Y77253716D01*
X16994885Y77306461D01*
X16992696Y77367754D01*
X17020149Y77422599D01*
X17070528Y77457578D01*
X17202089Y77506648D01*
X17317188Y77592812D01*
X17403352Y77707911D01*
X17453597Y77842625D01*
X17460000Y77902176D01*
X17460000Y78550000D01*
X14760000Y78550000D01*
X14760000Y77902176D01*
X14766402Y77842625D01*
X14816647Y77707911D01*
X14902811Y77592812D01*
X15017911Y77506648D01*
X15149471Y77457578D01*
X15199850Y77422599D01*
X15227303Y77367754D01*
X15225114Y77306461D01*
X15193819Y77253715D01*
X15071503Y77131399D01*
X14935965Y76937830D01*
X14836097Y76723664D01*
X14774936Y76495408D01*
X14754340Y76260001D01*
X14774936Y76024593D01*
X14827990Y75826593D01*
X14829832Y75770309D01*
X14806591Y75719014D01*
X14763059Y75683288D01*
X14708215Y75670500D01*
X6860628Y75670500D01*
X6800242Y75686197D01*
X6755144Y75729315D01*
X6736753Y75788936D01*
X6749725Y75849966D01*
X6790776Y75896953D01*
X6885150Y75961298D01*
X5800000Y77046447D01*
X5446447Y77400000D01*
X6153553Y77400000D01*
X7237703Y76315849D01*
X7237704Y76315850D01*
X7291400Y76383182D01*
X7426291Y76616822D01*
X7524853Y76867951D01*
X7584886Y77130974D01*
X7605047Y77400001D01*
X7584886Y77669027D01*
X7524853Y77932050D01*
X7426291Y78183179D01*
X7291398Y78416822D01*
X7237704Y78484153D01*
X6153553Y77400000D01*
X5446447Y77400000D01*
X4362295Y78484152D01*
X4308598Y78416818D01*
X4173708Y78183179D01*
X4075146Y77932050D01*
X4038521Y77771586D01*
X4013659Y77720729D01*
X3968785Y77686222D01*
X3913249Y77675256D01*
X3874935Y77685681D01*
X3874221Y77683600D01*
X3644984Y77762298D01*
X3473282Y77790950D01*
X3416049Y77800500D01*
X3183951Y77800500D01*
X3138164Y77792860D01*
X2955015Y77762298D01*
X2735501Y77686938D01*
X2735497Y77686937D01*
X2735497Y77686936D01*
X2702404Y77669027D01*
X2531372Y77576469D01*
X2348215Y77433913D01*
X2191020Y77263152D01*
X2064076Y77068850D01*
X1970844Y76856304D01*
X1970842Y76856300D01*
X1970843Y76856300D01*
X1937255Y76723663D01*
X1913865Y76631300D01*
X1894699Y76400000D01*
X500Y76400000D01*
X500Y78838704D01*
X4714848Y78838704D01*
X5800000Y77753553D01*
X5800001Y77753553D01*
X6885150Y78838704D01*
X43164848Y78838704D01*
X44250000Y77753553D01*
X44250001Y77753553D01*
X45335150Y78838704D01*
X45152519Y78963220D01*
X44909460Y79080271D01*
X44651660Y79159792D01*
X44384891Y79200000D01*
X44115109Y79200000D01*
X43848339Y79159792D01*
X43590542Y79080271D01*
X43347476Y78963217D01*
X43164848Y78838704D01*
X6885150Y78838704D01*
X6702519Y78963220D01*
X6459460Y79080271D01*
X6201660Y79159792D01*
X5934891Y79200000D01*
X5665109Y79200000D01*
X5398339Y79159792D01*
X5140542Y79080271D01*
X4897476Y78963217D01*
X4714848Y78838704D01*
X500Y78838704D01*
X500Y82932236D01*
X1145787Y82932236D01*
X1175413Y82662984D01*
X1198800Y82573530D01*
X1243928Y82400912D01*
X1261601Y82359325D01*
X1349871Y82151608D01*
X1490982Y81920389D01*
X1642675Y81738111D01*
X1664255Y81712180D01*
X1865998Y81531418D01*
X2091910Y81381956D01*
X2114838Y81371208D01*
X2337177Y81266979D01*
X2596562Y81188942D01*
X2596569Y81188940D01*
X2864561Y81149500D01*
X3067631Y81149500D01*
X3067634Y81149500D01*
X3270156Y81164323D01*
X3305930Y81172292D01*
X3534553Y81223220D01*
X3787558Y81319986D01*
X3823219Y81340000D01*
X14754340Y81340000D01*
X14774936Y81104593D01*
X14813913Y80959130D01*
X14836097Y80876337D01*
X14935965Y80662170D01*
X15071505Y80468599D01*
X15071508Y80468597D01*
X15071508Y80468596D01*
X15193818Y80346286D01*
X15225114Y80293540D01*
X15227303Y80232247D01*
X15199850Y80177403D01*
X15149472Y80142424D01*
X15017913Y80093354D01*
X14902811Y80007189D01*
X14816647Y79892090D01*
X14766402Y79757376D01*
X14760000Y79697824D01*
X14760000Y79050000D01*
X17460000Y79050000D01*
X17460000Y79697824D01*
X17453597Y79757376D01*
X17403352Y79892090D01*
X17317188Y80007189D01*
X17202088Y80093353D01*
X17070528Y80142423D01*
X17020149Y80177403D01*
X16992696Y80232248D01*
X16994885Y80293540D01*
X17026178Y80346283D01*
X17148495Y80468599D01*
X17284035Y80662170D01*
X17311002Y80720000D01*
X21319723Y80720000D01*
X21321332Y80701600D01*
X21321678Y80685247D01*
X21320709Y80663672D01*
X21331444Y80584424D01*
X21332094Y80578587D01*
X21338792Y80502024D01*
X21344461Y80480868D01*
X21347564Y80465422D01*
X21350925Y80440610D01*
X21374573Y80367830D01*
X21376416Y80361607D01*
X21395423Y80290673D01*
X21406135Y80267702D01*
X21411683Y80253617D01*
X21420481Y80226540D01*
X21455128Y80162153D01*
X21458314Y80155801D01*
X21487896Y80092363D01*
X21504406Y80068785D01*
X21512023Y80056425D01*
X21527148Y80028319D01*
X21562219Y79984341D01*
X21570588Y79973847D01*
X21575214Y79967660D01*
X21613403Y79913122D01*
X21636186Y79890339D01*
X21645452Y79879971D01*
X21667493Y79852333D01*
X21717387Y79808741D01*
X21723484Y79803041D01*
X21768123Y79758402D01*
X21797330Y79737951D01*
X21807793Y79729756D01*
X21827585Y79712465D01*
X21837004Y79704235D01*
X21890940Y79672010D01*
X21898435Y79667157D01*
X21947361Y79632898D01*
X21957490Y79628175D01*
X21982799Y79616372D01*
X21993991Y79610440D01*
X22030236Y79588785D01*
X22030239Y79588784D01*
X22085839Y79567917D01*
X22094669Y79564208D01*
X22139003Y79543534D01*
X22145670Y79540425D01*
X22186757Y79529416D01*
X22198235Y79525734D01*
X22209903Y79521355D01*
X22240976Y79509693D01*
X22296024Y79499704D01*
X22305970Y79497473D01*
X22357023Y79483793D01*
X22401133Y79479935D01*
X22402814Y79479787D01*
X22414148Y79478267D01*
X22462453Y79469500D01*
X22514985Y79469500D01*
X22525791Y79469029D01*
X22575000Y79464723D01*
X22624208Y79469029D01*
X22627511Y79469173D01*
X22631145Y79469500D01*
X22631155Y79469500D01*
X22685172Y79474362D01*
X22685180Y79474273D01*
X22685479Y79474389D01*
X22792977Y79483793D01*
X22792977Y79483794D01*
X22797663Y79484203D01*
X22799183Y79484623D01*
X22799188Y79484623D01*
X22902726Y79513200D01*
X22903413Y79513386D01*
X22949500Y79525734D01*
X23009377Y79541777D01*
X23014148Y79543534D01*
X23016166Y79544506D01*
X23016170Y79544507D01*
X23109951Y79589671D01*
X23111007Y79590170D01*
X23202639Y79632898D01*
X23202645Y79632903D01*
X23204392Y79633717D01*
X23218155Y79641778D01*
X23218973Y79642171D01*
X23300324Y79701278D01*
X23302043Y79702503D01*
X23381871Y79758397D01*
X23381873Y79758400D01*
X23381877Y79758402D01*
X23382748Y79759274D01*
X23397543Y79771911D01*
X23401078Y79774478D01*
X23468237Y79844723D01*
X23470097Y79846623D01*
X23536593Y79913118D01*
X23536593Y79913119D01*
X23536598Y79913123D01*
X23539285Y79916961D01*
X23551232Y79931529D01*
X23556632Y79937175D01*
X23608288Y80015434D01*
X23610082Y80018071D01*
X23662102Y80092361D01*
X23665539Y80099733D01*
X23674434Y80115638D01*
X23674585Y80115868D01*
X23680635Y80125032D01*
X23716114Y80208042D01*
X23717713Y80211623D01*
X23754575Y80290670D01*
X23757572Y80301857D01*
X23763324Y80318492D01*
X23769102Y80332010D01*
X23769101Y80332010D01*
X23769103Y80332012D01*
X23788434Y80416709D01*
X23789533Y80421137D01*
X23794752Y80440613D01*
X23811207Y80502023D01*
X23812516Y80516995D01*
X23815153Y80533773D01*
X23819191Y80551463D01*
X23822934Y80634817D01*
X23823274Y80639961D01*
X23830277Y80720000D01*
X26169723Y80720000D01*
X26171332Y80701600D01*
X26171678Y80685247D01*
X26170709Y80663672D01*
X26181444Y80584424D01*
X26182094Y80578587D01*
X26188792Y80502024D01*
X26194461Y80480868D01*
X26197564Y80465422D01*
X26200925Y80440610D01*
X26224573Y80367830D01*
X26226416Y80361607D01*
X26245423Y80290673D01*
X26256135Y80267702D01*
X26261683Y80253617D01*
X26270481Y80226540D01*
X26305128Y80162153D01*
X26308314Y80155801D01*
X26337896Y80092363D01*
X26354406Y80068785D01*
X26362023Y80056425D01*
X26377148Y80028319D01*
X26412219Y79984341D01*
X26420588Y79973847D01*
X26425214Y79967660D01*
X26463403Y79913122D01*
X26486186Y79890339D01*
X26495452Y79879971D01*
X26517493Y79852333D01*
X26567387Y79808741D01*
X26573484Y79803041D01*
X26618123Y79758402D01*
X26647330Y79737951D01*
X26657793Y79729756D01*
X26677585Y79712465D01*
X26687004Y79704235D01*
X26740940Y79672010D01*
X26748435Y79667157D01*
X26797361Y79632898D01*
X26807490Y79628175D01*
X26832799Y79616372D01*
X26843991Y79610440D01*
X26880236Y79588785D01*
X26880239Y79588784D01*
X26935839Y79567917D01*
X26944669Y79564208D01*
X26989003Y79543534D01*
X26995670Y79540425D01*
X27036757Y79529416D01*
X27048235Y79525734D01*
X27059903Y79521355D01*
X27090976Y79509693D01*
X27146024Y79499704D01*
X27155970Y79497473D01*
X27207023Y79483793D01*
X27251133Y79479935D01*
X27252814Y79479787D01*
X27264148Y79478267D01*
X27312453Y79469500D01*
X27364985Y79469500D01*
X27375791Y79469029D01*
X27425000Y79464723D01*
X27474208Y79469029D01*
X27477511Y79469173D01*
X27481145Y79469500D01*
X27481155Y79469500D01*
X27535172Y79474362D01*
X27535180Y79474273D01*
X27535479Y79474389D01*
X27642977Y79483793D01*
X27642977Y79483794D01*
X27647663Y79484203D01*
X27649183Y79484623D01*
X27649188Y79484623D01*
X27752726Y79513200D01*
X27753413Y79513386D01*
X27799500Y79525734D01*
X27859377Y79541777D01*
X27864148Y79543534D01*
X27866166Y79544506D01*
X27866170Y79544507D01*
X27959951Y79589671D01*
X27961007Y79590170D01*
X28052639Y79632898D01*
X28052645Y79632903D01*
X28054392Y79633717D01*
X28068155Y79641778D01*
X28068973Y79642171D01*
X28150324Y79701278D01*
X28152043Y79702503D01*
X28231871Y79758397D01*
X28231873Y79758400D01*
X28231877Y79758402D01*
X28232748Y79759274D01*
X28247543Y79771911D01*
X28251078Y79774478D01*
X28318237Y79844723D01*
X28320097Y79846623D01*
X28386593Y79913118D01*
X28386593Y79913119D01*
X28386598Y79913123D01*
X28389285Y79916961D01*
X28401232Y79931529D01*
X28406632Y79937175D01*
X28458288Y80015434D01*
X28460082Y80018071D01*
X28512102Y80092361D01*
X28515539Y80099733D01*
X28524434Y80115638D01*
X28524585Y80115868D01*
X28530635Y80125032D01*
X28566114Y80208042D01*
X28567713Y80211623D01*
X28604575Y80290670D01*
X28607572Y80301857D01*
X28613324Y80318492D01*
X28619102Y80332010D01*
X28619101Y80332010D01*
X28619103Y80332012D01*
X28638434Y80416709D01*
X28639533Y80421137D01*
X28644752Y80440613D01*
X28661207Y80502023D01*
X28662516Y80516995D01*
X28665153Y80533773D01*
X28669191Y80551463D01*
X28672934Y80634817D01*
X28673274Y80639961D01*
X28680277Y80720000D01*
X28678667Y80738392D01*
X28678321Y80754762D01*
X28679290Y80776330D01*
X28668549Y80855615D01*
X28667905Y80861404D01*
X28662517Y80923007D01*
X28661208Y80937973D01*
X28661206Y80937980D01*
X28655536Y80959140D01*
X28652434Y80974586D01*
X28649075Y80999386D01*
X28641291Y81023341D01*
X28625421Y81072184D01*
X28623578Y81078408D01*
X28604575Y81149329D01*
X28604495Y81149500D01*
X28593865Y81172296D01*
X28588317Y81186381D01*
X28579517Y81213465D01*
X28544869Y81277852D01*
X28541681Y81284206D01*
X28515664Y81340000D01*
X32534340Y81340000D01*
X32554936Y81104593D01*
X32593913Y80959130D01*
X32616097Y80876337D01*
X32715965Y80662170D01*
X32851505Y80468599D01*
X32851508Y80468597D01*
X32851508Y80468596D01*
X32973818Y80346286D01*
X33005114Y80293540D01*
X33007303Y80232247D01*
X32979850Y80177403D01*
X32929472Y80142424D01*
X32797913Y80093354D01*
X32682811Y80007189D01*
X32596647Y79892090D01*
X32546402Y79757376D01*
X32540000Y79697824D01*
X32540000Y79050000D01*
X35240000Y79050000D01*
X35240000Y79697824D01*
X35233597Y79757376D01*
X35183352Y79892090D01*
X35097188Y80007189D01*
X34982088Y80093353D01*
X34850528Y80142423D01*
X34800149Y80177403D01*
X34772696Y80232248D01*
X34774885Y80293540D01*
X34806178Y80346283D01*
X34928495Y80468599D01*
X35064035Y80662170D01*
X35163903Y80876337D01*
X35225063Y81104592D01*
X35245659Y81340000D01*
X35225063Y81575408D01*
X35163903Y81803663D01*
X35064035Y82017829D01*
X34928495Y82211401D01*
X34761401Y82378495D01*
X34575839Y82508427D01*
X34536975Y82552743D01*
X34522964Y82610000D01*
X34536975Y82667257D01*
X34575839Y82711574D01*
X34761401Y82841505D01*
X34852132Y82932236D01*
X45145787Y82932236D01*
X45175413Y82662984D01*
X45198800Y82573530D01*
X45243928Y82400912D01*
X45261601Y82359325D01*
X45349871Y82151608D01*
X45490982Y81920389D01*
X45642675Y81738111D01*
X45664255Y81712180D01*
X45865998Y81531418D01*
X46091910Y81381956D01*
X46114838Y81371208D01*
X46337177Y81266979D01*
X46596562Y81188942D01*
X46596569Y81188940D01*
X46864561Y81149500D01*
X47067631Y81149500D01*
X47067634Y81149500D01*
X47270156Y81164323D01*
X47305930Y81172292D01*
X47534553Y81223220D01*
X47787558Y81319986D01*
X48023777Y81452559D01*
X48238177Y81618112D01*
X48426186Y81813119D01*
X48583799Y82033421D01*
X48707656Y82274325D01*
X48795118Y82530695D01*
X48844319Y82797067D01*
X48854212Y83067765D01*
X48824586Y83337018D01*
X48756072Y83599088D01*
X48650130Y83848390D01*
X48509018Y84079610D01*
X48509017Y84079612D01*
X48335746Y84287819D01*
X48332500Y84290727D01*
X48134002Y84468582D01*
X47908090Y84618044D01*
X47908086Y84618046D01*
X47662822Y84733022D01*
X47403437Y84811059D01*
X47403431Y84811060D01*
X47135439Y84850500D01*
X46932369Y84850500D01*
X46932366Y84850500D01*
X46729843Y84835678D01*
X46465449Y84776781D01*
X46212441Y84680014D01*
X45976223Y84547441D01*
X45761825Y84381891D01*
X45573813Y84186880D01*
X45416201Y83966580D01*
X45292342Y83725671D01*
X45204881Y83469305D01*
X45155680Y83202934D01*
X45145787Y82932236D01*
X34852132Y82932236D01*
X34928495Y83008599D01*
X35064035Y83202170D01*
X35163903Y83416337D01*
X35225063Y83644592D01*
X35245659Y83880000D01*
X35225063Y84115408D01*
X35163903Y84343663D01*
X35064035Y84557829D01*
X34928495Y84751401D01*
X34761401Y84918495D01*
X34567830Y85054035D01*
X34353663Y85153903D01*
X34292501Y85170291D01*
X34125407Y85215064D01*
X33890000Y85235660D01*
X33654592Y85215064D01*
X33426336Y85153903D01*
X33212170Y85054035D01*
X33018598Y84918495D01*
X32851505Y84751402D01*
X32715965Y84557830D01*
X32616097Y84343664D01*
X32554936Y84115408D01*
X32534340Y83880000D01*
X32554936Y83644593D01*
X32588671Y83518694D01*
X32616097Y83416337D01*
X32715965Y83202170D01*
X32851505Y83008599D01*
X33018599Y82841505D01*
X33204160Y82711574D01*
X33243024Y82667257D01*
X33257035Y82610000D01*
X33243024Y82552743D01*
X33204158Y82508425D01*
X33033231Y82388740D01*
X33018595Y82378492D01*
X32851505Y82211402D01*
X32715965Y82017830D01*
X32616097Y81803664D01*
X32554936Y81575408D01*
X32534340Y81340000D01*
X28515664Y81340000D01*
X28512102Y81347638D01*
X28512101Y81347639D01*
X28495591Y81371218D01*
X28487975Y81383577D01*
X28472852Y81411681D01*
X28429404Y81466163D01*
X28424785Y81472339D01*
X28386598Y81526877D01*
X28363804Y81549671D01*
X28354546Y81560031D01*
X28332506Y81587668D01*
X28282611Y81631261D01*
X28276514Y81636961D01*
X28231878Y81681598D01*
X28202664Y81702053D01*
X28192210Y81710241D01*
X28162996Y81735765D01*
X28160156Y81737462D01*
X28109073Y81767983D01*
X28101550Y81772855D01*
X28052640Y81807102D01*
X28031043Y81817173D01*
X28017201Y81823628D01*
X28006014Y81829558D01*
X27969764Y81851216D01*
X27914171Y81872079D01*
X27905349Y81875784D01*
X27854330Y81899575D01*
X27854328Y81899576D01*
X27826575Y81907013D01*
X27813228Y81910589D01*
X27801762Y81914268D01*
X27759024Y81930307D01*
X27715636Y81938182D01*
X27703964Y81940300D01*
X27694018Y81942532D01*
X27642980Y81956207D01*
X27597175Y81960215D01*
X27585846Y81961736D01*
X27537550Y81970500D01*
X27537547Y81970500D01*
X27485015Y81970500D01*
X27474208Y81970972D01*
X27470788Y81971272D01*
X27425000Y81975278D01*
X27379211Y81971272D01*
X27375791Y81970972D01*
X27372481Y81970828D01*
X27314916Y81965648D01*
X27314612Y81965621D01*
X27202332Y81955797D01*
X27097522Y81926871D01*
X27096627Y81926627D01*
X26990660Y81898233D01*
X26985809Y81896447D01*
X26890246Y81850427D01*
X26888853Y81849767D01*
X26795634Y81806297D01*
X26781875Y81798238D01*
X26781030Y81797831D01*
X26699662Y81738716D01*
X26697904Y81737462D01*
X26618118Y81681595D01*
X26617235Y81680711D01*
X26602467Y81668099D01*
X26598923Y81665524D01*
X26531846Y81595368D01*
X26529903Y81593381D01*
X26463401Y81526878D01*
X26460708Y81523032D01*
X26448776Y81508483D01*
X26443370Y81502828D01*
X26391775Y81424667D01*
X26389866Y81421859D01*
X26337897Y81347637D01*
X26334460Y81340266D01*
X26325571Y81324371D01*
X26319364Y81314968D01*
X26283893Y81231979D01*
X26282260Y81228324D01*
X26275331Y81213464D01*
X26245423Y81149327D01*
X26242426Y81138144D01*
X26236680Y81121522D01*
X26230897Y81107991D01*
X26211576Y81023341D01*
X26210460Y81018843D01*
X26188793Y80937980D01*
X26187483Y80923007D01*
X26184847Y80906233D01*
X26180809Y80888540D01*
X26177066Y80805223D01*
X26176719Y80799984D01*
X26171331Y80738387D01*
X26169723Y80720000D01*
X23830277Y80720000D01*
X23828667Y80738392D01*
X23828321Y80754762D01*
X23829290Y80776330D01*
X23818549Y80855615D01*
X23817905Y80861404D01*
X23812517Y80923007D01*
X23811208Y80937973D01*
X23811206Y80937980D01*
X23805536Y80959140D01*
X23802434Y80974586D01*
X23799075Y80999386D01*
X23791291Y81023341D01*
X23775421Y81072184D01*
X23773578Y81078408D01*
X23754575Y81149329D01*
X23754495Y81149500D01*
X23743865Y81172296D01*
X23738317Y81186381D01*
X23729517Y81213465D01*
X23694869Y81277852D01*
X23691681Y81284206D01*
X23662102Y81347638D01*
X23662101Y81347639D01*
X23645591Y81371218D01*
X23637975Y81383577D01*
X23622852Y81411681D01*
X23579404Y81466163D01*
X23574785Y81472339D01*
X23536598Y81526877D01*
X23513804Y81549671D01*
X23504546Y81560031D01*
X23482506Y81587668D01*
X23432611Y81631261D01*
X23426514Y81636961D01*
X23381878Y81681598D01*
X23352664Y81702053D01*
X23342210Y81710241D01*
X23312996Y81735765D01*
X23310156Y81737462D01*
X23259073Y81767983D01*
X23251550Y81772855D01*
X23202640Y81807102D01*
X23181043Y81817173D01*
X23167201Y81823628D01*
X23156014Y81829558D01*
X23119764Y81851216D01*
X23064171Y81872079D01*
X23055349Y81875784D01*
X23004330Y81899575D01*
X23004328Y81899576D01*
X22976575Y81907013D01*
X22963228Y81910589D01*
X22951762Y81914268D01*
X22909024Y81930307D01*
X22865636Y81938182D01*
X22853964Y81940300D01*
X22844018Y81942532D01*
X22792980Y81956207D01*
X22747175Y81960215D01*
X22735846Y81961736D01*
X22687550Y81970500D01*
X22687547Y81970500D01*
X22635015Y81970500D01*
X22624208Y81970972D01*
X22620788Y81971272D01*
X22575000Y81975278D01*
X22529211Y81971272D01*
X22525791Y81970972D01*
X22522481Y81970828D01*
X22464916Y81965648D01*
X22464612Y81965621D01*
X22352332Y81955797D01*
X22247522Y81926871D01*
X22246627Y81926627D01*
X22140660Y81898233D01*
X22135809Y81896447D01*
X22040246Y81850427D01*
X22038853Y81849767D01*
X21945634Y81806297D01*
X21931875Y81798238D01*
X21931030Y81797831D01*
X21849662Y81738716D01*
X21847904Y81737462D01*
X21768118Y81681595D01*
X21767235Y81680711D01*
X21752467Y81668099D01*
X21748923Y81665524D01*
X21681846Y81595368D01*
X21679903Y81593381D01*
X21613401Y81526878D01*
X21610708Y81523032D01*
X21598776Y81508483D01*
X21593370Y81502828D01*
X21541775Y81424667D01*
X21539866Y81421859D01*
X21487897Y81347637D01*
X21484460Y81340266D01*
X21475571Y81324371D01*
X21469364Y81314968D01*
X21433893Y81231979D01*
X21432260Y81228324D01*
X21425331Y81213464D01*
X21395423Y81149327D01*
X21392426Y81138144D01*
X21386680Y81121522D01*
X21380897Y81107991D01*
X21361576Y81023341D01*
X21360460Y81018843D01*
X21338793Y80937980D01*
X21337483Y80923007D01*
X21334847Y80906233D01*
X21330809Y80888540D01*
X21327066Y80805223D01*
X21326719Y80799984D01*
X21321331Y80738387D01*
X21319723Y80720000D01*
X17311002Y80720000D01*
X17383903Y80876337D01*
X17445063Y81104592D01*
X17465659Y81340000D01*
X17445063Y81575408D01*
X17383903Y81803663D01*
X17284035Y82017829D01*
X17148495Y82211401D01*
X16981401Y82378495D01*
X16795839Y82508427D01*
X16756975Y82552743D01*
X16742964Y82610000D01*
X16756975Y82667257D01*
X16795839Y82711574D01*
X16981401Y82841505D01*
X17148495Y83008599D01*
X17284035Y83202170D01*
X17383903Y83416337D01*
X17445063Y83644592D01*
X17454285Y83750002D01*
X20869699Y83750002D01*
X20876750Y83664903D01*
X20877061Y83659929D01*
X20880820Y83571468D01*
X20885092Y83551644D01*
X20887451Y83535763D01*
X20888865Y83518699D01*
X20910661Y83432629D01*
X20911669Y83428324D01*
X20923630Y83372829D01*
X20931046Y83338419D01*
X20937333Y83322774D01*
X20942479Y83306983D01*
X20945843Y83293699D01*
X20982875Y83209273D01*
X20984377Y83205699D01*
X21019936Y83117210D01*
X21026979Y83105771D01*
X21034945Y83090569D01*
X21039076Y83081151D01*
X21091366Y83001114D01*
X21093147Y82998307D01*
X21144931Y82914204D01*
X21151539Y82906697D01*
X21162268Y82892591D01*
X21166021Y82886847D01*
X21233117Y82813960D01*
X21234930Y82811946D01*
X21302437Y82735244D01*
X21307561Y82731106D01*
X21320886Y82718618D01*
X21323216Y82716087D01*
X21363620Y82684640D01*
X21404062Y82653163D01*
X21405795Y82651789D01*
X21487920Y82585477D01*
X21490685Y82583933D01*
X21506359Y82573542D01*
X21506374Y82573530D01*
X21599507Y82523130D01*
X21600785Y82522427D01*
X21696046Y82469210D01*
X21696051Y82469209D01*
X21696252Y82469096D01*
X21707584Y82464065D01*
X21710492Y82463067D01*
X21710497Y82463064D01*
X21813790Y82427604D01*
X21814696Y82427288D01*
X21863931Y82409893D01*
X21920829Y82389789D01*
X21920832Y82389789D01*
X21923800Y82388740D01*
X21930017Y82387703D01*
X21930019Y82387702D01*
X22041197Y82369151D01*
X22041528Y82369094D01*
X22096028Y82359749D01*
X22155799Y82349500D01*
X22155800Y82349500D01*
X22158951Y82349500D01*
X22334497Y82349500D01*
X22391047Y82349500D01*
X22391049Y82349500D01*
X22445010Y82358506D01*
X22454905Y82359749D01*
X22512541Y82364654D01*
X22561941Y82377518D01*
X22572760Y82379823D01*
X22602221Y82384739D01*
X22619982Y82387702D01*
X22674946Y82406572D01*
X22683949Y82409286D01*
X22743249Y82424725D01*
X22786642Y82444341D01*
X22797443Y82448626D01*
X22839503Y82463064D01*
X22893622Y82492353D01*
X22901530Y82496274D01*
X22960486Y82522923D01*
X22997108Y82547676D01*
X23007515Y82553989D01*
X23043626Y82573530D01*
X23094877Y82613422D01*
X23101589Y82618294D01*
X23151144Y82651785D01*
X23158002Y82656420D01*
X23164848Y82662982D01*
X23187460Y82684655D01*
X23197064Y82692956D01*
X23226784Y82716087D01*
X23273081Y82766381D01*
X23278490Y82771900D01*
X23330118Y82821379D01*
X23352350Y82851441D01*
X23360797Y82861667D01*
X23383979Y82886847D01*
X23423238Y82946940D01*
X23427312Y82952797D01*
X23471879Y83013053D01*
X23487163Y83043370D01*
X23494079Y83055368D01*
X23502178Y83067765D01*
X23510924Y83081151D01*
X23541123Y83150000D01*
X23543927Y83155955D01*
X23579207Y83225926D01*
X23588150Y83255132D01*
X23593158Y83268626D01*
X23604157Y83293700D01*
X23623453Y83369901D01*
X23625088Y83375745D01*
X23649015Y83453874D01*
X23649014Y83453874D01*
X23649016Y83453877D01*
X23652461Y83480785D01*
X23655247Y83495452D01*
X23661134Y83518695D01*
X23667903Y83600400D01*
X23668484Y83605905D01*
X23679298Y83690346D01*
X23678291Y83714040D01*
X23678602Y83729519D01*
X23680300Y83750000D01*
X23680300Y83750002D01*
X26319699Y83750002D01*
X26326750Y83664903D01*
X26327061Y83659929D01*
X26330820Y83571468D01*
X26335092Y83551644D01*
X26337451Y83535763D01*
X26338865Y83518699D01*
X26360661Y83432629D01*
X26361669Y83428324D01*
X26373630Y83372829D01*
X26381046Y83338419D01*
X26387333Y83322774D01*
X26392479Y83306983D01*
X26395843Y83293699D01*
X26432875Y83209273D01*
X26434377Y83205699D01*
X26469936Y83117210D01*
X26476979Y83105771D01*
X26484945Y83090569D01*
X26489076Y83081151D01*
X26541366Y83001114D01*
X26543147Y82998307D01*
X26594931Y82914204D01*
X26601539Y82906697D01*
X26612268Y82892591D01*
X26616021Y82886847D01*
X26683117Y82813960D01*
X26684930Y82811946D01*
X26752437Y82735244D01*
X26757561Y82731106D01*
X26770886Y82718618D01*
X26773216Y82716087D01*
X26813620Y82684640D01*
X26854062Y82653163D01*
X26855795Y82651789D01*
X26937920Y82585477D01*
X26940685Y82583933D01*
X26956359Y82573542D01*
X26956374Y82573530D01*
X27049507Y82523130D01*
X27050785Y82522427D01*
X27146046Y82469210D01*
X27146051Y82469209D01*
X27146252Y82469096D01*
X27157584Y82464065D01*
X27160492Y82463067D01*
X27160497Y82463064D01*
X27263790Y82427604D01*
X27264696Y82427288D01*
X27313931Y82409893D01*
X27370829Y82389789D01*
X27370832Y82389789D01*
X27373800Y82388740D01*
X27380017Y82387703D01*
X27380019Y82387702D01*
X27491197Y82369151D01*
X27491528Y82369094D01*
X27546028Y82359749D01*
X27605799Y82349500D01*
X27605800Y82349500D01*
X27608951Y82349500D01*
X27784497Y82349500D01*
X27841047Y82349500D01*
X27841049Y82349500D01*
X27895010Y82358506D01*
X27904905Y82359749D01*
X27962541Y82364654D01*
X28011941Y82377518D01*
X28022760Y82379823D01*
X28052221Y82384739D01*
X28069982Y82387702D01*
X28124946Y82406572D01*
X28133949Y82409286D01*
X28193249Y82424725D01*
X28236642Y82444341D01*
X28247443Y82448626D01*
X28289503Y82463064D01*
X28343622Y82492353D01*
X28351530Y82496274D01*
X28410486Y82522923D01*
X28447108Y82547676D01*
X28457515Y82553989D01*
X28493626Y82573530D01*
X28544877Y82613422D01*
X28551589Y82618294D01*
X28601144Y82651785D01*
X28608002Y82656420D01*
X28614848Y82662982D01*
X28637460Y82684655D01*
X28647064Y82692956D01*
X28676784Y82716087D01*
X28723081Y82766381D01*
X28728490Y82771900D01*
X28780118Y82821379D01*
X28802350Y82851441D01*
X28810797Y82861667D01*
X28833979Y82886847D01*
X28873238Y82946940D01*
X28877312Y82952797D01*
X28921879Y83013053D01*
X28937163Y83043370D01*
X28944079Y83055368D01*
X28952178Y83067765D01*
X28960924Y83081151D01*
X28991123Y83150000D01*
X28993927Y83155955D01*
X29029207Y83225926D01*
X29038150Y83255132D01*
X29043158Y83268626D01*
X29054157Y83293700D01*
X29073453Y83369901D01*
X29075088Y83375745D01*
X29099015Y83453874D01*
X29099014Y83453874D01*
X29099016Y83453877D01*
X29102461Y83480785D01*
X29105247Y83495452D01*
X29111134Y83518695D01*
X29117903Y83600400D01*
X29118484Y83605905D01*
X29129298Y83690346D01*
X29128291Y83714040D01*
X29128602Y83729519D01*
X29130300Y83750000D01*
X29123248Y83835098D01*
X29122938Y83840056D01*
X29122584Y83848393D01*
X29119180Y83928532D01*
X29114907Y83948358D01*
X29112547Y83964244D01*
X29112354Y83966579D01*
X29111134Y83981305D01*
X29089328Y84067411D01*
X29088336Y84071646D01*
X29068954Y84161581D01*
X29062665Y84177230D01*
X29057521Y84193011D01*
X29054157Y84206300D01*
X29017102Y84290776D01*
X29015621Y84294304D01*
X28980066Y84382786D01*
X28980064Y84382790D01*
X28973016Y84394236D01*
X28965051Y84409439D01*
X28960924Y84418849D01*
X28908628Y84498894D01*
X28906879Y84501650D01*
X28855069Y84585795D01*
X28848454Y84593311D01*
X28837730Y84607412D01*
X28833980Y84613151D01*
X28833979Y84613153D01*
X28766876Y84686047D01*
X28765068Y84688056D01*
X28697564Y84764755D01*
X28696253Y84765814D01*
X28692439Y84768894D01*
X28679115Y84781381D01*
X28676785Y84783912D01*
X28595936Y84846839D01*
X28594199Y84848217D01*
X28512082Y84914523D01*
X28509315Y84916068D01*
X28493637Y84926462D01*
X28493626Y84926471D01*
X28400552Y84976839D01*
X28399209Y84977577D01*
X28303954Y85030790D01*
X28303947Y85030793D01*
X28303753Y85030901D01*
X28292401Y85035941D01*
X28241944Y85053263D01*
X28186252Y85072383D01*
X28185233Y85072737D01*
X28076202Y85111261D01*
X27958772Y85130856D01*
X27958226Y85130949D01*
X27844202Y85150500D01*
X27844200Y85150500D01*
X27841049Y85150500D01*
X27608951Y85150500D01*
X27608949Y85150500D01*
X27554991Y85141497D01*
X27545102Y85140253D01*
X27487460Y85135347D01*
X27438077Y85122489D01*
X27427249Y85120181D01*
X27380023Y85112299D01*
X27380021Y85112299D01*
X27380019Y85112298D01*
X27325056Y85093430D01*
X27316052Y85090716D01*
X27256748Y85075275D01*
X27213361Y85055663D01*
X27202554Y85051376D01*
X27160496Y85036937D01*
X27106395Y85007659D01*
X27098460Y85003724D01*
X27039509Y84977075D01*
X27002882Y84952321D01*
X26992470Y84946006D01*
X26956373Y84926471D01*
X26905124Y84886583D01*
X26898402Y84881704D01*
X26841999Y84843582D01*
X26812549Y84815357D01*
X26802919Y84807033D01*
X26773216Y84783913D01*
X26773214Y84783912D01*
X26773214Y84783911D01*
X26726926Y84733631D01*
X26721500Y84728095D01*
X26669883Y84678624D01*
X26647659Y84648574D01*
X26639196Y84638330D01*
X26616023Y84613157D01*
X26576782Y84553095D01*
X26572671Y84547185D01*
X26528119Y84486946D01*
X26512826Y84456616D01*
X26505917Y84444629D01*
X26489077Y84418853D01*
X26458887Y84350026D01*
X26456054Y84344013D01*
X26420792Y84274075D01*
X26411847Y84244869D01*
X26406842Y84231380D01*
X26395844Y84206305D01*
X26376552Y84130129D01*
X26374912Y84124264D01*
X26350983Y84046125D01*
X26347538Y84019225D01*
X26344750Y84004545D01*
X26338865Y83981303D01*
X26332097Y83899623D01*
X26331517Y83894114D01*
X26320701Y83809652D01*
X26321707Y83785975D01*
X26321396Y83770480D01*
X26319699Y83750002D01*
X23680300Y83750002D01*
X23673248Y83835098D01*
X23672938Y83840056D01*
X23672584Y83848393D01*
X23669180Y83928532D01*
X23664907Y83948358D01*
X23662547Y83964244D01*
X23662354Y83966579D01*
X23661134Y83981305D01*
X23639328Y84067411D01*
X23638336Y84071646D01*
X23618954Y84161581D01*
X23612665Y84177230D01*
X23607521Y84193011D01*
X23604157Y84206300D01*
X23567102Y84290776D01*
X23565621Y84294304D01*
X23530066Y84382786D01*
X23530064Y84382790D01*
X23523016Y84394236D01*
X23515051Y84409439D01*
X23510924Y84418849D01*
X23458628Y84498894D01*
X23456879Y84501650D01*
X23405069Y84585795D01*
X23398454Y84593311D01*
X23387730Y84607412D01*
X23383980Y84613151D01*
X23383979Y84613153D01*
X23316876Y84686047D01*
X23315068Y84688056D01*
X23247564Y84764755D01*
X23246253Y84765814D01*
X23242439Y84768894D01*
X23229115Y84781381D01*
X23226785Y84783912D01*
X23145936Y84846839D01*
X23144199Y84848217D01*
X23062082Y84914523D01*
X23059315Y84916068D01*
X23043637Y84926462D01*
X23043626Y84926471D01*
X22950552Y84976839D01*
X22949209Y84977577D01*
X22853954Y85030790D01*
X22853947Y85030793D01*
X22853753Y85030901D01*
X22842401Y85035941D01*
X22791944Y85053263D01*
X22736252Y85072383D01*
X22735233Y85072737D01*
X22626202Y85111261D01*
X22508772Y85130856D01*
X22508226Y85130949D01*
X22394202Y85150500D01*
X22394200Y85150500D01*
X22391049Y85150500D01*
X22158951Y85150500D01*
X22158949Y85150500D01*
X22104991Y85141497D01*
X22095102Y85140253D01*
X22037460Y85135347D01*
X21988077Y85122489D01*
X21977249Y85120181D01*
X21930023Y85112299D01*
X21930021Y85112299D01*
X21930019Y85112298D01*
X21875056Y85093430D01*
X21866052Y85090716D01*
X21806748Y85075275D01*
X21763361Y85055663D01*
X21752554Y85051376D01*
X21710496Y85036937D01*
X21656395Y85007659D01*
X21648460Y85003724D01*
X21589509Y84977075D01*
X21552882Y84952321D01*
X21542470Y84946006D01*
X21506373Y84926471D01*
X21455124Y84886583D01*
X21448402Y84881704D01*
X21391999Y84843582D01*
X21362549Y84815357D01*
X21352919Y84807033D01*
X21323216Y84783913D01*
X21323214Y84783912D01*
X21323214Y84783911D01*
X21276926Y84733631D01*
X21271500Y84728095D01*
X21219883Y84678624D01*
X21197659Y84648574D01*
X21189196Y84638330D01*
X21166023Y84613157D01*
X21126782Y84553095D01*
X21122671Y84547185D01*
X21078119Y84486946D01*
X21062826Y84456616D01*
X21055917Y84444629D01*
X21039077Y84418853D01*
X21008887Y84350026D01*
X21006054Y84344013D01*
X20970792Y84274075D01*
X20961847Y84244869D01*
X20956842Y84231380D01*
X20945844Y84206305D01*
X20926552Y84130129D01*
X20924912Y84124264D01*
X20900983Y84046125D01*
X20897538Y84019225D01*
X20894750Y84004545D01*
X20888865Y83981303D01*
X20882097Y83899623D01*
X20881517Y83894114D01*
X20870701Y83809652D01*
X20871707Y83785975D01*
X20871396Y83770480D01*
X20869699Y83750002D01*
X17454285Y83750002D01*
X17465659Y83880000D01*
X17456795Y83981308D01*
X17445063Y84115408D01*
X17428500Y84177222D01*
X17383903Y84343663D01*
X17284035Y84557829D01*
X17148495Y84751401D01*
X16981401Y84918495D01*
X16787830Y85054035D01*
X16573663Y85153903D01*
X16512501Y85170291D01*
X16345407Y85215064D01*
X16110000Y85235660D01*
X15874592Y85215064D01*
X15646336Y85153903D01*
X15432170Y85054035D01*
X15238598Y84918495D01*
X15071505Y84751402D01*
X14935965Y84557830D01*
X14836097Y84343664D01*
X14774936Y84115408D01*
X14754340Y83880000D01*
X14774936Y83644593D01*
X14808671Y83518694D01*
X14836097Y83416337D01*
X14935965Y83202170D01*
X15071505Y83008599D01*
X15238599Y82841505D01*
X15424160Y82711574D01*
X15463024Y82667257D01*
X15477035Y82610000D01*
X15463024Y82552743D01*
X15424158Y82508425D01*
X15253231Y82388740D01*
X15238595Y82378492D01*
X15071505Y82211402D01*
X14935965Y82017830D01*
X14836097Y81803664D01*
X14774936Y81575408D01*
X14754340Y81340000D01*
X3823219Y81340000D01*
X4023777Y81452559D01*
X4238177Y81618112D01*
X4426186Y81813119D01*
X4583799Y82033421D01*
X4707656Y82274325D01*
X4795118Y82530695D01*
X4844319Y82797067D01*
X4854212Y83067765D01*
X4824586Y83337018D01*
X4756072Y83599088D01*
X4650130Y83848390D01*
X4509018Y84079610D01*
X4509017Y84079612D01*
X4335746Y84287819D01*
X4332500Y84290727D01*
X4134002Y84468582D01*
X3908090Y84618044D01*
X3908086Y84618046D01*
X3662822Y84733022D01*
X3403437Y84811059D01*
X3403431Y84811060D01*
X3135439Y84850500D01*
X2932369Y84850500D01*
X2932366Y84850500D01*
X2729843Y84835678D01*
X2465449Y84776781D01*
X2212441Y84680014D01*
X1976223Y84547441D01*
X1761825Y84381891D01*
X1573813Y84186880D01*
X1416201Y83966580D01*
X1292342Y83725671D01*
X1204881Y83469305D01*
X1155680Y83202934D01*
X1145787Y82932236D01*
X500Y82932236D01*
X500Y85875500D01*
X17113Y85937500D01*
X62500Y85982887D01*
X124500Y85999500D01*
X49875500Y85999500D01*
X49937500Y85982887D01*
G37*
%TD.AperFunction*%
%TD*%
M02*
