M48
; DRILL file {KiCad 7.0.1} date Wed Apr 12 13:53:48 2023
; FORMAT={-:-/ absolute / metric / decimal}
; #@! TF.CreationDate,2023-04-12T13:53:48+09:00
; #@! TF.GenerationSoftware,Kicad,Pcbnew,7.0.1
; #@! TF.FileFunction,Plated,1,2,PTH
FMAT,2
METRIC
; #@! TA.AperFunction,Plated,PTH,ViaDrill
T1C0.400
; #@! TA.AperFunction,Plated,PTH,ComponentDrill
T2C0.800
; #@! TA.AperFunction,Plated,PTH,ComponentDrill
T3C1.000
; #@! TA.AperFunction,Plated,PTH,ComponentDrill
T4C1.020
; #@! TA.AperFunction,Plated,PTH,ComponentDrill
T5C1.500
%
G90
G05
T1
X1.775Y31.525
X3.6Y26.45
X7.75Y23.75
X9.425Y10.575
X9.425Y5.4
X14.25Y22.65
X15.375Y31.9
X16.2Y31.025
X18.125Y29.775
X18.95Y17.8
X19.65Y14.8
X21.475Y22.625
X22.45Y31.9
X22.475Y23.75
X23.725Y48.325
X25.0Y29.8
X26.25Y50.85
X27.525Y31.025
X29.85Y55.925
X31.8Y15.85
X32.25Y45.75
X36.875Y8.65
X38.575Y8.65
X44.0Y50.875
X46.05Y13.025
X47.15Y13.0
T2
X3.3Y76.4
X3.3Y71.4
X46.75Y76.4
X46.75Y71.4
T3
X8.49Y2.0
X10.6Y31.525
X10.6Y28.985
X10.6Y26.445
X10.6Y19.725
X10.6Y17.185
X10.6Y14.645
X11.03Y2.0
X13.57Y2.0
X16.095Y11.275
X16.095Y8.735
X16.11Y2.0
X18.635Y11.275
X18.635Y8.735
X18.65Y2.0
X21.175Y11.275
X21.175Y8.735
X21.19Y2.0
X22.5Y72.25
X23.715Y11.275
X23.715Y8.735
X23.73Y2.0
X26.255Y11.275
X26.255Y8.735
X26.27Y2.0
X28.795Y11.275
X28.795Y8.735
X28.81Y2.0
X31.335Y11.275
X31.335Y8.735
X31.35Y2.0
X33.875Y11.275
X33.875Y8.735
X33.89Y2.0
X36.43Y2.0
X38.97Y2.0
X41.51Y2.0
T4
X16.11Y83.88
X16.11Y81.34
X16.11Y78.8
X16.11Y76.26
X16.11Y73.72
X16.11Y71.18
X16.11Y68.64
X16.11Y66.1
X16.11Y63.56
X16.11Y61.02
X16.11Y58.48
X16.11Y55.94
X16.11Y53.4
X16.11Y50.86
X16.11Y48.32
X16.11Y45.78
X16.11Y43.24
X16.11Y40.7
X16.11Y38.16
X16.11Y35.62
X22.46Y35.85
X25.0Y35.85
X27.54Y35.85
X33.89Y83.88
X33.89Y81.34
X33.89Y78.8
X33.89Y76.26
X33.89Y73.72
X33.89Y71.18
X33.89Y68.64
X33.89Y66.1
X33.89Y63.56
X33.89Y61.02
X33.89Y58.48
X33.89Y55.94
X33.89Y53.4
X33.89Y50.86
X33.89Y48.32
X33.89Y45.78
X33.89Y43.24
X33.89Y40.7
X33.89Y38.16
X33.89Y35.62
T5
X5.8Y77.4
X5.8Y70.4
X44.25Y77.4
X44.25Y70.4
T0
M30
