%TF.GenerationSoftware,KiCad,Pcbnew,7.0.1*%
%TF.CreationDate,2023-04-12T14:45:20+09:00*%
%TF.ProjectId,KiCad_SP,4b694361-645f-4535-902e-6b696361645f,rev?*%
%TF.SameCoordinates,PX6422c40PY8a48640*%
%TF.FileFunction,Legend,Top*%
%TF.FilePolarity,Positive*%
%FSLAX46Y46*%
G04 Gerber Fmt 4.6, Leading zero omitted, Abs format (unit mm)*
G04 Created by KiCad (PCBNEW 7.0.1) date 2023-04-12 14:45:20*
%MOMM*%
%LPD*%
G01*
G04 APERTURE LIST*
%ADD10C,0.150000*%
%ADD11C,0.120000*%
G04 APERTURE END LIST*
D10*
X29000000Y32000000D02*
X21000000Y32000000D01*
X29000000Y16000000D02*
G75*
G03*
X29000000Y32000000I0J8000000D01*
G01*
X21000000Y16000000D02*
X29000000Y16000000D01*
X21000000Y32000000D02*
G75*
G03*
X21000000Y16000000I0J-8000000D01*
G01*
%TO.C,J1*%
X5812619Y2116667D02*
X6526904Y2116667D01*
X6526904Y2116667D02*
X6669761Y2069048D01*
X6669761Y2069048D02*
X6765000Y1973810D01*
X6765000Y1973810D02*
X6812619Y1830953D01*
X6812619Y1830953D02*
X6812619Y1735715D01*
X6812619Y3116667D02*
X6812619Y2545239D01*
X6812619Y2830953D02*
X5812619Y2830953D01*
X5812619Y2830953D02*
X5955476Y2735715D01*
X5955476Y2735715D02*
X6050714Y2640477D01*
X6050714Y2640477D02*
X6098333Y2545239D01*
D11*
%TO.C,TP2*%
X7800000Y22300000D02*
X7800000Y23700000D01*
X9200000Y22300000D02*
X7800000Y22300000D01*
X7800000Y23700000D02*
X9200000Y23700000D01*
X9200000Y23700000D02*
X9200000Y22300000D01*
%TO.C,TP1*%
X6150000Y22300000D02*
X4750000Y22300000D01*
X6150000Y23700000D02*
X6150000Y22300000D01*
X4750000Y22300000D02*
X4750000Y23700000D01*
X4750000Y23700000D02*
X6150000Y23700000D01*
%TO.C,J1*%
X8205000Y1555000D02*
X8205000Y2825000D01*
X9475000Y1555000D02*
X8205000Y1555000D01*
X11635000Y3867929D02*
X11635000Y4265000D01*
X12395000Y3867929D02*
X12395000Y4265000D01*
X9095000Y3935000D02*
X9095000Y4265000D01*
X9855000Y3935000D02*
X9855000Y4265000D01*
X8145000Y4265000D02*
X13345000Y4265000D01*
X10745000Y4265000D02*
X10745000Y6925000D01*
X13345000Y4265000D02*
X13345000Y6925000D01*
X8145000Y6925000D02*
X8145000Y4265000D01*
X9095000Y6925000D02*
X9095000Y12925000D01*
X9155000Y6925000D02*
X9155000Y12925000D01*
X9275000Y6925000D02*
X9275000Y12925000D01*
X9395000Y6925000D02*
X9395000Y12925000D01*
X9515000Y6925000D02*
X9515000Y12925000D01*
X9635000Y6925000D02*
X9635000Y12925000D01*
X9755000Y6925000D02*
X9755000Y12925000D01*
X11635000Y6925000D02*
X11635000Y12925000D01*
X13345000Y6925000D02*
X8145000Y6925000D01*
X9095000Y12925000D02*
X9855000Y12925000D01*
X9855000Y12925000D02*
X9855000Y6925000D01*
X11635000Y12925000D02*
X12395000Y12925000D01*
X12395000Y12925000D02*
X12395000Y6925000D01*
%TD*%
M02*
