%TF.GenerationSoftware,KiCad,Pcbnew,7.0.1*%
%TF.CreationDate,2023-04-12T14:45:20+09:00*%
%TF.ProjectId,KiCad_SP,4b694361-645f-4535-902e-6b696361645f,rev?*%
%TF.SameCoordinates,PX6422c40PY8a48640*%
%TF.FileFunction,Legend,Bot*%
%TF.FilePolarity,Positive*%
%FSLAX46Y46*%
G04 Gerber Fmt 4.6, Leading zero omitted, Abs format (unit mm)*
G04 Created by KiCad (PCBNEW 7.0.1) date 2023-04-12 14:45:20*
%MOMM*%
%LPD*%
G01*
G04 APERTURE LIST*
%ADD10C,0.150000*%
G04 APERTURE END LIST*
D10*
X43182619Y58155954D02*
X42706428Y58489287D01*
X43182619Y58727382D02*
X42182619Y58727382D01*
X42182619Y58727382D02*
X42182619Y58346430D01*
X42182619Y58346430D02*
X42230238Y58251192D01*
X42230238Y58251192D02*
X42277857Y58203573D01*
X42277857Y58203573D02*
X42373095Y58155954D01*
X42373095Y58155954D02*
X42515952Y58155954D01*
X42515952Y58155954D02*
X42611190Y58203573D01*
X42611190Y58203573D02*
X42658809Y58251192D01*
X42658809Y58251192D02*
X42706428Y58346430D01*
X42706428Y58346430D02*
X42706428Y58727382D01*
X43182619Y57298811D02*
X42658809Y57298811D01*
X42658809Y57298811D02*
X42563571Y57346430D01*
X42563571Y57346430D02*
X42515952Y57441668D01*
X42515952Y57441668D02*
X42515952Y57632144D01*
X42515952Y57632144D02*
X42563571Y57727382D01*
X43135000Y57298811D02*
X43182619Y57394049D01*
X43182619Y57394049D02*
X43182619Y57632144D01*
X43182619Y57632144D02*
X43135000Y57727382D01*
X43135000Y57727382D02*
X43039761Y57775001D01*
X43039761Y57775001D02*
X42944523Y57775001D01*
X42944523Y57775001D02*
X42849285Y57727382D01*
X42849285Y57727382D02*
X42801666Y57632144D01*
X42801666Y57632144D02*
X42801666Y57394049D01*
X42801666Y57394049D02*
X42754047Y57298811D01*
X43135000Y56870239D02*
X43182619Y56775001D01*
X43182619Y56775001D02*
X43182619Y56584525D01*
X43182619Y56584525D02*
X43135000Y56489287D01*
X43135000Y56489287D02*
X43039761Y56441668D01*
X43039761Y56441668D02*
X42992142Y56441668D01*
X42992142Y56441668D02*
X42896904Y56489287D01*
X42896904Y56489287D02*
X42849285Y56584525D01*
X42849285Y56584525D02*
X42849285Y56727382D01*
X42849285Y56727382D02*
X42801666Y56822620D01*
X42801666Y56822620D02*
X42706428Y56870239D01*
X42706428Y56870239D02*
X42658809Y56870239D01*
X42658809Y56870239D02*
X42563571Y56822620D01*
X42563571Y56822620D02*
X42515952Y56727382D01*
X42515952Y56727382D02*
X42515952Y56584525D01*
X42515952Y56584525D02*
X42563571Y56489287D01*
X42515952Y56013096D02*
X43515952Y56013096D01*
X42563571Y56013096D02*
X42515952Y55917858D01*
X42515952Y55917858D02*
X42515952Y55727382D01*
X42515952Y55727382D02*
X42563571Y55632144D01*
X42563571Y55632144D02*
X42611190Y55584525D01*
X42611190Y55584525D02*
X42706428Y55536906D01*
X42706428Y55536906D02*
X42992142Y55536906D01*
X42992142Y55536906D02*
X43087380Y55584525D01*
X43087380Y55584525D02*
X43135000Y55632144D01*
X43135000Y55632144D02*
X43182619Y55727382D01*
X43182619Y55727382D02*
X43182619Y55917858D01*
X43182619Y55917858D02*
X43135000Y56013096D01*
X43182619Y55108334D02*
X42182619Y55108334D01*
X42563571Y55108334D02*
X42515952Y55013096D01*
X42515952Y55013096D02*
X42515952Y54822620D01*
X42515952Y54822620D02*
X42563571Y54727382D01*
X42563571Y54727382D02*
X42611190Y54679763D01*
X42611190Y54679763D02*
X42706428Y54632144D01*
X42706428Y54632144D02*
X42992142Y54632144D01*
X42992142Y54632144D02*
X43087380Y54679763D01*
X43087380Y54679763D02*
X43135000Y54727382D01*
X43135000Y54727382D02*
X43182619Y54822620D01*
X43182619Y54822620D02*
X43182619Y55013096D01*
X43182619Y55013096D02*
X43135000Y55108334D01*
X43135000Y53822620D02*
X43182619Y53917858D01*
X43182619Y53917858D02*
X43182619Y54108334D01*
X43182619Y54108334D02*
X43135000Y54203572D01*
X43135000Y54203572D02*
X43039761Y54251191D01*
X43039761Y54251191D02*
X42658809Y54251191D01*
X42658809Y54251191D02*
X42563571Y54203572D01*
X42563571Y54203572D02*
X42515952Y54108334D01*
X42515952Y54108334D02*
X42515952Y53917858D01*
X42515952Y53917858D02*
X42563571Y53822620D01*
X42563571Y53822620D02*
X42658809Y53775001D01*
X42658809Y53775001D02*
X42754047Y53775001D01*
X42754047Y53775001D02*
X42849285Y54251191D01*
X43182619Y53346429D02*
X42515952Y53346429D01*
X42706428Y53346429D02*
X42611190Y53298810D01*
X42611190Y53298810D02*
X42563571Y53251191D01*
X42563571Y53251191D02*
X42515952Y53155953D01*
X42515952Y53155953D02*
X42515952Y53060715D01*
X43182619Y52727381D02*
X42515952Y52727381D01*
X42706428Y52727381D02*
X42611190Y52679762D01*
X42611190Y52679762D02*
X42563571Y52632143D01*
X42563571Y52632143D02*
X42515952Y52536905D01*
X42515952Y52536905D02*
X42515952Y52441667D01*
X42515952Y52203571D02*
X43182619Y51965476D01*
X42515952Y51727381D02*
X43182619Y51965476D01*
X43182619Y51965476D02*
X43420714Y52060714D01*
X43420714Y52060714D02*
X43468333Y52108333D01*
X43468333Y52108333D02*
X43515952Y52203571D01*
X43182619Y50584523D02*
X42182619Y50584523D01*
X42182619Y50584523D02*
X42182619Y50203571D01*
X42182619Y50203571D02*
X42230238Y50108333D01*
X42230238Y50108333D02*
X42277857Y50060714D01*
X42277857Y50060714D02*
X42373095Y50013095D01*
X42373095Y50013095D02*
X42515952Y50013095D01*
X42515952Y50013095D02*
X42611190Y50060714D01*
X42611190Y50060714D02*
X42658809Y50108333D01*
X42658809Y50108333D02*
X42706428Y50203571D01*
X42706428Y50203571D02*
X42706428Y50584523D01*
X43182619Y49584523D02*
X42515952Y49584523D01*
X42182619Y49584523D02*
X42230238Y49632142D01*
X42230238Y49632142D02*
X42277857Y49584523D01*
X42277857Y49584523D02*
X42230238Y49536904D01*
X42230238Y49536904D02*
X42182619Y49584523D01*
X42182619Y49584523D02*
X42277857Y49584523D01*
X43182619Y48346428D02*
X42182619Y48346428D01*
X42182619Y48346428D02*
X42182619Y47965476D01*
X42182619Y47965476D02*
X42230238Y47870238D01*
X42230238Y47870238D02*
X42277857Y47822619D01*
X42277857Y47822619D02*
X42373095Y47775000D01*
X42373095Y47775000D02*
X42515952Y47775000D01*
X42515952Y47775000D02*
X42611190Y47822619D01*
X42611190Y47822619D02*
X42658809Y47870238D01*
X42658809Y47870238D02*
X42706428Y47965476D01*
X42706428Y47965476D02*
X42706428Y48346428D01*
X43182619Y47346428D02*
X42515952Y47346428D01*
X42182619Y47346428D02*
X42230238Y47394047D01*
X42230238Y47394047D02*
X42277857Y47346428D01*
X42277857Y47346428D02*
X42230238Y47298809D01*
X42230238Y47298809D02*
X42182619Y47346428D01*
X42182619Y47346428D02*
X42277857Y47346428D01*
X43135000Y46441667D02*
X43182619Y46536905D01*
X43182619Y46536905D02*
X43182619Y46727381D01*
X43182619Y46727381D02*
X43135000Y46822619D01*
X43135000Y46822619D02*
X43087380Y46870238D01*
X43087380Y46870238D02*
X42992142Y46917857D01*
X42992142Y46917857D02*
X42706428Y46917857D01*
X42706428Y46917857D02*
X42611190Y46870238D01*
X42611190Y46870238D02*
X42563571Y46822619D01*
X42563571Y46822619D02*
X42515952Y46727381D01*
X42515952Y46727381D02*
X42515952Y46536905D01*
X42515952Y46536905D02*
X42563571Y46441667D01*
X43182619Y45870238D02*
X43135000Y45965476D01*
X43135000Y45965476D02*
X43087380Y46013095D01*
X43087380Y46013095D02*
X42992142Y46060714D01*
X42992142Y46060714D02*
X42706428Y46060714D01*
X42706428Y46060714D02*
X42611190Y46013095D01*
X42611190Y46013095D02*
X42563571Y45965476D01*
X42563571Y45965476D02*
X42515952Y45870238D01*
X42515952Y45870238D02*
X42515952Y45727381D01*
X42515952Y45727381D02*
X42563571Y45632143D01*
X42563571Y45632143D02*
X42611190Y45584524D01*
X42611190Y45584524D02*
X42706428Y45536905D01*
X42706428Y45536905D02*
X42992142Y45536905D01*
X42992142Y45536905D02*
X43087380Y45584524D01*
X43087380Y45584524D02*
X43135000Y45632143D01*
X43135000Y45632143D02*
X43182619Y45727381D01*
X43182619Y45727381D02*
X43182619Y45870238D01*
X42135000Y43632143D02*
X43420714Y44489285D01*
X43135000Y42584523D02*
X43182619Y42441666D01*
X43182619Y42441666D02*
X43182619Y42203571D01*
X43182619Y42203571D02*
X43135000Y42108333D01*
X43135000Y42108333D02*
X43087380Y42060714D01*
X43087380Y42060714D02*
X42992142Y42013095D01*
X42992142Y42013095D02*
X42896904Y42013095D01*
X42896904Y42013095D02*
X42801666Y42060714D01*
X42801666Y42060714D02*
X42754047Y42108333D01*
X42754047Y42108333D02*
X42706428Y42203571D01*
X42706428Y42203571D02*
X42658809Y42394047D01*
X42658809Y42394047D02*
X42611190Y42489285D01*
X42611190Y42489285D02*
X42563571Y42536904D01*
X42563571Y42536904D02*
X42468333Y42584523D01*
X42468333Y42584523D02*
X42373095Y42584523D01*
X42373095Y42584523D02*
X42277857Y42536904D01*
X42277857Y42536904D02*
X42230238Y42489285D01*
X42230238Y42489285D02*
X42182619Y42394047D01*
X42182619Y42394047D02*
X42182619Y42155952D01*
X42182619Y42155952D02*
X42230238Y42013095D01*
X43182619Y41584523D02*
X42182619Y41584523D01*
X42515952Y40679762D02*
X43182619Y40679762D01*
X42135000Y40917857D02*
X42849285Y41155952D01*
X42849285Y41155952D02*
X42849285Y40536905D01*
X42182619Y40251190D02*
X42182619Y39584524D01*
X42182619Y39584524D02*
X43182619Y40013095D01*
X42182619Y39298809D02*
X42182619Y38679762D01*
X42182619Y38679762D02*
X42563571Y39013095D01*
X42563571Y39013095D02*
X42563571Y38870238D01*
X42563571Y38870238D02*
X42611190Y38775000D01*
X42611190Y38775000D02*
X42658809Y38727381D01*
X42658809Y38727381D02*
X42754047Y38679762D01*
X42754047Y38679762D02*
X42992142Y38679762D01*
X42992142Y38679762D02*
X43087380Y38727381D01*
X43087380Y38727381D02*
X43135000Y38775000D01*
X43135000Y38775000D02*
X43182619Y38870238D01*
X43182619Y38870238D02*
X43182619Y39155952D01*
X43182619Y39155952D02*
X43135000Y39251190D01*
X43135000Y39251190D02*
X43087380Y39298809D01*
X42182619Y37775000D02*
X42182619Y38251190D01*
X42182619Y38251190D02*
X42658809Y38298809D01*
X42658809Y38298809D02*
X42611190Y38251190D01*
X42611190Y38251190D02*
X42563571Y38155952D01*
X42563571Y38155952D02*
X42563571Y37917857D01*
X42563571Y37917857D02*
X42611190Y37822619D01*
X42611190Y37822619D02*
X42658809Y37775000D01*
X42658809Y37775000D02*
X42754047Y37727381D01*
X42754047Y37727381D02*
X42992142Y37727381D01*
X42992142Y37727381D02*
X43087380Y37775000D01*
X43087380Y37775000D02*
X43135000Y37822619D01*
X43135000Y37822619D02*
X43182619Y37917857D01*
X43182619Y37917857D02*
X43182619Y38155952D01*
X43182619Y38155952D02*
X43135000Y38251190D01*
X43135000Y38251190D02*
X43087380Y38298809D01*
X43182619Y35965476D02*
X42706428Y36298809D01*
X43182619Y36536904D02*
X42182619Y36536904D01*
X42182619Y36536904D02*
X42182619Y36155952D01*
X42182619Y36155952D02*
X42230238Y36060714D01*
X42230238Y36060714D02*
X42277857Y36013095D01*
X42277857Y36013095D02*
X42373095Y35965476D01*
X42373095Y35965476D02*
X42515952Y35965476D01*
X42515952Y35965476D02*
X42611190Y36013095D01*
X42611190Y36013095D02*
X42658809Y36060714D01*
X42658809Y36060714D02*
X42706428Y36155952D01*
X42706428Y36155952D02*
X42706428Y36536904D01*
X43182619Y35108333D02*
X42658809Y35108333D01*
X42658809Y35108333D02*
X42563571Y35155952D01*
X42563571Y35155952D02*
X42515952Y35251190D01*
X42515952Y35251190D02*
X42515952Y35441666D01*
X42515952Y35441666D02*
X42563571Y35536904D01*
X43135000Y35108333D02*
X43182619Y35203571D01*
X43182619Y35203571D02*
X43182619Y35441666D01*
X43182619Y35441666D02*
X43135000Y35536904D01*
X43135000Y35536904D02*
X43039761Y35584523D01*
X43039761Y35584523D02*
X42944523Y35584523D01*
X42944523Y35584523D02*
X42849285Y35536904D01*
X42849285Y35536904D02*
X42801666Y35441666D01*
X42801666Y35441666D02*
X42801666Y35203571D01*
X42801666Y35203571D02*
X42754047Y35108333D01*
X43182619Y34203571D02*
X42182619Y34203571D01*
X43135000Y34203571D02*
X43182619Y34298809D01*
X43182619Y34298809D02*
X43182619Y34489285D01*
X43182619Y34489285D02*
X43135000Y34584523D01*
X43135000Y34584523D02*
X43087380Y34632142D01*
X43087380Y34632142D02*
X42992142Y34679761D01*
X42992142Y34679761D02*
X42706428Y34679761D01*
X42706428Y34679761D02*
X42611190Y34632142D01*
X42611190Y34632142D02*
X42563571Y34584523D01*
X42563571Y34584523D02*
X42515952Y34489285D01*
X42515952Y34489285D02*
X42515952Y34298809D01*
X42515952Y34298809D02*
X42563571Y34203571D01*
X43182619Y33727380D02*
X42515952Y33727380D01*
X42182619Y33727380D02*
X42230238Y33774999D01*
X42230238Y33774999D02*
X42277857Y33727380D01*
X42277857Y33727380D02*
X42230238Y33679761D01*
X42230238Y33679761D02*
X42182619Y33727380D01*
X42182619Y33727380D02*
X42277857Y33727380D01*
X43182619Y33108333D02*
X43135000Y33203571D01*
X43135000Y33203571D02*
X43087380Y33251190D01*
X43087380Y33251190D02*
X42992142Y33298809D01*
X42992142Y33298809D02*
X42706428Y33298809D01*
X42706428Y33298809D02*
X42611190Y33251190D01*
X42611190Y33251190D02*
X42563571Y33203571D01*
X42563571Y33203571D02*
X42515952Y33108333D01*
X42515952Y33108333D02*
X42515952Y32965476D01*
X42515952Y32965476D02*
X42563571Y32870238D01*
X42563571Y32870238D02*
X42611190Y32822619D01*
X42611190Y32822619D02*
X42706428Y32775000D01*
X42706428Y32775000D02*
X42992142Y32775000D01*
X42992142Y32775000D02*
X43087380Y32822619D01*
X43087380Y32822619D02*
X43135000Y32870238D01*
X43135000Y32870238D02*
X43182619Y32965476D01*
X43182619Y32965476D02*
X43182619Y33108333D01*
X43802619Y54441668D02*
X44516904Y54441668D01*
X44516904Y54441668D02*
X44659761Y54489287D01*
X44659761Y54489287D02*
X44755000Y54584525D01*
X44755000Y54584525D02*
X44802619Y54727382D01*
X44802619Y54727382D02*
X44802619Y54822620D01*
X44802619Y53965477D02*
X43802619Y53965477D01*
X43802619Y53965477D02*
X43802619Y53584525D01*
X43802619Y53584525D02*
X43850238Y53489287D01*
X43850238Y53489287D02*
X43897857Y53441668D01*
X43897857Y53441668D02*
X43993095Y53394049D01*
X43993095Y53394049D02*
X44135952Y53394049D01*
X44135952Y53394049D02*
X44231190Y53441668D01*
X44231190Y53441668D02*
X44278809Y53489287D01*
X44278809Y53489287D02*
X44326428Y53584525D01*
X44326428Y53584525D02*
X44326428Y53965477D01*
X43802619Y53060715D02*
X43802619Y52441668D01*
X43802619Y52441668D02*
X44183571Y52775001D01*
X44183571Y52775001D02*
X44183571Y52632144D01*
X44183571Y52632144D02*
X44231190Y52536906D01*
X44231190Y52536906D02*
X44278809Y52489287D01*
X44278809Y52489287D02*
X44374047Y52441668D01*
X44374047Y52441668D02*
X44612142Y52441668D01*
X44612142Y52441668D02*
X44707380Y52489287D01*
X44707380Y52489287D02*
X44755000Y52536906D01*
X44755000Y52536906D02*
X44802619Y52632144D01*
X44802619Y52632144D02*
X44802619Y52917858D01*
X44802619Y52917858D02*
X44755000Y53013096D01*
X44755000Y53013096D02*
X44707380Y53060715D01*
X44755000Y52060715D02*
X44802619Y51917858D01*
X44802619Y51917858D02*
X44802619Y51679763D01*
X44802619Y51679763D02*
X44755000Y51584525D01*
X44755000Y51584525D02*
X44707380Y51536906D01*
X44707380Y51536906D02*
X44612142Y51489287D01*
X44612142Y51489287D02*
X44516904Y51489287D01*
X44516904Y51489287D02*
X44421666Y51536906D01*
X44421666Y51536906D02*
X44374047Y51584525D01*
X44374047Y51584525D02*
X44326428Y51679763D01*
X44326428Y51679763D02*
X44278809Y51870239D01*
X44278809Y51870239D02*
X44231190Y51965477D01*
X44231190Y51965477D02*
X44183571Y52013096D01*
X44183571Y52013096D02*
X44088333Y52060715D01*
X44088333Y52060715D02*
X43993095Y52060715D01*
X43993095Y52060715D02*
X43897857Y52013096D01*
X43897857Y52013096D02*
X43850238Y51965477D01*
X43850238Y51965477D02*
X43802619Y51870239D01*
X43802619Y51870239D02*
X43802619Y51632144D01*
X43802619Y51632144D02*
X43850238Y51489287D01*
X44802619Y50489287D02*
X44326428Y50822620D01*
X44802619Y51060715D02*
X43802619Y51060715D01*
X43802619Y51060715D02*
X43802619Y50679763D01*
X43802619Y50679763D02*
X43850238Y50584525D01*
X43850238Y50584525D02*
X43897857Y50536906D01*
X43897857Y50536906D02*
X43993095Y50489287D01*
X43993095Y50489287D02*
X44135952Y50489287D01*
X44135952Y50489287D02*
X44231190Y50536906D01*
X44231190Y50536906D02*
X44278809Y50584525D01*
X44278809Y50584525D02*
X44326428Y50679763D01*
X44326428Y50679763D02*
X44326428Y51060715D01*
X44755000Y50108334D02*
X44802619Y49965477D01*
X44802619Y49965477D02*
X44802619Y49727382D01*
X44802619Y49727382D02*
X44755000Y49632144D01*
X44755000Y49632144D02*
X44707380Y49584525D01*
X44707380Y49584525D02*
X44612142Y49536906D01*
X44612142Y49536906D02*
X44516904Y49536906D01*
X44516904Y49536906D02*
X44421666Y49584525D01*
X44421666Y49584525D02*
X44374047Y49632144D01*
X44374047Y49632144D02*
X44326428Y49727382D01*
X44326428Y49727382D02*
X44278809Y49917858D01*
X44278809Y49917858D02*
X44231190Y50013096D01*
X44231190Y50013096D02*
X44183571Y50060715D01*
X44183571Y50060715D02*
X44088333Y50108334D01*
X44088333Y50108334D02*
X43993095Y50108334D01*
X43993095Y50108334D02*
X43897857Y50060715D01*
X43897857Y50060715D02*
X43850238Y50013096D01*
X43850238Y50013096D02*
X43802619Y49917858D01*
X43802619Y49917858D02*
X43802619Y49679763D01*
X43802619Y49679763D02*
X43850238Y49536906D01*
X44802619Y48346429D02*
X44135952Y48346429D01*
X44326428Y48346429D02*
X44231190Y48298810D01*
X44231190Y48298810D02*
X44183571Y48251191D01*
X44183571Y48251191D02*
X44135952Y48155953D01*
X44135952Y48155953D02*
X44135952Y48060715D01*
X44755000Y47346429D02*
X44802619Y47441667D01*
X44802619Y47441667D02*
X44802619Y47632143D01*
X44802619Y47632143D02*
X44755000Y47727381D01*
X44755000Y47727381D02*
X44659761Y47775000D01*
X44659761Y47775000D02*
X44278809Y47775000D01*
X44278809Y47775000D02*
X44183571Y47727381D01*
X44183571Y47727381D02*
X44135952Y47632143D01*
X44135952Y47632143D02*
X44135952Y47441667D01*
X44135952Y47441667D02*
X44183571Y47346429D01*
X44183571Y47346429D02*
X44278809Y47298810D01*
X44278809Y47298810D02*
X44374047Y47298810D01*
X44374047Y47298810D02*
X44469285Y47775000D01*
X44802619Y46727381D02*
X44755000Y46822619D01*
X44755000Y46822619D02*
X44659761Y46870238D01*
X44659761Y46870238D02*
X43802619Y46870238D01*
X44707380Y46346428D02*
X44755000Y46298809D01*
X44755000Y46298809D02*
X44802619Y46346428D01*
X44802619Y46346428D02*
X44755000Y46394047D01*
X44755000Y46394047D02*
X44707380Y46346428D01*
X44707380Y46346428D02*
X44802619Y46346428D01*
X43897857Y45155952D02*
X43850238Y45108333D01*
X43850238Y45108333D02*
X43802619Y45013095D01*
X43802619Y45013095D02*
X43802619Y44775000D01*
X43802619Y44775000D02*
X43850238Y44679762D01*
X43850238Y44679762D02*
X43897857Y44632143D01*
X43897857Y44632143D02*
X43993095Y44584524D01*
X43993095Y44584524D02*
X44088333Y44584524D01*
X44088333Y44584524D02*
X44231190Y44632143D01*
X44231190Y44632143D02*
X44802619Y45203571D01*
X44802619Y45203571D02*
X44802619Y44584524D01*
X43802619Y43965476D02*
X43802619Y43870238D01*
X43802619Y43870238D02*
X43850238Y43775000D01*
X43850238Y43775000D02*
X43897857Y43727381D01*
X43897857Y43727381D02*
X43993095Y43679762D01*
X43993095Y43679762D02*
X44183571Y43632143D01*
X44183571Y43632143D02*
X44421666Y43632143D01*
X44421666Y43632143D02*
X44612142Y43679762D01*
X44612142Y43679762D02*
X44707380Y43727381D01*
X44707380Y43727381D02*
X44755000Y43775000D01*
X44755000Y43775000D02*
X44802619Y43870238D01*
X44802619Y43870238D02*
X44802619Y43965476D01*
X44802619Y43965476D02*
X44755000Y44060714D01*
X44755000Y44060714D02*
X44707380Y44108333D01*
X44707380Y44108333D02*
X44612142Y44155952D01*
X44612142Y44155952D02*
X44421666Y44203571D01*
X44421666Y44203571D02*
X44183571Y44203571D01*
X44183571Y44203571D02*
X43993095Y44155952D01*
X43993095Y44155952D02*
X43897857Y44108333D01*
X43897857Y44108333D02*
X43850238Y44060714D01*
X43850238Y44060714D02*
X43802619Y43965476D01*
X43897857Y43251190D02*
X43850238Y43203571D01*
X43850238Y43203571D02*
X43802619Y43108333D01*
X43802619Y43108333D02*
X43802619Y42870238D01*
X43802619Y42870238D02*
X43850238Y42775000D01*
X43850238Y42775000D02*
X43897857Y42727381D01*
X43897857Y42727381D02*
X43993095Y42679762D01*
X43993095Y42679762D02*
X44088333Y42679762D01*
X44088333Y42679762D02*
X44231190Y42727381D01*
X44231190Y42727381D02*
X44802619Y43298809D01*
X44802619Y43298809D02*
X44802619Y42679762D01*
X43802619Y42346428D02*
X43802619Y41727381D01*
X43802619Y41727381D02*
X44183571Y42060714D01*
X44183571Y42060714D02*
X44183571Y41917857D01*
X44183571Y41917857D02*
X44231190Y41822619D01*
X44231190Y41822619D02*
X44278809Y41775000D01*
X44278809Y41775000D02*
X44374047Y41727381D01*
X44374047Y41727381D02*
X44612142Y41727381D01*
X44612142Y41727381D02*
X44707380Y41775000D01*
X44707380Y41775000D02*
X44755000Y41822619D01*
X44755000Y41822619D02*
X44802619Y41917857D01*
X44802619Y41917857D02*
X44802619Y42203571D01*
X44802619Y42203571D02*
X44755000Y42298809D01*
X44755000Y42298809D02*
X44707380Y42346428D01*
X43755000Y40584524D02*
X45040714Y41441666D01*
X44135952Y39822619D02*
X44802619Y39822619D01*
X43755000Y40060714D02*
X44469285Y40298809D01*
X44469285Y40298809D02*
X44469285Y39679762D01*
X43755000Y38584524D02*
X45040714Y39441666D01*
X44802619Y37727381D02*
X44802619Y38298809D01*
X44802619Y38013095D02*
X43802619Y38013095D01*
X43802619Y38013095D02*
X43945476Y38108333D01*
X43945476Y38108333D02*
X44040714Y38203571D01*
X44040714Y38203571D02*
X44088333Y38298809D01*
X43897857Y37346428D02*
X43850238Y37298809D01*
X43850238Y37298809D02*
X43802619Y37203571D01*
X43802619Y37203571D02*
X43802619Y36965476D01*
X43802619Y36965476D02*
X43850238Y36870238D01*
X43850238Y36870238D02*
X43897857Y36822619D01*
X43897857Y36822619D02*
X43993095Y36775000D01*
X43993095Y36775000D02*
X44088333Y36775000D01*
X44088333Y36775000D02*
X44231190Y36822619D01*
X44231190Y36822619D02*
X44802619Y37394047D01*
X44802619Y37394047D02*
X44802619Y36775000D01*
M02*
