M48
; DRILL file {KiCad 7.0.1} date Wed Apr 12 14:42:21 2023
; FORMAT={-:-/ absolute / metric / decimal}
; #@! TF.CreationDate,2023-04-12T14:42:21+09:00
; #@! TF.GenerationSoftware,Kicad,Pcbnew,7.0.1
; #@! TF.FileFunction,Plated,1,4,PTH
FMAT,2
METRIC
; #@! TA.AperFunction,Plated,PTH,ViaDrill
T1C0.400
; #@! TA.AperFunction,Plated,PTH,ComponentDrill
T2C0.800
; #@! TA.AperFunction,Plated,PTH,ComponentDrill
T3C1.000
; #@! TA.AperFunction,Plated,PTH,ComponentDrill
T4C1.400
%
G90
G05
T1
X3.1Y35.0
X3.4Y16.2
X5.0Y76.0
X5.0Y46.0
X7.0Y14.0
X7.0Y6.0
X8.0Y25.0
X10.0Y71.0
X10.0Y61.0
X10.0Y51.0
X10.9Y47.4
X13.7Y45.4
X13.7Y37.5
X15.0Y1.0
X17.0Y15.0
X19.5Y48.6
X19.5Y13.8
X20.0Y84.0
X20.5Y55.8
X20.5Y15.1
X21.5Y55.75
X22.4Y14.3
X22.5Y60.1
X23.1Y55.75
X23.4Y52.8
X23.6Y5.7
X23.8Y78.8
X24.0Y38.0
X24.2Y62.2
X25.0Y27.0
X25.3Y72.7
X25.3Y68.7
X25.4Y65.8
X27.05Y53.35
X29.0Y44.0
X29.6Y60.9
X29.6Y57.4
X29.8Y69.4
X30.0Y84.0
X30.1Y47.4
X31.3Y24.8
X32.35Y24.8
X33.7Y17.05
X33.7Y15.9
X35.0Y76.0
X35.0Y51.0
X35.0Y1.0
X35.1Y63.4
X35.1Y55.0
X40.0Y71.0
X42.0Y6.0
X45.0Y76.0
X45.0Y66.0
X45.0Y56.0
X45.0Y46.0
X47.0Y30.0
X47.0Y21.0
T2
X25.6Y76.5
X28.447Y38.9
X28.447Y29.7
X29.3Y78.5
X30.947Y38.9
X30.947Y29.7
X35.4Y71.7
X43.6Y68.7
T3
X2.9Y30.1
X5.4Y32.6
X5.4Y27.6
X9.435Y2.825
X11.975Y2.825
X14.825Y65.4
X14.825Y61.4
X14.825Y57.4
X16.095Y11.54
X16.095Y9.0
X18.635Y11.54
X18.635Y9.0
X21.175Y11.54
X21.175Y9.0
X23.715Y11.54
X23.715Y9.0
X26.255Y11.54
X26.255Y9.0
X28.795Y11.54
X28.795Y9.0
X31.335Y11.54
X31.335Y9.0
X33.875Y11.54
X33.875Y9.0
X39.625Y61.35
X39.625Y58.81
X39.625Y56.27
X39.625Y53.73
X39.625Y51.19
X39.625Y48.65
T4
X4.825Y66.4
X4.825Y56.4
T3
G00X36.188Y18.892
M15
G01X36.188Y21.192
M16
G05
G00X36.55Y42.45
M15
G01X36.55Y43.45
M16
G05
G00X39.987Y24.742
M15
G01X37.987Y24.742
M16
G05
G00X40.25Y33.9
M15
G01X39.25Y33.9
M16
G05
G00X41.65Y36.3
M15
G01X40.65Y36.3
M16
G05
G00X42.188Y19.043
M15
G01X42.188Y21.043
M16
G05
G00X44.75Y43.5
M15
G01X43.75Y43.5
M16
G05
G00X47.55Y38.45
M15
G01X47.55Y39.45
M16
G05
T0
M30
