%TF.GenerationSoftware,KiCad,Pcbnew,7.0.1*%
%TF.CreationDate,2023-04-12T14:42:12+09:00*%
%TF.ProjectId,KiCad-Si4735,4b694361-642d-4536-9934-3733352e6b69,rev?*%
%TF.SameCoordinates,PX6bc3e40PY88601c0*%
%TF.FileFunction,Soldermask,Bot*%
%TF.FilePolarity,Negative*%
%FSLAX46Y46*%
G04 Gerber Fmt 4.6, Leading zero omitted, Abs format (unit mm)*
G04 Created by KiCad (PCBNEW 7.0.1) date 2023-04-12 14:42:12*
%MOMM*%
%LPD*%
G01*
G04 APERTURE LIST*
G04 Aperture macros list*
%AMRoundRect*
0 Rectangle with rounded corners*
0 $1 Rounding radius*
0 $2 $3 $4 $5 $6 $7 $8 $9 X,Y pos of 4 corners*
0 Add a 4 corners polygon primitive as box body*
4,1,4,$2,$3,$4,$5,$6,$7,$8,$9,$2,$3,0*
0 Add four circle primitives for the rounded corners*
1,1,$1+$1,$2,$3*
1,1,$1+$1,$4,$5*
1,1,$1+$1,$6,$7*
1,1,$1+$1,$8,$9*
0 Add four rect primitives between the rounded corners*
20,1,$1+$1,$2,$3,$4,$5,0*
20,1,$1+$1,$4,$5,$6,$7,0*
20,1,$1+$1,$6,$7,$8,$9,0*
20,1,$1+$1,$8,$9,$2,$3,0*%
G04 Aperture macros list end*
%ADD10C,3.200000*%
%ADD11R,1.700000X1.700000*%
%ADD12O,1.700000X1.700000*%
%ADD13R,3.000000X3.600000*%
%ADD14RoundRect,0.750000X0.750000X1.000000X-0.750000X1.000000X-0.750000X-1.000000X0.750000X-1.000000X0*%
%ADD15RoundRect,0.875000X0.875000X0.875000X-0.875000X0.875000X-0.875000X-0.875000X0.875000X-0.875000X0*%
%ADD16C,1.800000*%
%ADD17C,1.600000*%
%ADD18R,1.600000X1.600000*%
%ADD19R,1.350000X4.200000*%
%ADD20C,3.000000*%
%ADD21O,3.200000X2.200000*%
%ADD22O,2.200000X3.200000*%
G04 APERTURE END LIST*
D10*
%TO.C,H4*%
X3000000Y6920000D03*
%TD*%
%TO.C,H2*%
X3000000Y83000000D03*
%TD*%
%TO.C,H3*%
X47000000Y6920000D03*
%TD*%
D11*
%TO.C,J3*%
X33875000Y11540000D03*
D12*
X33875000Y9000000D03*
X31335000Y11540000D03*
X31335000Y9000000D03*
X28795000Y11540000D03*
X28795000Y9000000D03*
X26255000Y11540000D03*
X26255000Y9000000D03*
X23715000Y11540000D03*
X23715000Y9000000D03*
X21175000Y11540000D03*
X21175000Y9000000D03*
X18635000Y11540000D03*
X18635000Y9000000D03*
X16095000Y11540000D03*
X16095000Y9000000D03*
%TD*%
D13*
%TO.C,J2*%
X36187500Y20042500D03*
D14*
X42187500Y20042500D03*
D15*
X38987500Y24742500D03*
%TD*%
D16*
%TO.C,RV2*%
X5400000Y32600000D03*
X2900000Y30100000D03*
X5400000Y27600000D03*
%TD*%
D17*
%TO.C,L2*%
X35400000Y71700000D03*
X43600000Y68700000D03*
%TD*%
D11*
%TO.C,J1*%
X39625000Y61350000D03*
D12*
X39625000Y58810000D03*
X39625000Y56270000D03*
X39625000Y53730000D03*
X39625000Y51190000D03*
X39625000Y48650000D03*
%TD*%
D18*
%TO.C,C17*%
X28447349Y38900000D03*
D17*
X30947349Y38900000D03*
%TD*%
D19*
%TO.C,J4*%
X14825000Y83142500D03*
X9175000Y83142500D03*
%TD*%
D20*
%TO.C,RV1*%
X4825000Y56400000D03*
X4825000Y66400000D03*
D16*
X14825000Y57400000D03*
X14825000Y61400000D03*
X14825000Y65400000D03*
%TD*%
D18*
%TO.C,C21*%
X28447349Y29700000D03*
D17*
X30947349Y29700000D03*
%TD*%
%TO.C,L1*%
X29300000Y78500000D03*
X25600000Y76500000D03*
%TD*%
D10*
%TO.C,H1*%
X47000000Y83000000D03*
%TD*%
D21*
%TO.C,J6*%
X39750000Y33900000D03*
X41150000Y36300000D03*
D22*
X47550000Y38950000D03*
D21*
X44250000Y43500000D03*
D22*
X36550000Y42950000D03*
%TD*%
D19*
%TO.C,J5*%
X40825000Y83142500D03*
X35175000Y83142500D03*
%TD*%
D11*
%TO.C,LS1*%
X11975000Y2825000D03*
D12*
X9435000Y2825000D03*
%TD*%
M02*
