%TF.GenerationSoftware,KiCad,Pcbnew,7.0.1*%
%TF.CreationDate,2023-04-12T14:42:12+09:00*%
%TF.ProjectId,KiCad-Si4735,4b694361-642d-4536-9934-3733352e6b69,rev?*%
%TF.SameCoordinates,PX6bc3e40PY88601c0*%
%TF.FileFunction,Soldermask,Top*%
%TF.FilePolarity,Negative*%
%FSLAX46Y46*%
G04 Gerber Fmt 4.6, Leading zero omitted, Abs format (unit mm)*
G04 Created by KiCad (PCBNEW 7.0.1) date 2023-04-12 14:42:12*
%MOMM*%
%LPD*%
G01*
G04 APERTURE LIST*
G04 Aperture macros list*
%AMRoundRect*
0 Rectangle with rounded corners*
0 $1 Rounding radius*
0 $2 $3 $4 $5 $6 $7 $8 $9 X,Y pos of 4 corners*
0 Add a 4 corners polygon primitive as box body*
4,1,4,$2,$3,$4,$5,$6,$7,$8,$9,$2,$3,0*
0 Add four circle primitives for the rounded corners*
1,1,$1+$1,$2,$3*
1,1,$1+$1,$4,$5*
1,1,$1+$1,$6,$7*
1,1,$1+$1,$8,$9*
0 Add four rect primitives between the rounded corners*
20,1,$1+$1,$2,$3,$4,$5,0*
20,1,$1+$1,$4,$5,$6,$7,0*
20,1,$1+$1,$6,$7,$8,$9,0*
20,1,$1+$1,$8,$9,$2,$3,0*%
G04 Aperture macros list end*
%ADD10RoundRect,0.237500X0.237500X-0.300000X0.237500X0.300000X-0.237500X0.300000X-0.237500X-0.300000X0*%
%ADD11R,0.400000X2.200000*%
%ADD12R,0.750000X0.675000*%
%ADD13R,1.550000X0.400000*%
%ADD14RoundRect,0.237500X-0.237500X0.250000X-0.237500X-0.250000X0.237500X-0.250000X0.237500X0.250000X0*%
%ADD15RoundRect,0.225000X-0.225000X-0.375000X0.225000X-0.375000X0.225000X0.375000X-0.225000X0.375000X0*%
%ADD16RoundRect,0.150000X-0.150000X0.725000X-0.150000X-0.725000X0.150000X-0.725000X0.150000X0.725000X0*%
%ADD17RoundRect,0.250000X1.100000X-0.412500X1.100000X0.412500X-1.100000X0.412500X-1.100000X-0.412500X0*%
%ADD18RoundRect,0.225000X0.225000X0.375000X-0.225000X0.375000X-0.225000X-0.375000X0.225000X-0.375000X0*%
%ADD19RoundRect,0.237500X0.300000X0.237500X-0.300000X0.237500X-0.300000X-0.237500X0.300000X-0.237500X0*%
%ADD20C,3.200000*%
%ADD21RoundRect,0.237500X-0.250000X-0.237500X0.250000X-0.237500X0.250000X0.237500X-0.250000X0.237500X0*%
%ADD22R,1.000000X1.500000*%
%ADD23RoundRect,0.237500X-0.300000X-0.237500X0.300000X-0.237500X0.300000X0.237500X-0.300000X0.237500X0*%
%ADD24R,1.700000X1.700000*%
%ADD25O,1.700000X1.700000*%
%ADD26RoundRect,0.237500X0.250000X0.237500X-0.250000X0.237500X-0.250000X-0.237500X0.250000X-0.237500X0*%
%ADD27R,3.000000X3.600000*%
%ADD28RoundRect,0.750000X0.750000X1.000000X-0.750000X1.000000X-0.750000X-1.000000X0.750000X-1.000000X0*%
%ADD29RoundRect,0.875000X0.875000X0.875000X-0.875000X0.875000X-0.875000X-0.875000X0.875000X-0.875000X0*%
%ADD30C,1.800000*%
%ADD31C,1.600000*%
%ADD32RoundRect,0.250000X1.500000X0.550000X-1.500000X0.550000X-1.500000X-0.550000X1.500000X-0.550000X0*%
%ADD33R,1.600000X1.600000*%
%ADD34R,1.270000X3.600000*%
%ADD35R,1.350000X4.200000*%
%ADD36C,3.000000*%
%ADD37RoundRect,0.450000X-0.550000X-0.450000X0.550000X-0.450000X0.550000X0.450000X-0.550000X0.450000X0*%
%ADD38RoundRect,0.450000X-0.450000X-0.450000X0.450000X-0.450000X0.450000X0.450000X-0.450000X0.450000X0*%
%ADD39RoundRect,0.237500X0.237500X-0.250000X0.237500X0.250000X-0.237500X0.250000X-0.237500X-0.250000X0*%
%ADD40R,1.700000X0.600000*%
%ADD41R,1.700000X1.000000*%
%ADD42O,3.200000X2.200000*%
%ADD43O,2.200000X3.200000*%
%ADD44RoundRect,0.150000X0.725000X0.150000X-0.725000X0.150000X-0.725000X-0.150000X0.725000X-0.150000X0*%
G04 APERTURE END LIST*
D10*
%TO.C,C22*%
X12000000Y39637500D03*
X12000000Y41362500D03*
%TD*%
%TO.C,C16*%
X9750000Y37687500D03*
X9750000Y39412500D03*
%TD*%
D11*
%TO.C,U1*%
X26292500Y64100000D03*
X25657500Y64100000D03*
X25022500Y64100000D03*
X24387500Y64100000D03*
X23752500Y64100000D03*
X23117500Y64100000D03*
X22482500Y64100000D03*
X21847500Y64100000D03*
X21212500Y64100000D03*
X20577500Y64100000D03*
X19942500Y64100000D03*
X19307500Y64100000D03*
X19307500Y57900000D03*
X19942500Y57900000D03*
X20577500Y57900000D03*
X21212500Y57900000D03*
X21847500Y57900000D03*
X22482500Y57900000D03*
X23117500Y57900000D03*
X23752500Y57900000D03*
X24387500Y57900000D03*
X25022500Y57900000D03*
X25657500Y57900000D03*
X26292500Y57900000D03*
%TD*%
D12*
%TO.C,EMI4*%
X3100000Y37763000D03*
D13*
X3100000Y38600000D03*
D12*
X3100000Y39437000D03*
%TD*%
D14*
%TO.C,R14*%
X15500000Y48712500D03*
X15500000Y46887500D03*
%TD*%
D12*
%TO.C,EMI2*%
X29600000Y58163000D03*
D13*
X29600000Y59000000D03*
D12*
X29600000Y59837000D03*
%TD*%
D15*
%TO.C,D1*%
X28250000Y15900000D03*
X31550000Y15900000D03*
%TD*%
D16*
%TO.C,U3*%
X17905000Y40975000D03*
X16635000Y40975000D03*
X15365000Y40975000D03*
X14095000Y40975000D03*
X14095000Y35825000D03*
X15365000Y35825000D03*
X16635000Y35825000D03*
X17905000Y35825000D03*
%TD*%
D10*
%TO.C,C7*%
X38000000Y74937500D03*
X38000000Y76662500D03*
%TD*%
D17*
%TO.C,C10*%
X6950000Y17500000D03*
X6950000Y20625000D03*
%TD*%
D18*
%TO.C,D3*%
X16650000Y79000000D03*
X13350000Y79000000D03*
%TD*%
D19*
%TO.C,C18*%
X15462500Y51600000D03*
X13737500Y51600000D03*
%TD*%
D20*
%TO.C,H4*%
X3000000Y6920000D03*
%TD*%
%TO.C,H2*%
X3000000Y83000000D03*
%TD*%
D21*
%TO.C,R2*%
X35087500Y56400000D03*
X36912500Y56400000D03*
%TD*%
D20*
%TO.C,H3*%
X47000000Y6920000D03*
%TD*%
D22*
%TO.C,JP3*%
X22100000Y51000000D03*
X23400000Y51000000D03*
%TD*%
D23*
%TO.C,C8*%
X21437500Y45500000D03*
X23162500Y45500000D03*
%TD*%
D24*
%TO.C,J3*%
X33875000Y11540000D03*
D25*
X33875000Y9000000D03*
X31335000Y11540000D03*
X31335000Y9000000D03*
X28795000Y11540000D03*
X28795000Y9000000D03*
X26255000Y11540000D03*
X26255000Y9000000D03*
X23715000Y11540000D03*
X23715000Y9000000D03*
X21175000Y11540000D03*
X21175000Y9000000D03*
X18635000Y11540000D03*
X18635000Y9000000D03*
X16095000Y11540000D03*
X16095000Y9000000D03*
%TD*%
D23*
%TO.C,C23*%
X15437500Y31400000D03*
X17162500Y31400000D03*
%TD*%
D21*
%TO.C,R20*%
X28087500Y2350000D03*
X29912500Y2350000D03*
%TD*%
D26*
%TO.C,R13*%
X33812500Y47400000D03*
X31987500Y47400000D03*
%TD*%
D15*
%TO.C,D5*%
X33350000Y79100000D03*
X36650000Y79100000D03*
%TD*%
D21*
%TO.C,R16*%
X38175000Y30510000D03*
X40000000Y30510000D03*
%TD*%
D27*
%TO.C,J2*%
X36187500Y20042500D03*
D28*
X42187500Y20042500D03*
D29*
X38987500Y24742500D03*
%TD*%
D19*
%TO.C,C3*%
X29262500Y55600000D03*
X27537500Y55600000D03*
%TD*%
D30*
%TO.C,RV2*%
X5400000Y32600000D03*
X2900000Y30100000D03*
X5400000Y27600000D03*
%TD*%
D10*
%TO.C,C5*%
X23700000Y71137500D03*
X23700000Y72862500D03*
%TD*%
D31*
%TO.C,L2*%
X35400000Y71700000D03*
X43600000Y68700000D03*
%TD*%
D15*
%TO.C,D4*%
X39350000Y79100000D03*
X42650000Y79100000D03*
%TD*%
D23*
%TO.C,C15*%
X16737500Y44900000D03*
X18462500Y44900000D03*
%TD*%
D24*
%TO.C,J1*%
X39625000Y61350000D03*
D25*
X39625000Y58810000D03*
X39625000Y56270000D03*
X39625000Y53730000D03*
X39625000Y51190000D03*
X39625000Y48650000D03*
%TD*%
D22*
%TO.C,JP4*%
X25750000Y51000000D03*
X27050000Y51000000D03*
%TD*%
D10*
%TO.C,C4*%
X32200000Y73337500D03*
X32200000Y75062500D03*
%TD*%
D32*
%TO.C,C1*%
X31300000Y21300000D03*
X25900000Y21300000D03*
%TD*%
D33*
%TO.C,C17*%
X28447349Y38900000D03*
D31*
X30947349Y38900000D03*
%TD*%
D26*
%TO.C,R6*%
X24312500Y80800000D03*
X22487500Y80800000D03*
%TD*%
D15*
%TO.C,D7*%
X16950000Y68600000D03*
X20250000Y68600000D03*
%TD*%
D34*
%TO.C,J4*%
X12000000Y83342500D03*
D35*
X14825000Y83142500D03*
X9175000Y83142500D03*
%TD*%
D14*
%TO.C,R15*%
X13700000Y48712500D03*
X13700000Y46887500D03*
%TD*%
D36*
%TO.C,RV1*%
X4825000Y56400000D03*
X4825000Y66400000D03*
D30*
X14825000Y57400000D03*
X14825000Y61400000D03*
X14825000Y65400000D03*
%TD*%
D12*
%TO.C,EMI1*%
X29600000Y62363000D03*
D13*
X29600000Y63200000D03*
D12*
X29600000Y64037000D03*
%TD*%
D21*
%TO.C,R10*%
X17875000Y28300000D03*
X19700000Y28300000D03*
%TD*%
D19*
%TO.C,C11*%
X19650000Y26600000D03*
X17925000Y26600000D03*
%TD*%
D17*
%TO.C,C13*%
X6850000Y36387500D03*
X6850000Y39512500D03*
%TD*%
D33*
%TO.C,C21*%
X28447349Y29700000D03*
D31*
X30947349Y29700000D03*
%TD*%
D26*
%TO.C,R8*%
X13800000Y74500000D03*
X11975000Y74500000D03*
%TD*%
D18*
%TO.C,D6*%
X20250000Y71200000D03*
X16950000Y71200000D03*
%TD*%
D31*
%TO.C,L1*%
X29300000Y78500000D03*
X25600000Y76500000D03*
%TD*%
D21*
%TO.C,R3*%
X35087500Y61400000D03*
X36912500Y61400000D03*
%TD*%
D19*
%TO.C,C6*%
X13762500Y76300000D03*
X12037500Y76300000D03*
%TD*%
D23*
%TO.C,C14*%
X14175000Y28300000D03*
X15900000Y28300000D03*
%TD*%
D18*
%TO.C,D2*%
X10650000Y79000000D03*
X7350000Y79000000D03*
%TD*%
D37*
%TO.C,Y1*%
X22762500Y47900000D03*
D38*
X26262500Y47900000D03*
%TD*%
D19*
%TO.C,C9*%
X27262500Y45500000D03*
X25537500Y45500000D03*
%TD*%
D21*
%TO.C,R9*%
X17875000Y24700000D03*
X19700000Y24700000D03*
%TD*%
%TO.C,R11*%
X16700000Y43200000D03*
X18525000Y43200000D03*
%TD*%
D10*
%TO.C,C12*%
X9950000Y18887500D03*
X9950000Y20612500D03*
%TD*%
D39*
%TO.C,R4*%
X30300000Y73287500D03*
X30300000Y75112500D03*
%TD*%
D20*
%TO.C,H1*%
X47000000Y83000000D03*
%TD*%
D26*
%TO.C,R7*%
X20512500Y80800000D03*
X18687500Y80800000D03*
%TD*%
D40*
%TO.C,Q1*%
X18400000Y76450000D03*
X18400000Y74550000D03*
X21400000Y74550000D03*
D41*
X21400000Y76250000D03*
%TD*%
D10*
%TO.C,C19*%
X20900000Y19337500D03*
X20900000Y21062500D03*
%TD*%
D12*
%TO.C,EMI3*%
X27400000Y69463000D03*
D13*
X27400000Y70300000D03*
D12*
X27400000Y71137000D03*
%TD*%
D26*
%TO.C,R12*%
X33812500Y45700000D03*
X31987500Y45700000D03*
%TD*%
D42*
%TO.C,J6*%
X39750000Y33900000D03*
X41150000Y36300000D03*
D43*
X47550000Y38950000D03*
D42*
X44250000Y43500000D03*
D43*
X36550000Y42950000D03*
%TD*%
D22*
%TO.C,JP1*%
X29350000Y51000000D03*
X30650000Y51000000D03*
%TD*%
D21*
%TO.C,R1*%
X34975000Y58800000D03*
X36800000Y58800000D03*
%TD*%
D44*
%TO.C,U2*%
X18275000Y18095000D03*
X18275000Y19365000D03*
X18275000Y20635000D03*
X18275000Y21905000D03*
X13125000Y21905000D03*
X13125000Y20635000D03*
X13125000Y19365000D03*
X13125000Y18095000D03*
%TD*%
D34*
%TO.C,J5*%
X38000000Y83342500D03*
D35*
X40825000Y83142500D03*
X35175000Y83142500D03*
%TD*%
D23*
%TO.C,C2*%
X29637500Y65700000D03*
X31362500Y65700000D03*
%TD*%
D21*
%TO.C,R5*%
X11975000Y72800000D03*
X13800000Y72800000D03*
%TD*%
%TO.C,R19*%
X28087500Y4500000D03*
X29912500Y4500000D03*
%TD*%
%TO.C,R17*%
X38175000Y28600000D03*
X40000000Y28600000D03*
%TD*%
D22*
%TO.C,JP2*%
X18500000Y51000000D03*
X19800000Y51000000D03*
%TD*%
D19*
%TO.C,C20*%
X15462500Y53600000D03*
X13737500Y53600000D03*
%TD*%
D12*
%TO.C,EMI5*%
X3400000Y20599500D03*
D13*
X3400000Y19762500D03*
D12*
X3400000Y18925500D03*
%TD*%
D26*
%TO.C,R18*%
X17212500Y33200000D03*
X15387500Y33200000D03*
%TD*%
D24*
%TO.C,LS1*%
X11975000Y2825000D03*
D25*
X9435000Y2825000D03*
%TD*%
M02*
