%TF.GenerationSoftware,KiCad,Pcbnew,7.0.1*%
%TF.CreationDate,2023-04-12T14:42:12+09:00*%
%TF.ProjectId,KiCad-Si4735,4b694361-642d-4536-9934-3733352e6b69,rev?*%
%TF.SameCoordinates,PX6bc3e40PY88601c0*%
%TF.FileFunction,Legend,Top*%
%TF.FilePolarity,Positive*%
%FSLAX46Y46*%
G04 Gerber Fmt 4.6, Leading zero omitted, Abs format (unit mm)*
G04 Created by KiCad (PCBNEW 7.0.1) date 2023-04-12 14:42:12*
%MOMM*%
%LPD*%
G01*
G04 APERTURE LIST*
%ADD10C,0.216421*%
%ADD11C,0.287132*%
%ADD12C,0.325000*%
%ADD13C,0.233114*%
%ADD14C,0.150000*%
%ADD15C,0.200000*%
%ADD16C,0.100000*%
%ADD17C,0.120000*%
%ADD18C,0.127000*%
%ADD19C,0.280000*%
G04 APERTURE END LIST*
D10*
X18558210Y77450000D02*
G75*
G03*
X18558210Y77450000I-108210J0D01*
G01*
D11*
X18443566Y16900000D02*
G75*
G03*
X18443566Y16900000I-143566J0D01*
G01*
D12*
X27612500Y64200000D02*
G75*
G03*
X27612500Y64200000I-162500J0D01*
G01*
D13*
X19216557Y40950000D02*
G75*
G03*
X19216557Y40950000I-116557J0D01*
G01*
D14*
X46371428Y73146191D02*
X46514285Y73098572D01*
X46514285Y73098572D02*
X46561904Y73050953D01*
X46561904Y73050953D02*
X46609523Y72955715D01*
X46609523Y72955715D02*
X46609523Y72812858D01*
X46609523Y72812858D02*
X46561904Y72717620D01*
X46561904Y72717620D02*
X46514285Y72670000D01*
X46514285Y72670000D02*
X46419047Y72622381D01*
X46419047Y72622381D02*
X46038095Y72622381D01*
X46038095Y72622381D02*
X46038095Y73622381D01*
X46038095Y73622381D02*
X46371428Y73622381D01*
X46371428Y73622381D02*
X46466666Y73574762D01*
X46466666Y73574762D02*
X46514285Y73527143D01*
X46514285Y73527143D02*
X46561904Y73431905D01*
X46561904Y73431905D02*
X46561904Y73336667D01*
X46561904Y73336667D02*
X46514285Y73241429D01*
X46514285Y73241429D02*
X46466666Y73193810D01*
X46466666Y73193810D02*
X46371428Y73146191D01*
X46371428Y73146191D02*
X46038095Y73146191D01*
X47609523Y72717620D02*
X47561904Y72670000D01*
X47561904Y72670000D02*
X47419047Y72622381D01*
X47419047Y72622381D02*
X47323809Y72622381D01*
X47323809Y72622381D02*
X47180952Y72670000D01*
X47180952Y72670000D02*
X47085714Y72765239D01*
X47085714Y72765239D02*
X47038095Y72860477D01*
X47038095Y72860477D02*
X46990476Y73050953D01*
X46990476Y73050953D02*
X46990476Y73193810D01*
X46990476Y73193810D02*
X47038095Y73384286D01*
X47038095Y73384286D02*
X47085714Y73479524D01*
X47085714Y73479524D02*
X47180952Y73574762D01*
X47180952Y73574762D02*
X47323809Y73622381D01*
X47323809Y73622381D02*
X47419047Y73622381D01*
X47419047Y73622381D02*
X47561904Y73574762D01*
X47561904Y73574762D02*
X47609523Y73527143D01*
X48514285Y72622381D02*
X48038095Y72622381D01*
X48038095Y72622381D02*
X48038095Y73622381D01*
X48847619Y72622381D02*
X48847619Y73622381D01*
X49419047Y72622381D02*
X48990476Y73193810D01*
X49419047Y73622381D02*
X48847619Y73050953D01*
X46038095Y71002381D02*
X46038095Y72002381D01*
X46038095Y72002381D02*
X46276190Y72002381D01*
X46276190Y72002381D02*
X46419047Y71954762D01*
X46419047Y71954762D02*
X46514285Y71859524D01*
X46514285Y71859524D02*
X46561904Y71764286D01*
X46561904Y71764286D02*
X46609523Y71573810D01*
X46609523Y71573810D02*
X46609523Y71430953D01*
X46609523Y71430953D02*
X46561904Y71240477D01*
X46561904Y71240477D02*
X46514285Y71145239D01*
X46514285Y71145239D02*
X46419047Y71050000D01*
X46419047Y71050000D02*
X46276190Y71002381D01*
X46276190Y71002381D02*
X46038095Y71002381D01*
X46990476Y71288096D02*
X47466666Y71288096D01*
X46895238Y71002381D02*
X47228571Y72002381D01*
X47228571Y72002381D02*
X47561904Y71002381D01*
X47752381Y72002381D02*
X48323809Y72002381D01*
X48038095Y71002381D02*
X48038095Y72002381D01*
X48609524Y71288096D02*
X49085714Y71288096D01*
X48514286Y71002381D02*
X48847619Y72002381D01*
X48847619Y72002381D02*
X49180952Y71002381D01*
X46514285Y69382381D02*
X46038095Y69382381D01*
X46038095Y69382381D02*
X46038095Y70382381D01*
X47419047Y69382381D02*
X47085714Y69858572D01*
X46847619Y69382381D02*
X46847619Y70382381D01*
X46847619Y70382381D02*
X47228571Y70382381D01*
X47228571Y70382381D02*
X47323809Y70334762D01*
X47323809Y70334762D02*
X47371428Y70287143D01*
X47371428Y70287143D02*
X47419047Y70191905D01*
X47419047Y70191905D02*
X47419047Y70049048D01*
X47419047Y70049048D02*
X47371428Y69953810D01*
X47371428Y69953810D02*
X47323809Y69906191D01*
X47323809Y69906191D02*
X47228571Y69858572D01*
X47228571Y69858572D02*
X46847619Y69858572D01*
X48419047Y69477620D02*
X48371428Y69430000D01*
X48371428Y69430000D02*
X48228571Y69382381D01*
X48228571Y69382381D02*
X48133333Y69382381D01*
X48133333Y69382381D02*
X47990476Y69430000D01*
X47990476Y69430000D02*
X47895238Y69525239D01*
X47895238Y69525239D02*
X47847619Y69620477D01*
X47847619Y69620477D02*
X47800000Y69810953D01*
X47800000Y69810953D02*
X47800000Y69953810D01*
X47800000Y69953810D02*
X47847619Y70144286D01*
X47847619Y70144286D02*
X47895238Y70239524D01*
X47895238Y70239524D02*
X47990476Y70334762D01*
X47990476Y70334762D02*
X48133333Y70382381D01*
X48133333Y70382381D02*
X48228571Y70382381D01*
X48228571Y70382381D02*
X48371428Y70334762D01*
X48371428Y70334762D02*
X48419047Y70287143D01*
X48847619Y69382381D02*
X48847619Y70382381D01*
X49419047Y69382381D02*
X48990476Y69953810D01*
X49419047Y70382381D02*
X48847619Y69810953D01*
X46561904Y68714762D02*
X46466666Y68762381D01*
X46466666Y68762381D02*
X46323809Y68762381D01*
X46323809Y68762381D02*
X46180952Y68714762D01*
X46180952Y68714762D02*
X46085714Y68619524D01*
X46085714Y68619524D02*
X46038095Y68524286D01*
X46038095Y68524286D02*
X45990476Y68333810D01*
X45990476Y68333810D02*
X45990476Y68190953D01*
X45990476Y68190953D02*
X46038095Y68000477D01*
X46038095Y68000477D02*
X46085714Y67905239D01*
X46085714Y67905239D02*
X46180952Y67810000D01*
X46180952Y67810000D02*
X46323809Y67762381D01*
X46323809Y67762381D02*
X46419047Y67762381D01*
X46419047Y67762381D02*
X46561904Y67810000D01*
X46561904Y67810000D02*
X46609523Y67857620D01*
X46609523Y67857620D02*
X46609523Y68190953D01*
X46609523Y68190953D02*
X46419047Y68190953D01*
X47038095Y67762381D02*
X47038095Y68762381D01*
X47038095Y68762381D02*
X47609523Y67762381D01*
X47609523Y67762381D02*
X47609523Y68762381D01*
X48085714Y67762381D02*
X48085714Y68762381D01*
X48085714Y68762381D02*
X48323809Y68762381D01*
X48323809Y68762381D02*
X48466666Y68714762D01*
X48466666Y68714762D02*
X48561904Y68619524D01*
X48561904Y68619524D02*
X48609523Y68524286D01*
X48609523Y68524286D02*
X48657142Y68333810D01*
X48657142Y68333810D02*
X48657142Y68190953D01*
X48657142Y68190953D02*
X48609523Y68000477D01*
X48609523Y68000477D02*
X48561904Y67905239D01*
X48561904Y67905239D02*
X48466666Y67810000D01*
X48466666Y67810000D02*
X48323809Y67762381D01*
X48323809Y67762381D02*
X48085714Y67762381D01*
X46038095Y66142381D02*
X46038095Y67142381D01*
X46038095Y67142381D02*
X46609523Y66142381D01*
X46609523Y66142381D02*
X46609523Y67142381D01*
X47657142Y66237620D02*
X47609523Y66190000D01*
X47609523Y66190000D02*
X47466666Y66142381D01*
X47466666Y66142381D02*
X47371428Y66142381D01*
X47371428Y66142381D02*
X47228571Y66190000D01*
X47228571Y66190000D02*
X47133333Y66285239D01*
X47133333Y66285239D02*
X47085714Y66380477D01*
X47085714Y66380477D02*
X47038095Y66570953D01*
X47038095Y66570953D02*
X47038095Y66713810D01*
X47038095Y66713810D02*
X47085714Y66904286D01*
X47085714Y66904286D02*
X47133333Y66999524D01*
X47133333Y66999524D02*
X47228571Y67094762D01*
X47228571Y67094762D02*
X47371428Y67142381D01*
X47371428Y67142381D02*
X47466666Y67142381D01*
X47466666Y67142381D02*
X47609523Y67094762D01*
X47609523Y67094762D02*
X47657142Y67047143D01*
X46038095Y64903334D02*
X46800000Y64903334D01*
X46419047Y64522381D02*
X46419047Y65284286D01*
X47752380Y65522381D02*
X47276190Y65522381D01*
X47276190Y65522381D02*
X47228571Y65046191D01*
X47228571Y65046191D02*
X47276190Y65093810D01*
X47276190Y65093810D02*
X47371428Y65141429D01*
X47371428Y65141429D02*
X47609523Y65141429D01*
X47609523Y65141429D02*
X47704761Y65093810D01*
X47704761Y65093810D02*
X47752380Y65046191D01*
X47752380Y65046191D02*
X47799999Y64950953D01*
X47799999Y64950953D02*
X47799999Y64712858D01*
X47799999Y64712858D02*
X47752380Y64617620D01*
X47752380Y64617620D02*
X47704761Y64570000D01*
X47704761Y64570000D02*
X47609523Y64522381D01*
X47609523Y64522381D02*
X47371428Y64522381D01*
X47371428Y64522381D02*
X47276190Y64570000D01*
X47276190Y64570000D02*
X47228571Y64617620D01*
X48085714Y65522381D02*
X48419047Y64522381D01*
X48419047Y64522381D02*
X48752380Y65522381D01*
X1408095Y77409524D02*
X1408095Y76933334D01*
X1122380Y77504762D02*
X2122380Y77171429D01*
X2122380Y77171429D02*
X1122380Y76838096D01*
X1122380Y76504762D02*
X2122380Y76504762D01*
X2122380Y76504762D02*
X1408095Y76171429D01*
X1408095Y76171429D02*
X2122380Y75838096D01*
X2122380Y75838096D02*
X1122380Y75838096D01*
X2170000Y74647620D02*
X884285Y75504762D01*
X1170000Y74361905D02*
X1122380Y74219048D01*
X1122380Y74219048D02*
X1122380Y73980953D01*
X1122380Y73980953D02*
X1170000Y73885715D01*
X1170000Y73885715D02*
X1217619Y73838096D01*
X1217619Y73838096D02*
X1312857Y73790477D01*
X1312857Y73790477D02*
X1408095Y73790477D01*
X1408095Y73790477D02*
X1503333Y73838096D01*
X1503333Y73838096D02*
X1550952Y73885715D01*
X1550952Y73885715D02*
X1598571Y73980953D01*
X1598571Y73980953D02*
X1646190Y74171429D01*
X1646190Y74171429D02*
X1693809Y74266667D01*
X1693809Y74266667D02*
X1741428Y74314286D01*
X1741428Y74314286D02*
X1836666Y74361905D01*
X1836666Y74361905D02*
X1931904Y74361905D01*
X1931904Y74361905D02*
X2027142Y74314286D01*
X2027142Y74314286D02*
X2074761Y74266667D01*
X2074761Y74266667D02*
X2122380Y74171429D01*
X2122380Y74171429D02*
X2122380Y73933334D01*
X2122380Y73933334D02*
X2074761Y73790477D01*
X2122380Y73457143D02*
X1122380Y73219048D01*
X1122380Y73219048D02*
X1836666Y73028572D01*
X1836666Y73028572D02*
X1122380Y72838096D01*
X1122380Y72838096D02*
X2122380Y72600000D01*
X2074761Y70933334D02*
X2122380Y71028572D01*
X2122380Y71028572D02*
X2122380Y71171429D01*
X2122380Y71171429D02*
X2074761Y71314286D01*
X2074761Y71314286D02*
X1979523Y71409524D01*
X1979523Y71409524D02*
X1884285Y71457143D01*
X1884285Y71457143D02*
X1693809Y71504762D01*
X1693809Y71504762D02*
X1550952Y71504762D01*
X1550952Y71504762D02*
X1360476Y71457143D01*
X1360476Y71457143D02*
X1265238Y71409524D01*
X1265238Y71409524D02*
X1170000Y71314286D01*
X1170000Y71314286D02*
X1122380Y71171429D01*
X1122380Y71171429D02*
X1122380Y71076191D01*
X1122380Y71076191D02*
X1170000Y70933334D01*
X1170000Y70933334D02*
X1217619Y70885715D01*
X1217619Y70885715D02*
X1550952Y70885715D01*
X1550952Y70885715D02*
X1550952Y71076191D01*
X1408095Y70504762D02*
X1408095Y70028572D01*
X1122380Y70600000D02*
X2122380Y70266667D01*
X2122380Y70266667D02*
X1122380Y69933334D01*
X1122380Y69600000D02*
X2122380Y69600000D01*
X1122380Y69123810D02*
X2122380Y69123810D01*
X2122380Y69123810D02*
X1122380Y68552382D01*
X1122380Y68552382D02*
X2122380Y68552382D01*
%TO.C,C22*%
X10967380Y40757143D02*
X11015000Y40709524D01*
X11015000Y40709524D02*
X11062619Y40566667D01*
X11062619Y40566667D02*
X11062619Y40471429D01*
X11062619Y40471429D02*
X11015000Y40328572D01*
X11015000Y40328572D02*
X10919761Y40233334D01*
X10919761Y40233334D02*
X10824523Y40185715D01*
X10824523Y40185715D02*
X10634047Y40138096D01*
X10634047Y40138096D02*
X10491190Y40138096D01*
X10491190Y40138096D02*
X10300714Y40185715D01*
X10300714Y40185715D02*
X10205476Y40233334D01*
X10205476Y40233334D02*
X10110238Y40328572D01*
X10110238Y40328572D02*
X10062619Y40471429D01*
X10062619Y40471429D02*
X10062619Y40566667D01*
X10062619Y40566667D02*
X10110238Y40709524D01*
X10110238Y40709524D02*
X10157857Y40757143D01*
X10157857Y41138096D02*
X10110238Y41185715D01*
X10110238Y41185715D02*
X10062619Y41280953D01*
X10062619Y41280953D02*
X10062619Y41519048D01*
X10062619Y41519048D02*
X10110238Y41614286D01*
X10110238Y41614286D02*
X10157857Y41661905D01*
X10157857Y41661905D02*
X10253095Y41709524D01*
X10253095Y41709524D02*
X10348333Y41709524D01*
X10348333Y41709524D02*
X10491190Y41661905D01*
X10491190Y41661905D02*
X11062619Y41090477D01*
X11062619Y41090477D02*
X11062619Y41709524D01*
X10157857Y42090477D02*
X10110238Y42138096D01*
X10110238Y42138096D02*
X10062619Y42233334D01*
X10062619Y42233334D02*
X10062619Y42471429D01*
X10062619Y42471429D02*
X10110238Y42566667D01*
X10110238Y42566667D02*
X10157857Y42614286D01*
X10157857Y42614286D02*
X10253095Y42661905D01*
X10253095Y42661905D02*
X10348333Y42661905D01*
X10348333Y42661905D02*
X10491190Y42614286D01*
X10491190Y42614286D02*
X11062619Y42042858D01*
X11062619Y42042858D02*
X11062619Y42661905D01*
%TO.C,C16*%
X10017380Y34607143D02*
X10065000Y34559524D01*
X10065000Y34559524D02*
X10112619Y34416667D01*
X10112619Y34416667D02*
X10112619Y34321429D01*
X10112619Y34321429D02*
X10065000Y34178572D01*
X10065000Y34178572D02*
X9969761Y34083334D01*
X9969761Y34083334D02*
X9874523Y34035715D01*
X9874523Y34035715D02*
X9684047Y33988096D01*
X9684047Y33988096D02*
X9541190Y33988096D01*
X9541190Y33988096D02*
X9350714Y34035715D01*
X9350714Y34035715D02*
X9255476Y34083334D01*
X9255476Y34083334D02*
X9160238Y34178572D01*
X9160238Y34178572D02*
X9112619Y34321429D01*
X9112619Y34321429D02*
X9112619Y34416667D01*
X9112619Y34416667D02*
X9160238Y34559524D01*
X9160238Y34559524D02*
X9207857Y34607143D01*
X10112619Y35559524D02*
X10112619Y34988096D01*
X10112619Y35273810D02*
X9112619Y35273810D01*
X9112619Y35273810D02*
X9255476Y35178572D01*
X9255476Y35178572D02*
X9350714Y35083334D01*
X9350714Y35083334D02*
X9398333Y34988096D01*
X9112619Y36416667D02*
X9112619Y36226191D01*
X9112619Y36226191D02*
X9160238Y36130953D01*
X9160238Y36130953D02*
X9207857Y36083334D01*
X9207857Y36083334D02*
X9350714Y35988096D01*
X9350714Y35988096D02*
X9541190Y35940477D01*
X9541190Y35940477D02*
X9922142Y35940477D01*
X9922142Y35940477D02*
X10017380Y35988096D01*
X10017380Y35988096D02*
X10065000Y36035715D01*
X10065000Y36035715D02*
X10112619Y36130953D01*
X10112619Y36130953D02*
X10112619Y36321429D01*
X10112619Y36321429D02*
X10065000Y36416667D01*
X10065000Y36416667D02*
X10017380Y36464286D01*
X10017380Y36464286D02*
X9922142Y36511905D01*
X9922142Y36511905D02*
X9684047Y36511905D01*
X9684047Y36511905D02*
X9588809Y36464286D01*
X9588809Y36464286D02*
X9541190Y36416667D01*
X9541190Y36416667D02*
X9493571Y36321429D01*
X9493571Y36321429D02*
X9493571Y36130953D01*
X9493571Y36130953D02*
X9541190Y36035715D01*
X9541190Y36035715D02*
X9588809Y35988096D01*
X9588809Y35988096D02*
X9684047Y35940477D01*
%TO.C,U1*%
X27562619Y60238096D02*
X28372142Y60238096D01*
X28372142Y60238096D02*
X28467380Y60285715D01*
X28467380Y60285715D02*
X28515000Y60333334D01*
X28515000Y60333334D02*
X28562619Y60428572D01*
X28562619Y60428572D02*
X28562619Y60619048D01*
X28562619Y60619048D02*
X28515000Y60714286D01*
X28515000Y60714286D02*
X28467380Y60761905D01*
X28467380Y60761905D02*
X28372142Y60809524D01*
X28372142Y60809524D02*
X27562619Y60809524D01*
X28562619Y61809524D02*
X28562619Y61238096D01*
X28562619Y61523810D02*
X27562619Y61523810D01*
X27562619Y61523810D02*
X27705476Y61428572D01*
X27705476Y61428572D02*
X27800714Y61333334D01*
X27800714Y61333334D02*
X27848333Y61238096D01*
%TO.C,EMI4*%
X1338809Y37100001D02*
X1338809Y37433334D01*
X1862619Y37576191D02*
X1862619Y37100001D01*
X1862619Y37100001D02*
X862619Y37100001D01*
X862619Y37100001D02*
X862619Y37576191D01*
X1862619Y38004763D02*
X862619Y38004763D01*
X862619Y38004763D02*
X1576904Y38338096D01*
X1576904Y38338096D02*
X862619Y38671429D01*
X862619Y38671429D02*
X1862619Y38671429D01*
X1862619Y39147620D02*
X862619Y39147620D01*
X1195952Y40052381D02*
X1862619Y40052381D01*
X815000Y39814286D02*
X1529285Y39576191D01*
X1529285Y39576191D02*
X1529285Y40195238D01*
%TO.C,R14*%
X17392619Y47157143D02*
X16916428Y46823810D01*
X17392619Y46585715D02*
X16392619Y46585715D01*
X16392619Y46585715D02*
X16392619Y46966667D01*
X16392619Y46966667D02*
X16440238Y47061905D01*
X16440238Y47061905D02*
X16487857Y47109524D01*
X16487857Y47109524D02*
X16583095Y47157143D01*
X16583095Y47157143D02*
X16725952Y47157143D01*
X16725952Y47157143D02*
X16821190Y47109524D01*
X16821190Y47109524D02*
X16868809Y47061905D01*
X16868809Y47061905D02*
X16916428Y46966667D01*
X16916428Y46966667D02*
X16916428Y46585715D01*
X17392619Y48109524D02*
X17392619Y47538096D01*
X17392619Y47823810D02*
X16392619Y47823810D01*
X16392619Y47823810D02*
X16535476Y47728572D01*
X16535476Y47728572D02*
X16630714Y47633334D01*
X16630714Y47633334D02*
X16678333Y47538096D01*
X16725952Y48966667D02*
X17392619Y48966667D01*
X16345000Y48728572D02*
X17059285Y48490477D01*
X17059285Y48490477D02*
X17059285Y49109524D01*
%TO.C,EMI2*%
X31338809Y57300001D02*
X31338809Y57633334D01*
X31862619Y57776191D02*
X31862619Y57300001D01*
X31862619Y57300001D02*
X30862619Y57300001D01*
X30862619Y57300001D02*
X30862619Y57776191D01*
X31862619Y58204763D02*
X30862619Y58204763D01*
X30862619Y58204763D02*
X31576904Y58538096D01*
X31576904Y58538096D02*
X30862619Y58871429D01*
X30862619Y58871429D02*
X31862619Y58871429D01*
X31862619Y59347620D02*
X30862619Y59347620D01*
X30957857Y59776191D02*
X30910238Y59823810D01*
X30910238Y59823810D02*
X30862619Y59919048D01*
X30862619Y59919048D02*
X30862619Y60157143D01*
X30862619Y60157143D02*
X30910238Y60252381D01*
X30910238Y60252381D02*
X30957857Y60300000D01*
X30957857Y60300000D02*
X31053095Y60347619D01*
X31053095Y60347619D02*
X31148333Y60347619D01*
X31148333Y60347619D02*
X31291190Y60300000D01*
X31291190Y60300000D02*
X31862619Y59728572D01*
X31862619Y59728572D02*
X31862619Y60347619D01*
%TO.C,D1*%
X25543905Y14637381D02*
X25543905Y15637381D01*
X25543905Y15637381D02*
X25782000Y15637381D01*
X25782000Y15637381D02*
X25924857Y15589762D01*
X25924857Y15589762D02*
X26020095Y15494524D01*
X26020095Y15494524D02*
X26067714Y15399286D01*
X26067714Y15399286D02*
X26115333Y15208810D01*
X26115333Y15208810D02*
X26115333Y15065953D01*
X26115333Y15065953D02*
X26067714Y14875477D01*
X26067714Y14875477D02*
X26020095Y14780239D01*
X26020095Y14780239D02*
X25924857Y14685000D01*
X25924857Y14685000D02*
X25782000Y14637381D01*
X25782000Y14637381D02*
X25543905Y14637381D01*
X27067714Y14637381D02*
X26496286Y14637381D01*
X26782000Y14637381D02*
X26782000Y15637381D01*
X26782000Y15637381D02*
X26686762Y15494524D01*
X26686762Y15494524D02*
X26591524Y15399286D01*
X26591524Y15399286D02*
X26496286Y15351667D01*
%TO.C,U3*%
X19062619Y37638096D02*
X19872142Y37638096D01*
X19872142Y37638096D02*
X19967380Y37685715D01*
X19967380Y37685715D02*
X20015000Y37733334D01*
X20015000Y37733334D02*
X20062619Y37828572D01*
X20062619Y37828572D02*
X20062619Y38019048D01*
X20062619Y38019048D02*
X20015000Y38114286D01*
X20015000Y38114286D02*
X19967380Y38161905D01*
X19967380Y38161905D02*
X19872142Y38209524D01*
X19872142Y38209524D02*
X19062619Y38209524D01*
X19062619Y38590477D02*
X19062619Y39209524D01*
X19062619Y39209524D02*
X19443571Y38876191D01*
X19443571Y38876191D02*
X19443571Y39019048D01*
X19443571Y39019048D02*
X19491190Y39114286D01*
X19491190Y39114286D02*
X19538809Y39161905D01*
X19538809Y39161905D02*
X19634047Y39209524D01*
X19634047Y39209524D02*
X19872142Y39209524D01*
X19872142Y39209524D02*
X19967380Y39161905D01*
X19967380Y39161905D02*
X20015000Y39114286D01*
X20015000Y39114286D02*
X20062619Y39019048D01*
X20062619Y39019048D02*
X20062619Y38733334D01*
X20062619Y38733334D02*
X20015000Y38638096D01*
X20015000Y38638096D02*
X19967380Y38590477D01*
%TO.C,C7*%
X40267380Y76133334D02*
X40315000Y76085715D01*
X40315000Y76085715D02*
X40362619Y75942858D01*
X40362619Y75942858D02*
X40362619Y75847620D01*
X40362619Y75847620D02*
X40315000Y75704763D01*
X40315000Y75704763D02*
X40219761Y75609525D01*
X40219761Y75609525D02*
X40124523Y75561906D01*
X40124523Y75561906D02*
X39934047Y75514287D01*
X39934047Y75514287D02*
X39791190Y75514287D01*
X39791190Y75514287D02*
X39600714Y75561906D01*
X39600714Y75561906D02*
X39505476Y75609525D01*
X39505476Y75609525D02*
X39410238Y75704763D01*
X39410238Y75704763D02*
X39362619Y75847620D01*
X39362619Y75847620D02*
X39362619Y75942858D01*
X39362619Y75942858D02*
X39410238Y76085715D01*
X39410238Y76085715D02*
X39457857Y76133334D01*
X39362619Y76466668D02*
X39362619Y77133334D01*
X39362619Y77133334D02*
X40362619Y76704763D01*
%TO.C,C10*%
X6207142Y21995120D02*
X6159523Y21947500D01*
X6159523Y21947500D02*
X6016666Y21899881D01*
X6016666Y21899881D02*
X5921428Y21899881D01*
X5921428Y21899881D02*
X5778571Y21947500D01*
X5778571Y21947500D02*
X5683333Y22042739D01*
X5683333Y22042739D02*
X5635714Y22137977D01*
X5635714Y22137977D02*
X5588095Y22328453D01*
X5588095Y22328453D02*
X5588095Y22471310D01*
X5588095Y22471310D02*
X5635714Y22661786D01*
X5635714Y22661786D02*
X5683333Y22757024D01*
X5683333Y22757024D02*
X5778571Y22852262D01*
X5778571Y22852262D02*
X5921428Y22899881D01*
X5921428Y22899881D02*
X6016666Y22899881D01*
X6016666Y22899881D02*
X6159523Y22852262D01*
X6159523Y22852262D02*
X6207142Y22804643D01*
X7159523Y21899881D02*
X6588095Y21899881D01*
X6873809Y21899881D02*
X6873809Y22899881D01*
X6873809Y22899881D02*
X6778571Y22757024D01*
X6778571Y22757024D02*
X6683333Y22661786D01*
X6683333Y22661786D02*
X6588095Y22614167D01*
X7778571Y22899881D02*
X7873809Y22899881D01*
X7873809Y22899881D02*
X7969047Y22852262D01*
X7969047Y22852262D02*
X8016666Y22804643D01*
X8016666Y22804643D02*
X8064285Y22709405D01*
X8064285Y22709405D02*
X8111904Y22518929D01*
X8111904Y22518929D02*
X8111904Y22280834D01*
X8111904Y22280834D02*
X8064285Y22090358D01*
X8064285Y22090358D02*
X8016666Y21995120D01*
X8016666Y21995120D02*
X7969047Y21947500D01*
X7969047Y21947500D02*
X7873809Y21899881D01*
X7873809Y21899881D02*
X7778571Y21899881D01*
X7778571Y21899881D02*
X7683333Y21947500D01*
X7683333Y21947500D02*
X7635714Y21995120D01*
X7635714Y21995120D02*
X7588095Y22090358D01*
X7588095Y22090358D02*
X7540476Y22280834D01*
X7540476Y22280834D02*
X7540476Y22518929D01*
X7540476Y22518929D02*
X7588095Y22709405D01*
X7588095Y22709405D02*
X7635714Y22804643D01*
X7635714Y22804643D02*
X7683333Y22852262D01*
X7683333Y22852262D02*
X7778571Y22899881D01*
%TO.C,D3*%
X17761905Y78437381D02*
X17761905Y79437381D01*
X17761905Y79437381D02*
X18000000Y79437381D01*
X18000000Y79437381D02*
X18142857Y79389762D01*
X18142857Y79389762D02*
X18238095Y79294524D01*
X18238095Y79294524D02*
X18285714Y79199286D01*
X18285714Y79199286D02*
X18333333Y79008810D01*
X18333333Y79008810D02*
X18333333Y78865953D01*
X18333333Y78865953D02*
X18285714Y78675477D01*
X18285714Y78675477D02*
X18238095Y78580239D01*
X18238095Y78580239D02*
X18142857Y78485000D01*
X18142857Y78485000D02*
X18000000Y78437381D01*
X18000000Y78437381D02*
X17761905Y78437381D01*
X18666667Y79437381D02*
X19285714Y79437381D01*
X19285714Y79437381D02*
X18952381Y79056429D01*
X18952381Y79056429D02*
X19095238Y79056429D01*
X19095238Y79056429D02*
X19190476Y79008810D01*
X19190476Y79008810D02*
X19238095Y78961191D01*
X19238095Y78961191D02*
X19285714Y78865953D01*
X19285714Y78865953D02*
X19285714Y78627858D01*
X19285714Y78627858D02*
X19238095Y78532620D01*
X19238095Y78532620D02*
X19190476Y78485000D01*
X19190476Y78485000D02*
X19095238Y78437381D01*
X19095238Y78437381D02*
X18809524Y78437381D01*
X18809524Y78437381D02*
X18714286Y78485000D01*
X18714286Y78485000D02*
X18666667Y78532620D01*
%TO.C,C18*%
X10757142Y51032620D02*
X10709523Y50985000D01*
X10709523Y50985000D02*
X10566666Y50937381D01*
X10566666Y50937381D02*
X10471428Y50937381D01*
X10471428Y50937381D02*
X10328571Y50985000D01*
X10328571Y50985000D02*
X10233333Y51080239D01*
X10233333Y51080239D02*
X10185714Y51175477D01*
X10185714Y51175477D02*
X10138095Y51365953D01*
X10138095Y51365953D02*
X10138095Y51508810D01*
X10138095Y51508810D02*
X10185714Y51699286D01*
X10185714Y51699286D02*
X10233333Y51794524D01*
X10233333Y51794524D02*
X10328571Y51889762D01*
X10328571Y51889762D02*
X10471428Y51937381D01*
X10471428Y51937381D02*
X10566666Y51937381D01*
X10566666Y51937381D02*
X10709523Y51889762D01*
X10709523Y51889762D02*
X10757142Y51842143D01*
X11709523Y50937381D02*
X11138095Y50937381D01*
X11423809Y50937381D02*
X11423809Y51937381D01*
X11423809Y51937381D02*
X11328571Y51794524D01*
X11328571Y51794524D02*
X11233333Y51699286D01*
X11233333Y51699286D02*
X11138095Y51651667D01*
X12280952Y51508810D02*
X12185714Y51556429D01*
X12185714Y51556429D02*
X12138095Y51604048D01*
X12138095Y51604048D02*
X12090476Y51699286D01*
X12090476Y51699286D02*
X12090476Y51746905D01*
X12090476Y51746905D02*
X12138095Y51842143D01*
X12138095Y51842143D02*
X12185714Y51889762D01*
X12185714Y51889762D02*
X12280952Y51937381D01*
X12280952Y51937381D02*
X12471428Y51937381D01*
X12471428Y51937381D02*
X12566666Y51889762D01*
X12566666Y51889762D02*
X12614285Y51842143D01*
X12614285Y51842143D02*
X12661904Y51746905D01*
X12661904Y51746905D02*
X12661904Y51699286D01*
X12661904Y51699286D02*
X12614285Y51604048D01*
X12614285Y51604048D02*
X12566666Y51556429D01*
X12566666Y51556429D02*
X12471428Y51508810D01*
X12471428Y51508810D02*
X12280952Y51508810D01*
X12280952Y51508810D02*
X12185714Y51461191D01*
X12185714Y51461191D02*
X12138095Y51413572D01*
X12138095Y51413572D02*
X12090476Y51318334D01*
X12090476Y51318334D02*
X12090476Y51127858D01*
X12090476Y51127858D02*
X12138095Y51032620D01*
X12138095Y51032620D02*
X12185714Y50985000D01*
X12185714Y50985000D02*
X12280952Y50937381D01*
X12280952Y50937381D02*
X12471428Y50937381D01*
X12471428Y50937381D02*
X12566666Y50985000D01*
X12566666Y50985000D02*
X12614285Y51032620D01*
X12614285Y51032620D02*
X12661904Y51127858D01*
X12661904Y51127858D02*
X12661904Y51318334D01*
X12661904Y51318334D02*
X12614285Y51413572D01*
X12614285Y51413572D02*
X12566666Y51461191D01*
X12566666Y51461191D02*
X12471428Y51508810D01*
%TO.C,R2*%
X33133333Y55837381D02*
X32800000Y56313572D01*
X32561905Y55837381D02*
X32561905Y56837381D01*
X32561905Y56837381D02*
X32942857Y56837381D01*
X32942857Y56837381D02*
X33038095Y56789762D01*
X33038095Y56789762D02*
X33085714Y56742143D01*
X33085714Y56742143D02*
X33133333Y56646905D01*
X33133333Y56646905D02*
X33133333Y56504048D01*
X33133333Y56504048D02*
X33085714Y56408810D01*
X33085714Y56408810D02*
X33038095Y56361191D01*
X33038095Y56361191D02*
X32942857Y56313572D01*
X32942857Y56313572D02*
X32561905Y56313572D01*
X33514286Y56742143D02*
X33561905Y56789762D01*
X33561905Y56789762D02*
X33657143Y56837381D01*
X33657143Y56837381D02*
X33895238Y56837381D01*
X33895238Y56837381D02*
X33990476Y56789762D01*
X33990476Y56789762D02*
X34038095Y56742143D01*
X34038095Y56742143D02*
X34085714Y56646905D01*
X34085714Y56646905D02*
X34085714Y56551667D01*
X34085714Y56551667D02*
X34038095Y56408810D01*
X34038095Y56408810D02*
X33466667Y55837381D01*
X33466667Y55837381D02*
X34085714Y55837381D01*
%TO.C,JP3*%
X21916666Y53337381D02*
X21916666Y52623096D01*
X21916666Y52623096D02*
X21869047Y52480239D01*
X21869047Y52480239D02*
X21773809Y52385000D01*
X21773809Y52385000D02*
X21630952Y52337381D01*
X21630952Y52337381D02*
X21535714Y52337381D01*
X22392857Y52337381D02*
X22392857Y53337381D01*
X22392857Y53337381D02*
X22773809Y53337381D01*
X22773809Y53337381D02*
X22869047Y53289762D01*
X22869047Y53289762D02*
X22916666Y53242143D01*
X22916666Y53242143D02*
X22964285Y53146905D01*
X22964285Y53146905D02*
X22964285Y53004048D01*
X22964285Y53004048D02*
X22916666Y52908810D01*
X22916666Y52908810D02*
X22869047Y52861191D01*
X22869047Y52861191D02*
X22773809Y52813572D01*
X22773809Y52813572D02*
X22392857Y52813572D01*
X23297619Y53337381D02*
X23916666Y53337381D01*
X23916666Y53337381D02*
X23583333Y52956429D01*
X23583333Y52956429D02*
X23726190Y52956429D01*
X23726190Y52956429D02*
X23821428Y52908810D01*
X23821428Y52908810D02*
X23869047Y52861191D01*
X23869047Y52861191D02*
X23916666Y52765953D01*
X23916666Y52765953D02*
X23916666Y52527858D01*
X23916666Y52527858D02*
X23869047Y52432620D01*
X23869047Y52432620D02*
X23821428Y52385000D01*
X23821428Y52385000D02*
X23726190Y52337381D01*
X23726190Y52337381D02*
X23440476Y52337381D01*
X23440476Y52337381D02*
X23345238Y52385000D01*
X23345238Y52385000D02*
X23297619Y52432620D01*
%TO.C,C8*%
X21995833Y43132620D02*
X21948214Y43085000D01*
X21948214Y43085000D02*
X21805357Y43037381D01*
X21805357Y43037381D02*
X21710119Y43037381D01*
X21710119Y43037381D02*
X21567262Y43085000D01*
X21567262Y43085000D02*
X21472024Y43180239D01*
X21472024Y43180239D02*
X21424405Y43275477D01*
X21424405Y43275477D02*
X21376786Y43465953D01*
X21376786Y43465953D02*
X21376786Y43608810D01*
X21376786Y43608810D02*
X21424405Y43799286D01*
X21424405Y43799286D02*
X21472024Y43894524D01*
X21472024Y43894524D02*
X21567262Y43989762D01*
X21567262Y43989762D02*
X21710119Y44037381D01*
X21710119Y44037381D02*
X21805357Y44037381D01*
X21805357Y44037381D02*
X21948214Y43989762D01*
X21948214Y43989762D02*
X21995833Y43942143D01*
X22567262Y43608810D02*
X22472024Y43656429D01*
X22472024Y43656429D02*
X22424405Y43704048D01*
X22424405Y43704048D02*
X22376786Y43799286D01*
X22376786Y43799286D02*
X22376786Y43846905D01*
X22376786Y43846905D02*
X22424405Y43942143D01*
X22424405Y43942143D02*
X22472024Y43989762D01*
X22472024Y43989762D02*
X22567262Y44037381D01*
X22567262Y44037381D02*
X22757738Y44037381D01*
X22757738Y44037381D02*
X22852976Y43989762D01*
X22852976Y43989762D02*
X22900595Y43942143D01*
X22900595Y43942143D02*
X22948214Y43846905D01*
X22948214Y43846905D02*
X22948214Y43799286D01*
X22948214Y43799286D02*
X22900595Y43704048D01*
X22900595Y43704048D02*
X22852976Y43656429D01*
X22852976Y43656429D02*
X22757738Y43608810D01*
X22757738Y43608810D02*
X22567262Y43608810D01*
X22567262Y43608810D02*
X22472024Y43561191D01*
X22472024Y43561191D02*
X22424405Y43513572D01*
X22424405Y43513572D02*
X22376786Y43418334D01*
X22376786Y43418334D02*
X22376786Y43227858D01*
X22376786Y43227858D02*
X22424405Y43132620D01*
X22424405Y43132620D02*
X22472024Y43085000D01*
X22472024Y43085000D02*
X22567262Y43037381D01*
X22567262Y43037381D02*
X22757738Y43037381D01*
X22757738Y43037381D02*
X22852976Y43085000D01*
X22852976Y43085000D02*
X22900595Y43132620D01*
X22900595Y43132620D02*
X22948214Y43227858D01*
X22948214Y43227858D02*
X22948214Y43418334D01*
X22948214Y43418334D02*
X22900595Y43513572D01*
X22900595Y43513572D02*
X22852976Y43561191D01*
X22852976Y43561191D02*
X22757738Y43608810D01*
%TO.C,J3*%
X35667619Y9936667D02*
X36381904Y9936667D01*
X36381904Y9936667D02*
X36524761Y9889048D01*
X36524761Y9889048D02*
X36620000Y9793810D01*
X36620000Y9793810D02*
X36667619Y9650953D01*
X36667619Y9650953D02*
X36667619Y9555715D01*
X35667619Y10317620D02*
X35667619Y10936667D01*
X35667619Y10936667D02*
X36048571Y10603334D01*
X36048571Y10603334D02*
X36048571Y10746191D01*
X36048571Y10746191D02*
X36096190Y10841429D01*
X36096190Y10841429D02*
X36143809Y10889048D01*
X36143809Y10889048D02*
X36239047Y10936667D01*
X36239047Y10936667D02*
X36477142Y10936667D01*
X36477142Y10936667D02*
X36572380Y10889048D01*
X36572380Y10889048D02*
X36620000Y10841429D01*
X36620000Y10841429D02*
X36667619Y10746191D01*
X36667619Y10746191D02*
X36667619Y10460477D01*
X36667619Y10460477D02*
X36620000Y10365239D01*
X36620000Y10365239D02*
X36572380Y10317620D01*
%TO.C,C23*%
X12419642Y30932620D02*
X12372023Y30885000D01*
X12372023Y30885000D02*
X12229166Y30837381D01*
X12229166Y30837381D02*
X12133928Y30837381D01*
X12133928Y30837381D02*
X11991071Y30885000D01*
X11991071Y30885000D02*
X11895833Y30980239D01*
X11895833Y30980239D02*
X11848214Y31075477D01*
X11848214Y31075477D02*
X11800595Y31265953D01*
X11800595Y31265953D02*
X11800595Y31408810D01*
X11800595Y31408810D02*
X11848214Y31599286D01*
X11848214Y31599286D02*
X11895833Y31694524D01*
X11895833Y31694524D02*
X11991071Y31789762D01*
X11991071Y31789762D02*
X12133928Y31837381D01*
X12133928Y31837381D02*
X12229166Y31837381D01*
X12229166Y31837381D02*
X12372023Y31789762D01*
X12372023Y31789762D02*
X12419642Y31742143D01*
X12800595Y31742143D02*
X12848214Y31789762D01*
X12848214Y31789762D02*
X12943452Y31837381D01*
X12943452Y31837381D02*
X13181547Y31837381D01*
X13181547Y31837381D02*
X13276785Y31789762D01*
X13276785Y31789762D02*
X13324404Y31742143D01*
X13324404Y31742143D02*
X13372023Y31646905D01*
X13372023Y31646905D02*
X13372023Y31551667D01*
X13372023Y31551667D02*
X13324404Y31408810D01*
X13324404Y31408810D02*
X12752976Y30837381D01*
X12752976Y30837381D02*
X13372023Y30837381D01*
X13705357Y31837381D02*
X14324404Y31837381D01*
X14324404Y31837381D02*
X13991071Y31456429D01*
X13991071Y31456429D02*
X14133928Y31456429D01*
X14133928Y31456429D02*
X14229166Y31408810D01*
X14229166Y31408810D02*
X14276785Y31361191D01*
X14276785Y31361191D02*
X14324404Y31265953D01*
X14324404Y31265953D02*
X14324404Y31027858D01*
X14324404Y31027858D02*
X14276785Y30932620D01*
X14276785Y30932620D02*
X14229166Y30885000D01*
X14229166Y30885000D02*
X14133928Y30837381D01*
X14133928Y30837381D02*
X13848214Y30837381D01*
X13848214Y30837381D02*
X13752976Y30885000D01*
X13752976Y30885000D02*
X13705357Y30932620D01*
%TO.C,R20*%
X25019642Y1837381D02*
X24686309Y2313572D01*
X24448214Y1837381D02*
X24448214Y2837381D01*
X24448214Y2837381D02*
X24829166Y2837381D01*
X24829166Y2837381D02*
X24924404Y2789762D01*
X24924404Y2789762D02*
X24972023Y2742143D01*
X24972023Y2742143D02*
X25019642Y2646905D01*
X25019642Y2646905D02*
X25019642Y2504048D01*
X25019642Y2504048D02*
X24972023Y2408810D01*
X24972023Y2408810D02*
X24924404Y2361191D01*
X24924404Y2361191D02*
X24829166Y2313572D01*
X24829166Y2313572D02*
X24448214Y2313572D01*
X25400595Y2742143D02*
X25448214Y2789762D01*
X25448214Y2789762D02*
X25543452Y2837381D01*
X25543452Y2837381D02*
X25781547Y2837381D01*
X25781547Y2837381D02*
X25876785Y2789762D01*
X25876785Y2789762D02*
X25924404Y2742143D01*
X25924404Y2742143D02*
X25972023Y2646905D01*
X25972023Y2646905D02*
X25972023Y2551667D01*
X25972023Y2551667D02*
X25924404Y2408810D01*
X25924404Y2408810D02*
X25352976Y1837381D01*
X25352976Y1837381D02*
X25972023Y1837381D01*
X26591071Y2837381D02*
X26686309Y2837381D01*
X26686309Y2837381D02*
X26781547Y2789762D01*
X26781547Y2789762D02*
X26829166Y2742143D01*
X26829166Y2742143D02*
X26876785Y2646905D01*
X26876785Y2646905D02*
X26924404Y2456429D01*
X26924404Y2456429D02*
X26924404Y2218334D01*
X26924404Y2218334D02*
X26876785Y2027858D01*
X26876785Y2027858D02*
X26829166Y1932620D01*
X26829166Y1932620D02*
X26781547Y1885000D01*
X26781547Y1885000D02*
X26686309Y1837381D01*
X26686309Y1837381D02*
X26591071Y1837381D01*
X26591071Y1837381D02*
X26495833Y1885000D01*
X26495833Y1885000D02*
X26448214Y1932620D01*
X26448214Y1932620D02*
X26400595Y2027858D01*
X26400595Y2027858D02*
X26352976Y2218334D01*
X26352976Y2218334D02*
X26352976Y2456429D01*
X26352976Y2456429D02*
X26400595Y2646905D01*
X26400595Y2646905D02*
X26448214Y2742143D01*
X26448214Y2742143D02*
X26495833Y2789762D01*
X26495833Y2789762D02*
X26591071Y2837381D01*
%TO.C,R13*%
X35457142Y46737381D02*
X35123809Y47213572D01*
X34885714Y46737381D02*
X34885714Y47737381D01*
X34885714Y47737381D02*
X35266666Y47737381D01*
X35266666Y47737381D02*
X35361904Y47689762D01*
X35361904Y47689762D02*
X35409523Y47642143D01*
X35409523Y47642143D02*
X35457142Y47546905D01*
X35457142Y47546905D02*
X35457142Y47404048D01*
X35457142Y47404048D02*
X35409523Y47308810D01*
X35409523Y47308810D02*
X35361904Y47261191D01*
X35361904Y47261191D02*
X35266666Y47213572D01*
X35266666Y47213572D02*
X34885714Y47213572D01*
X36409523Y46737381D02*
X35838095Y46737381D01*
X36123809Y46737381D02*
X36123809Y47737381D01*
X36123809Y47737381D02*
X36028571Y47594524D01*
X36028571Y47594524D02*
X35933333Y47499286D01*
X35933333Y47499286D02*
X35838095Y47451667D01*
X36742857Y47737381D02*
X37361904Y47737381D01*
X37361904Y47737381D02*
X37028571Y47356429D01*
X37028571Y47356429D02*
X37171428Y47356429D01*
X37171428Y47356429D02*
X37266666Y47308810D01*
X37266666Y47308810D02*
X37314285Y47261191D01*
X37314285Y47261191D02*
X37361904Y47165953D01*
X37361904Y47165953D02*
X37361904Y46927858D01*
X37361904Y46927858D02*
X37314285Y46832620D01*
X37314285Y46832620D02*
X37266666Y46785000D01*
X37266666Y46785000D02*
X37171428Y46737381D01*
X37171428Y46737381D02*
X36885714Y46737381D01*
X36885714Y46737381D02*
X36790476Y46785000D01*
X36790476Y46785000D02*
X36742857Y46832620D01*
%TO.C,D5*%
X30761905Y78837381D02*
X30761905Y79837381D01*
X30761905Y79837381D02*
X31000000Y79837381D01*
X31000000Y79837381D02*
X31142857Y79789762D01*
X31142857Y79789762D02*
X31238095Y79694524D01*
X31238095Y79694524D02*
X31285714Y79599286D01*
X31285714Y79599286D02*
X31333333Y79408810D01*
X31333333Y79408810D02*
X31333333Y79265953D01*
X31333333Y79265953D02*
X31285714Y79075477D01*
X31285714Y79075477D02*
X31238095Y78980239D01*
X31238095Y78980239D02*
X31142857Y78885000D01*
X31142857Y78885000D02*
X31000000Y78837381D01*
X31000000Y78837381D02*
X30761905Y78837381D01*
X32238095Y79837381D02*
X31761905Y79837381D01*
X31761905Y79837381D02*
X31714286Y79361191D01*
X31714286Y79361191D02*
X31761905Y79408810D01*
X31761905Y79408810D02*
X31857143Y79456429D01*
X31857143Y79456429D02*
X32095238Y79456429D01*
X32095238Y79456429D02*
X32190476Y79408810D01*
X32190476Y79408810D02*
X32238095Y79361191D01*
X32238095Y79361191D02*
X32285714Y79265953D01*
X32285714Y79265953D02*
X32285714Y79027858D01*
X32285714Y79027858D02*
X32238095Y78932620D01*
X32238095Y78932620D02*
X32190476Y78885000D01*
X32190476Y78885000D02*
X32095238Y78837381D01*
X32095238Y78837381D02*
X31857143Y78837381D01*
X31857143Y78837381D02*
X31761905Y78885000D01*
X31761905Y78885000D02*
X31714286Y78932620D01*
%TO.C,R16*%
X41757142Y29937381D02*
X41423809Y30413572D01*
X41185714Y29937381D02*
X41185714Y30937381D01*
X41185714Y30937381D02*
X41566666Y30937381D01*
X41566666Y30937381D02*
X41661904Y30889762D01*
X41661904Y30889762D02*
X41709523Y30842143D01*
X41709523Y30842143D02*
X41757142Y30746905D01*
X41757142Y30746905D02*
X41757142Y30604048D01*
X41757142Y30604048D02*
X41709523Y30508810D01*
X41709523Y30508810D02*
X41661904Y30461191D01*
X41661904Y30461191D02*
X41566666Y30413572D01*
X41566666Y30413572D02*
X41185714Y30413572D01*
X42709523Y29937381D02*
X42138095Y29937381D01*
X42423809Y29937381D02*
X42423809Y30937381D01*
X42423809Y30937381D02*
X42328571Y30794524D01*
X42328571Y30794524D02*
X42233333Y30699286D01*
X42233333Y30699286D02*
X42138095Y30651667D01*
X43566666Y30937381D02*
X43376190Y30937381D01*
X43376190Y30937381D02*
X43280952Y30889762D01*
X43280952Y30889762D02*
X43233333Y30842143D01*
X43233333Y30842143D02*
X43138095Y30699286D01*
X43138095Y30699286D02*
X43090476Y30508810D01*
X43090476Y30508810D02*
X43090476Y30127858D01*
X43090476Y30127858D02*
X43138095Y30032620D01*
X43138095Y30032620D02*
X43185714Y29985000D01*
X43185714Y29985000D02*
X43280952Y29937381D01*
X43280952Y29937381D02*
X43471428Y29937381D01*
X43471428Y29937381D02*
X43566666Y29985000D01*
X43566666Y29985000D02*
X43614285Y30032620D01*
X43614285Y30032620D02*
X43661904Y30127858D01*
X43661904Y30127858D02*
X43661904Y30365953D01*
X43661904Y30365953D02*
X43614285Y30461191D01*
X43614285Y30461191D02*
X43566666Y30508810D01*
X43566666Y30508810D02*
X43471428Y30556429D01*
X43471428Y30556429D02*
X43280952Y30556429D01*
X43280952Y30556429D02*
X43185714Y30508810D01*
X43185714Y30508810D02*
X43138095Y30461191D01*
X43138095Y30461191D02*
X43090476Y30365953D01*
D15*
%TO.C,J2*%
X47483928Y26382287D02*
X47483928Y25668001D01*
X47483928Y25668001D02*
X48198214Y25596573D01*
X48198214Y25596573D02*
X48126785Y25668001D01*
X48126785Y25668001D02*
X48055357Y25810858D01*
X48055357Y25810858D02*
X48055357Y26168001D01*
X48055357Y26168001D02*
X48126785Y26310858D01*
X48126785Y26310858D02*
X48198214Y26382287D01*
X48198214Y26382287D02*
X48341071Y26453716D01*
X48341071Y26453716D02*
X48698214Y26453716D01*
X48698214Y26453716D02*
X48841071Y26382287D01*
X48841071Y26382287D02*
X48912500Y26310858D01*
X48912500Y26310858D02*
X48983928Y26168001D01*
X48983928Y26168001D02*
X48983928Y25810858D01*
X48983928Y25810858D02*
X48912500Y25668001D01*
X48912500Y25668001D02*
X48841071Y25596573D01*
X47483928Y26882287D02*
X48983928Y27382287D01*
X48983928Y27382287D02*
X47483928Y27882287D01*
D14*
%TO.C,C3*%
X25533333Y55332620D02*
X25485714Y55285000D01*
X25485714Y55285000D02*
X25342857Y55237381D01*
X25342857Y55237381D02*
X25247619Y55237381D01*
X25247619Y55237381D02*
X25104762Y55285000D01*
X25104762Y55285000D02*
X25009524Y55380239D01*
X25009524Y55380239D02*
X24961905Y55475477D01*
X24961905Y55475477D02*
X24914286Y55665953D01*
X24914286Y55665953D02*
X24914286Y55808810D01*
X24914286Y55808810D02*
X24961905Y55999286D01*
X24961905Y55999286D02*
X25009524Y56094524D01*
X25009524Y56094524D02*
X25104762Y56189762D01*
X25104762Y56189762D02*
X25247619Y56237381D01*
X25247619Y56237381D02*
X25342857Y56237381D01*
X25342857Y56237381D02*
X25485714Y56189762D01*
X25485714Y56189762D02*
X25533333Y56142143D01*
X25866667Y56237381D02*
X26485714Y56237381D01*
X26485714Y56237381D02*
X26152381Y55856429D01*
X26152381Y55856429D02*
X26295238Y55856429D01*
X26295238Y55856429D02*
X26390476Y55808810D01*
X26390476Y55808810D02*
X26438095Y55761191D01*
X26438095Y55761191D02*
X26485714Y55665953D01*
X26485714Y55665953D02*
X26485714Y55427858D01*
X26485714Y55427858D02*
X26438095Y55332620D01*
X26438095Y55332620D02*
X26390476Y55285000D01*
X26390476Y55285000D02*
X26295238Y55237381D01*
X26295238Y55237381D02*
X26009524Y55237381D01*
X26009524Y55237381D02*
X25914286Y55285000D01*
X25914286Y55285000D02*
X25866667Y55332620D01*
D16*
%TO.C,RV2*%
X6887380Y30745239D02*
X7363571Y31078572D01*
X6887380Y31316667D02*
X7887380Y31316667D01*
X7887380Y31316667D02*
X7887380Y30935715D01*
X7887380Y30935715D02*
X7839761Y30840477D01*
X7839761Y30840477D02*
X7792142Y30792858D01*
X7792142Y30792858D02*
X7696904Y30745239D01*
X7696904Y30745239D02*
X7554047Y30745239D01*
X7554047Y30745239D02*
X7458809Y30792858D01*
X7458809Y30792858D02*
X7411190Y30840477D01*
X7411190Y30840477D02*
X7363571Y30935715D01*
X7363571Y30935715D02*
X7363571Y31316667D01*
X7887380Y30459524D02*
X6887380Y30126191D01*
X6887380Y30126191D02*
X7887380Y29792858D01*
X7792142Y29507143D02*
X7839761Y29459524D01*
X7839761Y29459524D02*
X7887380Y29364286D01*
X7887380Y29364286D02*
X7887380Y29126191D01*
X7887380Y29126191D02*
X7839761Y29030953D01*
X7839761Y29030953D02*
X7792142Y28983334D01*
X7792142Y28983334D02*
X7696904Y28935715D01*
X7696904Y28935715D02*
X7601666Y28935715D01*
X7601666Y28935715D02*
X7458809Y28983334D01*
X7458809Y28983334D02*
X6887380Y29554762D01*
X6887380Y29554762D02*
X6887380Y28935715D01*
D14*
%TO.C,C5*%
X22367380Y70833334D02*
X22415000Y70785715D01*
X22415000Y70785715D02*
X22462619Y70642858D01*
X22462619Y70642858D02*
X22462619Y70547620D01*
X22462619Y70547620D02*
X22415000Y70404763D01*
X22415000Y70404763D02*
X22319761Y70309525D01*
X22319761Y70309525D02*
X22224523Y70261906D01*
X22224523Y70261906D02*
X22034047Y70214287D01*
X22034047Y70214287D02*
X21891190Y70214287D01*
X21891190Y70214287D02*
X21700714Y70261906D01*
X21700714Y70261906D02*
X21605476Y70309525D01*
X21605476Y70309525D02*
X21510238Y70404763D01*
X21510238Y70404763D02*
X21462619Y70547620D01*
X21462619Y70547620D02*
X21462619Y70642858D01*
X21462619Y70642858D02*
X21510238Y70785715D01*
X21510238Y70785715D02*
X21557857Y70833334D01*
X21462619Y71738096D02*
X21462619Y71261906D01*
X21462619Y71261906D02*
X21938809Y71214287D01*
X21938809Y71214287D02*
X21891190Y71261906D01*
X21891190Y71261906D02*
X21843571Y71357144D01*
X21843571Y71357144D02*
X21843571Y71595239D01*
X21843571Y71595239D02*
X21891190Y71690477D01*
X21891190Y71690477D02*
X21938809Y71738096D01*
X21938809Y71738096D02*
X22034047Y71785715D01*
X22034047Y71785715D02*
X22272142Y71785715D01*
X22272142Y71785715D02*
X22367380Y71738096D01*
X22367380Y71738096D02*
X22415000Y71690477D01*
X22415000Y71690477D02*
X22462619Y71595239D01*
X22462619Y71595239D02*
X22462619Y71357144D01*
X22462619Y71357144D02*
X22415000Y71261906D01*
X22415000Y71261906D02*
X22367380Y71214287D01*
D16*
%TO.C,L2*%
X39333333Y70237381D02*
X38857143Y70237381D01*
X38857143Y70237381D02*
X38857143Y71237381D01*
X39619048Y71142143D02*
X39666667Y71189762D01*
X39666667Y71189762D02*
X39761905Y71237381D01*
X39761905Y71237381D02*
X40000000Y71237381D01*
X40000000Y71237381D02*
X40095238Y71189762D01*
X40095238Y71189762D02*
X40142857Y71142143D01*
X40142857Y71142143D02*
X40190476Y71046905D01*
X40190476Y71046905D02*
X40190476Y70951667D01*
X40190476Y70951667D02*
X40142857Y70808810D01*
X40142857Y70808810D02*
X39571429Y70237381D01*
X39571429Y70237381D02*
X40190476Y70237381D01*
D14*
%TO.C,D4*%
X43761905Y78437381D02*
X43761905Y79437381D01*
X43761905Y79437381D02*
X44000000Y79437381D01*
X44000000Y79437381D02*
X44142857Y79389762D01*
X44142857Y79389762D02*
X44238095Y79294524D01*
X44238095Y79294524D02*
X44285714Y79199286D01*
X44285714Y79199286D02*
X44333333Y79008810D01*
X44333333Y79008810D02*
X44333333Y78865953D01*
X44333333Y78865953D02*
X44285714Y78675477D01*
X44285714Y78675477D02*
X44238095Y78580239D01*
X44238095Y78580239D02*
X44142857Y78485000D01*
X44142857Y78485000D02*
X44000000Y78437381D01*
X44000000Y78437381D02*
X43761905Y78437381D01*
X45190476Y79104048D02*
X45190476Y78437381D01*
X44952381Y79485000D02*
X44714286Y78770715D01*
X44714286Y78770715D02*
X45333333Y78770715D01*
%TO.C,C15*%
X13757142Y44432620D02*
X13709523Y44385000D01*
X13709523Y44385000D02*
X13566666Y44337381D01*
X13566666Y44337381D02*
X13471428Y44337381D01*
X13471428Y44337381D02*
X13328571Y44385000D01*
X13328571Y44385000D02*
X13233333Y44480239D01*
X13233333Y44480239D02*
X13185714Y44575477D01*
X13185714Y44575477D02*
X13138095Y44765953D01*
X13138095Y44765953D02*
X13138095Y44908810D01*
X13138095Y44908810D02*
X13185714Y45099286D01*
X13185714Y45099286D02*
X13233333Y45194524D01*
X13233333Y45194524D02*
X13328571Y45289762D01*
X13328571Y45289762D02*
X13471428Y45337381D01*
X13471428Y45337381D02*
X13566666Y45337381D01*
X13566666Y45337381D02*
X13709523Y45289762D01*
X13709523Y45289762D02*
X13757142Y45242143D01*
X14709523Y44337381D02*
X14138095Y44337381D01*
X14423809Y44337381D02*
X14423809Y45337381D01*
X14423809Y45337381D02*
X14328571Y45194524D01*
X14328571Y45194524D02*
X14233333Y45099286D01*
X14233333Y45099286D02*
X14138095Y45051667D01*
X15614285Y45337381D02*
X15138095Y45337381D01*
X15138095Y45337381D02*
X15090476Y44861191D01*
X15090476Y44861191D02*
X15138095Y44908810D01*
X15138095Y44908810D02*
X15233333Y44956429D01*
X15233333Y44956429D02*
X15471428Y44956429D01*
X15471428Y44956429D02*
X15566666Y44908810D01*
X15566666Y44908810D02*
X15614285Y44861191D01*
X15614285Y44861191D02*
X15661904Y44765953D01*
X15661904Y44765953D02*
X15661904Y44527858D01*
X15661904Y44527858D02*
X15614285Y44432620D01*
X15614285Y44432620D02*
X15566666Y44385000D01*
X15566666Y44385000D02*
X15471428Y44337381D01*
X15471428Y44337381D02*
X15233333Y44337381D01*
X15233333Y44337381D02*
X15138095Y44385000D01*
X15138095Y44385000D02*
X15090476Y44432620D01*
%TO.C,J1*%
X43676666Y64157381D02*
X43676666Y63443096D01*
X43676666Y63443096D02*
X43629047Y63300239D01*
X43629047Y63300239D02*
X43533809Y63205000D01*
X43533809Y63205000D02*
X43390952Y63157381D01*
X43390952Y63157381D02*
X43295714Y63157381D01*
X44676666Y63157381D02*
X44105238Y63157381D01*
X44390952Y63157381D02*
X44390952Y64157381D01*
X44390952Y64157381D02*
X44295714Y64014524D01*
X44295714Y64014524D02*
X44200476Y63919286D01*
X44200476Y63919286D02*
X44105238Y63871667D01*
%TO.C,JP4*%
X25566666Y53337381D02*
X25566666Y52623096D01*
X25566666Y52623096D02*
X25519047Y52480239D01*
X25519047Y52480239D02*
X25423809Y52385000D01*
X25423809Y52385000D02*
X25280952Y52337381D01*
X25280952Y52337381D02*
X25185714Y52337381D01*
X26042857Y52337381D02*
X26042857Y53337381D01*
X26042857Y53337381D02*
X26423809Y53337381D01*
X26423809Y53337381D02*
X26519047Y53289762D01*
X26519047Y53289762D02*
X26566666Y53242143D01*
X26566666Y53242143D02*
X26614285Y53146905D01*
X26614285Y53146905D02*
X26614285Y53004048D01*
X26614285Y53004048D02*
X26566666Y52908810D01*
X26566666Y52908810D02*
X26519047Y52861191D01*
X26519047Y52861191D02*
X26423809Y52813572D01*
X26423809Y52813572D02*
X26042857Y52813572D01*
X27471428Y53004048D02*
X27471428Y52337381D01*
X27233333Y53385000D02*
X26995238Y52670715D01*
X26995238Y52670715D02*
X27614285Y52670715D01*
%TO.C,C4*%
X32367380Y71333334D02*
X32415000Y71285715D01*
X32415000Y71285715D02*
X32462619Y71142858D01*
X32462619Y71142858D02*
X32462619Y71047620D01*
X32462619Y71047620D02*
X32415000Y70904763D01*
X32415000Y70904763D02*
X32319761Y70809525D01*
X32319761Y70809525D02*
X32224523Y70761906D01*
X32224523Y70761906D02*
X32034047Y70714287D01*
X32034047Y70714287D02*
X31891190Y70714287D01*
X31891190Y70714287D02*
X31700714Y70761906D01*
X31700714Y70761906D02*
X31605476Y70809525D01*
X31605476Y70809525D02*
X31510238Y70904763D01*
X31510238Y70904763D02*
X31462619Y71047620D01*
X31462619Y71047620D02*
X31462619Y71142858D01*
X31462619Y71142858D02*
X31510238Y71285715D01*
X31510238Y71285715D02*
X31557857Y71333334D01*
X31795952Y72190477D02*
X32462619Y72190477D01*
X31415000Y71952382D02*
X32129285Y71714287D01*
X32129285Y71714287D02*
X32129285Y72333334D01*
%TO.C,C1*%
X24633333Y25132620D02*
X24585714Y25085000D01*
X24585714Y25085000D02*
X24442857Y25037381D01*
X24442857Y25037381D02*
X24347619Y25037381D01*
X24347619Y25037381D02*
X24204762Y25085000D01*
X24204762Y25085000D02*
X24109524Y25180239D01*
X24109524Y25180239D02*
X24061905Y25275477D01*
X24061905Y25275477D02*
X24014286Y25465953D01*
X24014286Y25465953D02*
X24014286Y25608810D01*
X24014286Y25608810D02*
X24061905Y25799286D01*
X24061905Y25799286D02*
X24109524Y25894524D01*
X24109524Y25894524D02*
X24204762Y25989762D01*
X24204762Y25989762D02*
X24347619Y26037381D01*
X24347619Y26037381D02*
X24442857Y26037381D01*
X24442857Y26037381D02*
X24585714Y25989762D01*
X24585714Y25989762D02*
X24633333Y25942143D01*
X25585714Y25037381D02*
X25014286Y25037381D01*
X25300000Y25037381D02*
X25300000Y26037381D01*
X25300000Y26037381D02*
X25204762Y25894524D01*
X25204762Y25894524D02*
X25109524Y25799286D01*
X25109524Y25799286D02*
X25014286Y25751667D01*
%TO.C,C17*%
X32457142Y42732620D02*
X32409523Y42685000D01*
X32409523Y42685000D02*
X32266666Y42637381D01*
X32266666Y42637381D02*
X32171428Y42637381D01*
X32171428Y42637381D02*
X32028571Y42685000D01*
X32028571Y42685000D02*
X31933333Y42780239D01*
X31933333Y42780239D02*
X31885714Y42875477D01*
X31885714Y42875477D02*
X31838095Y43065953D01*
X31838095Y43065953D02*
X31838095Y43208810D01*
X31838095Y43208810D02*
X31885714Y43399286D01*
X31885714Y43399286D02*
X31933333Y43494524D01*
X31933333Y43494524D02*
X32028571Y43589762D01*
X32028571Y43589762D02*
X32171428Y43637381D01*
X32171428Y43637381D02*
X32266666Y43637381D01*
X32266666Y43637381D02*
X32409523Y43589762D01*
X32409523Y43589762D02*
X32457142Y43542143D01*
X33409523Y42637381D02*
X32838095Y42637381D01*
X33123809Y42637381D02*
X33123809Y43637381D01*
X33123809Y43637381D02*
X33028571Y43494524D01*
X33028571Y43494524D02*
X32933333Y43399286D01*
X32933333Y43399286D02*
X32838095Y43351667D01*
X33742857Y43637381D02*
X34409523Y43637381D01*
X34409523Y43637381D02*
X33980952Y42637381D01*
%TO.C,R6*%
X23133333Y81937381D02*
X22800000Y82413572D01*
X22561905Y81937381D02*
X22561905Y82937381D01*
X22561905Y82937381D02*
X22942857Y82937381D01*
X22942857Y82937381D02*
X23038095Y82889762D01*
X23038095Y82889762D02*
X23085714Y82842143D01*
X23085714Y82842143D02*
X23133333Y82746905D01*
X23133333Y82746905D02*
X23133333Y82604048D01*
X23133333Y82604048D02*
X23085714Y82508810D01*
X23085714Y82508810D02*
X23038095Y82461191D01*
X23038095Y82461191D02*
X22942857Y82413572D01*
X22942857Y82413572D02*
X22561905Y82413572D01*
X23990476Y82937381D02*
X23800000Y82937381D01*
X23800000Y82937381D02*
X23704762Y82889762D01*
X23704762Y82889762D02*
X23657143Y82842143D01*
X23657143Y82842143D02*
X23561905Y82699286D01*
X23561905Y82699286D02*
X23514286Y82508810D01*
X23514286Y82508810D02*
X23514286Y82127858D01*
X23514286Y82127858D02*
X23561905Y82032620D01*
X23561905Y82032620D02*
X23609524Y81985000D01*
X23609524Y81985000D02*
X23704762Y81937381D01*
X23704762Y81937381D02*
X23895238Y81937381D01*
X23895238Y81937381D02*
X23990476Y81985000D01*
X23990476Y81985000D02*
X24038095Y82032620D01*
X24038095Y82032620D02*
X24085714Y82127858D01*
X24085714Y82127858D02*
X24085714Y82365953D01*
X24085714Y82365953D02*
X24038095Y82461191D01*
X24038095Y82461191D02*
X23990476Y82508810D01*
X23990476Y82508810D02*
X23895238Y82556429D01*
X23895238Y82556429D02*
X23704762Y82556429D01*
X23704762Y82556429D02*
X23609524Y82508810D01*
X23609524Y82508810D02*
X23561905Y82461191D01*
X23561905Y82461191D02*
X23514286Y82365953D01*
%TO.C,D7*%
X14461905Y68037381D02*
X14461905Y69037381D01*
X14461905Y69037381D02*
X14700000Y69037381D01*
X14700000Y69037381D02*
X14842857Y68989762D01*
X14842857Y68989762D02*
X14938095Y68894524D01*
X14938095Y68894524D02*
X14985714Y68799286D01*
X14985714Y68799286D02*
X15033333Y68608810D01*
X15033333Y68608810D02*
X15033333Y68465953D01*
X15033333Y68465953D02*
X14985714Y68275477D01*
X14985714Y68275477D02*
X14938095Y68180239D01*
X14938095Y68180239D02*
X14842857Y68085000D01*
X14842857Y68085000D02*
X14700000Y68037381D01*
X14700000Y68037381D02*
X14461905Y68037381D01*
X15366667Y69037381D02*
X16033333Y69037381D01*
X16033333Y69037381D02*
X15604762Y68037381D01*
%TO.C,J4*%
X17419048Y84423096D02*
X17895238Y84423096D01*
X17323810Y84137381D02*
X17657143Y85137381D01*
X17657143Y85137381D02*
X17990476Y84137381D01*
X18323810Y84137381D02*
X18323810Y85137381D01*
X18323810Y85137381D02*
X18657143Y84423096D01*
X18657143Y84423096D02*
X18990476Y85137381D01*
X18990476Y85137381D02*
X18990476Y84137381D01*
X20180952Y85185000D02*
X19323810Y83899286D01*
X20466667Y84185000D02*
X20609524Y84137381D01*
X20609524Y84137381D02*
X20847619Y84137381D01*
X20847619Y84137381D02*
X20942857Y84185000D01*
X20942857Y84185000D02*
X20990476Y84232620D01*
X20990476Y84232620D02*
X21038095Y84327858D01*
X21038095Y84327858D02*
X21038095Y84423096D01*
X21038095Y84423096D02*
X20990476Y84518334D01*
X20990476Y84518334D02*
X20942857Y84565953D01*
X20942857Y84565953D02*
X20847619Y84613572D01*
X20847619Y84613572D02*
X20657143Y84661191D01*
X20657143Y84661191D02*
X20561905Y84708810D01*
X20561905Y84708810D02*
X20514286Y84756429D01*
X20514286Y84756429D02*
X20466667Y84851667D01*
X20466667Y84851667D02*
X20466667Y84946905D01*
X20466667Y84946905D02*
X20514286Y85042143D01*
X20514286Y85042143D02*
X20561905Y85089762D01*
X20561905Y85089762D02*
X20657143Y85137381D01*
X20657143Y85137381D02*
X20895238Y85137381D01*
X20895238Y85137381D02*
X21038095Y85089762D01*
X21371429Y85137381D02*
X21609524Y84137381D01*
X21609524Y84137381D02*
X21800000Y84851667D01*
X21800000Y84851667D02*
X21990476Y84137381D01*
X21990476Y84137381D02*
X22228572Y85137381D01*
%TO.C,R15*%
X12862619Y47157143D02*
X12386428Y46823810D01*
X12862619Y46585715D02*
X11862619Y46585715D01*
X11862619Y46585715D02*
X11862619Y46966667D01*
X11862619Y46966667D02*
X11910238Y47061905D01*
X11910238Y47061905D02*
X11957857Y47109524D01*
X11957857Y47109524D02*
X12053095Y47157143D01*
X12053095Y47157143D02*
X12195952Y47157143D01*
X12195952Y47157143D02*
X12291190Y47109524D01*
X12291190Y47109524D02*
X12338809Y47061905D01*
X12338809Y47061905D02*
X12386428Y46966667D01*
X12386428Y46966667D02*
X12386428Y46585715D01*
X12862619Y48109524D02*
X12862619Y47538096D01*
X12862619Y47823810D02*
X11862619Y47823810D01*
X11862619Y47823810D02*
X12005476Y47728572D01*
X12005476Y47728572D02*
X12100714Y47633334D01*
X12100714Y47633334D02*
X12148333Y47538096D01*
X11862619Y49014286D02*
X11862619Y48538096D01*
X11862619Y48538096D02*
X12338809Y48490477D01*
X12338809Y48490477D02*
X12291190Y48538096D01*
X12291190Y48538096D02*
X12243571Y48633334D01*
X12243571Y48633334D02*
X12243571Y48871429D01*
X12243571Y48871429D02*
X12291190Y48966667D01*
X12291190Y48966667D02*
X12338809Y49014286D01*
X12338809Y49014286D02*
X12434047Y49061905D01*
X12434047Y49061905D02*
X12672142Y49061905D01*
X12672142Y49061905D02*
X12767380Y49014286D01*
X12767380Y49014286D02*
X12815000Y48966667D01*
X12815000Y48966667D02*
X12862619Y48871429D01*
X12862619Y48871429D02*
X12862619Y48633334D01*
X12862619Y48633334D02*
X12815000Y48538096D01*
X12815000Y48538096D02*
X12767380Y48490477D01*
D16*
%TO.C,RV1*%
X7287619Y60804762D02*
X6811428Y60471429D01*
X7287619Y60233334D02*
X6287619Y60233334D01*
X6287619Y60233334D02*
X6287619Y60614286D01*
X6287619Y60614286D02*
X6335238Y60709524D01*
X6335238Y60709524D02*
X6382857Y60757143D01*
X6382857Y60757143D02*
X6478095Y60804762D01*
X6478095Y60804762D02*
X6620952Y60804762D01*
X6620952Y60804762D02*
X6716190Y60757143D01*
X6716190Y60757143D02*
X6763809Y60709524D01*
X6763809Y60709524D02*
X6811428Y60614286D01*
X6811428Y60614286D02*
X6811428Y60233334D01*
X6287619Y61090477D02*
X7287619Y61423810D01*
X7287619Y61423810D02*
X6287619Y61757143D01*
X7287619Y62614286D02*
X7287619Y62042858D01*
X7287619Y62328572D02*
X6287619Y62328572D01*
X6287619Y62328572D02*
X6430476Y62233334D01*
X6430476Y62233334D02*
X6525714Y62138096D01*
X6525714Y62138096D02*
X6573333Y62042858D01*
D14*
%TO.C,EMI1*%
X31338809Y61700001D02*
X31338809Y62033334D01*
X31862619Y62176191D02*
X31862619Y61700001D01*
X31862619Y61700001D02*
X30862619Y61700001D01*
X30862619Y61700001D02*
X30862619Y62176191D01*
X31862619Y62604763D02*
X30862619Y62604763D01*
X30862619Y62604763D02*
X31576904Y62938096D01*
X31576904Y62938096D02*
X30862619Y63271429D01*
X30862619Y63271429D02*
X31862619Y63271429D01*
X31862619Y63747620D02*
X30862619Y63747620D01*
X31862619Y64747619D02*
X31862619Y64176191D01*
X31862619Y64461905D02*
X30862619Y64461905D01*
X30862619Y64461905D02*
X31005476Y64366667D01*
X31005476Y64366667D02*
X31100714Y64271429D01*
X31100714Y64271429D02*
X31148333Y64176191D01*
%TO.C,R10*%
X21357142Y27637381D02*
X21023809Y28113572D01*
X20785714Y27637381D02*
X20785714Y28637381D01*
X20785714Y28637381D02*
X21166666Y28637381D01*
X21166666Y28637381D02*
X21261904Y28589762D01*
X21261904Y28589762D02*
X21309523Y28542143D01*
X21309523Y28542143D02*
X21357142Y28446905D01*
X21357142Y28446905D02*
X21357142Y28304048D01*
X21357142Y28304048D02*
X21309523Y28208810D01*
X21309523Y28208810D02*
X21261904Y28161191D01*
X21261904Y28161191D02*
X21166666Y28113572D01*
X21166666Y28113572D02*
X20785714Y28113572D01*
X22309523Y27637381D02*
X21738095Y27637381D01*
X22023809Y27637381D02*
X22023809Y28637381D01*
X22023809Y28637381D02*
X21928571Y28494524D01*
X21928571Y28494524D02*
X21833333Y28399286D01*
X21833333Y28399286D02*
X21738095Y28351667D01*
X22928571Y28637381D02*
X23023809Y28637381D01*
X23023809Y28637381D02*
X23119047Y28589762D01*
X23119047Y28589762D02*
X23166666Y28542143D01*
X23166666Y28542143D02*
X23214285Y28446905D01*
X23214285Y28446905D02*
X23261904Y28256429D01*
X23261904Y28256429D02*
X23261904Y28018334D01*
X23261904Y28018334D02*
X23214285Y27827858D01*
X23214285Y27827858D02*
X23166666Y27732620D01*
X23166666Y27732620D02*
X23119047Y27685000D01*
X23119047Y27685000D02*
X23023809Y27637381D01*
X23023809Y27637381D02*
X22928571Y27637381D01*
X22928571Y27637381D02*
X22833333Y27685000D01*
X22833333Y27685000D02*
X22785714Y27732620D01*
X22785714Y27732620D02*
X22738095Y27827858D01*
X22738095Y27827858D02*
X22690476Y28018334D01*
X22690476Y28018334D02*
X22690476Y28256429D01*
X22690476Y28256429D02*
X22738095Y28446905D01*
X22738095Y28446905D02*
X22785714Y28542143D01*
X22785714Y28542143D02*
X22833333Y28589762D01*
X22833333Y28589762D02*
X22928571Y28637381D01*
%TO.C,C11*%
X21382142Y25932620D02*
X21334523Y25885000D01*
X21334523Y25885000D02*
X21191666Y25837381D01*
X21191666Y25837381D02*
X21096428Y25837381D01*
X21096428Y25837381D02*
X20953571Y25885000D01*
X20953571Y25885000D02*
X20858333Y25980239D01*
X20858333Y25980239D02*
X20810714Y26075477D01*
X20810714Y26075477D02*
X20763095Y26265953D01*
X20763095Y26265953D02*
X20763095Y26408810D01*
X20763095Y26408810D02*
X20810714Y26599286D01*
X20810714Y26599286D02*
X20858333Y26694524D01*
X20858333Y26694524D02*
X20953571Y26789762D01*
X20953571Y26789762D02*
X21096428Y26837381D01*
X21096428Y26837381D02*
X21191666Y26837381D01*
X21191666Y26837381D02*
X21334523Y26789762D01*
X21334523Y26789762D02*
X21382142Y26742143D01*
X22334523Y25837381D02*
X21763095Y25837381D01*
X22048809Y25837381D02*
X22048809Y26837381D01*
X22048809Y26837381D02*
X21953571Y26694524D01*
X21953571Y26694524D02*
X21858333Y26599286D01*
X21858333Y26599286D02*
X21763095Y26551667D01*
X23286904Y25837381D02*
X22715476Y25837381D01*
X23001190Y25837381D02*
X23001190Y26837381D01*
X23001190Y26837381D02*
X22905952Y26694524D01*
X22905952Y26694524D02*
X22810714Y26599286D01*
X22810714Y26599286D02*
X22715476Y26551667D01*
%TO.C,C13*%
X6107142Y40882620D02*
X6059523Y40835000D01*
X6059523Y40835000D02*
X5916666Y40787381D01*
X5916666Y40787381D02*
X5821428Y40787381D01*
X5821428Y40787381D02*
X5678571Y40835000D01*
X5678571Y40835000D02*
X5583333Y40930239D01*
X5583333Y40930239D02*
X5535714Y41025477D01*
X5535714Y41025477D02*
X5488095Y41215953D01*
X5488095Y41215953D02*
X5488095Y41358810D01*
X5488095Y41358810D02*
X5535714Y41549286D01*
X5535714Y41549286D02*
X5583333Y41644524D01*
X5583333Y41644524D02*
X5678571Y41739762D01*
X5678571Y41739762D02*
X5821428Y41787381D01*
X5821428Y41787381D02*
X5916666Y41787381D01*
X5916666Y41787381D02*
X6059523Y41739762D01*
X6059523Y41739762D02*
X6107142Y41692143D01*
X7059523Y40787381D02*
X6488095Y40787381D01*
X6773809Y40787381D02*
X6773809Y41787381D01*
X6773809Y41787381D02*
X6678571Y41644524D01*
X6678571Y41644524D02*
X6583333Y41549286D01*
X6583333Y41549286D02*
X6488095Y41501667D01*
X7392857Y41787381D02*
X8011904Y41787381D01*
X8011904Y41787381D02*
X7678571Y41406429D01*
X7678571Y41406429D02*
X7821428Y41406429D01*
X7821428Y41406429D02*
X7916666Y41358810D01*
X7916666Y41358810D02*
X7964285Y41311191D01*
X7964285Y41311191D02*
X8011904Y41215953D01*
X8011904Y41215953D02*
X8011904Y40977858D01*
X8011904Y40977858D02*
X7964285Y40882620D01*
X7964285Y40882620D02*
X7916666Y40835000D01*
X7916666Y40835000D02*
X7821428Y40787381D01*
X7821428Y40787381D02*
X7535714Y40787381D01*
X7535714Y40787381D02*
X7440476Y40835000D01*
X7440476Y40835000D02*
X7392857Y40882620D01*
%TO.C,C21*%
X32857142Y33332620D02*
X32809523Y33285000D01*
X32809523Y33285000D02*
X32666666Y33237381D01*
X32666666Y33237381D02*
X32571428Y33237381D01*
X32571428Y33237381D02*
X32428571Y33285000D01*
X32428571Y33285000D02*
X32333333Y33380239D01*
X32333333Y33380239D02*
X32285714Y33475477D01*
X32285714Y33475477D02*
X32238095Y33665953D01*
X32238095Y33665953D02*
X32238095Y33808810D01*
X32238095Y33808810D02*
X32285714Y33999286D01*
X32285714Y33999286D02*
X32333333Y34094524D01*
X32333333Y34094524D02*
X32428571Y34189762D01*
X32428571Y34189762D02*
X32571428Y34237381D01*
X32571428Y34237381D02*
X32666666Y34237381D01*
X32666666Y34237381D02*
X32809523Y34189762D01*
X32809523Y34189762D02*
X32857142Y34142143D01*
X33238095Y34142143D02*
X33285714Y34189762D01*
X33285714Y34189762D02*
X33380952Y34237381D01*
X33380952Y34237381D02*
X33619047Y34237381D01*
X33619047Y34237381D02*
X33714285Y34189762D01*
X33714285Y34189762D02*
X33761904Y34142143D01*
X33761904Y34142143D02*
X33809523Y34046905D01*
X33809523Y34046905D02*
X33809523Y33951667D01*
X33809523Y33951667D02*
X33761904Y33808810D01*
X33761904Y33808810D02*
X33190476Y33237381D01*
X33190476Y33237381D02*
X33809523Y33237381D01*
X34761904Y33237381D02*
X34190476Y33237381D01*
X34476190Y33237381D02*
X34476190Y34237381D01*
X34476190Y34237381D02*
X34380952Y34094524D01*
X34380952Y34094524D02*
X34285714Y33999286D01*
X34285714Y33999286D02*
X34190476Y33951667D01*
%TO.C,R8*%
X10008333Y73937381D02*
X9675000Y74413572D01*
X9436905Y73937381D02*
X9436905Y74937381D01*
X9436905Y74937381D02*
X9817857Y74937381D01*
X9817857Y74937381D02*
X9913095Y74889762D01*
X9913095Y74889762D02*
X9960714Y74842143D01*
X9960714Y74842143D02*
X10008333Y74746905D01*
X10008333Y74746905D02*
X10008333Y74604048D01*
X10008333Y74604048D02*
X9960714Y74508810D01*
X9960714Y74508810D02*
X9913095Y74461191D01*
X9913095Y74461191D02*
X9817857Y74413572D01*
X9817857Y74413572D02*
X9436905Y74413572D01*
X10579762Y74508810D02*
X10484524Y74556429D01*
X10484524Y74556429D02*
X10436905Y74604048D01*
X10436905Y74604048D02*
X10389286Y74699286D01*
X10389286Y74699286D02*
X10389286Y74746905D01*
X10389286Y74746905D02*
X10436905Y74842143D01*
X10436905Y74842143D02*
X10484524Y74889762D01*
X10484524Y74889762D02*
X10579762Y74937381D01*
X10579762Y74937381D02*
X10770238Y74937381D01*
X10770238Y74937381D02*
X10865476Y74889762D01*
X10865476Y74889762D02*
X10913095Y74842143D01*
X10913095Y74842143D02*
X10960714Y74746905D01*
X10960714Y74746905D02*
X10960714Y74699286D01*
X10960714Y74699286D02*
X10913095Y74604048D01*
X10913095Y74604048D02*
X10865476Y74556429D01*
X10865476Y74556429D02*
X10770238Y74508810D01*
X10770238Y74508810D02*
X10579762Y74508810D01*
X10579762Y74508810D02*
X10484524Y74461191D01*
X10484524Y74461191D02*
X10436905Y74413572D01*
X10436905Y74413572D02*
X10389286Y74318334D01*
X10389286Y74318334D02*
X10389286Y74127858D01*
X10389286Y74127858D02*
X10436905Y74032620D01*
X10436905Y74032620D02*
X10484524Y73985000D01*
X10484524Y73985000D02*
X10579762Y73937381D01*
X10579762Y73937381D02*
X10770238Y73937381D01*
X10770238Y73937381D02*
X10865476Y73985000D01*
X10865476Y73985000D02*
X10913095Y74032620D01*
X10913095Y74032620D02*
X10960714Y74127858D01*
X10960714Y74127858D02*
X10960714Y74318334D01*
X10960714Y74318334D02*
X10913095Y74413572D01*
X10913095Y74413572D02*
X10865476Y74461191D01*
X10865476Y74461191D02*
X10770238Y74508810D01*
%TO.C,D6*%
X14461905Y70537381D02*
X14461905Y71537381D01*
X14461905Y71537381D02*
X14700000Y71537381D01*
X14700000Y71537381D02*
X14842857Y71489762D01*
X14842857Y71489762D02*
X14938095Y71394524D01*
X14938095Y71394524D02*
X14985714Y71299286D01*
X14985714Y71299286D02*
X15033333Y71108810D01*
X15033333Y71108810D02*
X15033333Y70965953D01*
X15033333Y70965953D02*
X14985714Y70775477D01*
X14985714Y70775477D02*
X14938095Y70680239D01*
X14938095Y70680239D02*
X14842857Y70585000D01*
X14842857Y70585000D02*
X14700000Y70537381D01*
X14700000Y70537381D02*
X14461905Y70537381D01*
X15890476Y71537381D02*
X15700000Y71537381D01*
X15700000Y71537381D02*
X15604762Y71489762D01*
X15604762Y71489762D02*
X15557143Y71442143D01*
X15557143Y71442143D02*
X15461905Y71299286D01*
X15461905Y71299286D02*
X15414286Y71108810D01*
X15414286Y71108810D02*
X15414286Y70727858D01*
X15414286Y70727858D02*
X15461905Y70632620D01*
X15461905Y70632620D02*
X15509524Y70585000D01*
X15509524Y70585000D02*
X15604762Y70537381D01*
X15604762Y70537381D02*
X15795238Y70537381D01*
X15795238Y70537381D02*
X15890476Y70585000D01*
X15890476Y70585000D02*
X15938095Y70632620D01*
X15938095Y70632620D02*
X15985714Y70727858D01*
X15985714Y70727858D02*
X15985714Y70965953D01*
X15985714Y70965953D02*
X15938095Y71061191D01*
X15938095Y71061191D02*
X15890476Y71108810D01*
X15890476Y71108810D02*
X15795238Y71156429D01*
X15795238Y71156429D02*
X15604762Y71156429D01*
X15604762Y71156429D02*
X15509524Y71108810D01*
X15509524Y71108810D02*
X15461905Y71061191D01*
X15461905Y71061191D02*
X15414286Y70965953D01*
D16*
%TO.C,L1*%
X27566666Y77462620D02*
X28042856Y77462620D01*
X28042856Y77462620D02*
X28042856Y76462620D01*
X26709523Y77462620D02*
X27280951Y77462620D01*
X26995237Y77462620D02*
X26995237Y76462620D01*
X26995237Y76462620D02*
X27090475Y76605477D01*
X27090475Y76605477D02*
X27185713Y76700715D01*
X27185713Y76700715D02*
X27280951Y76748334D01*
D14*
%TO.C,R3*%
X33120833Y60837381D02*
X32787500Y61313572D01*
X32549405Y60837381D02*
X32549405Y61837381D01*
X32549405Y61837381D02*
X32930357Y61837381D01*
X32930357Y61837381D02*
X33025595Y61789762D01*
X33025595Y61789762D02*
X33073214Y61742143D01*
X33073214Y61742143D02*
X33120833Y61646905D01*
X33120833Y61646905D02*
X33120833Y61504048D01*
X33120833Y61504048D02*
X33073214Y61408810D01*
X33073214Y61408810D02*
X33025595Y61361191D01*
X33025595Y61361191D02*
X32930357Y61313572D01*
X32930357Y61313572D02*
X32549405Y61313572D01*
X33454167Y61837381D02*
X34073214Y61837381D01*
X34073214Y61837381D02*
X33739881Y61456429D01*
X33739881Y61456429D02*
X33882738Y61456429D01*
X33882738Y61456429D02*
X33977976Y61408810D01*
X33977976Y61408810D02*
X34025595Y61361191D01*
X34025595Y61361191D02*
X34073214Y61265953D01*
X34073214Y61265953D02*
X34073214Y61027858D01*
X34073214Y61027858D02*
X34025595Y60932620D01*
X34025595Y60932620D02*
X33977976Y60885000D01*
X33977976Y60885000D02*
X33882738Y60837381D01*
X33882738Y60837381D02*
X33597024Y60837381D01*
X33597024Y60837381D02*
X33501786Y60885000D01*
X33501786Y60885000D02*
X33454167Y60932620D01*
%TO.C,C6*%
X10033333Y75832620D02*
X9985714Y75785000D01*
X9985714Y75785000D02*
X9842857Y75737381D01*
X9842857Y75737381D02*
X9747619Y75737381D01*
X9747619Y75737381D02*
X9604762Y75785000D01*
X9604762Y75785000D02*
X9509524Y75880239D01*
X9509524Y75880239D02*
X9461905Y75975477D01*
X9461905Y75975477D02*
X9414286Y76165953D01*
X9414286Y76165953D02*
X9414286Y76308810D01*
X9414286Y76308810D02*
X9461905Y76499286D01*
X9461905Y76499286D02*
X9509524Y76594524D01*
X9509524Y76594524D02*
X9604762Y76689762D01*
X9604762Y76689762D02*
X9747619Y76737381D01*
X9747619Y76737381D02*
X9842857Y76737381D01*
X9842857Y76737381D02*
X9985714Y76689762D01*
X9985714Y76689762D02*
X10033333Y76642143D01*
X10890476Y76737381D02*
X10700000Y76737381D01*
X10700000Y76737381D02*
X10604762Y76689762D01*
X10604762Y76689762D02*
X10557143Y76642143D01*
X10557143Y76642143D02*
X10461905Y76499286D01*
X10461905Y76499286D02*
X10414286Y76308810D01*
X10414286Y76308810D02*
X10414286Y75927858D01*
X10414286Y75927858D02*
X10461905Y75832620D01*
X10461905Y75832620D02*
X10509524Y75785000D01*
X10509524Y75785000D02*
X10604762Y75737381D01*
X10604762Y75737381D02*
X10795238Y75737381D01*
X10795238Y75737381D02*
X10890476Y75785000D01*
X10890476Y75785000D02*
X10938095Y75832620D01*
X10938095Y75832620D02*
X10985714Y75927858D01*
X10985714Y75927858D02*
X10985714Y76165953D01*
X10985714Y76165953D02*
X10938095Y76261191D01*
X10938095Y76261191D02*
X10890476Y76308810D01*
X10890476Y76308810D02*
X10795238Y76356429D01*
X10795238Y76356429D02*
X10604762Y76356429D01*
X10604762Y76356429D02*
X10509524Y76308810D01*
X10509524Y76308810D02*
X10461905Y76261191D01*
X10461905Y76261191D02*
X10414286Y76165953D01*
%TO.C,C14*%
X11157142Y27832620D02*
X11109523Y27785000D01*
X11109523Y27785000D02*
X10966666Y27737381D01*
X10966666Y27737381D02*
X10871428Y27737381D01*
X10871428Y27737381D02*
X10728571Y27785000D01*
X10728571Y27785000D02*
X10633333Y27880239D01*
X10633333Y27880239D02*
X10585714Y27975477D01*
X10585714Y27975477D02*
X10538095Y28165953D01*
X10538095Y28165953D02*
X10538095Y28308810D01*
X10538095Y28308810D02*
X10585714Y28499286D01*
X10585714Y28499286D02*
X10633333Y28594524D01*
X10633333Y28594524D02*
X10728571Y28689762D01*
X10728571Y28689762D02*
X10871428Y28737381D01*
X10871428Y28737381D02*
X10966666Y28737381D01*
X10966666Y28737381D02*
X11109523Y28689762D01*
X11109523Y28689762D02*
X11157142Y28642143D01*
X12109523Y27737381D02*
X11538095Y27737381D01*
X11823809Y27737381D02*
X11823809Y28737381D01*
X11823809Y28737381D02*
X11728571Y28594524D01*
X11728571Y28594524D02*
X11633333Y28499286D01*
X11633333Y28499286D02*
X11538095Y28451667D01*
X12966666Y28404048D02*
X12966666Y27737381D01*
X12728571Y28785000D02*
X12490476Y28070715D01*
X12490476Y28070715D02*
X13109523Y28070715D01*
%TO.C,D2*%
X4861905Y78537381D02*
X4861905Y79537381D01*
X4861905Y79537381D02*
X5100000Y79537381D01*
X5100000Y79537381D02*
X5242857Y79489762D01*
X5242857Y79489762D02*
X5338095Y79394524D01*
X5338095Y79394524D02*
X5385714Y79299286D01*
X5385714Y79299286D02*
X5433333Y79108810D01*
X5433333Y79108810D02*
X5433333Y78965953D01*
X5433333Y78965953D02*
X5385714Y78775477D01*
X5385714Y78775477D02*
X5338095Y78680239D01*
X5338095Y78680239D02*
X5242857Y78585000D01*
X5242857Y78585000D02*
X5100000Y78537381D01*
X5100000Y78537381D02*
X4861905Y78537381D01*
X5814286Y79442143D02*
X5861905Y79489762D01*
X5861905Y79489762D02*
X5957143Y79537381D01*
X5957143Y79537381D02*
X6195238Y79537381D01*
X6195238Y79537381D02*
X6290476Y79489762D01*
X6290476Y79489762D02*
X6338095Y79442143D01*
X6338095Y79442143D02*
X6385714Y79346905D01*
X6385714Y79346905D02*
X6385714Y79251667D01*
X6385714Y79251667D02*
X6338095Y79108810D01*
X6338095Y79108810D02*
X5766667Y78537381D01*
X5766667Y78537381D02*
X6385714Y78537381D01*
D16*
%TO.C,Y1*%
X28086309Y47713572D02*
X28086309Y47237381D01*
X27752976Y48237381D02*
X28086309Y47713572D01*
X28086309Y47713572D02*
X28419642Y48237381D01*
X29276785Y47237381D02*
X28705357Y47237381D01*
X28991071Y47237381D02*
X28991071Y48237381D01*
X28991071Y48237381D02*
X28895833Y48094524D01*
X28895833Y48094524D02*
X28800595Y47999286D01*
X28800595Y47999286D02*
X28705357Y47951667D01*
D14*
%TO.C,C9*%
X26233333Y43132620D02*
X26185714Y43085000D01*
X26185714Y43085000D02*
X26042857Y43037381D01*
X26042857Y43037381D02*
X25947619Y43037381D01*
X25947619Y43037381D02*
X25804762Y43085000D01*
X25804762Y43085000D02*
X25709524Y43180239D01*
X25709524Y43180239D02*
X25661905Y43275477D01*
X25661905Y43275477D02*
X25614286Y43465953D01*
X25614286Y43465953D02*
X25614286Y43608810D01*
X25614286Y43608810D02*
X25661905Y43799286D01*
X25661905Y43799286D02*
X25709524Y43894524D01*
X25709524Y43894524D02*
X25804762Y43989762D01*
X25804762Y43989762D02*
X25947619Y44037381D01*
X25947619Y44037381D02*
X26042857Y44037381D01*
X26042857Y44037381D02*
X26185714Y43989762D01*
X26185714Y43989762D02*
X26233333Y43942143D01*
X26709524Y43037381D02*
X26900000Y43037381D01*
X26900000Y43037381D02*
X26995238Y43085000D01*
X26995238Y43085000D02*
X27042857Y43132620D01*
X27042857Y43132620D02*
X27138095Y43275477D01*
X27138095Y43275477D02*
X27185714Y43465953D01*
X27185714Y43465953D02*
X27185714Y43846905D01*
X27185714Y43846905D02*
X27138095Y43942143D01*
X27138095Y43942143D02*
X27090476Y43989762D01*
X27090476Y43989762D02*
X26995238Y44037381D01*
X26995238Y44037381D02*
X26804762Y44037381D01*
X26804762Y44037381D02*
X26709524Y43989762D01*
X26709524Y43989762D02*
X26661905Y43942143D01*
X26661905Y43942143D02*
X26614286Y43846905D01*
X26614286Y43846905D02*
X26614286Y43608810D01*
X26614286Y43608810D02*
X26661905Y43513572D01*
X26661905Y43513572D02*
X26709524Y43465953D01*
X26709524Y43465953D02*
X26804762Y43418334D01*
X26804762Y43418334D02*
X26995238Y43418334D01*
X26995238Y43418334D02*
X27090476Y43465953D01*
X27090476Y43465953D02*
X27138095Y43513572D01*
X27138095Y43513572D02*
X27185714Y43608810D01*
%TO.C,R9*%
X21420833Y24037381D02*
X21087500Y24513572D01*
X20849405Y24037381D02*
X20849405Y25037381D01*
X20849405Y25037381D02*
X21230357Y25037381D01*
X21230357Y25037381D02*
X21325595Y24989762D01*
X21325595Y24989762D02*
X21373214Y24942143D01*
X21373214Y24942143D02*
X21420833Y24846905D01*
X21420833Y24846905D02*
X21420833Y24704048D01*
X21420833Y24704048D02*
X21373214Y24608810D01*
X21373214Y24608810D02*
X21325595Y24561191D01*
X21325595Y24561191D02*
X21230357Y24513572D01*
X21230357Y24513572D02*
X20849405Y24513572D01*
X21897024Y24037381D02*
X22087500Y24037381D01*
X22087500Y24037381D02*
X22182738Y24085000D01*
X22182738Y24085000D02*
X22230357Y24132620D01*
X22230357Y24132620D02*
X22325595Y24275477D01*
X22325595Y24275477D02*
X22373214Y24465953D01*
X22373214Y24465953D02*
X22373214Y24846905D01*
X22373214Y24846905D02*
X22325595Y24942143D01*
X22325595Y24942143D02*
X22277976Y24989762D01*
X22277976Y24989762D02*
X22182738Y25037381D01*
X22182738Y25037381D02*
X21992262Y25037381D01*
X21992262Y25037381D02*
X21897024Y24989762D01*
X21897024Y24989762D02*
X21849405Y24942143D01*
X21849405Y24942143D02*
X21801786Y24846905D01*
X21801786Y24846905D02*
X21801786Y24608810D01*
X21801786Y24608810D02*
X21849405Y24513572D01*
X21849405Y24513572D02*
X21897024Y24465953D01*
X21897024Y24465953D02*
X21992262Y24418334D01*
X21992262Y24418334D02*
X22182738Y24418334D01*
X22182738Y24418334D02*
X22277976Y24465953D01*
X22277976Y24465953D02*
X22325595Y24513572D01*
X22325595Y24513572D02*
X22373214Y24608810D01*
%TO.C,R11*%
X13757142Y42637381D02*
X13423809Y43113572D01*
X13185714Y42637381D02*
X13185714Y43637381D01*
X13185714Y43637381D02*
X13566666Y43637381D01*
X13566666Y43637381D02*
X13661904Y43589762D01*
X13661904Y43589762D02*
X13709523Y43542143D01*
X13709523Y43542143D02*
X13757142Y43446905D01*
X13757142Y43446905D02*
X13757142Y43304048D01*
X13757142Y43304048D02*
X13709523Y43208810D01*
X13709523Y43208810D02*
X13661904Y43161191D01*
X13661904Y43161191D02*
X13566666Y43113572D01*
X13566666Y43113572D02*
X13185714Y43113572D01*
X14709523Y42637381D02*
X14138095Y42637381D01*
X14423809Y42637381D02*
X14423809Y43637381D01*
X14423809Y43637381D02*
X14328571Y43494524D01*
X14328571Y43494524D02*
X14233333Y43399286D01*
X14233333Y43399286D02*
X14138095Y43351667D01*
X15661904Y42637381D02*
X15090476Y42637381D01*
X15376190Y42637381D02*
X15376190Y43637381D01*
X15376190Y43637381D02*
X15280952Y43494524D01*
X15280952Y43494524D02*
X15185714Y43399286D01*
X15185714Y43399286D02*
X15090476Y43351667D01*
%TO.C,C12*%
X10217380Y15944643D02*
X10265000Y15897024D01*
X10265000Y15897024D02*
X10312619Y15754167D01*
X10312619Y15754167D02*
X10312619Y15658929D01*
X10312619Y15658929D02*
X10265000Y15516072D01*
X10265000Y15516072D02*
X10169761Y15420834D01*
X10169761Y15420834D02*
X10074523Y15373215D01*
X10074523Y15373215D02*
X9884047Y15325596D01*
X9884047Y15325596D02*
X9741190Y15325596D01*
X9741190Y15325596D02*
X9550714Y15373215D01*
X9550714Y15373215D02*
X9455476Y15420834D01*
X9455476Y15420834D02*
X9360238Y15516072D01*
X9360238Y15516072D02*
X9312619Y15658929D01*
X9312619Y15658929D02*
X9312619Y15754167D01*
X9312619Y15754167D02*
X9360238Y15897024D01*
X9360238Y15897024D02*
X9407857Y15944643D01*
X10312619Y16897024D02*
X10312619Y16325596D01*
X10312619Y16611310D02*
X9312619Y16611310D01*
X9312619Y16611310D02*
X9455476Y16516072D01*
X9455476Y16516072D02*
X9550714Y16420834D01*
X9550714Y16420834D02*
X9598333Y16325596D01*
X9407857Y17277977D02*
X9360238Y17325596D01*
X9360238Y17325596D02*
X9312619Y17420834D01*
X9312619Y17420834D02*
X9312619Y17658929D01*
X9312619Y17658929D02*
X9360238Y17754167D01*
X9360238Y17754167D02*
X9407857Y17801786D01*
X9407857Y17801786D02*
X9503095Y17849405D01*
X9503095Y17849405D02*
X9598333Y17849405D01*
X9598333Y17849405D02*
X9741190Y17801786D01*
X9741190Y17801786D02*
X10312619Y17230358D01*
X10312619Y17230358D02*
X10312619Y17849405D01*
%TO.C,R4*%
X30962619Y71233334D02*
X30486428Y70900001D01*
X30962619Y70661906D02*
X29962619Y70661906D01*
X29962619Y70661906D02*
X29962619Y71042858D01*
X29962619Y71042858D02*
X30010238Y71138096D01*
X30010238Y71138096D02*
X30057857Y71185715D01*
X30057857Y71185715D02*
X30153095Y71233334D01*
X30153095Y71233334D02*
X30295952Y71233334D01*
X30295952Y71233334D02*
X30391190Y71185715D01*
X30391190Y71185715D02*
X30438809Y71138096D01*
X30438809Y71138096D02*
X30486428Y71042858D01*
X30486428Y71042858D02*
X30486428Y70661906D01*
X30295952Y72090477D02*
X30962619Y72090477D01*
X29915000Y71852382D02*
X30629285Y71614287D01*
X30629285Y71614287D02*
X30629285Y72233334D01*
%TO.C,R7*%
X19533333Y81737381D02*
X19200000Y82213572D01*
X18961905Y81737381D02*
X18961905Y82737381D01*
X18961905Y82737381D02*
X19342857Y82737381D01*
X19342857Y82737381D02*
X19438095Y82689762D01*
X19438095Y82689762D02*
X19485714Y82642143D01*
X19485714Y82642143D02*
X19533333Y82546905D01*
X19533333Y82546905D02*
X19533333Y82404048D01*
X19533333Y82404048D02*
X19485714Y82308810D01*
X19485714Y82308810D02*
X19438095Y82261191D01*
X19438095Y82261191D02*
X19342857Y82213572D01*
X19342857Y82213572D02*
X18961905Y82213572D01*
X19866667Y82737381D02*
X20533333Y82737381D01*
X20533333Y82737381D02*
X20104762Y81737381D01*
%TO.C,Q1*%
X21404761Y77442143D02*
X21309523Y77489762D01*
X21309523Y77489762D02*
X21214285Y77585000D01*
X21214285Y77585000D02*
X21071428Y77727858D01*
X21071428Y77727858D02*
X20976190Y77775477D01*
X20976190Y77775477D02*
X20880952Y77775477D01*
X20928571Y77537381D02*
X20833333Y77585000D01*
X20833333Y77585000D02*
X20738095Y77680239D01*
X20738095Y77680239D02*
X20690476Y77870715D01*
X20690476Y77870715D02*
X20690476Y78204048D01*
X20690476Y78204048D02*
X20738095Y78394524D01*
X20738095Y78394524D02*
X20833333Y78489762D01*
X20833333Y78489762D02*
X20928571Y78537381D01*
X20928571Y78537381D02*
X21119047Y78537381D01*
X21119047Y78537381D02*
X21214285Y78489762D01*
X21214285Y78489762D02*
X21309523Y78394524D01*
X21309523Y78394524D02*
X21357142Y78204048D01*
X21357142Y78204048D02*
X21357142Y77870715D01*
X21357142Y77870715D02*
X21309523Y77680239D01*
X21309523Y77680239D02*
X21214285Y77585000D01*
X21214285Y77585000D02*
X21119047Y77537381D01*
X21119047Y77537381D02*
X20928571Y77537381D01*
X22309523Y77537381D02*
X21738095Y77537381D01*
X22023809Y77537381D02*
X22023809Y78537381D01*
X22023809Y78537381D02*
X21928571Y78394524D01*
X21928571Y78394524D02*
X21833333Y78299286D01*
X21833333Y78299286D02*
X21738095Y78251667D01*
%TO.C,C19*%
X22867380Y19557143D02*
X22915000Y19509524D01*
X22915000Y19509524D02*
X22962619Y19366667D01*
X22962619Y19366667D02*
X22962619Y19271429D01*
X22962619Y19271429D02*
X22915000Y19128572D01*
X22915000Y19128572D02*
X22819761Y19033334D01*
X22819761Y19033334D02*
X22724523Y18985715D01*
X22724523Y18985715D02*
X22534047Y18938096D01*
X22534047Y18938096D02*
X22391190Y18938096D01*
X22391190Y18938096D02*
X22200714Y18985715D01*
X22200714Y18985715D02*
X22105476Y19033334D01*
X22105476Y19033334D02*
X22010238Y19128572D01*
X22010238Y19128572D02*
X21962619Y19271429D01*
X21962619Y19271429D02*
X21962619Y19366667D01*
X21962619Y19366667D02*
X22010238Y19509524D01*
X22010238Y19509524D02*
X22057857Y19557143D01*
X22962619Y20509524D02*
X22962619Y19938096D01*
X22962619Y20223810D02*
X21962619Y20223810D01*
X21962619Y20223810D02*
X22105476Y20128572D01*
X22105476Y20128572D02*
X22200714Y20033334D01*
X22200714Y20033334D02*
X22248333Y19938096D01*
X22962619Y20985715D02*
X22962619Y21176191D01*
X22962619Y21176191D02*
X22915000Y21271429D01*
X22915000Y21271429D02*
X22867380Y21319048D01*
X22867380Y21319048D02*
X22724523Y21414286D01*
X22724523Y21414286D02*
X22534047Y21461905D01*
X22534047Y21461905D02*
X22153095Y21461905D01*
X22153095Y21461905D02*
X22057857Y21414286D01*
X22057857Y21414286D02*
X22010238Y21366667D01*
X22010238Y21366667D02*
X21962619Y21271429D01*
X21962619Y21271429D02*
X21962619Y21080953D01*
X21962619Y21080953D02*
X22010238Y20985715D01*
X22010238Y20985715D02*
X22057857Y20938096D01*
X22057857Y20938096D02*
X22153095Y20890477D01*
X22153095Y20890477D02*
X22391190Y20890477D01*
X22391190Y20890477D02*
X22486428Y20938096D01*
X22486428Y20938096D02*
X22534047Y20985715D01*
X22534047Y20985715D02*
X22581666Y21080953D01*
X22581666Y21080953D02*
X22581666Y21271429D01*
X22581666Y21271429D02*
X22534047Y21366667D01*
X22534047Y21366667D02*
X22486428Y21414286D01*
X22486428Y21414286D02*
X22391190Y21461905D01*
%TO.C,EMI3*%
X25800000Y67861191D02*
X26133333Y67861191D01*
X26276190Y67337381D02*
X25800000Y67337381D01*
X25800000Y67337381D02*
X25800000Y68337381D01*
X25800000Y68337381D02*
X26276190Y68337381D01*
X26704762Y67337381D02*
X26704762Y68337381D01*
X26704762Y68337381D02*
X27038095Y67623096D01*
X27038095Y67623096D02*
X27371428Y68337381D01*
X27371428Y68337381D02*
X27371428Y67337381D01*
X27847619Y67337381D02*
X27847619Y68337381D01*
X28228571Y68337381D02*
X28847618Y68337381D01*
X28847618Y68337381D02*
X28514285Y67956429D01*
X28514285Y67956429D02*
X28657142Y67956429D01*
X28657142Y67956429D02*
X28752380Y67908810D01*
X28752380Y67908810D02*
X28799999Y67861191D01*
X28799999Y67861191D02*
X28847618Y67765953D01*
X28847618Y67765953D02*
X28847618Y67527858D01*
X28847618Y67527858D02*
X28799999Y67432620D01*
X28799999Y67432620D02*
X28752380Y67385000D01*
X28752380Y67385000D02*
X28657142Y67337381D01*
X28657142Y67337381D02*
X28371428Y67337381D01*
X28371428Y67337381D02*
X28276190Y67385000D01*
X28276190Y67385000D02*
X28228571Y67432620D01*
%TO.C,R12*%
X35444642Y45337381D02*
X35111309Y45813572D01*
X34873214Y45337381D02*
X34873214Y46337381D01*
X34873214Y46337381D02*
X35254166Y46337381D01*
X35254166Y46337381D02*
X35349404Y46289762D01*
X35349404Y46289762D02*
X35397023Y46242143D01*
X35397023Y46242143D02*
X35444642Y46146905D01*
X35444642Y46146905D02*
X35444642Y46004048D01*
X35444642Y46004048D02*
X35397023Y45908810D01*
X35397023Y45908810D02*
X35349404Y45861191D01*
X35349404Y45861191D02*
X35254166Y45813572D01*
X35254166Y45813572D02*
X34873214Y45813572D01*
X36397023Y45337381D02*
X35825595Y45337381D01*
X36111309Y45337381D02*
X36111309Y46337381D01*
X36111309Y46337381D02*
X36016071Y46194524D01*
X36016071Y46194524D02*
X35920833Y46099286D01*
X35920833Y46099286D02*
X35825595Y46051667D01*
X36777976Y46242143D02*
X36825595Y46289762D01*
X36825595Y46289762D02*
X36920833Y46337381D01*
X36920833Y46337381D02*
X37158928Y46337381D01*
X37158928Y46337381D02*
X37254166Y46289762D01*
X37254166Y46289762D02*
X37301785Y46242143D01*
X37301785Y46242143D02*
X37349404Y46146905D01*
X37349404Y46146905D02*
X37349404Y46051667D01*
X37349404Y46051667D02*
X37301785Y45908810D01*
X37301785Y45908810D02*
X36730357Y45337381D01*
X36730357Y45337381D02*
X37349404Y45337381D01*
D15*
%TO.C,J6*%
X45900000Y46656072D02*
X45900000Y45584643D01*
X45900000Y45584643D02*
X45828571Y45370358D01*
X45828571Y45370358D02*
X45685714Y45227500D01*
X45685714Y45227500D02*
X45471428Y45156072D01*
X45471428Y45156072D02*
X45328571Y45156072D01*
X47257143Y46656072D02*
X46971428Y46656072D01*
X46971428Y46656072D02*
X46828571Y46584643D01*
X46828571Y46584643D02*
X46757143Y46513215D01*
X46757143Y46513215D02*
X46614285Y46298929D01*
X46614285Y46298929D02*
X46542857Y46013215D01*
X46542857Y46013215D02*
X46542857Y45441786D01*
X46542857Y45441786D02*
X46614285Y45298929D01*
X46614285Y45298929D02*
X46685714Y45227500D01*
X46685714Y45227500D02*
X46828571Y45156072D01*
X46828571Y45156072D02*
X47114285Y45156072D01*
X47114285Y45156072D02*
X47257143Y45227500D01*
X47257143Y45227500D02*
X47328571Y45298929D01*
X47328571Y45298929D02*
X47400000Y45441786D01*
X47400000Y45441786D02*
X47400000Y45798929D01*
X47400000Y45798929D02*
X47328571Y45941786D01*
X47328571Y45941786D02*
X47257143Y46013215D01*
X47257143Y46013215D02*
X47114285Y46084643D01*
X47114285Y46084643D02*
X46828571Y46084643D01*
X46828571Y46084643D02*
X46685714Y46013215D01*
X46685714Y46013215D02*
X46614285Y45941786D01*
X46614285Y45941786D02*
X46542857Y45798929D01*
D14*
%TO.C,JP1*%
X29166666Y53337381D02*
X29166666Y52623096D01*
X29166666Y52623096D02*
X29119047Y52480239D01*
X29119047Y52480239D02*
X29023809Y52385000D01*
X29023809Y52385000D02*
X28880952Y52337381D01*
X28880952Y52337381D02*
X28785714Y52337381D01*
X29642857Y52337381D02*
X29642857Y53337381D01*
X29642857Y53337381D02*
X30023809Y53337381D01*
X30023809Y53337381D02*
X30119047Y53289762D01*
X30119047Y53289762D02*
X30166666Y53242143D01*
X30166666Y53242143D02*
X30214285Y53146905D01*
X30214285Y53146905D02*
X30214285Y53004048D01*
X30214285Y53004048D02*
X30166666Y52908810D01*
X30166666Y52908810D02*
X30119047Y52861191D01*
X30119047Y52861191D02*
X30023809Y52813572D01*
X30023809Y52813572D02*
X29642857Y52813572D01*
X31166666Y52337381D02*
X30595238Y52337381D01*
X30880952Y52337381D02*
X30880952Y53337381D01*
X30880952Y53337381D02*
X30785714Y53194524D01*
X30785714Y53194524D02*
X30690476Y53099286D01*
X30690476Y53099286D02*
X30595238Y53051667D01*
%TO.C,R1*%
X33008333Y58137381D02*
X32675000Y58613572D01*
X32436905Y58137381D02*
X32436905Y59137381D01*
X32436905Y59137381D02*
X32817857Y59137381D01*
X32817857Y59137381D02*
X32913095Y59089762D01*
X32913095Y59089762D02*
X32960714Y59042143D01*
X32960714Y59042143D02*
X33008333Y58946905D01*
X33008333Y58946905D02*
X33008333Y58804048D01*
X33008333Y58804048D02*
X32960714Y58708810D01*
X32960714Y58708810D02*
X32913095Y58661191D01*
X32913095Y58661191D02*
X32817857Y58613572D01*
X32817857Y58613572D02*
X32436905Y58613572D01*
X33960714Y58137381D02*
X33389286Y58137381D01*
X33675000Y58137381D02*
X33675000Y59137381D01*
X33675000Y59137381D02*
X33579762Y58994524D01*
X33579762Y58994524D02*
X33484524Y58899286D01*
X33484524Y58899286D02*
X33389286Y58851667D01*
%TO.C,U2*%
X14938095Y17137381D02*
X14938095Y16327858D01*
X14938095Y16327858D02*
X14985714Y16232620D01*
X14985714Y16232620D02*
X15033333Y16185000D01*
X15033333Y16185000D02*
X15128571Y16137381D01*
X15128571Y16137381D02*
X15319047Y16137381D01*
X15319047Y16137381D02*
X15414285Y16185000D01*
X15414285Y16185000D02*
X15461904Y16232620D01*
X15461904Y16232620D02*
X15509523Y16327858D01*
X15509523Y16327858D02*
X15509523Y17137381D01*
X15938095Y17042143D02*
X15985714Y17089762D01*
X15985714Y17089762D02*
X16080952Y17137381D01*
X16080952Y17137381D02*
X16319047Y17137381D01*
X16319047Y17137381D02*
X16414285Y17089762D01*
X16414285Y17089762D02*
X16461904Y17042143D01*
X16461904Y17042143D02*
X16509523Y16946905D01*
X16509523Y16946905D02*
X16509523Y16851667D01*
X16509523Y16851667D02*
X16461904Y16708810D01*
X16461904Y16708810D02*
X15890476Y16137381D01*
X15890476Y16137381D02*
X16509523Y16137381D01*
%TO.C,J5*%
X31371428Y84661191D02*
X31038095Y84661191D01*
X31038095Y84137381D02*
X31038095Y85137381D01*
X31038095Y85137381D02*
X31514285Y85137381D01*
X31895238Y84137381D02*
X31895238Y85137381D01*
X31895238Y85137381D02*
X32228571Y84423096D01*
X32228571Y84423096D02*
X32561904Y85137381D01*
X32561904Y85137381D02*
X32561904Y84137381D01*
%TO.C,C2*%
X30333333Y66762620D02*
X30285714Y66715000D01*
X30285714Y66715000D02*
X30142857Y66667381D01*
X30142857Y66667381D02*
X30047619Y66667381D01*
X30047619Y66667381D02*
X29904762Y66715000D01*
X29904762Y66715000D02*
X29809524Y66810239D01*
X29809524Y66810239D02*
X29761905Y66905477D01*
X29761905Y66905477D02*
X29714286Y67095953D01*
X29714286Y67095953D02*
X29714286Y67238810D01*
X29714286Y67238810D02*
X29761905Y67429286D01*
X29761905Y67429286D02*
X29809524Y67524524D01*
X29809524Y67524524D02*
X29904762Y67619762D01*
X29904762Y67619762D02*
X30047619Y67667381D01*
X30047619Y67667381D02*
X30142857Y67667381D01*
X30142857Y67667381D02*
X30285714Y67619762D01*
X30285714Y67619762D02*
X30333333Y67572143D01*
X30714286Y67572143D02*
X30761905Y67619762D01*
X30761905Y67619762D02*
X30857143Y67667381D01*
X30857143Y67667381D02*
X31095238Y67667381D01*
X31095238Y67667381D02*
X31190476Y67619762D01*
X31190476Y67619762D02*
X31238095Y67572143D01*
X31238095Y67572143D02*
X31285714Y67476905D01*
X31285714Y67476905D02*
X31285714Y67381667D01*
X31285714Y67381667D02*
X31238095Y67238810D01*
X31238095Y67238810D02*
X30666667Y66667381D01*
X30666667Y66667381D02*
X31285714Y66667381D01*
%TO.C,R5*%
X9882833Y72083381D02*
X9549500Y72559572D01*
X9311405Y72083381D02*
X9311405Y73083381D01*
X9311405Y73083381D02*
X9692357Y73083381D01*
X9692357Y73083381D02*
X9787595Y73035762D01*
X9787595Y73035762D02*
X9835214Y72988143D01*
X9835214Y72988143D02*
X9882833Y72892905D01*
X9882833Y72892905D02*
X9882833Y72750048D01*
X9882833Y72750048D02*
X9835214Y72654810D01*
X9835214Y72654810D02*
X9787595Y72607191D01*
X9787595Y72607191D02*
X9692357Y72559572D01*
X9692357Y72559572D02*
X9311405Y72559572D01*
X10787595Y73083381D02*
X10311405Y73083381D01*
X10311405Y73083381D02*
X10263786Y72607191D01*
X10263786Y72607191D02*
X10311405Y72654810D01*
X10311405Y72654810D02*
X10406643Y72702429D01*
X10406643Y72702429D02*
X10644738Y72702429D01*
X10644738Y72702429D02*
X10739976Y72654810D01*
X10739976Y72654810D02*
X10787595Y72607191D01*
X10787595Y72607191D02*
X10835214Y72511953D01*
X10835214Y72511953D02*
X10835214Y72273858D01*
X10835214Y72273858D02*
X10787595Y72178620D01*
X10787595Y72178620D02*
X10739976Y72131000D01*
X10739976Y72131000D02*
X10644738Y72083381D01*
X10644738Y72083381D02*
X10406643Y72083381D01*
X10406643Y72083381D02*
X10311405Y72131000D01*
X10311405Y72131000D02*
X10263786Y72178620D01*
%TO.C,R19*%
X24807142Y4037381D02*
X24473809Y4513572D01*
X24235714Y4037381D02*
X24235714Y5037381D01*
X24235714Y5037381D02*
X24616666Y5037381D01*
X24616666Y5037381D02*
X24711904Y4989762D01*
X24711904Y4989762D02*
X24759523Y4942143D01*
X24759523Y4942143D02*
X24807142Y4846905D01*
X24807142Y4846905D02*
X24807142Y4704048D01*
X24807142Y4704048D02*
X24759523Y4608810D01*
X24759523Y4608810D02*
X24711904Y4561191D01*
X24711904Y4561191D02*
X24616666Y4513572D01*
X24616666Y4513572D02*
X24235714Y4513572D01*
X25759523Y4037381D02*
X25188095Y4037381D01*
X25473809Y4037381D02*
X25473809Y5037381D01*
X25473809Y5037381D02*
X25378571Y4894524D01*
X25378571Y4894524D02*
X25283333Y4799286D01*
X25283333Y4799286D02*
X25188095Y4751667D01*
X26235714Y4037381D02*
X26426190Y4037381D01*
X26426190Y4037381D02*
X26521428Y4085000D01*
X26521428Y4085000D02*
X26569047Y4132620D01*
X26569047Y4132620D02*
X26664285Y4275477D01*
X26664285Y4275477D02*
X26711904Y4465953D01*
X26711904Y4465953D02*
X26711904Y4846905D01*
X26711904Y4846905D02*
X26664285Y4942143D01*
X26664285Y4942143D02*
X26616666Y4989762D01*
X26616666Y4989762D02*
X26521428Y5037381D01*
X26521428Y5037381D02*
X26330952Y5037381D01*
X26330952Y5037381D02*
X26235714Y4989762D01*
X26235714Y4989762D02*
X26188095Y4942143D01*
X26188095Y4942143D02*
X26140476Y4846905D01*
X26140476Y4846905D02*
X26140476Y4608810D01*
X26140476Y4608810D02*
X26188095Y4513572D01*
X26188095Y4513572D02*
X26235714Y4465953D01*
X26235714Y4465953D02*
X26330952Y4418334D01*
X26330952Y4418334D02*
X26521428Y4418334D01*
X26521428Y4418334D02*
X26616666Y4465953D01*
X26616666Y4465953D02*
X26664285Y4513572D01*
X26664285Y4513572D02*
X26711904Y4608810D01*
%TO.C,R17*%
X41757142Y27937381D02*
X41423809Y28413572D01*
X41185714Y27937381D02*
X41185714Y28937381D01*
X41185714Y28937381D02*
X41566666Y28937381D01*
X41566666Y28937381D02*
X41661904Y28889762D01*
X41661904Y28889762D02*
X41709523Y28842143D01*
X41709523Y28842143D02*
X41757142Y28746905D01*
X41757142Y28746905D02*
X41757142Y28604048D01*
X41757142Y28604048D02*
X41709523Y28508810D01*
X41709523Y28508810D02*
X41661904Y28461191D01*
X41661904Y28461191D02*
X41566666Y28413572D01*
X41566666Y28413572D02*
X41185714Y28413572D01*
X42709523Y27937381D02*
X42138095Y27937381D01*
X42423809Y27937381D02*
X42423809Y28937381D01*
X42423809Y28937381D02*
X42328571Y28794524D01*
X42328571Y28794524D02*
X42233333Y28699286D01*
X42233333Y28699286D02*
X42138095Y28651667D01*
X43042857Y28937381D02*
X43709523Y28937381D01*
X43709523Y28937381D02*
X43280952Y27937381D01*
%TO.C,JP2*%
X18316666Y53337381D02*
X18316666Y52623096D01*
X18316666Y52623096D02*
X18269047Y52480239D01*
X18269047Y52480239D02*
X18173809Y52385000D01*
X18173809Y52385000D02*
X18030952Y52337381D01*
X18030952Y52337381D02*
X17935714Y52337381D01*
X18792857Y52337381D02*
X18792857Y53337381D01*
X18792857Y53337381D02*
X19173809Y53337381D01*
X19173809Y53337381D02*
X19269047Y53289762D01*
X19269047Y53289762D02*
X19316666Y53242143D01*
X19316666Y53242143D02*
X19364285Y53146905D01*
X19364285Y53146905D02*
X19364285Y53004048D01*
X19364285Y53004048D02*
X19316666Y52908810D01*
X19316666Y52908810D02*
X19269047Y52861191D01*
X19269047Y52861191D02*
X19173809Y52813572D01*
X19173809Y52813572D02*
X18792857Y52813572D01*
X19745238Y53242143D02*
X19792857Y53289762D01*
X19792857Y53289762D02*
X19888095Y53337381D01*
X19888095Y53337381D02*
X20126190Y53337381D01*
X20126190Y53337381D02*
X20221428Y53289762D01*
X20221428Y53289762D02*
X20269047Y53242143D01*
X20269047Y53242143D02*
X20316666Y53146905D01*
X20316666Y53146905D02*
X20316666Y53051667D01*
X20316666Y53051667D02*
X20269047Y52908810D01*
X20269047Y52908810D02*
X19697619Y52337381D01*
X19697619Y52337381D02*
X20316666Y52337381D01*
%TO.C,C20*%
X14557142Y54632620D02*
X14509523Y54585000D01*
X14509523Y54585000D02*
X14366666Y54537381D01*
X14366666Y54537381D02*
X14271428Y54537381D01*
X14271428Y54537381D02*
X14128571Y54585000D01*
X14128571Y54585000D02*
X14033333Y54680239D01*
X14033333Y54680239D02*
X13985714Y54775477D01*
X13985714Y54775477D02*
X13938095Y54965953D01*
X13938095Y54965953D02*
X13938095Y55108810D01*
X13938095Y55108810D02*
X13985714Y55299286D01*
X13985714Y55299286D02*
X14033333Y55394524D01*
X14033333Y55394524D02*
X14128571Y55489762D01*
X14128571Y55489762D02*
X14271428Y55537381D01*
X14271428Y55537381D02*
X14366666Y55537381D01*
X14366666Y55537381D02*
X14509523Y55489762D01*
X14509523Y55489762D02*
X14557142Y55442143D01*
X14938095Y55442143D02*
X14985714Y55489762D01*
X14985714Y55489762D02*
X15080952Y55537381D01*
X15080952Y55537381D02*
X15319047Y55537381D01*
X15319047Y55537381D02*
X15414285Y55489762D01*
X15414285Y55489762D02*
X15461904Y55442143D01*
X15461904Y55442143D02*
X15509523Y55346905D01*
X15509523Y55346905D02*
X15509523Y55251667D01*
X15509523Y55251667D02*
X15461904Y55108810D01*
X15461904Y55108810D02*
X14890476Y54537381D01*
X14890476Y54537381D02*
X15509523Y54537381D01*
X16128571Y55537381D02*
X16223809Y55537381D01*
X16223809Y55537381D02*
X16319047Y55489762D01*
X16319047Y55489762D02*
X16366666Y55442143D01*
X16366666Y55442143D02*
X16414285Y55346905D01*
X16414285Y55346905D02*
X16461904Y55156429D01*
X16461904Y55156429D02*
X16461904Y54918334D01*
X16461904Y54918334D02*
X16414285Y54727858D01*
X16414285Y54727858D02*
X16366666Y54632620D01*
X16366666Y54632620D02*
X16319047Y54585000D01*
X16319047Y54585000D02*
X16223809Y54537381D01*
X16223809Y54537381D02*
X16128571Y54537381D01*
X16128571Y54537381D02*
X16033333Y54585000D01*
X16033333Y54585000D02*
X15985714Y54632620D01*
X15985714Y54632620D02*
X15938095Y54727858D01*
X15938095Y54727858D02*
X15890476Y54918334D01*
X15890476Y54918334D02*
X15890476Y55156429D01*
X15890476Y55156429D02*
X15938095Y55346905D01*
X15938095Y55346905D02*
X15985714Y55442143D01*
X15985714Y55442143D02*
X16033333Y55489762D01*
X16033333Y55489762D02*
X16128571Y55537381D01*
%TO.C,EMI5*%
X1438809Y18262501D02*
X1438809Y18595834D01*
X1962619Y18738691D02*
X1962619Y18262501D01*
X1962619Y18262501D02*
X962619Y18262501D01*
X962619Y18262501D02*
X962619Y18738691D01*
X1962619Y19167263D02*
X962619Y19167263D01*
X962619Y19167263D02*
X1676904Y19500596D01*
X1676904Y19500596D02*
X962619Y19833929D01*
X962619Y19833929D02*
X1962619Y19833929D01*
X1962619Y20310120D02*
X962619Y20310120D01*
X962619Y21262500D02*
X962619Y20786310D01*
X962619Y20786310D02*
X1438809Y20738691D01*
X1438809Y20738691D02*
X1391190Y20786310D01*
X1391190Y20786310D02*
X1343571Y20881548D01*
X1343571Y20881548D02*
X1343571Y21119643D01*
X1343571Y21119643D02*
X1391190Y21214881D01*
X1391190Y21214881D02*
X1438809Y21262500D01*
X1438809Y21262500D02*
X1534047Y21310119D01*
X1534047Y21310119D02*
X1772142Y21310119D01*
X1772142Y21310119D02*
X1867380Y21262500D01*
X1867380Y21262500D02*
X1915000Y21214881D01*
X1915000Y21214881D02*
X1962619Y21119643D01*
X1962619Y21119643D02*
X1962619Y20881548D01*
X1962619Y20881548D02*
X1915000Y20786310D01*
X1915000Y20786310D02*
X1867380Y20738691D01*
%TO.C,R18*%
X12457142Y32637381D02*
X12123809Y33113572D01*
X11885714Y32637381D02*
X11885714Y33637381D01*
X11885714Y33637381D02*
X12266666Y33637381D01*
X12266666Y33637381D02*
X12361904Y33589762D01*
X12361904Y33589762D02*
X12409523Y33542143D01*
X12409523Y33542143D02*
X12457142Y33446905D01*
X12457142Y33446905D02*
X12457142Y33304048D01*
X12457142Y33304048D02*
X12409523Y33208810D01*
X12409523Y33208810D02*
X12361904Y33161191D01*
X12361904Y33161191D02*
X12266666Y33113572D01*
X12266666Y33113572D02*
X11885714Y33113572D01*
X13409523Y32637381D02*
X12838095Y32637381D01*
X13123809Y32637381D02*
X13123809Y33637381D01*
X13123809Y33637381D02*
X13028571Y33494524D01*
X13028571Y33494524D02*
X12933333Y33399286D01*
X12933333Y33399286D02*
X12838095Y33351667D01*
X13980952Y33208810D02*
X13885714Y33256429D01*
X13885714Y33256429D02*
X13838095Y33304048D01*
X13838095Y33304048D02*
X13790476Y33399286D01*
X13790476Y33399286D02*
X13790476Y33446905D01*
X13790476Y33446905D02*
X13838095Y33542143D01*
X13838095Y33542143D02*
X13885714Y33589762D01*
X13885714Y33589762D02*
X13980952Y33637381D01*
X13980952Y33637381D02*
X14171428Y33637381D01*
X14171428Y33637381D02*
X14266666Y33589762D01*
X14266666Y33589762D02*
X14314285Y33542143D01*
X14314285Y33542143D02*
X14361904Y33446905D01*
X14361904Y33446905D02*
X14361904Y33399286D01*
X14361904Y33399286D02*
X14314285Y33304048D01*
X14314285Y33304048D02*
X14266666Y33256429D01*
X14266666Y33256429D02*
X14171428Y33208810D01*
X14171428Y33208810D02*
X13980952Y33208810D01*
X13980952Y33208810D02*
X13885714Y33161191D01*
X13885714Y33161191D02*
X13838095Y33113572D01*
X13838095Y33113572D02*
X13790476Y33018334D01*
X13790476Y33018334D02*
X13790476Y32827858D01*
X13790476Y32827858D02*
X13838095Y32732620D01*
X13838095Y32732620D02*
X13885714Y32685000D01*
X13885714Y32685000D02*
X13980952Y32637381D01*
X13980952Y32637381D02*
X14171428Y32637381D01*
X14171428Y32637381D02*
X14266666Y32685000D01*
X14266666Y32685000D02*
X14314285Y32732620D01*
X14314285Y32732620D02*
X14361904Y32827858D01*
X14361904Y32827858D02*
X14361904Y33018334D01*
X14361904Y33018334D02*
X14314285Y33113572D01*
X14314285Y33113572D02*
X14266666Y33161191D01*
X14266666Y33161191D02*
X14171428Y33208810D01*
D17*
%TO.C,C22*%
X11490000Y40353733D02*
X11490000Y40646267D01*
X12510000Y40353733D02*
X12510000Y40646267D01*
%TO.C,C16*%
X9240000Y38403733D02*
X9240000Y38696267D01*
X10260000Y38403733D02*
X10260000Y38696267D01*
D14*
%TO.C,U1*%
X27275000Y63075000D02*
X26800000Y63075000D01*
X27275000Y63075000D02*
X27275000Y58925000D01*
X26800000Y63075000D02*
X26800000Y64200000D01*
X18325000Y63075000D02*
X18882500Y63075000D01*
X18325000Y63075000D02*
X18325000Y58925000D01*
X27275000Y58925000D02*
X26717500Y58925000D01*
X18325000Y58925000D02*
X18882500Y58925000D01*
%TO.C,EMI4*%
X2200000Y37350000D02*
X2200000Y38025000D01*
X2350000Y37350000D02*
X2200000Y37350000D01*
X4000000Y37350000D02*
X3850000Y37350000D01*
X4000000Y37350000D02*
X4000000Y38025000D01*
X2200000Y39175000D02*
X2200000Y39850000D01*
X4000000Y39175000D02*
X4000000Y39850000D01*
X2350000Y39850000D02*
X2200000Y39850000D01*
X4000000Y39850000D02*
X3850000Y39850000D01*
D17*
%TO.C,R14*%
X16022500Y48054724D02*
X16022500Y47545276D01*
X14977500Y48054724D02*
X14977500Y47545276D01*
D14*
%TO.C,EMI2*%
X28700000Y57750000D02*
X28700000Y58425000D01*
X28850000Y57750000D02*
X28700000Y57750000D01*
X30500000Y57750000D02*
X30350000Y57750000D01*
X30500000Y57750000D02*
X30500000Y58425000D01*
X28700000Y59575000D02*
X28700000Y60250000D01*
X30500000Y59575000D02*
X30500000Y60250000D01*
X28850000Y60250000D02*
X28700000Y60250000D01*
X30500000Y60250000D02*
X30350000Y60250000D01*
D17*
%TO.C,D1*%
X27540000Y16900000D02*
X27540000Y14900000D01*
X27540000Y16900000D02*
X31550000Y16900000D01*
X27540000Y14900000D02*
X31550000Y14900000D01*
%TO.C,U3*%
X18560000Y38400000D02*
X18560000Y41850000D01*
X18560000Y38400000D02*
X18560000Y36450000D01*
X13440000Y38400000D02*
X13440000Y40350000D01*
X13440000Y38400000D02*
X13440000Y36450000D01*
%TO.C,C7*%
X37490000Y75653733D02*
X37490000Y75946267D01*
X38510000Y75653733D02*
X38510000Y75946267D01*
%TO.C,C10*%
X5590000Y18351248D02*
X5590000Y19773752D01*
X8310000Y18351248D02*
X8310000Y19773752D01*
%TO.C,D3*%
X17360000Y78000000D02*
X17360000Y80000000D01*
X17360000Y78000000D02*
X13350000Y78000000D01*
X17360000Y80000000D02*
X13350000Y80000000D01*
%TO.C,C18*%
X14746267Y51090000D02*
X14453733Y51090000D01*
X14746267Y52110000D02*
X14453733Y52110000D01*
%TO.C,R2*%
X35745276Y56922500D02*
X36254724Y56922500D01*
X35745276Y55877500D02*
X36254724Y55877500D01*
%TO.C,JP3*%
X21350000Y52000000D02*
X24150000Y52000000D01*
X21350000Y50000000D02*
X21350000Y52000000D01*
X24150000Y52000000D02*
X24150000Y50000000D01*
X24150000Y50000000D02*
X21350000Y50000000D01*
%TO.C,C8*%
X22153733Y46010000D02*
X22446267Y46010000D01*
X22153733Y44990000D02*
X22446267Y44990000D01*
%TO.C,J3*%
X35205000Y12870000D02*
X35205000Y11540000D01*
X33875000Y12870000D02*
X35205000Y12870000D01*
X32605000Y12870000D02*
X14765000Y12870000D01*
X32605000Y12870000D02*
X32605000Y10270000D01*
X14765000Y12870000D02*
X14765000Y7670000D01*
X35205000Y10270000D02*
X35205000Y7670000D01*
X32605000Y10270000D02*
X35205000Y10270000D01*
X35205000Y7670000D02*
X14765000Y7670000D01*
%TO.C,C23*%
X16153733Y31910000D02*
X16446267Y31910000D01*
X16153733Y30890000D02*
X16446267Y30890000D01*
%TO.C,R20*%
X28745276Y2872500D02*
X29254724Y2872500D01*
X28745276Y1827500D02*
X29254724Y1827500D01*
%TO.C,R13*%
X33154724Y46877500D02*
X32645276Y46877500D01*
X33154724Y47922500D02*
X32645276Y47922500D01*
%TO.C,D5*%
X32640000Y80100000D02*
X32640000Y78100000D01*
X32640000Y80100000D02*
X36650000Y80100000D01*
X32640000Y78100000D02*
X36650000Y78100000D01*
%TO.C,R16*%
X38832776Y31032500D02*
X39342224Y31032500D01*
X38832776Y29987500D02*
X39342224Y29987500D01*
%TO.C,J2*%
X49787500Y15442500D02*
X35087500Y15442500D01*
X49787500Y24642500D02*
X49787500Y15442500D01*
X40987500Y24642500D02*
X49787500Y24642500D01*
X35937500Y15242500D02*
X34887500Y15242500D01*
X35087500Y15442500D02*
X35087500Y18042500D01*
X35087500Y21942500D02*
X35087500Y24642500D01*
X35087500Y24642500D02*
X36987500Y24642500D01*
X34887500Y16292500D02*
X34887500Y15242500D01*
%TO.C,C3*%
X28546267Y55090000D02*
X28253733Y55090000D01*
X28546267Y56110000D02*
X28253733Y56110000D01*
D16*
%TO.C,RV2*%
X1900000Y33500000D02*
X1900000Y26700000D01*
X900000Y26700000D02*
X5400000Y26700000D01*
X5400000Y26700000D02*
X5400000Y33500000D01*
X5400000Y33500000D02*
X900000Y33500000D01*
X900000Y33500000D02*
X900000Y26700000D01*
D17*
%TO.C,C5*%
X23190000Y71853733D02*
X23190000Y72146267D01*
X24210000Y71853733D02*
X24210000Y72146267D01*
D16*
%TO.C,L2*%
X34500000Y73200000D02*
X44500000Y73200000D01*
X44500000Y73200000D02*
X44500000Y67200000D01*
X44500000Y67200000D02*
X34500000Y67200000D01*
X34500000Y67200000D02*
X34500000Y73200000D01*
D17*
%TO.C,D4*%
X38640000Y80100000D02*
X38640000Y78100000D01*
X38640000Y80100000D02*
X42650000Y80100000D01*
X38640000Y78100000D02*
X42650000Y78100000D01*
%TO.C,C15*%
X17453733Y45410000D02*
X17746267Y45410000D01*
X17453733Y44390000D02*
X17746267Y44390000D01*
%TO.C,G\u002A\u002A\u002A*%
G36*
X40045439Y12800000D02*
G01*
X39042807Y12800000D01*
X39042807Y12993099D01*
X40045439Y12993099D01*
X40045439Y12800000D01*
G37*
G36*
X48148187Y13007953D02*
G01*
X48801755Y13007953D01*
X48801755Y12800000D01*
X48148187Y12800000D01*
X48148187Y12146432D01*
X47955088Y12146432D01*
X47955088Y12800000D01*
X47301521Y12800000D01*
X47301521Y13007953D01*
X47955088Y13007953D01*
X47955088Y13646666D01*
X48148187Y13646666D01*
X48148187Y13007953D01*
G37*
G36*
X43151805Y12892280D02*
G01*
X47004445Y12892280D01*
X47018519Y12720641D01*
X47059204Y12557894D01*
X47124190Y12406244D01*
X47211170Y12267898D01*
X47317836Y12145060D01*
X47441879Y12039937D01*
X47580992Y11954736D01*
X47732865Y11891661D01*
X47895191Y11852919D01*
X48065662Y11840715D01*
X48103626Y11841792D01*
X48178618Y11847436D01*
X48254549Y11856726D01*
X48318213Y11867947D01*
X48333860Y11871671D01*
X48389309Y11889463D01*
X48458516Y11916288D01*
X48529018Y11947215D01*
X48549240Y11956890D01*
X48667176Y12028057D01*
X48781289Y12121676D01*
X48884495Y12230671D01*
X48969713Y12347964D01*
X49006525Y12413801D01*
X49056791Y12524399D01*
X49090625Y12624558D01*
X49110623Y12725456D01*
X49119381Y12838269D01*
X49120355Y12903976D01*
X49118830Y12992563D01*
X49113518Y13061846D01*
X49103157Y13122122D01*
X49086488Y13183686D01*
X49085873Y13185675D01*
X49017950Y13358815D01*
X48928108Y13512773D01*
X48817538Y13646402D01*
X48687430Y13758558D01*
X48538972Y13848095D01*
X48373355Y13913867D01*
X48311954Y13930961D01*
X48198905Y13950323D01*
X48072910Y13957184D01*
X47944737Y13951864D01*
X47825150Y13934687D01*
X47747135Y13914069D01*
X47580832Y13843440D01*
X47432256Y13750469D01*
X47303051Y13637422D01*
X47194864Y13506562D01*
X47109341Y13360154D01*
X47048128Y13200462D01*
X47012870Y13029751D01*
X47004445Y12892280D01*
X43151805Y12892280D01*
X43150554Y12909030D01*
X43163501Y13029271D01*
X43198377Y13145976D01*
X43255163Y13255794D01*
X43333840Y13355379D01*
X43434392Y13441380D01*
X43540841Y13503111D01*
X43585925Y13523582D01*
X43623528Y13537057D01*
X43662027Y13544989D01*
X43709800Y13548834D01*
X43775223Y13550044D01*
X43811648Y13550117D01*
X43886333Y13549731D01*
X43939795Y13547479D01*
X43980515Y13541716D01*
X44016976Y13530798D01*
X44057661Y13513081D01*
X44093870Y13495421D01*
X44208919Y13424838D01*
X44306872Y13336919D01*
X44383813Y13236027D01*
X44435826Y13126527D01*
X44441815Y13107681D01*
X44460297Y13045087D01*
X46744094Y13045087D01*
X46755750Y13126083D01*
X46789402Y13273450D01*
X46846814Y13425016D01*
X46924345Y13573505D01*
X47018355Y13711642D01*
X47092400Y13798692D01*
X47239961Y13936966D01*
X47397468Y14047407D01*
X47566114Y14130570D01*
X47747092Y14187011D01*
X47941595Y14217286D01*
X47999649Y14221199D01*
X48201020Y14216927D01*
X48394088Y14184223D01*
X48577820Y14123461D01*
X48751187Y14035014D01*
X48913156Y13919254D01*
X48968417Y13871020D01*
X49085395Y13745810D01*
X49189016Y13599272D01*
X49275181Y13438305D01*
X49339790Y13269811D01*
X49353164Y13223333D01*
X49375269Y13107536D01*
X49386236Y12974695D01*
X49386056Y12835310D01*
X49374720Y12699881D01*
X49353654Y12584619D01*
X49294504Y12404281D01*
X49210056Y12234916D01*
X49102966Y12079193D01*
X48975890Y11939782D01*
X48831485Y11819350D01*
X48672406Y11720566D01*
X48501309Y11646099D01*
X48385848Y11612224D01*
X48272926Y11591245D01*
X48148601Y11578183D01*
X48024701Y11573741D01*
X47913054Y11578621D01*
X47881719Y11582285D01*
X47693711Y11623294D01*
X47513761Y11691544D01*
X47345102Y11784966D01*
X47190966Y11901486D01*
X47054588Y12039034D01*
X46949379Y12179592D01*
X46891114Y12277824D01*
X46843385Y12378664D01*
X46803559Y12489226D01*
X46769003Y12616622D01*
X46743100Y12736871D01*
X46736510Y12770292D01*
X44466749Y12770292D01*
X44448953Y12714590D01*
X44393702Y12585757D01*
X44317865Y12474795D01*
X44224757Y12383204D01*
X44117692Y12312485D01*
X43999986Y12264135D01*
X43874953Y12239656D01*
X43745907Y12240546D01*
X43616164Y12268306D01*
X43534370Y12300829D01*
X43415370Y12371971D01*
X43318406Y12459668D01*
X43243461Y12560570D01*
X43190515Y12671331D01*
X43159552Y12788600D01*
X43151805Y12892280D01*
G37*
G36*
X38236137Y12864752D02*
G01*
X38498286Y12864752D01*
X38518364Y12692516D01*
X38559100Y12544484D01*
X38605114Y12432055D01*
X38662571Y12331421D01*
X38737042Y12233971D01*
X38812573Y12152553D01*
X38948780Y12034097D01*
X39096199Y11943040D01*
X39255592Y11878974D01*
X39377018Y11849543D01*
X39445612Y11842340D01*
X39532919Y11840709D01*
X39628573Y11844147D01*
X39722205Y11852148D01*
X39803450Y11864209D01*
X39837486Y11871951D01*
X39997897Y11930242D01*
X40146870Y12014332D01*
X40281155Y12121462D01*
X40397499Y12248873D01*
X40492650Y12393805D01*
X40522825Y12453436D01*
X40571336Y12574690D01*
X40601406Y12695142D01*
X40615393Y12825902D01*
X40617091Y12897887D01*
X40604183Y13076484D01*
X40564693Y13241984D01*
X40498288Y13395200D01*
X40404631Y13536951D01*
X40313294Y13639239D01*
X40180681Y13755243D01*
X40042576Y13843239D01*
X39895292Y13904870D01*
X39735141Y13941782D01*
X39607252Y13954099D01*
X39468382Y13954044D01*
X39344083Y13938105D01*
X39223397Y13903994D01*
X39095367Y13849424D01*
X39087369Y13845526D01*
X39020512Y13810982D01*
X38966088Y13777576D01*
X38915579Y13738978D01*
X38860464Y13688858D01*
X38812017Y13640945D01*
X38746813Y13572825D01*
X38698241Y13515412D01*
X38660094Y13460417D01*
X38626163Y13399551D01*
X38616068Y13379298D01*
X38547122Y13207905D01*
X38507867Y13036469D01*
X38498286Y12864752D01*
X38236137Y12864752D01*
X38235451Y12970563D01*
X38256625Y13142007D01*
X38299620Y13309357D01*
X38363957Y13470225D01*
X38449160Y13622222D01*
X38554751Y13762962D01*
X38680251Y13890058D01*
X38825185Y14001121D01*
X38989074Y14093765D01*
X39171442Y14165601D01*
X39202013Y14174919D01*
X39387359Y14214377D01*
X39573054Y14225689D01*
X39756468Y14210267D01*
X39934969Y14169523D01*
X40105927Y14104869D01*
X40266713Y14017717D01*
X40414696Y13909480D01*
X40547244Y13781569D01*
X40661729Y13635396D01*
X40755520Y13472374D01*
X40822465Y13305029D01*
X40840368Y13244787D01*
X40855381Y13186187D01*
X40862974Y13149064D01*
X40865862Y13124765D01*
X40867726Y13104245D01*
X40870907Y13087188D01*
X40877742Y13073278D01*
X40890574Y13062198D01*
X40911740Y13053632D01*
X40943580Y13047263D01*
X40988435Y13042777D01*
X41048644Y13039855D01*
X41126546Y13038183D01*
X41224482Y13037443D01*
X41344791Y13037319D01*
X41489812Y13037496D01*
X41661885Y13037657D01*
X41687112Y13037660D01*
X42487543Y13037660D01*
X42496898Y13093362D01*
X42544180Y13289137D01*
X42617146Y13472046D01*
X42714024Y13640114D01*
X42833039Y13791371D01*
X42972421Y13923841D01*
X43130395Y14035553D01*
X43305190Y14124534D01*
X43476667Y14183893D01*
X43531965Y14197596D01*
X43585755Y14206954D01*
X43645782Y14212703D01*
X43719796Y14215578D01*
X43815542Y14216314D01*
X43818304Y14216311D01*
X43909273Y14215677D01*
X43978340Y14213416D01*
X44033302Y14208639D01*
X44081955Y14200453D01*
X44132096Y14187971D01*
X44173880Y14175705D01*
X44366432Y14102778D01*
X44540900Y14006921D01*
X44696231Y13889018D01*
X44831368Y13749953D01*
X44945258Y13590612D01*
X45006975Y13477441D01*
X45042901Y13402836D01*
X45064657Y13351083D01*
X45070722Y13318156D01*
X45059577Y13300031D01*
X45029703Y13292679D01*
X44979580Y13292076D01*
X44937490Y13293331D01*
X44801529Y13297602D01*
X44757597Y13379298D01*
X44660285Y13530921D01*
X44543542Y13662119D01*
X44409911Y13771336D01*
X44261936Y13857015D01*
X44102159Y13917599D01*
X43933126Y13951533D01*
X43810877Y13958596D01*
X43661213Y13948198D01*
X43516743Y13915662D01*
X43369178Y13858973D01*
X43335556Y13843100D01*
X43192631Y13757414D01*
X43064734Y13648306D01*
X42954900Y13519535D01*
X42866163Y13374858D01*
X42801560Y13218033D01*
X42785497Y13162087D01*
X42763322Y13035722D01*
X42755941Y12896466D01*
X42763354Y12757191D01*
X42785549Y12630807D01*
X42841519Y12470553D01*
X42923376Y12320845D01*
X43028094Y12185406D01*
X43152648Y12067957D01*
X43294012Y11972220D01*
X43341286Y11947279D01*
X43440563Y11902601D01*
X43532588Y11871961D01*
X43627075Y11853268D01*
X43733741Y11844430D01*
X43825731Y11843003D01*
X43907854Y11844012D01*
X43969476Y11847171D01*
X44019793Y11853832D01*
X44068002Y11865346D01*
X44123299Y11883063D01*
X44141541Y11889402D01*
X44261282Y11936859D01*
X44362275Y11990573D01*
X44454815Y12057049D01*
X44549197Y12142795D01*
X44560883Y12154435D01*
X44643032Y12243998D01*
X44705263Y12329124D01*
X44739240Y12388222D01*
X44798655Y12502603D01*
X44937663Y12502763D01*
X45076671Y12502924D01*
X45066701Y12462076D01*
X45035885Y12373272D01*
X44985781Y12273185D01*
X44920670Y12168614D01*
X44844835Y12066357D01*
X44762558Y11973214D01*
X44752168Y11962685D01*
X44601684Y11832125D01*
X44436629Y11727195D01*
X44255762Y11647186D01*
X44136290Y11610089D01*
X44044213Y11592044D01*
X43934358Y11580432D01*
X43816895Y11575510D01*
X43701991Y11577533D01*
X43599812Y11586756D01*
X43550936Y11595383D01*
X43358508Y11652424D01*
X43180104Y11734038D01*
X43017636Y11838257D01*
X42873014Y11963110D01*
X42748149Y12106629D01*
X42644953Y12266843D01*
X42565336Y12441785D01*
X42511208Y12629483D01*
X42502234Y12676146D01*
X42485839Y12770292D01*
X40886025Y12770292D01*
X40876670Y12714590D01*
X40828867Y12514394D01*
X40755354Y12327355D01*
X40657101Y12155302D01*
X40535075Y12000064D01*
X40456151Y11920633D01*
X40311784Y11806127D01*
X40150643Y11712439D01*
X39977401Y11641037D01*
X39796732Y11593385D01*
X39613309Y11570951D01*
X39431807Y11575200D01*
X39377018Y11582110D01*
X39200369Y11621596D01*
X39027763Y11684408D01*
X38866883Y11767248D01*
X38738304Y11856330D01*
X38593368Y11989592D01*
X38473594Y12135472D01*
X38378505Y12291581D01*
X38307623Y12455532D01*
X38260472Y12624937D01*
X38236574Y12797410D01*
X38236137Y12864752D01*
G37*
%TO.C,J1*%
X38355000Y62620000D02*
X39625000Y62620000D01*
X38355000Y61350000D02*
X38355000Y62620000D01*
X40667929Y59190000D02*
X41065000Y59190000D01*
X40667929Y58430000D02*
X41065000Y58430000D01*
X40667929Y56650000D02*
X41065000Y56650000D01*
X40667929Y55890000D02*
X41065000Y55890000D01*
X40667929Y54110000D02*
X41065000Y54110000D01*
X40667929Y53350000D02*
X41065000Y53350000D01*
X40667929Y51570000D02*
X41065000Y51570000D01*
X40667929Y50810000D02*
X41065000Y50810000D01*
X40667929Y49030000D02*
X41065000Y49030000D01*
X40667929Y48270000D02*
X41065000Y48270000D01*
X40735000Y61730000D02*
X41065000Y61730000D01*
X40735000Y60970000D02*
X41065000Y60970000D01*
X41065000Y62680000D02*
X41065000Y47320000D01*
X41065000Y60080000D02*
X43725000Y60080000D01*
X41065000Y57540000D02*
X43725000Y57540000D01*
X41065000Y55000000D02*
X43725000Y55000000D01*
X41065000Y52460000D02*
X43725000Y52460000D01*
X41065000Y49920000D02*
X43725000Y49920000D01*
X41065000Y47320000D02*
X43725000Y47320000D01*
X43725000Y62680000D02*
X41065000Y62680000D01*
X43725000Y61730000D02*
X49725000Y61730000D01*
X43725000Y61670000D02*
X49725000Y61670000D01*
X43725000Y61550000D02*
X49725000Y61550000D01*
X43725000Y61430000D02*
X49725000Y61430000D01*
X43725000Y61310000D02*
X49725000Y61310000D01*
X43725000Y61190000D02*
X49725000Y61190000D01*
X43725000Y61070000D02*
X49725000Y61070000D01*
X43725000Y59190000D02*
X49725000Y59190000D01*
X43725000Y56650000D02*
X49725000Y56650000D01*
X43725000Y54110000D02*
X49725000Y54110000D01*
X43725000Y51570000D02*
X49725000Y51570000D01*
X43725000Y49030000D02*
X49725000Y49030000D01*
X43725000Y47320000D02*
X43725000Y62680000D01*
X49725000Y61730000D02*
X49725000Y60970000D01*
X49725000Y60970000D02*
X43725000Y60970000D01*
X49725000Y59190000D02*
X49725000Y58430000D01*
X49725000Y58430000D02*
X43725000Y58430000D01*
X49725000Y56650000D02*
X49725000Y55890000D01*
X49725000Y55890000D02*
X43725000Y55890000D01*
X49725000Y54110000D02*
X49725000Y53350000D01*
X49725000Y53350000D02*
X43725000Y53350000D01*
X49725000Y51570000D02*
X49725000Y50810000D01*
X49725000Y50810000D02*
X43725000Y50810000D01*
X49725000Y49030000D02*
X49725000Y48270000D01*
X49725000Y48270000D02*
X43725000Y48270000D01*
%TO.C,JP4*%
X25000000Y52000000D02*
X27800000Y52000000D01*
X25000000Y50000000D02*
X25000000Y52000000D01*
X27800000Y52000000D02*
X27800000Y50000000D01*
X27800000Y50000000D02*
X25000000Y50000000D01*
%TO.C,C4*%
X31690000Y74053733D02*
X31690000Y74346267D01*
X32710000Y74053733D02*
X32710000Y74346267D01*
%TO.C,C1*%
X33037500Y19452500D02*
X32250000Y19452500D01*
X32643750Y19058750D02*
X32643750Y19846250D01*
X32010000Y18954437D02*
X32010000Y20240000D01*
X32010000Y18954437D02*
X30945563Y17890000D01*
X32010000Y23645563D02*
X32010000Y22360000D01*
X32010000Y23645563D02*
X30945563Y24710000D01*
X30945563Y17890000D02*
X25190000Y17890000D01*
X30945563Y24710000D02*
X25190000Y24710000D01*
X25190000Y17890000D02*
X25190000Y20240000D01*
X25190000Y24710000D02*
X25190000Y22360000D01*
%TO.C,C17*%
X25287651Y41215000D02*
X26087651Y41215000D01*
X25687651Y41615000D02*
X25687651Y40815000D01*
X29697349Y42980000D02*
X29697349Y34820000D01*
X29737349Y42980000D02*
X29737349Y34820000D01*
X29777349Y42980000D02*
X29777349Y34820000D01*
X29817349Y42979000D02*
X29817349Y34821000D01*
X29857349Y42977000D02*
X29857349Y34823000D01*
X29897349Y42976000D02*
X29897349Y34824000D01*
X29937349Y42974000D02*
X29937349Y39940000D01*
X29937349Y37860000D02*
X29937349Y34826000D01*
X29977349Y42971000D02*
X29977349Y39940000D01*
X29977349Y37860000D02*
X29977349Y34829000D01*
X30017349Y42968000D02*
X30017349Y39940000D01*
X30017349Y37860000D02*
X30017349Y34832000D01*
X30057349Y42965000D02*
X30057349Y39940000D01*
X30057349Y37860000D02*
X30057349Y34835000D01*
X30097349Y42961000D02*
X30097349Y39940000D01*
X30097349Y37860000D02*
X30097349Y34839000D01*
X30137349Y42957000D02*
X30137349Y39940000D01*
X30137349Y37860000D02*
X30137349Y34843000D01*
X30177349Y42952000D02*
X30177349Y39940000D01*
X30177349Y37860000D02*
X30177349Y34848000D01*
X30217349Y42948000D02*
X30217349Y39940000D01*
X30217349Y37860000D02*
X30217349Y34852000D01*
X30257349Y42942000D02*
X30257349Y39940000D01*
X30257349Y37860000D02*
X30257349Y34858000D01*
X30297349Y42937000D02*
X30297349Y39940000D01*
X30297349Y37860000D02*
X30297349Y34863000D01*
X30337349Y42930000D02*
X30337349Y39940000D01*
X30337349Y37860000D02*
X30337349Y34870000D01*
X30377349Y42924000D02*
X30377349Y39940000D01*
X30377349Y37860000D02*
X30377349Y34876000D01*
X30418349Y42917000D02*
X30418349Y39940000D01*
X30418349Y37860000D02*
X30418349Y34883000D01*
X30458349Y42910000D02*
X30458349Y39940000D01*
X30458349Y37860000D02*
X30458349Y34890000D01*
X30498349Y42902000D02*
X30498349Y39940000D01*
X30498349Y37860000D02*
X30498349Y34898000D01*
X30538349Y42894000D02*
X30538349Y39940000D01*
X30538349Y37860000D02*
X30538349Y34906000D01*
X30578349Y42885000D02*
X30578349Y39940000D01*
X30578349Y37860000D02*
X30578349Y34915000D01*
X30618349Y42876000D02*
X30618349Y39940000D01*
X30618349Y37860000D02*
X30618349Y34924000D01*
X30658349Y42867000D02*
X30658349Y39940000D01*
X30658349Y37860000D02*
X30658349Y34933000D01*
X30698349Y42857000D02*
X30698349Y39940000D01*
X30698349Y37860000D02*
X30698349Y34943000D01*
X30738349Y42847000D02*
X30738349Y39940000D01*
X30738349Y37860000D02*
X30738349Y34953000D01*
X30778349Y42836000D02*
X30778349Y39940000D01*
X30778349Y37860000D02*
X30778349Y34964000D01*
X30818349Y42825000D02*
X30818349Y39940000D01*
X30818349Y37860000D02*
X30818349Y34975000D01*
X30858349Y42814000D02*
X30858349Y39940000D01*
X30858349Y37860000D02*
X30858349Y34986000D01*
X30898349Y42802000D02*
X30898349Y39940000D01*
X30898349Y37860000D02*
X30898349Y34998000D01*
X30938349Y42789000D02*
X30938349Y39940000D01*
X30938349Y37860000D02*
X30938349Y35011000D01*
X30978349Y42777000D02*
X30978349Y39940000D01*
X30978349Y37860000D02*
X30978349Y35023000D01*
X31018349Y42763000D02*
X31018349Y39940000D01*
X31018349Y37860000D02*
X31018349Y35037000D01*
X31058349Y42750000D02*
X31058349Y39940000D01*
X31058349Y37860000D02*
X31058349Y35050000D01*
X31098349Y42735000D02*
X31098349Y39940000D01*
X31098349Y37860000D02*
X31098349Y35065000D01*
X31138349Y42721000D02*
X31138349Y39940000D01*
X31138349Y37860000D02*
X31138349Y35079000D01*
X31178349Y42705000D02*
X31178349Y39940000D01*
X31178349Y37860000D02*
X31178349Y35095000D01*
X31218349Y42690000D02*
X31218349Y39940000D01*
X31218349Y37860000D02*
X31218349Y35110000D01*
X31258349Y42674000D02*
X31258349Y39940000D01*
X31258349Y37860000D02*
X31258349Y35126000D01*
X31298349Y42657000D02*
X31298349Y39940000D01*
X31298349Y37860000D02*
X31298349Y35143000D01*
X31338349Y42640000D02*
X31338349Y39940000D01*
X31338349Y37860000D02*
X31338349Y35160000D01*
X31378349Y42622000D02*
X31378349Y39940000D01*
X31378349Y37860000D02*
X31378349Y35178000D01*
X31418349Y42604000D02*
X31418349Y39940000D01*
X31418349Y37860000D02*
X31418349Y35196000D01*
X31458349Y42586000D02*
X31458349Y39940000D01*
X31458349Y37860000D02*
X31458349Y35214000D01*
X31498349Y42566000D02*
X31498349Y39940000D01*
X31498349Y37860000D02*
X31498349Y35234000D01*
X31538349Y42547000D02*
X31538349Y39940000D01*
X31538349Y37860000D02*
X31538349Y35253000D01*
X31578349Y42527000D02*
X31578349Y39940000D01*
X31578349Y37860000D02*
X31578349Y35273000D01*
X31618349Y42506000D02*
X31618349Y39940000D01*
X31618349Y37860000D02*
X31618349Y35294000D01*
X31658349Y42484000D02*
X31658349Y39940000D01*
X31658349Y37860000D02*
X31658349Y35316000D01*
X31698349Y42462000D02*
X31698349Y39940000D01*
X31698349Y37860000D02*
X31698349Y35338000D01*
X31738349Y42440000D02*
X31738349Y39940000D01*
X31738349Y37860000D02*
X31738349Y35360000D01*
X31778349Y42417000D02*
X31778349Y39940000D01*
X31778349Y37860000D02*
X31778349Y35383000D01*
X31818349Y42393000D02*
X31818349Y39940000D01*
X31818349Y37860000D02*
X31818349Y35407000D01*
X31858349Y42369000D02*
X31858349Y39940000D01*
X31858349Y37860000D02*
X31858349Y35431000D01*
X31898349Y42344000D02*
X31898349Y39940000D01*
X31898349Y37860000D02*
X31898349Y35456000D01*
X31938349Y42318000D02*
X31938349Y39940000D01*
X31938349Y37860000D02*
X31938349Y35482000D01*
X31978349Y42292000D02*
X31978349Y39940000D01*
X31978349Y37860000D02*
X31978349Y35508000D01*
X32018349Y42265000D02*
X32018349Y35535000D01*
X32058349Y42238000D02*
X32058349Y35562000D01*
X32098349Y42209000D02*
X32098349Y35591000D01*
X32138349Y42180000D02*
X32138349Y35620000D01*
X32178349Y42150000D02*
X32178349Y35650000D01*
X32218349Y42120000D02*
X32218349Y35680000D01*
X32258349Y42089000D02*
X32258349Y35711000D01*
X32298349Y42056000D02*
X32298349Y35744000D01*
X32338349Y42024000D02*
X32338349Y35776000D01*
X32378349Y41990000D02*
X32378349Y35810000D01*
X32418349Y41955000D02*
X32418349Y35845000D01*
X32458349Y41919000D02*
X32458349Y35881000D01*
X32498349Y41883000D02*
X32498349Y35917000D01*
X32538349Y41845000D02*
X32538349Y35955000D01*
X32578349Y41807000D02*
X32578349Y35993000D01*
X32618349Y41767000D02*
X32618349Y36033000D01*
X32658349Y41726000D02*
X32658349Y36074000D01*
X32698349Y41684000D02*
X32698349Y36116000D01*
X32738349Y41641000D02*
X32738349Y36159000D01*
X32778349Y41597000D02*
X32778349Y36203000D01*
X32818349Y41551000D02*
X32818349Y36249000D01*
X32858349Y41504000D02*
X32858349Y36296000D01*
X32898349Y41456000D02*
X32898349Y36344000D01*
X32938349Y41405000D02*
X32938349Y36395000D01*
X32978349Y41354000D02*
X32978349Y36446000D01*
X33018349Y41300000D02*
X33018349Y36500000D01*
X33058349Y41245000D02*
X33058349Y36555000D01*
X33098349Y41187000D02*
X33098349Y36613000D01*
X33138349Y41128000D02*
X33138349Y36672000D01*
X33178349Y41066000D02*
X33178349Y36734000D01*
X33218349Y41002000D02*
X33218349Y36798000D01*
X33258349Y40934000D02*
X33258349Y36866000D01*
X33298349Y40864000D02*
X33298349Y36936000D01*
X33338349Y40790000D02*
X33338349Y37010000D01*
X33378349Y40713000D02*
X33378349Y37087000D01*
X33418349Y40631000D02*
X33418349Y37169000D01*
X33458349Y40545000D02*
X33458349Y37255000D01*
X33498349Y40452000D02*
X33498349Y37348000D01*
X33538349Y40353000D02*
X33538349Y37447000D01*
X33578349Y40246000D02*
X33578349Y37554000D01*
X33618349Y40129000D02*
X33618349Y37671000D01*
X33658349Y39998000D02*
X33658349Y37802000D01*
X33698349Y39848000D02*
X33698349Y37952000D01*
X33738349Y39668000D02*
X33738349Y38132000D01*
X33778349Y39433000D02*
X33778349Y38367000D01*
X33817349Y38900000D02*
G75*
G03*
X33817349Y38900000I-4120000J0D01*
G01*
%TO.C,R6*%
X23654724Y80277500D02*
X23145276Y80277500D01*
X23654724Y81322500D02*
X23145276Y81322500D01*
%TO.C,D7*%
X16240000Y69600000D02*
X16240000Y67600000D01*
X16240000Y69600000D02*
X20250000Y69600000D01*
X16240000Y67600000D02*
X20250000Y67600000D01*
D18*
%TO.C,J4*%
X13900000Y81432500D02*
X12900000Y81432500D01*
X13900000Y85142500D02*
X12900000Y85142500D01*
X11100000Y81432500D02*
X10100000Y81432500D01*
X11100000Y85142500D02*
X10100000Y85142500D01*
D19*
X12140000Y81042500D02*
G75*
G03*
X12140000Y81042500I-140000J0D01*
G01*
D17*
%TO.C,R15*%
X14222500Y48054724D02*
X14222500Y47545276D01*
X13177500Y48054724D02*
X13177500Y47545276D01*
D14*
%TO.C,EMI1*%
X28700000Y61950000D02*
X28700000Y62625000D01*
X28850000Y61950000D02*
X28700000Y61950000D01*
X30500000Y61950000D02*
X30350000Y61950000D01*
X30500000Y61950000D02*
X30500000Y62625000D01*
X28700000Y63775000D02*
X28700000Y64450000D01*
X30500000Y63775000D02*
X30500000Y64450000D01*
X28850000Y64450000D02*
X28700000Y64450000D01*
X30500000Y64450000D02*
X30350000Y64450000D01*
D17*
%TO.C,R10*%
X18532776Y28822500D02*
X19042224Y28822500D01*
X18532776Y27777500D02*
X19042224Y27777500D01*
%TO.C,C11*%
X18933767Y26090000D02*
X18641233Y26090000D01*
X18933767Y27110000D02*
X18641233Y27110000D01*
%TO.C,C13*%
X5490000Y37238748D02*
X5490000Y38661252D01*
X8210000Y37238748D02*
X8210000Y38661252D01*
%TO.C,C21*%
X25287651Y32015000D02*
X26087651Y32015000D01*
X25687651Y32415000D02*
X25687651Y31615000D01*
X29697349Y33780000D02*
X29697349Y25620000D01*
X29737349Y33780000D02*
X29737349Y25620000D01*
X29777349Y33780000D02*
X29777349Y25620000D01*
X29817349Y33779000D02*
X29817349Y25621000D01*
X29857349Y33777000D02*
X29857349Y25623000D01*
X29897349Y33776000D02*
X29897349Y25624000D01*
X29937349Y33774000D02*
X29937349Y30740000D01*
X29937349Y28660000D02*
X29937349Y25626000D01*
X29977349Y33771000D02*
X29977349Y30740000D01*
X29977349Y28660000D02*
X29977349Y25629000D01*
X30017349Y33768000D02*
X30017349Y30740000D01*
X30017349Y28660000D02*
X30017349Y25632000D01*
X30057349Y33765000D02*
X30057349Y30740000D01*
X30057349Y28660000D02*
X30057349Y25635000D01*
X30097349Y33761000D02*
X30097349Y30740000D01*
X30097349Y28660000D02*
X30097349Y25639000D01*
X30137349Y33757000D02*
X30137349Y30740000D01*
X30137349Y28660000D02*
X30137349Y25643000D01*
X30177349Y33752000D02*
X30177349Y30740000D01*
X30177349Y28660000D02*
X30177349Y25648000D01*
X30217349Y33748000D02*
X30217349Y30740000D01*
X30217349Y28660000D02*
X30217349Y25652000D01*
X30257349Y33742000D02*
X30257349Y30740000D01*
X30257349Y28660000D02*
X30257349Y25658000D01*
X30297349Y33737000D02*
X30297349Y30740000D01*
X30297349Y28660000D02*
X30297349Y25663000D01*
X30337349Y33730000D02*
X30337349Y30740000D01*
X30337349Y28660000D02*
X30337349Y25670000D01*
X30377349Y33724000D02*
X30377349Y30740000D01*
X30377349Y28660000D02*
X30377349Y25676000D01*
X30418349Y33717000D02*
X30418349Y30740000D01*
X30418349Y28660000D02*
X30418349Y25683000D01*
X30458349Y33710000D02*
X30458349Y30740000D01*
X30458349Y28660000D02*
X30458349Y25690000D01*
X30498349Y33702000D02*
X30498349Y30740000D01*
X30498349Y28660000D02*
X30498349Y25698000D01*
X30538349Y33694000D02*
X30538349Y30740000D01*
X30538349Y28660000D02*
X30538349Y25706000D01*
X30578349Y33685000D02*
X30578349Y30740000D01*
X30578349Y28660000D02*
X30578349Y25715000D01*
X30618349Y33676000D02*
X30618349Y30740000D01*
X30618349Y28660000D02*
X30618349Y25724000D01*
X30658349Y33667000D02*
X30658349Y30740000D01*
X30658349Y28660000D02*
X30658349Y25733000D01*
X30698349Y33657000D02*
X30698349Y30740000D01*
X30698349Y28660000D02*
X30698349Y25743000D01*
X30738349Y33647000D02*
X30738349Y30740000D01*
X30738349Y28660000D02*
X30738349Y25753000D01*
X30778349Y33636000D02*
X30778349Y30740000D01*
X30778349Y28660000D02*
X30778349Y25764000D01*
X30818349Y33625000D02*
X30818349Y30740000D01*
X30818349Y28660000D02*
X30818349Y25775000D01*
X30858349Y33614000D02*
X30858349Y30740000D01*
X30858349Y28660000D02*
X30858349Y25786000D01*
X30898349Y33602000D02*
X30898349Y30740000D01*
X30898349Y28660000D02*
X30898349Y25798000D01*
X30938349Y33589000D02*
X30938349Y30740000D01*
X30938349Y28660000D02*
X30938349Y25811000D01*
X30978349Y33577000D02*
X30978349Y30740000D01*
X30978349Y28660000D02*
X30978349Y25823000D01*
X31018349Y33563000D02*
X31018349Y30740000D01*
X31018349Y28660000D02*
X31018349Y25837000D01*
X31058349Y33550000D02*
X31058349Y30740000D01*
X31058349Y28660000D02*
X31058349Y25850000D01*
X31098349Y33535000D02*
X31098349Y30740000D01*
X31098349Y28660000D02*
X31098349Y25865000D01*
X31138349Y33521000D02*
X31138349Y30740000D01*
X31138349Y28660000D02*
X31138349Y25879000D01*
X31178349Y33505000D02*
X31178349Y30740000D01*
X31178349Y28660000D02*
X31178349Y25895000D01*
X31218349Y33490000D02*
X31218349Y30740000D01*
X31218349Y28660000D02*
X31218349Y25910000D01*
X31258349Y33474000D02*
X31258349Y30740000D01*
X31258349Y28660000D02*
X31258349Y25926000D01*
X31298349Y33457000D02*
X31298349Y30740000D01*
X31298349Y28660000D02*
X31298349Y25943000D01*
X31338349Y33440000D02*
X31338349Y30740000D01*
X31338349Y28660000D02*
X31338349Y25960000D01*
X31378349Y33422000D02*
X31378349Y30740000D01*
X31378349Y28660000D02*
X31378349Y25978000D01*
X31418349Y33404000D02*
X31418349Y30740000D01*
X31418349Y28660000D02*
X31418349Y25996000D01*
X31458349Y33386000D02*
X31458349Y30740000D01*
X31458349Y28660000D02*
X31458349Y26014000D01*
X31498349Y33366000D02*
X31498349Y30740000D01*
X31498349Y28660000D02*
X31498349Y26034000D01*
X31538349Y33347000D02*
X31538349Y30740000D01*
X31538349Y28660000D02*
X31538349Y26053000D01*
X31578349Y33327000D02*
X31578349Y30740000D01*
X31578349Y28660000D02*
X31578349Y26073000D01*
X31618349Y33306000D02*
X31618349Y30740000D01*
X31618349Y28660000D02*
X31618349Y26094000D01*
X31658349Y33284000D02*
X31658349Y30740000D01*
X31658349Y28660000D02*
X31658349Y26116000D01*
X31698349Y33262000D02*
X31698349Y30740000D01*
X31698349Y28660000D02*
X31698349Y26138000D01*
X31738349Y33240000D02*
X31738349Y30740000D01*
X31738349Y28660000D02*
X31738349Y26160000D01*
X31778349Y33217000D02*
X31778349Y30740000D01*
X31778349Y28660000D02*
X31778349Y26183000D01*
X31818349Y33193000D02*
X31818349Y30740000D01*
X31818349Y28660000D02*
X31818349Y26207000D01*
X31858349Y33169000D02*
X31858349Y30740000D01*
X31858349Y28660000D02*
X31858349Y26231000D01*
X31898349Y33144000D02*
X31898349Y30740000D01*
X31898349Y28660000D02*
X31898349Y26256000D01*
X31938349Y33118000D02*
X31938349Y30740000D01*
X31938349Y28660000D02*
X31938349Y26282000D01*
X31978349Y33092000D02*
X31978349Y30740000D01*
X31978349Y28660000D02*
X31978349Y26308000D01*
X32018349Y33065000D02*
X32018349Y26335000D01*
X32058349Y33038000D02*
X32058349Y26362000D01*
X32098349Y33009000D02*
X32098349Y26391000D01*
X32138349Y32980000D02*
X32138349Y26420000D01*
X32178349Y32950000D02*
X32178349Y26450000D01*
X32218349Y32920000D02*
X32218349Y26480000D01*
X32258349Y32889000D02*
X32258349Y26511000D01*
X32298349Y32856000D02*
X32298349Y26544000D01*
X32338349Y32824000D02*
X32338349Y26576000D01*
X32378349Y32790000D02*
X32378349Y26610000D01*
X32418349Y32755000D02*
X32418349Y26645000D01*
X32458349Y32719000D02*
X32458349Y26681000D01*
X32498349Y32683000D02*
X32498349Y26717000D01*
X32538349Y32645000D02*
X32538349Y26755000D01*
X32578349Y32607000D02*
X32578349Y26793000D01*
X32618349Y32567000D02*
X32618349Y26833000D01*
X32658349Y32526000D02*
X32658349Y26874000D01*
X32698349Y32484000D02*
X32698349Y26916000D01*
X32738349Y32441000D02*
X32738349Y26959000D01*
X32778349Y32397000D02*
X32778349Y27003000D01*
X32818349Y32351000D02*
X32818349Y27049000D01*
X32858349Y32304000D02*
X32858349Y27096000D01*
X32898349Y32256000D02*
X32898349Y27144000D01*
X32938349Y32205000D02*
X32938349Y27195000D01*
X32978349Y32154000D02*
X32978349Y27246000D01*
X33018349Y32100000D02*
X33018349Y27300000D01*
X33058349Y32045000D02*
X33058349Y27355000D01*
X33098349Y31987000D02*
X33098349Y27413000D01*
X33138349Y31928000D02*
X33138349Y27472000D01*
X33178349Y31866000D02*
X33178349Y27534000D01*
X33218349Y31802000D02*
X33218349Y27598000D01*
X33258349Y31734000D02*
X33258349Y27666000D01*
X33298349Y31664000D02*
X33298349Y27736000D01*
X33338349Y31590000D02*
X33338349Y27810000D01*
X33378349Y31513000D02*
X33378349Y27887000D01*
X33418349Y31431000D02*
X33418349Y27969000D01*
X33458349Y31345000D02*
X33458349Y28055000D01*
X33498349Y31252000D02*
X33498349Y28148000D01*
X33538349Y31153000D02*
X33538349Y28247000D01*
X33578349Y31046000D02*
X33578349Y28354000D01*
X33618349Y30929000D02*
X33618349Y28471000D01*
X33658349Y30798000D02*
X33658349Y28602000D01*
X33698349Y30648000D02*
X33698349Y28752000D01*
X33738349Y30468000D02*
X33738349Y28932000D01*
X33778349Y30233000D02*
X33778349Y29167000D01*
X33817349Y29700000D02*
G75*
G03*
X33817349Y29700000I-4120000J0D01*
G01*
%TO.C,R8*%
X13142224Y73977500D02*
X12632776Y73977500D01*
X13142224Y75022500D02*
X12632776Y75022500D01*
%TO.C,D6*%
X20960000Y70200000D02*
X20960000Y72200000D01*
X20960000Y70200000D02*
X16950000Y70200000D01*
X20960000Y72200000D02*
X16950000Y72200000D01*
D16*
%TO.C,L1*%
X29200000Y72500000D02*
X25600000Y72500000D01*
X25600000Y72500000D02*
X25600000Y82500000D01*
X25600000Y82500000D02*
X29200000Y82500000D01*
X29200000Y82500000D02*
X29200000Y72500000D01*
D17*
%TO.C,R3*%
X35745276Y61922500D02*
X36254724Y61922500D01*
X35745276Y60877500D02*
X36254724Y60877500D01*
%TO.C,C6*%
X13046267Y75790000D02*
X12753733Y75790000D01*
X13046267Y76810000D02*
X12753733Y76810000D01*
%TO.C,C14*%
X14891233Y28810000D02*
X15183767Y28810000D01*
X14891233Y27790000D02*
X15183767Y27790000D01*
%TO.C,D2*%
X11360000Y78000000D02*
X11360000Y80000000D01*
X11360000Y78000000D02*
X7350000Y78000000D01*
X11360000Y80000000D02*
X7350000Y80000000D01*
D16*
%TO.C,Y1*%
X21562500Y48900000D02*
X27362500Y48900000D01*
X27362500Y48900000D02*
X27362500Y46900000D01*
X27362500Y46900000D02*
X21562500Y46900000D01*
X21562500Y46900000D02*
X21562500Y48900000D01*
D17*
%TO.C,C9*%
X26546267Y44990000D02*
X26253733Y44990000D01*
X26546267Y46010000D02*
X26253733Y46010000D01*
%TO.C,R9*%
X18532776Y25222500D02*
X19042224Y25222500D01*
X18532776Y24177500D02*
X19042224Y24177500D01*
%TO.C,R11*%
X17357776Y43722500D02*
X17867224Y43722500D01*
X17357776Y42677500D02*
X17867224Y42677500D01*
%TO.C,C12*%
X9440000Y19603733D02*
X9440000Y19896267D01*
X10460000Y19603733D02*
X10460000Y19896267D01*
%TO.C,R4*%
X29777500Y73945276D02*
X29777500Y74454724D01*
X30822500Y73945276D02*
X30822500Y74454724D01*
%TO.C,R7*%
X19854724Y80277500D02*
X19345276Y80277500D01*
X19854724Y81322500D02*
X19345276Y81322500D01*
%TO.C,Q1*%
X19250000Y73940000D02*
X20550000Y73940000D01*
X20550000Y77060000D02*
X17550000Y77060000D01*
%TO.C,C19*%
X20390000Y20053733D02*
X20390000Y20346267D01*
X21410000Y20053733D02*
X21410000Y20346267D01*
D14*
%TO.C,EMI3*%
X26500000Y69050000D02*
X26500000Y69725000D01*
X26650000Y69050000D02*
X26500000Y69050000D01*
X28300000Y69050000D02*
X28150000Y69050000D01*
X28300000Y69050000D02*
X28300000Y69725000D01*
X26500000Y70875000D02*
X26500000Y71550000D01*
X28300000Y70875000D02*
X28300000Y71550000D01*
X26650000Y71550000D02*
X26500000Y71550000D01*
X28300000Y71550000D02*
X28150000Y71550000D01*
D17*
%TO.C,R12*%
X33154724Y45177500D02*
X32645276Y45177500D01*
X33154724Y46222500D02*
X32645276Y46222500D01*
D15*
%TO.C,J6*%
X49650000Y32950000D02*
X49650000Y38950000D01*
X49650000Y38950000D02*
X49650000Y44450000D01*
X49650000Y44450000D02*
X35550000Y44450000D01*
X35550000Y32950000D02*
X49650000Y32950000D01*
X35550000Y38950000D02*
X35550000Y32950000D01*
X35550000Y44450000D02*
X35550000Y38950000D01*
D17*
%TO.C,JP1*%
X28600000Y52000000D02*
X31400000Y52000000D01*
X28600000Y50000000D02*
X28600000Y52000000D01*
X31400000Y52000000D02*
X31400000Y50000000D01*
X31400000Y50000000D02*
X28600000Y50000000D01*
%TO.C,R1*%
X35632776Y59322500D02*
X36142224Y59322500D01*
X35632776Y58277500D02*
X36142224Y58277500D01*
%TO.C,U2*%
X15700000Y17440000D02*
X19150000Y17440000D01*
X15700000Y17440000D02*
X13750000Y17440000D01*
X15700000Y22560000D02*
X17650000Y22560000D01*
X15700000Y22560000D02*
X13750000Y22560000D01*
D18*
%TO.C,J5*%
X39900000Y81432500D02*
X38900000Y81432500D01*
X39900000Y85142500D02*
X38900000Y85142500D01*
X37100000Y81432500D02*
X36100000Y81432500D01*
X37100000Y85142500D02*
X36100000Y85142500D01*
D19*
X38140000Y81042500D02*
G75*
G03*
X38140000Y81042500I-140000J0D01*
G01*
D17*
%TO.C,C2*%
X30353733Y66210000D02*
X30646267Y66210000D01*
X30353733Y65190000D02*
X30646267Y65190000D01*
%TO.C,R5*%
X12632776Y73322500D02*
X13142224Y73322500D01*
X12632776Y72277500D02*
X13142224Y72277500D01*
%TO.C,R19*%
X28745276Y5022500D02*
X29254724Y5022500D01*
X28745276Y3977500D02*
X29254724Y3977500D01*
%TO.C,R17*%
X38832776Y29122500D02*
X39342224Y29122500D01*
X38832776Y28077500D02*
X39342224Y28077500D01*
%TO.C,JP2*%
X17750000Y52000000D02*
X20550000Y52000000D01*
X17750000Y50000000D02*
X17750000Y52000000D01*
X20550000Y52000000D02*
X20550000Y50000000D01*
X20550000Y50000000D02*
X17750000Y50000000D01*
%TO.C,C20*%
X14746267Y53090000D02*
X14453733Y53090000D01*
X14746267Y54110000D02*
X14453733Y54110000D01*
D14*
%TO.C,EMI5*%
X4300000Y21012500D02*
X4300000Y20337500D01*
X4150000Y21012500D02*
X4300000Y21012500D01*
X2500000Y21012500D02*
X2650000Y21012500D01*
X2500000Y21012500D02*
X2500000Y20337500D01*
X4300000Y19187500D02*
X4300000Y18512500D01*
X2500000Y19187500D02*
X2500000Y18512500D01*
X4150000Y18512500D02*
X4300000Y18512500D01*
X2500000Y18512500D02*
X2650000Y18512500D01*
D17*
%TO.C,R18*%
X16554724Y32677500D02*
X16045276Y32677500D01*
X16554724Y33722500D02*
X16045276Y33722500D01*
%TD*%
M02*
