%TF.GenerationSoftware,KiCad,Pcbnew,7.0.1*%
%TF.CreationDate,2023-04-12T14:42:12+09:00*%
%TF.ProjectId,KiCad-Si4735,4b694361-642d-4536-9934-3733352e6b69,rev?*%
%TF.SameCoordinates,PX6bc3e40PY88601c0*%
%TF.FileFunction,Legend,Bot*%
%TF.FilePolarity,Positive*%
%FSLAX46Y46*%
G04 Gerber Fmt 4.6, Leading zero omitted, Abs format (unit mm)*
G04 Created by KiCad (PCBNEW 7.0.1) date 2023-04-12 14:42:12*
%MOMM*%
%LPD*%
G01*
G04 APERTURE LIST*
%ADD10C,0.150000*%
%ADD11C,0.120000*%
G04 APERTURE END LIST*
D10*
X45482619Y39413097D02*
X45006428Y39746430D01*
X45482619Y39984525D02*
X44482619Y39984525D01*
X44482619Y39984525D02*
X44482619Y39603573D01*
X44482619Y39603573D02*
X44530238Y39508335D01*
X44530238Y39508335D02*
X44577857Y39460716D01*
X44577857Y39460716D02*
X44673095Y39413097D01*
X44673095Y39413097D02*
X44815952Y39413097D01*
X44815952Y39413097D02*
X44911190Y39460716D01*
X44911190Y39460716D02*
X44958809Y39508335D01*
X44958809Y39508335D02*
X45006428Y39603573D01*
X45006428Y39603573D02*
X45006428Y39984525D01*
X45482619Y38555954D02*
X44958809Y38555954D01*
X44958809Y38555954D02*
X44863571Y38603573D01*
X44863571Y38603573D02*
X44815952Y38698811D01*
X44815952Y38698811D02*
X44815952Y38889287D01*
X44815952Y38889287D02*
X44863571Y38984525D01*
X45435000Y38555954D02*
X45482619Y38651192D01*
X45482619Y38651192D02*
X45482619Y38889287D01*
X45482619Y38889287D02*
X45435000Y38984525D01*
X45435000Y38984525D02*
X45339761Y39032144D01*
X45339761Y39032144D02*
X45244523Y39032144D01*
X45244523Y39032144D02*
X45149285Y38984525D01*
X45149285Y38984525D02*
X45101666Y38889287D01*
X45101666Y38889287D02*
X45101666Y38651192D01*
X45101666Y38651192D02*
X45054047Y38555954D01*
X45435000Y38127382D02*
X45482619Y38032144D01*
X45482619Y38032144D02*
X45482619Y37841668D01*
X45482619Y37841668D02*
X45435000Y37746430D01*
X45435000Y37746430D02*
X45339761Y37698811D01*
X45339761Y37698811D02*
X45292142Y37698811D01*
X45292142Y37698811D02*
X45196904Y37746430D01*
X45196904Y37746430D02*
X45149285Y37841668D01*
X45149285Y37841668D02*
X45149285Y37984525D01*
X45149285Y37984525D02*
X45101666Y38079763D01*
X45101666Y38079763D02*
X45006428Y38127382D01*
X45006428Y38127382D02*
X44958809Y38127382D01*
X44958809Y38127382D02*
X44863571Y38079763D01*
X44863571Y38079763D02*
X44815952Y37984525D01*
X44815952Y37984525D02*
X44815952Y37841668D01*
X44815952Y37841668D02*
X44863571Y37746430D01*
X44815952Y37270239D02*
X45815952Y37270239D01*
X44863571Y37270239D02*
X44815952Y37175001D01*
X44815952Y37175001D02*
X44815952Y36984525D01*
X44815952Y36984525D02*
X44863571Y36889287D01*
X44863571Y36889287D02*
X44911190Y36841668D01*
X44911190Y36841668D02*
X45006428Y36794049D01*
X45006428Y36794049D02*
X45292142Y36794049D01*
X45292142Y36794049D02*
X45387380Y36841668D01*
X45387380Y36841668D02*
X45435000Y36889287D01*
X45435000Y36889287D02*
X45482619Y36984525D01*
X45482619Y36984525D02*
X45482619Y37175001D01*
X45482619Y37175001D02*
X45435000Y37270239D01*
X45482619Y36365477D02*
X44482619Y36365477D01*
X44863571Y36365477D02*
X44815952Y36270239D01*
X44815952Y36270239D02*
X44815952Y36079763D01*
X44815952Y36079763D02*
X44863571Y35984525D01*
X44863571Y35984525D02*
X44911190Y35936906D01*
X44911190Y35936906D02*
X45006428Y35889287D01*
X45006428Y35889287D02*
X45292142Y35889287D01*
X45292142Y35889287D02*
X45387380Y35936906D01*
X45387380Y35936906D02*
X45435000Y35984525D01*
X45435000Y35984525D02*
X45482619Y36079763D01*
X45482619Y36079763D02*
X45482619Y36270239D01*
X45482619Y36270239D02*
X45435000Y36365477D01*
X45435000Y35079763D02*
X45482619Y35175001D01*
X45482619Y35175001D02*
X45482619Y35365477D01*
X45482619Y35365477D02*
X45435000Y35460715D01*
X45435000Y35460715D02*
X45339761Y35508334D01*
X45339761Y35508334D02*
X44958809Y35508334D01*
X44958809Y35508334D02*
X44863571Y35460715D01*
X44863571Y35460715D02*
X44815952Y35365477D01*
X44815952Y35365477D02*
X44815952Y35175001D01*
X44815952Y35175001D02*
X44863571Y35079763D01*
X44863571Y35079763D02*
X44958809Y35032144D01*
X44958809Y35032144D02*
X45054047Y35032144D01*
X45054047Y35032144D02*
X45149285Y35508334D01*
X45482619Y34603572D02*
X44815952Y34603572D01*
X45006428Y34603572D02*
X44911190Y34555953D01*
X44911190Y34555953D02*
X44863571Y34508334D01*
X44863571Y34508334D02*
X44815952Y34413096D01*
X44815952Y34413096D02*
X44815952Y34317858D01*
X45482619Y33984524D02*
X44815952Y33984524D01*
X45006428Y33984524D02*
X44911190Y33936905D01*
X44911190Y33936905D02*
X44863571Y33889286D01*
X44863571Y33889286D02*
X44815952Y33794048D01*
X44815952Y33794048D02*
X44815952Y33698810D01*
X44815952Y33460714D02*
X45482619Y33222619D01*
X44815952Y32984524D02*
X45482619Y33222619D01*
X45482619Y33222619D02*
X45720714Y33317857D01*
X45720714Y33317857D02*
X45768333Y33365476D01*
X45768333Y33365476D02*
X45815952Y33460714D01*
X45482619Y31841666D02*
X44482619Y31841666D01*
X44482619Y31841666D02*
X44482619Y31460714D01*
X44482619Y31460714D02*
X44530238Y31365476D01*
X44530238Y31365476D02*
X44577857Y31317857D01*
X44577857Y31317857D02*
X44673095Y31270238D01*
X44673095Y31270238D02*
X44815952Y31270238D01*
X44815952Y31270238D02*
X44911190Y31317857D01*
X44911190Y31317857D02*
X44958809Y31365476D01*
X44958809Y31365476D02*
X45006428Y31460714D01*
X45006428Y31460714D02*
X45006428Y31841666D01*
X45482619Y30841666D02*
X44815952Y30841666D01*
X44482619Y30841666D02*
X44530238Y30889285D01*
X44530238Y30889285D02*
X44577857Y30841666D01*
X44577857Y30841666D02*
X44530238Y30794047D01*
X44530238Y30794047D02*
X44482619Y30841666D01*
X44482619Y30841666D02*
X44577857Y30841666D01*
X45482619Y29603571D02*
X44482619Y29603571D01*
X44482619Y29603571D02*
X44482619Y29222619D01*
X44482619Y29222619D02*
X44530238Y29127381D01*
X44530238Y29127381D02*
X44577857Y29079762D01*
X44577857Y29079762D02*
X44673095Y29032143D01*
X44673095Y29032143D02*
X44815952Y29032143D01*
X44815952Y29032143D02*
X44911190Y29079762D01*
X44911190Y29079762D02*
X44958809Y29127381D01*
X44958809Y29127381D02*
X45006428Y29222619D01*
X45006428Y29222619D02*
X45006428Y29603571D01*
X45482619Y28603571D02*
X44815952Y28603571D01*
X44482619Y28603571D02*
X44530238Y28651190D01*
X44530238Y28651190D02*
X44577857Y28603571D01*
X44577857Y28603571D02*
X44530238Y28555952D01*
X44530238Y28555952D02*
X44482619Y28603571D01*
X44482619Y28603571D02*
X44577857Y28603571D01*
X45435000Y27698810D02*
X45482619Y27794048D01*
X45482619Y27794048D02*
X45482619Y27984524D01*
X45482619Y27984524D02*
X45435000Y28079762D01*
X45435000Y28079762D02*
X45387380Y28127381D01*
X45387380Y28127381D02*
X45292142Y28175000D01*
X45292142Y28175000D02*
X45006428Y28175000D01*
X45006428Y28175000D02*
X44911190Y28127381D01*
X44911190Y28127381D02*
X44863571Y28079762D01*
X44863571Y28079762D02*
X44815952Y27984524D01*
X44815952Y27984524D02*
X44815952Y27794048D01*
X44815952Y27794048D02*
X44863571Y27698810D01*
X45482619Y27127381D02*
X45435000Y27222619D01*
X45435000Y27222619D02*
X45387380Y27270238D01*
X45387380Y27270238D02*
X45292142Y27317857D01*
X45292142Y27317857D02*
X45006428Y27317857D01*
X45006428Y27317857D02*
X44911190Y27270238D01*
X44911190Y27270238D02*
X44863571Y27222619D01*
X44863571Y27222619D02*
X44815952Y27127381D01*
X44815952Y27127381D02*
X44815952Y26984524D01*
X44815952Y26984524D02*
X44863571Y26889286D01*
X44863571Y26889286D02*
X44911190Y26841667D01*
X44911190Y26841667D02*
X45006428Y26794048D01*
X45006428Y26794048D02*
X45292142Y26794048D01*
X45292142Y26794048D02*
X45387380Y26841667D01*
X45387380Y26841667D02*
X45435000Y26889286D01*
X45435000Y26889286D02*
X45482619Y26984524D01*
X45482619Y26984524D02*
X45482619Y27127381D01*
X44435000Y24889286D02*
X45720714Y25746428D01*
X45435000Y23841666D02*
X45482619Y23698809D01*
X45482619Y23698809D02*
X45482619Y23460714D01*
X45482619Y23460714D02*
X45435000Y23365476D01*
X45435000Y23365476D02*
X45387380Y23317857D01*
X45387380Y23317857D02*
X45292142Y23270238D01*
X45292142Y23270238D02*
X45196904Y23270238D01*
X45196904Y23270238D02*
X45101666Y23317857D01*
X45101666Y23317857D02*
X45054047Y23365476D01*
X45054047Y23365476D02*
X45006428Y23460714D01*
X45006428Y23460714D02*
X44958809Y23651190D01*
X44958809Y23651190D02*
X44911190Y23746428D01*
X44911190Y23746428D02*
X44863571Y23794047D01*
X44863571Y23794047D02*
X44768333Y23841666D01*
X44768333Y23841666D02*
X44673095Y23841666D01*
X44673095Y23841666D02*
X44577857Y23794047D01*
X44577857Y23794047D02*
X44530238Y23746428D01*
X44530238Y23746428D02*
X44482619Y23651190D01*
X44482619Y23651190D02*
X44482619Y23413095D01*
X44482619Y23413095D02*
X44530238Y23270238D01*
X45482619Y22841666D02*
X44815952Y22841666D01*
X44482619Y22841666D02*
X44530238Y22889285D01*
X44530238Y22889285D02*
X44577857Y22841666D01*
X44577857Y22841666D02*
X44530238Y22794047D01*
X44530238Y22794047D02*
X44482619Y22841666D01*
X44482619Y22841666D02*
X44577857Y22841666D01*
X44815952Y21936905D02*
X45482619Y21936905D01*
X44435000Y22175000D02*
X45149285Y22413095D01*
X45149285Y22413095D02*
X45149285Y21794048D01*
X44482619Y21508333D02*
X44482619Y20841667D01*
X44482619Y20841667D02*
X45482619Y21270238D01*
X44482619Y20555952D02*
X44482619Y19936905D01*
X44482619Y19936905D02*
X44863571Y20270238D01*
X44863571Y20270238D02*
X44863571Y20127381D01*
X44863571Y20127381D02*
X44911190Y20032143D01*
X44911190Y20032143D02*
X44958809Y19984524D01*
X44958809Y19984524D02*
X45054047Y19936905D01*
X45054047Y19936905D02*
X45292142Y19936905D01*
X45292142Y19936905D02*
X45387380Y19984524D01*
X45387380Y19984524D02*
X45435000Y20032143D01*
X45435000Y20032143D02*
X45482619Y20127381D01*
X45482619Y20127381D02*
X45482619Y20413095D01*
X45482619Y20413095D02*
X45435000Y20508333D01*
X45435000Y20508333D02*
X45387380Y20555952D01*
X44482619Y19032143D02*
X44482619Y19508333D01*
X44482619Y19508333D02*
X44958809Y19555952D01*
X44958809Y19555952D02*
X44911190Y19508333D01*
X44911190Y19508333D02*
X44863571Y19413095D01*
X44863571Y19413095D02*
X44863571Y19175000D01*
X44863571Y19175000D02*
X44911190Y19079762D01*
X44911190Y19079762D02*
X44958809Y19032143D01*
X44958809Y19032143D02*
X45054047Y18984524D01*
X45054047Y18984524D02*
X45292142Y18984524D01*
X45292142Y18984524D02*
X45387380Y19032143D01*
X45387380Y19032143D02*
X45435000Y19079762D01*
X45435000Y19079762D02*
X45482619Y19175000D01*
X45482619Y19175000D02*
X45482619Y19413095D01*
X45482619Y19413095D02*
X45435000Y19508333D01*
X45435000Y19508333D02*
X45387380Y19555952D01*
X45482619Y17794047D02*
X44482619Y17794047D01*
X44482619Y17794047D02*
X44482619Y17555952D01*
X44482619Y17555952D02*
X44530238Y17413095D01*
X44530238Y17413095D02*
X44625476Y17317857D01*
X44625476Y17317857D02*
X44720714Y17270238D01*
X44720714Y17270238D02*
X44911190Y17222619D01*
X44911190Y17222619D02*
X45054047Y17222619D01*
X45054047Y17222619D02*
X45244523Y17270238D01*
X45244523Y17270238D02*
X45339761Y17317857D01*
X45339761Y17317857D02*
X45435000Y17413095D01*
X45435000Y17413095D02*
X45482619Y17555952D01*
X45482619Y17555952D02*
X45482619Y17794047D01*
X45435000Y16841666D02*
X45482619Y16698809D01*
X45482619Y16698809D02*
X45482619Y16460714D01*
X45482619Y16460714D02*
X45435000Y16365476D01*
X45435000Y16365476D02*
X45387380Y16317857D01*
X45387380Y16317857D02*
X45292142Y16270238D01*
X45292142Y16270238D02*
X45196904Y16270238D01*
X45196904Y16270238D02*
X45101666Y16317857D01*
X45101666Y16317857D02*
X45054047Y16365476D01*
X45054047Y16365476D02*
X45006428Y16460714D01*
X45006428Y16460714D02*
X44958809Y16651190D01*
X44958809Y16651190D02*
X44911190Y16746428D01*
X44911190Y16746428D02*
X44863571Y16794047D01*
X44863571Y16794047D02*
X44768333Y16841666D01*
X44768333Y16841666D02*
X44673095Y16841666D01*
X44673095Y16841666D02*
X44577857Y16794047D01*
X44577857Y16794047D02*
X44530238Y16746428D01*
X44530238Y16746428D02*
X44482619Y16651190D01*
X44482619Y16651190D02*
X44482619Y16413095D01*
X44482619Y16413095D02*
X44530238Y16270238D01*
X45482619Y15841666D02*
X44482619Y15841666D01*
X44482619Y15841666D02*
X44482619Y15460714D01*
X44482619Y15460714D02*
X44530238Y15365476D01*
X44530238Y15365476D02*
X44577857Y15317857D01*
X44577857Y15317857D02*
X44673095Y15270238D01*
X44673095Y15270238D02*
X44815952Y15270238D01*
X44815952Y15270238D02*
X44911190Y15317857D01*
X44911190Y15317857D02*
X44958809Y15365476D01*
X44958809Y15365476D02*
X45006428Y15460714D01*
X45006428Y15460714D02*
X45006428Y15841666D01*
X45482619Y13508333D02*
X45006428Y13841666D01*
X45482619Y14079761D02*
X44482619Y14079761D01*
X44482619Y14079761D02*
X44482619Y13698809D01*
X44482619Y13698809D02*
X44530238Y13603571D01*
X44530238Y13603571D02*
X44577857Y13555952D01*
X44577857Y13555952D02*
X44673095Y13508333D01*
X44673095Y13508333D02*
X44815952Y13508333D01*
X44815952Y13508333D02*
X44911190Y13555952D01*
X44911190Y13555952D02*
X44958809Y13603571D01*
X44958809Y13603571D02*
X45006428Y13698809D01*
X45006428Y13698809D02*
X45006428Y14079761D01*
X45482619Y12651190D02*
X44958809Y12651190D01*
X44958809Y12651190D02*
X44863571Y12698809D01*
X44863571Y12698809D02*
X44815952Y12794047D01*
X44815952Y12794047D02*
X44815952Y12984523D01*
X44815952Y12984523D02*
X44863571Y13079761D01*
X45435000Y12651190D02*
X45482619Y12746428D01*
X45482619Y12746428D02*
X45482619Y12984523D01*
X45482619Y12984523D02*
X45435000Y13079761D01*
X45435000Y13079761D02*
X45339761Y13127380D01*
X45339761Y13127380D02*
X45244523Y13127380D01*
X45244523Y13127380D02*
X45149285Y13079761D01*
X45149285Y13079761D02*
X45101666Y12984523D01*
X45101666Y12984523D02*
X45101666Y12746428D01*
X45101666Y12746428D02*
X45054047Y12651190D01*
X45482619Y11746428D02*
X44482619Y11746428D01*
X45435000Y11746428D02*
X45482619Y11841666D01*
X45482619Y11841666D02*
X45482619Y12032142D01*
X45482619Y12032142D02*
X45435000Y12127380D01*
X45435000Y12127380D02*
X45387380Y12174999D01*
X45387380Y12174999D02*
X45292142Y12222618D01*
X45292142Y12222618D02*
X45006428Y12222618D01*
X45006428Y12222618D02*
X44911190Y12174999D01*
X44911190Y12174999D02*
X44863571Y12127380D01*
X44863571Y12127380D02*
X44815952Y12032142D01*
X44815952Y12032142D02*
X44815952Y11841666D01*
X44815952Y11841666D02*
X44863571Y11746428D01*
X45482619Y11270237D02*
X44815952Y11270237D01*
X44482619Y11270237D02*
X44530238Y11317856D01*
X44530238Y11317856D02*
X44577857Y11270237D01*
X44577857Y11270237D02*
X44530238Y11222618D01*
X44530238Y11222618D02*
X44482619Y11270237D01*
X44482619Y11270237D02*
X44577857Y11270237D01*
X45482619Y10651190D02*
X45435000Y10746428D01*
X45435000Y10746428D02*
X45387380Y10794047D01*
X45387380Y10794047D02*
X45292142Y10841666D01*
X45292142Y10841666D02*
X45006428Y10841666D01*
X45006428Y10841666D02*
X44911190Y10794047D01*
X44911190Y10794047D02*
X44863571Y10746428D01*
X44863571Y10746428D02*
X44815952Y10651190D01*
X44815952Y10651190D02*
X44815952Y10508333D01*
X44815952Y10508333D02*
X44863571Y10413095D01*
X44863571Y10413095D02*
X44911190Y10365476D01*
X44911190Y10365476D02*
X45006428Y10317857D01*
X45006428Y10317857D02*
X45292142Y10317857D01*
X45292142Y10317857D02*
X45387380Y10365476D01*
X45387380Y10365476D02*
X45435000Y10413095D01*
X45435000Y10413095D02*
X45482619Y10508333D01*
X45482619Y10508333D02*
X45482619Y10651190D01*
X46102619Y33841668D02*
X46816904Y33841668D01*
X46816904Y33841668D02*
X46959761Y33889287D01*
X46959761Y33889287D02*
X47055000Y33984525D01*
X47055000Y33984525D02*
X47102619Y34127382D01*
X47102619Y34127382D02*
X47102619Y34222620D01*
X47102619Y33365477D02*
X46102619Y33365477D01*
X46102619Y33365477D02*
X46102619Y32984525D01*
X46102619Y32984525D02*
X46150238Y32889287D01*
X46150238Y32889287D02*
X46197857Y32841668D01*
X46197857Y32841668D02*
X46293095Y32794049D01*
X46293095Y32794049D02*
X46435952Y32794049D01*
X46435952Y32794049D02*
X46531190Y32841668D01*
X46531190Y32841668D02*
X46578809Y32889287D01*
X46578809Y32889287D02*
X46626428Y32984525D01*
X46626428Y32984525D02*
X46626428Y33365477D01*
X46102619Y32460715D02*
X46102619Y31841668D01*
X46102619Y31841668D02*
X46483571Y32175001D01*
X46483571Y32175001D02*
X46483571Y32032144D01*
X46483571Y32032144D02*
X46531190Y31936906D01*
X46531190Y31936906D02*
X46578809Y31889287D01*
X46578809Y31889287D02*
X46674047Y31841668D01*
X46674047Y31841668D02*
X46912142Y31841668D01*
X46912142Y31841668D02*
X47007380Y31889287D01*
X47007380Y31889287D02*
X47055000Y31936906D01*
X47055000Y31936906D02*
X47102619Y32032144D01*
X47102619Y32032144D02*
X47102619Y32317858D01*
X47102619Y32317858D02*
X47055000Y32413096D01*
X47055000Y32413096D02*
X47007380Y32460715D01*
X47055000Y31460715D02*
X47102619Y31317858D01*
X47102619Y31317858D02*
X47102619Y31079763D01*
X47102619Y31079763D02*
X47055000Y30984525D01*
X47055000Y30984525D02*
X47007380Y30936906D01*
X47007380Y30936906D02*
X46912142Y30889287D01*
X46912142Y30889287D02*
X46816904Y30889287D01*
X46816904Y30889287D02*
X46721666Y30936906D01*
X46721666Y30936906D02*
X46674047Y30984525D01*
X46674047Y30984525D02*
X46626428Y31079763D01*
X46626428Y31079763D02*
X46578809Y31270239D01*
X46578809Y31270239D02*
X46531190Y31365477D01*
X46531190Y31365477D02*
X46483571Y31413096D01*
X46483571Y31413096D02*
X46388333Y31460715D01*
X46388333Y31460715D02*
X46293095Y31460715D01*
X46293095Y31460715D02*
X46197857Y31413096D01*
X46197857Y31413096D02*
X46150238Y31365477D01*
X46150238Y31365477D02*
X46102619Y31270239D01*
X46102619Y31270239D02*
X46102619Y31032144D01*
X46102619Y31032144D02*
X46150238Y30889287D01*
X47102619Y29889287D02*
X46626428Y30222620D01*
X47102619Y30460715D02*
X46102619Y30460715D01*
X46102619Y30460715D02*
X46102619Y30079763D01*
X46102619Y30079763D02*
X46150238Y29984525D01*
X46150238Y29984525D02*
X46197857Y29936906D01*
X46197857Y29936906D02*
X46293095Y29889287D01*
X46293095Y29889287D02*
X46435952Y29889287D01*
X46435952Y29889287D02*
X46531190Y29936906D01*
X46531190Y29936906D02*
X46578809Y29984525D01*
X46578809Y29984525D02*
X46626428Y30079763D01*
X46626428Y30079763D02*
X46626428Y30460715D01*
X47055000Y29508334D02*
X47102619Y29365477D01*
X47102619Y29365477D02*
X47102619Y29127382D01*
X47102619Y29127382D02*
X47055000Y29032144D01*
X47055000Y29032144D02*
X47007380Y28984525D01*
X47007380Y28984525D02*
X46912142Y28936906D01*
X46912142Y28936906D02*
X46816904Y28936906D01*
X46816904Y28936906D02*
X46721666Y28984525D01*
X46721666Y28984525D02*
X46674047Y29032144D01*
X46674047Y29032144D02*
X46626428Y29127382D01*
X46626428Y29127382D02*
X46578809Y29317858D01*
X46578809Y29317858D02*
X46531190Y29413096D01*
X46531190Y29413096D02*
X46483571Y29460715D01*
X46483571Y29460715D02*
X46388333Y29508334D01*
X46388333Y29508334D02*
X46293095Y29508334D01*
X46293095Y29508334D02*
X46197857Y29460715D01*
X46197857Y29460715D02*
X46150238Y29413096D01*
X46150238Y29413096D02*
X46102619Y29317858D01*
X46102619Y29317858D02*
X46102619Y29079763D01*
X46102619Y29079763D02*
X46150238Y28936906D01*
X47102619Y27746429D02*
X46435952Y27746429D01*
X46626428Y27746429D02*
X46531190Y27698810D01*
X46531190Y27698810D02*
X46483571Y27651191D01*
X46483571Y27651191D02*
X46435952Y27555953D01*
X46435952Y27555953D02*
X46435952Y27460715D01*
X47055000Y26746429D02*
X47102619Y26841667D01*
X47102619Y26841667D02*
X47102619Y27032143D01*
X47102619Y27032143D02*
X47055000Y27127381D01*
X47055000Y27127381D02*
X46959761Y27175000D01*
X46959761Y27175000D02*
X46578809Y27175000D01*
X46578809Y27175000D02*
X46483571Y27127381D01*
X46483571Y27127381D02*
X46435952Y27032143D01*
X46435952Y27032143D02*
X46435952Y26841667D01*
X46435952Y26841667D02*
X46483571Y26746429D01*
X46483571Y26746429D02*
X46578809Y26698810D01*
X46578809Y26698810D02*
X46674047Y26698810D01*
X46674047Y26698810D02*
X46769285Y27175000D01*
X47102619Y26127381D02*
X47055000Y26222619D01*
X47055000Y26222619D02*
X46959761Y26270238D01*
X46959761Y26270238D02*
X46102619Y26270238D01*
X47007380Y25746428D02*
X47055000Y25698809D01*
X47055000Y25698809D02*
X47102619Y25746428D01*
X47102619Y25746428D02*
X47055000Y25794047D01*
X47055000Y25794047D02*
X47007380Y25746428D01*
X47007380Y25746428D02*
X47102619Y25746428D01*
X46197857Y24555952D02*
X46150238Y24508333D01*
X46150238Y24508333D02*
X46102619Y24413095D01*
X46102619Y24413095D02*
X46102619Y24175000D01*
X46102619Y24175000D02*
X46150238Y24079762D01*
X46150238Y24079762D02*
X46197857Y24032143D01*
X46197857Y24032143D02*
X46293095Y23984524D01*
X46293095Y23984524D02*
X46388333Y23984524D01*
X46388333Y23984524D02*
X46531190Y24032143D01*
X46531190Y24032143D02*
X47102619Y24603571D01*
X47102619Y24603571D02*
X47102619Y23984524D01*
X46102619Y23365476D02*
X46102619Y23270238D01*
X46102619Y23270238D02*
X46150238Y23175000D01*
X46150238Y23175000D02*
X46197857Y23127381D01*
X46197857Y23127381D02*
X46293095Y23079762D01*
X46293095Y23079762D02*
X46483571Y23032143D01*
X46483571Y23032143D02*
X46721666Y23032143D01*
X46721666Y23032143D02*
X46912142Y23079762D01*
X46912142Y23079762D02*
X47007380Y23127381D01*
X47007380Y23127381D02*
X47055000Y23175000D01*
X47055000Y23175000D02*
X47102619Y23270238D01*
X47102619Y23270238D02*
X47102619Y23365476D01*
X47102619Y23365476D02*
X47055000Y23460714D01*
X47055000Y23460714D02*
X47007380Y23508333D01*
X47007380Y23508333D02*
X46912142Y23555952D01*
X46912142Y23555952D02*
X46721666Y23603571D01*
X46721666Y23603571D02*
X46483571Y23603571D01*
X46483571Y23603571D02*
X46293095Y23555952D01*
X46293095Y23555952D02*
X46197857Y23508333D01*
X46197857Y23508333D02*
X46150238Y23460714D01*
X46150238Y23460714D02*
X46102619Y23365476D01*
X46197857Y22651190D02*
X46150238Y22603571D01*
X46150238Y22603571D02*
X46102619Y22508333D01*
X46102619Y22508333D02*
X46102619Y22270238D01*
X46102619Y22270238D02*
X46150238Y22175000D01*
X46150238Y22175000D02*
X46197857Y22127381D01*
X46197857Y22127381D02*
X46293095Y22079762D01*
X46293095Y22079762D02*
X46388333Y22079762D01*
X46388333Y22079762D02*
X46531190Y22127381D01*
X46531190Y22127381D02*
X47102619Y22698809D01*
X47102619Y22698809D02*
X47102619Y22079762D01*
X46102619Y21746428D02*
X46102619Y21127381D01*
X46102619Y21127381D02*
X46483571Y21460714D01*
X46483571Y21460714D02*
X46483571Y21317857D01*
X46483571Y21317857D02*
X46531190Y21222619D01*
X46531190Y21222619D02*
X46578809Y21175000D01*
X46578809Y21175000D02*
X46674047Y21127381D01*
X46674047Y21127381D02*
X46912142Y21127381D01*
X46912142Y21127381D02*
X47007380Y21175000D01*
X47007380Y21175000D02*
X47055000Y21222619D01*
X47055000Y21222619D02*
X47102619Y21317857D01*
X47102619Y21317857D02*
X47102619Y21603571D01*
X47102619Y21603571D02*
X47055000Y21698809D01*
X47055000Y21698809D02*
X47007380Y21746428D01*
X46055000Y19984524D02*
X47340714Y20841666D01*
X46435952Y19222619D02*
X47102619Y19222619D01*
X46055000Y19460714D02*
X46769285Y19698809D01*
X46769285Y19698809D02*
X46769285Y19079762D01*
X46055000Y17984524D02*
X47340714Y18841666D01*
X47102619Y17127381D02*
X47102619Y17698809D01*
X47102619Y17413095D02*
X46102619Y17413095D01*
X46102619Y17413095D02*
X46245476Y17508333D01*
X46245476Y17508333D02*
X46340714Y17603571D01*
X46340714Y17603571D02*
X46388333Y17698809D01*
X46197857Y16746428D02*
X46150238Y16698809D01*
X46150238Y16698809D02*
X46102619Y16603571D01*
X46102619Y16603571D02*
X46102619Y16365476D01*
X46102619Y16365476D02*
X46150238Y16270238D01*
X46150238Y16270238D02*
X46197857Y16222619D01*
X46197857Y16222619D02*
X46293095Y16175000D01*
X46293095Y16175000D02*
X46388333Y16175000D01*
X46388333Y16175000D02*
X46531190Y16222619D01*
X46531190Y16222619D02*
X47102619Y16794047D01*
X47102619Y16794047D02*
X47102619Y16175000D01*
%TO.C,LS1*%
X15415000Y6761905D02*
X15462619Y6619048D01*
X15462619Y6619048D02*
X15462619Y6380953D01*
X15462619Y6380953D02*
X15415000Y6285715D01*
X15415000Y6285715D02*
X15367380Y6238096D01*
X15367380Y6238096D02*
X15272142Y6190477D01*
X15272142Y6190477D02*
X15176904Y6190477D01*
X15176904Y6190477D02*
X15081666Y6238096D01*
X15081666Y6238096D02*
X15034047Y6285715D01*
X15034047Y6285715D02*
X14986428Y6380953D01*
X14986428Y6380953D02*
X14938809Y6571429D01*
X14938809Y6571429D02*
X14891190Y6666667D01*
X14891190Y6666667D02*
X14843571Y6714286D01*
X14843571Y6714286D02*
X14748333Y6761905D01*
X14748333Y6761905D02*
X14653095Y6761905D01*
X14653095Y6761905D02*
X14557857Y6714286D01*
X14557857Y6714286D02*
X14510238Y6666667D01*
X14510238Y6666667D02*
X14462619Y6571429D01*
X14462619Y6571429D02*
X14462619Y6333334D01*
X14462619Y6333334D02*
X14510238Y6190477D01*
X14795952Y5761905D02*
X15795952Y5761905D01*
X14843571Y5761905D02*
X14795952Y5666667D01*
X14795952Y5666667D02*
X14795952Y5476191D01*
X14795952Y5476191D02*
X14843571Y5380953D01*
X14843571Y5380953D02*
X14891190Y5333334D01*
X14891190Y5333334D02*
X14986428Y5285715D01*
X14986428Y5285715D02*
X15272142Y5285715D01*
X15272142Y5285715D02*
X15367380Y5333334D01*
X15367380Y5333334D02*
X15415000Y5380953D01*
X15415000Y5380953D02*
X15462619Y5476191D01*
X15462619Y5476191D02*
X15462619Y5666667D01*
X15462619Y5666667D02*
X15415000Y5761905D01*
X15415000Y4476191D02*
X15462619Y4571429D01*
X15462619Y4571429D02*
X15462619Y4761905D01*
X15462619Y4761905D02*
X15415000Y4857143D01*
X15415000Y4857143D02*
X15319761Y4904762D01*
X15319761Y4904762D02*
X14938809Y4904762D01*
X14938809Y4904762D02*
X14843571Y4857143D01*
X14843571Y4857143D02*
X14795952Y4761905D01*
X14795952Y4761905D02*
X14795952Y4571429D01*
X14795952Y4571429D02*
X14843571Y4476191D01*
X14843571Y4476191D02*
X14938809Y4428572D01*
X14938809Y4428572D02*
X15034047Y4428572D01*
X15034047Y4428572D02*
X15129285Y4904762D01*
X15462619Y3571429D02*
X14938809Y3571429D01*
X14938809Y3571429D02*
X14843571Y3619048D01*
X14843571Y3619048D02*
X14795952Y3714286D01*
X14795952Y3714286D02*
X14795952Y3904762D01*
X14795952Y3904762D02*
X14843571Y4000000D01*
X15415000Y3571429D02*
X15462619Y3666667D01*
X15462619Y3666667D02*
X15462619Y3904762D01*
X15462619Y3904762D02*
X15415000Y4000000D01*
X15415000Y4000000D02*
X15319761Y4047619D01*
X15319761Y4047619D02*
X15224523Y4047619D01*
X15224523Y4047619D02*
X15129285Y4000000D01*
X15129285Y4000000D02*
X15081666Y3904762D01*
X15081666Y3904762D02*
X15081666Y3666667D01*
X15081666Y3666667D02*
X15034047Y3571429D01*
X15462619Y3095238D02*
X14462619Y3095238D01*
X15081666Y3000000D02*
X15462619Y2714286D01*
X14795952Y2714286D02*
X15176904Y3095238D01*
X15415000Y1904762D02*
X15462619Y2000000D01*
X15462619Y2000000D02*
X15462619Y2190476D01*
X15462619Y2190476D02*
X15415000Y2285714D01*
X15415000Y2285714D02*
X15319761Y2333333D01*
X15319761Y2333333D02*
X14938809Y2333333D01*
X14938809Y2333333D02*
X14843571Y2285714D01*
X14843571Y2285714D02*
X14795952Y2190476D01*
X14795952Y2190476D02*
X14795952Y2000000D01*
X14795952Y2000000D02*
X14843571Y1904762D01*
X14843571Y1904762D02*
X14938809Y1857143D01*
X14938809Y1857143D02*
X15034047Y1857143D01*
X15034047Y1857143D02*
X15129285Y2333333D01*
X15462619Y1428571D02*
X14795952Y1428571D01*
X14986428Y1428571D02*
X14891190Y1380952D01*
X14891190Y1380952D02*
X14843571Y1333333D01*
X14843571Y1333333D02*
X14795952Y1238095D01*
X14795952Y1238095D02*
X14795952Y1142857D01*
D11*
X11975000Y1555000D02*
X13245000Y1555000D01*
X13245000Y1555000D02*
X13245000Y2825000D01*
X9055000Y3867929D02*
X9055000Y4265000D01*
X9815000Y3867929D02*
X9815000Y4265000D01*
X11595000Y3935000D02*
X11595000Y4265000D01*
X12355000Y3935000D02*
X12355000Y4265000D01*
X8105000Y4265000D02*
X8105000Y6925000D01*
X10705000Y4265000D02*
X10705000Y6925000D01*
X13305000Y4265000D02*
X8105000Y4265000D01*
X8105000Y6925000D02*
X13305000Y6925000D01*
X9815000Y6925000D02*
X9815000Y12925000D01*
X11695000Y6925000D02*
X11695000Y12925000D01*
X11815000Y6925000D02*
X11815000Y12925000D01*
X11935000Y6925000D02*
X11935000Y12925000D01*
X12055000Y6925000D02*
X12055000Y12925000D01*
X12175000Y6925000D02*
X12175000Y12925000D01*
X12295000Y6925000D02*
X12295000Y12925000D01*
X12355000Y6925000D02*
X12355000Y12925000D01*
X13305000Y6925000D02*
X13305000Y4265000D01*
X9055000Y12925000D02*
X9055000Y6925000D01*
X9815000Y12925000D02*
X9055000Y12925000D01*
X11595000Y12925000D02*
X11595000Y6925000D01*
X12355000Y12925000D02*
X11595000Y12925000D01*
%TD*%
M02*
