%TF.GenerationSoftware,KiCad,Pcbnew,7.0.1*%
%TF.CreationDate,2023-04-12T14:42:22+09:00*%
%TF.ProjectId,KiCad-Si4735,4b694361-642d-4536-9934-3733352e6b69,rev?*%
%TF.SameCoordinates,PX6bc3e40PY88601c0*%
%TF.FileFunction,Drillmap*%
%TF.FilePolarity,Positive*%
%FSLAX45Y45*%
G04 Gerber Fmt 4.5, Leading zero omitted, Abs format (unit mm)*
G04 Created by KiCad (PCBNEW 7.0.1) date 2023-04-12 14:42:22*
%MOMM*%
%LPD*%
G01*
G04 APERTURE LIST*
%ADD10C,0.100000*%
%ADD11C,0.200000*%
%ADD12C,0.040000*%
%ADD13C,0.080000*%
%ADD14C,0.140000*%
G04 APERTURE END LIST*
D10*
X0Y8600000D02*
X5000000Y8600000D01*
X5000000Y0D01*
X0Y0D01*
X0Y8600000D01*
D11*
D12*
X290000Y3520000D02*
X330000Y3480000D01*
X330000Y3520000D02*
X290000Y3480000D01*
X320000Y1640000D02*
X360000Y1600000D01*
X360000Y1640000D02*
X320000Y1600000D01*
X480000Y7620000D02*
X520000Y7580000D01*
X520000Y7620000D02*
X480000Y7580000D01*
X480000Y4620000D02*
X520000Y4580000D01*
X520000Y4620000D02*
X480000Y4580000D01*
X680000Y1420000D02*
X720000Y1380000D01*
X720000Y1420000D02*
X680000Y1380000D01*
X680000Y620000D02*
X720000Y580000D01*
X720000Y620000D02*
X680000Y580000D01*
X780000Y2520000D02*
X820000Y2480000D01*
X820000Y2520000D02*
X780000Y2480000D01*
X980000Y7120000D02*
X1020000Y7080000D01*
X1020000Y7120000D02*
X980000Y7080000D01*
X980000Y6120000D02*
X1020000Y6080000D01*
X1020000Y6120000D02*
X980000Y6080000D01*
X980000Y5120000D02*
X1020000Y5080000D01*
X1020000Y5120000D02*
X980000Y5080000D01*
X1070000Y4760000D02*
X1110000Y4720000D01*
X1110000Y4760000D02*
X1070000Y4720000D01*
X1350000Y4560000D02*
X1390000Y4520000D01*
X1390000Y4560000D02*
X1350000Y4520000D01*
X1350000Y3770000D02*
X1390000Y3730000D01*
X1390000Y3770000D02*
X1350000Y3730000D01*
X1480000Y120000D02*
X1520000Y80000D01*
X1520000Y120000D02*
X1480000Y80000D01*
X1680000Y1520000D02*
X1720000Y1480000D01*
X1720000Y1520000D02*
X1680000Y1480000D01*
X1930000Y4880000D02*
X1970000Y4840000D01*
X1970000Y4880000D02*
X1930000Y4840000D01*
X1930000Y1400000D02*
X1970000Y1360000D01*
X1970000Y1400000D02*
X1930000Y1360000D01*
X1980000Y8420000D02*
X2020000Y8380000D01*
X2020000Y8420000D02*
X1980000Y8380000D01*
X2030000Y5600000D02*
X2070000Y5560000D01*
X2070000Y5600000D02*
X2030000Y5560000D01*
X2030000Y1530000D02*
X2070000Y1490000D01*
X2070000Y1530000D02*
X2030000Y1490000D01*
X2130050Y5595000D02*
X2170050Y5555000D01*
X2170050Y5595000D02*
X2130050Y5555000D01*
X2220000Y1450000D02*
X2260000Y1410000D01*
X2260000Y1450000D02*
X2220000Y1410000D01*
X2230000Y6030000D02*
X2270000Y5990000D01*
X2270000Y6030000D02*
X2230000Y5990000D01*
X2290000Y5595000D02*
X2330000Y5555000D01*
X2330000Y5595000D02*
X2290000Y5555000D01*
X2320000Y5300000D02*
X2360000Y5260000D01*
X2360000Y5300000D02*
X2320000Y5260000D01*
X2340000Y590000D02*
X2380000Y550000D01*
X2380000Y590000D02*
X2340000Y550000D01*
X2360000Y7900000D02*
X2400000Y7860000D01*
X2400000Y7900000D02*
X2360000Y7860000D01*
X2380000Y3820000D02*
X2420000Y3780000D01*
X2420000Y3820000D02*
X2380000Y3780000D01*
X2400000Y6240000D02*
X2440000Y6200000D01*
X2440000Y6240000D02*
X2400000Y6200000D01*
X2480000Y2720000D02*
X2520000Y2680000D01*
X2520000Y2720000D02*
X2480000Y2680000D01*
X2510000Y7290000D02*
X2550000Y7250000D01*
X2550000Y7290000D02*
X2510000Y7250000D01*
X2510000Y6890000D02*
X2550000Y6850000D01*
X2550000Y6890000D02*
X2510000Y6850000D01*
X2520000Y6600000D02*
X2560000Y6560000D01*
X2560000Y6600000D02*
X2520000Y6560000D01*
X2685000Y5355000D02*
X2725000Y5315000D01*
X2725000Y5355000D02*
X2685000Y5315000D01*
X2880000Y4420000D02*
X2920000Y4380000D01*
X2920000Y4420000D02*
X2880000Y4380000D01*
X2940000Y6110000D02*
X2980000Y6070000D01*
X2980000Y6110000D02*
X2940000Y6070000D01*
X2940000Y5760000D02*
X2980000Y5720000D01*
X2980000Y5760000D02*
X2940000Y5720000D01*
X2960000Y6960000D02*
X3000000Y6920000D01*
X3000000Y6960000D02*
X2960000Y6920000D01*
X2980000Y8420000D02*
X3020000Y8380000D01*
X3020000Y8420000D02*
X2980000Y8380000D01*
X2990000Y4760000D02*
X3030000Y4720000D01*
X3030000Y4760000D02*
X2990000Y4720000D01*
X3110000Y2500000D02*
X3150000Y2460000D01*
X3150000Y2500000D02*
X3110000Y2460000D01*
X3215000Y2500000D02*
X3255000Y2460000D01*
X3255000Y2500000D02*
X3215000Y2460000D01*
X3350000Y1725000D02*
X3390000Y1685000D01*
X3390000Y1725000D02*
X3350000Y1685000D01*
X3350000Y1610000D02*
X3390000Y1570000D01*
X3390000Y1610000D02*
X3350000Y1570000D01*
X3480000Y7620000D02*
X3520000Y7580000D01*
X3520000Y7620000D02*
X3480000Y7580000D01*
X3480000Y5120000D02*
X3520000Y5080000D01*
X3520000Y5120000D02*
X3480000Y5080000D01*
X3480000Y120000D02*
X3520000Y80000D01*
X3520000Y120000D02*
X3480000Y80000D01*
X3490000Y6360000D02*
X3530000Y6320000D01*
X3530000Y6360000D02*
X3490000Y6320000D01*
X3490000Y5520000D02*
X3530000Y5480000D01*
X3530000Y5520000D02*
X3490000Y5480000D01*
X3980000Y7120000D02*
X4020000Y7080000D01*
X4020000Y7120000D02*
X3980000Y7080000D01*
X4180000Y620000D02*
X4220000Y580000D01*
X4220000Y620000D02*
X4180000Y580000D01*
X4480000Y7620000D02*
X4520000Y7580000D01*
X4520000Y7620000D02*
X4480000Y7580000D01*
X4480000Y6620000D02*
X4520000Y6580000D01*
X4520000Y6620000D02*
X4480000Y6580000D01*
X4480000Y5620000D02*
X4520000Y5580000D01*
X4520000Y5620000D02*
X4480000Y5580000D01*
X4480000Y4620000D02*
X4520000Y4580000D01*
X4520000Y4620000D02*
X4480000Y4580000D01*
X4680000Y3020000D02*
X4720000Y2980000D01*
X4720000Y3020000D02*
X4680000Y2980000D01*
X4680000Y2120000D02*
X4720000Y2080000D01*
X4720000Y2120000D02*
X4680000Y2080000D01*
D13*
X2600000Y7650000D02*
G75*
G03*
X2600000Y7650000I-40000J0D01*
G01*
X2884735Y3890000D02*
G75*
G03*
X2884735Y3890000I-40000J0D01*
G01*
X2884735Y2970000D02*
G75*
G03*
X2884735Y2970000I-40000J0D01*
G01*
X2970000Y7850000D02*
G75*
G03*
X2970000Y7850000I-40000J0D01*
G01*
X3134735Y3890000D02*
G75*
G03*
X3134735Y3890000I-40000J0D01*
G01*
X3134735Y2970000D02*
G75*
G03*
X3134735Y2970000I-40000J0D01*
G01*
X3580000Y7170000D02*
G75*
G03*
X3580000Y7170000I-40000J0D01*
G01*
X4400000Y6870000D02*
G75*
G03*
X4400000Y6870000I-40000J0D01*
G01*
D10*
X290000Y3060000D02*
X290000Y2960000D01*
X240000Y3010000D02*
X340000Y3010000D01*
X540000Y3310000D02*
X540000Y3210000D01*
X490000Y3260000D02*
X590000Y3260000D01*
X540000Y2810000D02*
X540000Y2710000D01*
X490000Y2760000D02*
X590000Y2760000D01*
X943500Y332500D02*
X943500Y232500D01*
X893500Y282500D02*
X993500Y282500D01*
X1197500Y332500D02*
X1197500Y232500D01*
X1147500Y282500D02*
X1247500Y282500D01*
X1482500Y6590000D02*
X1482500Y6490000D01*
X1432500Y6540000D02*
X1532500Y6540000D01*
X1482500Y6190000D02*
X1482500Y6090000D01*
X1432500Y6140000D02*
X1532500Y6140000D01*
X1482500Y5790000D02*
X1482500Y5690000D01*
X1432500Y5740000D02*
X1532500Y5740000D01*
X1609500Y1204000D02*
X1609500Y1104000D01*
X1559500Y1154000D02*
X1659500Y1154000D01*
X1609500Y950000D02*
X1609500Y850000D01*
X1559500Y900000D02*
X1659500Y900000D01*
X1863500Y1204000D02*
X1863500Y1104000D01*
X1813500Y1154000D02*
X1913500Y1154000D01*
X1863500Y950000D02*
X1863500Y850000D01*
X1813500Y900000D02*
X1913500Y900000D01*
X2117500Y1204000D02*
X2117500Y1104000D01*
X2067500Y1154000D02*
X2167500Y1154000D01*
X2117500Y950000D02*
X2117500Y850000D01*
X2067500Y900000D02*
X2167500Y900000D01*
X2371500Y1204000D02*
X2371500Y1104000D01*
X2321500Y1154000D02*
X2421500Y1154000D01*
X2371500Y950000D02*
X2371500Y850000D01*
X2321500Y900000D02*
X2421500Y900000D01*
X2625500Y1204000D02*
X2625500Y1104000D01*
X2575500Y1154000D02*
X2675500Y1154000D01*
X2625500Y950000D02*
X2625500Y850000D01*
X2575500Y900000D02*
X2675500Y900000D01*
X2879500Y1204000D02*
X2879500Y1104000D01*
X2829500Y1154000D02*
X2929500Y1154000D01*
X2879500Y950000D02*
X2879500Y850000D01*
X2829500Y900000D02*
X2929500Y900000D01*
X3133500Y1204000D02*
X3133500Y1104000D01*
X3083500Y1154000D02*
X3183500Y1154000D01*
X3133500Y950000D02*
X3133500Y850000D01*
X3083500Y900000D02*
X3183500Y900000D01*
X3387500Y1204000D02*
X3387500Y1104000D01*
X3337500Y1154000D02*
X3437500Y1154000D01*
X3387500Y950000D02*
X3387500Y850000D01*
X3337500Y900000D02*
X3437500Y900000D01*
X3618750Y2054250D02*
X3618750Y1954250D01*
X3568750Y2004250D02*
X3668750Y2004250D01*
D11*
X3668750Y1889250D02*
X3668750Y2119250D01*
X3668750Y2119250D02*
G75*
G03*
X3568750Y2119250I-50000J0D01*
G01*
X3568750Y2119250D02*
X3568750Y1889250D01*
X3568750Y1889250D02*
G75*
G03*
X3668750Y1889250I50000J0D01*
G01*
D10*
X3655000Y4345000D02*
X3655000Y4245000D01*
X3605000Y4295000D02*
X3705000Y4295000D01*
D11*
X3705000Y4245000D02*
X3705000Y4345000D01*
X3705000Y4345000D02*
G75*
G03*
X3605000Y4345000I-50000J0D01*
G01*
X3605000Y4345000D02*
X3605000Y4245000D01*
X3605000Y4245000D02*
G75*
G03*
X3705000Y4245000I50000J0D01*
G01*
D10*
X3898750Y2524250D02*
X3898750Y2424250D01*
X3848750Y2474250D02*
X3948750Y2474250D01*
D11*
X3998750Y2524250D02*
X3798750Y2524250D01*
X3798750Y2524250D02*
G75*
G03*
X3798750Y2424250I0J-50000D01*
G01*
X3798750Y2424250D02*
X3998750Y2424250D01*
X3998750Y2424250D02*
G75*
G03*
X3998750Y2524250I0J50000D01*
G01*
D10*
X3962500Y6185000D02*
X3962500Y6085000D01*
X3912500Y6135000D02*
X4012500Y6135000D01*
X3962500Y5931000D02*
X3962500Y5831000D01*
X3912500Y5881000D02*
X4012500Y5881000D01*
X3962500Y5677000D02*
X3962500Y5577000D01*
X3912500Y5627000D02*
X4012500Y5627000D01*
X3962500Y5423000D02*
X3962500Y5323000D01*
X3912500Y5373000D02*
X4012500Y5373000D01*
X3962500Y5169000D02*
X3962500Y5069000D01*
X3912500Y5119000D02*
X4012500Y5119000D01*
X3962500Y4915000D02*
X3962500Y4815000D01*
X3912500Y4865000D02*
X4012500Y4865000D01*
X3975000Y3440000D02*
X3975000Y3340000D01*
X3925000Y3390000D02*
X4025000Y3390000D01*
D11*
X4025000Y3440000D02*
X3925000Y3440000D01*
X3925000Y3440000D02*
G75*
G03*
X3925000Y3340000I0J-50000D01*
G01*
X3925000Y3340000D02*
X4025000Y3340000D01*
X4025000Y3340000D02*
G75*
G03*
X4025000Y3440000I0J50000D01*
G01*
D10*
X4115000Y3680000D02*
X4115000Y3580000D01*
X4065000Y3630000D02*
X4165000Y3630000D01*
D11*
X4165000Y3680000D02*
X4065000Y3680000D01*
X4065000Y3680000D02*
G75*
G03*
X4065000Y3580000I0J-50000D01*
G01*
X4065000Y3580000D02*
X4165000Y3580000D01*
X4165000Y3580000D02*
G75*
G03*
X4165000Y3680000I0J50000D01*
G01*
D10*
X4218750Y2054250D02*
X4218750Y1954250D01*
X4168750Y2004250D02*
X4268750Y2004250D01*
D11*
X4268750Y1904250D02*
X4268750Y2104250D01*
X4268750Y2104250D02*
G75*
G03*
X4168750Y2104250I-50000J0D01*
G01*
X4168750Y2104250D02*
X4168750Y1904250D01*
X4168750Y1904250D02*
G75*
G03*
X4268750Y1904250I50000J0D01*
G01*
D10*
X4425000Y4400000D02*
X4425000Y4300000D01*
X4375000Y4350000D02*
X4475000Y4350000D01*
D11*
X4475000Y4400000D02*
X4375000Y4400000D01*
X4375000Y4400000D02*
G75*
G03*
X4375000Y4300000I0J-50000D01*
G01*
X4375000Y4300000D02*
X4475000Y4300000D01*
X4475000Y4300000D02*
G75*
G03*
X4475000Y4400000I0J50000D01*
G01*
D10*
X4755000Y3945000D02*
X4755000Y3845000D01*
X4705000Y3895000D02*
X4805000Y3895000D01*
D11*
X4805000Y3845000D02*
X4805000Y3945000D01*
X4805000Y3945000D02*
G75*
G03*
X4705000Y3945000I-50000J0D01*
G01*
X4705000Y3945000D02*
X4705000Y3845000D01*
X4705000Y3845000D02*
G75*
G03*
X4805000Y3845000I50000J0D01*
G01*
D14*
X531998Y6590502D02*
X531998Y6689498D01*
X433002Y6689498D01*
X433002Y6590502D01*
X531998Y6590502D01*
X531998Y5590502D02*
X531998Y5689498D01*
X433002Y5689498D01*
X433002Y5590502D01*
X531998Y5590502D01*
D11*
X242619Y-317524D02*
X242619Y-117524D01*
X242619Y-117524D02*
X290238Y-117524D01*
X290238Y-117524D02*
X318810Y-127048D01*
X318810Y-127048D02*
X337857Y-146095D01*
X337857Y-146095D02*
X347381Y-165143D01*
X347381Y-165143D02*
X356905Y-203238D01*
X356905Y-203238D02*
X356905Y-231809D01*
X356905Y-231809D02*
X347381Y-269905D01*
X347381Y-269905D02*
X337857Y-288952D01*
X337857Y-288952D02*
X318810Y-308000D01*
X318810Y-308000D02*
X290238Y-317524D01*
X290238Y-317524D02*
X242619Y-317524D01*
X442619Y-317524D02*
X442619Y-184190D01*
X442619Y-222286D02*
X452143Y-203238D01*
X452143Y-203238D02*
X461667Y-193714D01*
X461667Y-193714D02*
X480714Y-184190D01*
X480714Y-184190D02*
X499762Y-184190D01*
X566429Y-317524D02*
X566429Y-184190D01*
X566429Y-117524D02*
X556905Y-127048D01*
X556905Y-127048D02*
X566429Y-136571D01*
X566429Y-136571D02*
X575952Y-127048D01*
X575952Y-127048D02*
X566429Y-117524D01*
X566429Y-117524D02*
X566429Y-136571D01*
X690238Y-317524D02*
X671190Y-308000D01*
X671190Y-308000D02*
X661667Y-288952D01*
X661667Y-288952D02*
X661667Y-117524D01*
X795000Y-317524D02*
X775952Y-308000D01*
X775952Y-308000D02*
X766428Y-288952D01*
X766428Y-288952D02*
X766428Y-117524D01*
X1023571Y-317524D02*
X1023571Y-117524D01*
X1023571Y-117524D02*
X1090238Y-260381D01*
X1090238Y-260381D02*
X1156905Y-117524D01*
X1156905Y-117524D02*
X1156905Y-317524D01*
X1337857Y-317524D02*
X1337857Y-212762D01*
X1337857Y-212762D02*
X1328333Y-193714D01*
X1328333Y-193714D02*
X1309286Y-184190D01*
X1309286Y-184190D02*
X1271190Y-184190D01*
X1271190Y-184190D02*
X1252143Y-193714D01*
X1337857Y-308000D02*
X1318810Y-317524D01*
X1318810Y-317524D02*
X1271190Y-317524D01*
X1271190Y-317524D02*
X1252143Y-308000D01*
X1252143Y-308000D02*
X1242619Y-288952D01*
X1242619Y-288952D02*
X1242619Y-269905D01*
X1242619Y-269905D02*
X1252143Y-250857D01*
X1252143Y-250857D02*
X1271190Y-241333D01*
X1271190Y-241333D02*
X1318810Y-241333D01*
X1318810Y-241333D02*
X1337857Y-231809D01*
X1433095Y-184190D02*
X1433095Y-384190D01*
X1433095Y-193714D02*
X1452143Y-184190D01*
X1452143Y-184190D02*
X1490238Y-184190D01*
X1490238Y-184190D02*
X1509286Y-193714D01*
X1509286Y-193714D02*
X1518809Y-203238D01*
X1518809Y-203238D02*
X1528333Y-222286D01*
X1528333Y-222286D02*
X1528333Y-279429D01*
X1528333Y-279429D02*
X1518809Y-298476D01*
X1518809Y-298476D02*
X1509286Y-308000D01*
X1509286Y-308000D02*
X1490238Y-317524D01*
X1490238Y-317524D02*
X1452143Y-317524D01*
X1452143Y-317524D02*
X1433095Y-308000D01*
X1614048Y-298476D02*
X1623571Y-308000D01*
X1623571Y-308000D02*
X1614048Y-317524D01*
X1614048Y-317524D02*
X1604524Y-308000D01*
X1604524Y-308000D02*
X1614048Y-298476D01*
X1614048Y-298476D02*
X1614048Y-317524D01*
X1614048Y-193714D02*
X1623571Y-203238D01*
X1623571Y-203238D02*
X1614048Y-212762D01*
X1614048Y-212762D02*
X1604524Y-203238D01*
X1604524Y-203238D02*
X1614048Y-193714D01*
X1614048Y-193714D02*
X1614048Y-212762D01*
D12*
X-45000Y-625000D02*
X-5000Y-665000D01*
X-5000Y-625000D02*
X-45000Y-665000D01*
D11*
X280714Y-537524D02*
X299762Y-537524D01*
X299762Y-537524D02*
X318810Y-547048D01*
X318810Y-547048D02*
X328333Y-556571D01*
X328333Y-556571D02*
X337857Y-575619D01*
X337857Y-575619D02*
X347381Y-613714D01*
X347381Y-613714D02*
X347381Y-661333D01*
X347381Y-661333D02*
X337857Y-699428D01*
X337857Y-699428D02*
X328333Y-718476D01*
X328333Y-718476D02*
X318810Y-728000D01*
X318810Y-728000D02*
X299762Y-737524D01*
X299762Y-737524D02*
X280714Y-737524D01*
X280714Y-737524D02*
X261667Y-728000D01*
X261667Y-728000D02*
X252143Y-718476D01*
X252143Y-718476D02*
X242619Y-699428D01*
X242619Y-699428D02*
X233095Y-661333D01*
X233095Y-661333D02*
X233095Y-613714D01*
X233095Y-613714D02*
X242619Y-575619D01*
X242619Y-575619D02*
X252143Y-556571D01*
X252143Y-556571D02*
X261667Y-547048D01*
X261667Y-547048D02*
X280714Y-537524D01*
X433095Y-718476D02*
X442619Y-728000D01*
X442619Y-728000D02*
X433095Y-737524D01*
X433095Y-737524D02*
X423571Y-728000D01*
X423571Y-728000D02*
X433095Y-718476D01*
X433095Y-718476D02*
X433095Y-737524D01*
X614048Y-604190D02*
X614048Y-737524D01*
X566429Y-528000D02*
X518809Y-670857D01*
X518809Y-670857D02*
X642619Y-670857D01*
X756905Y-537524D02*
X775952Y-537524D01*
X775952Y-537524D02*
X795000Y-547048D01*
X795000Y-547048D02*
X804524Y-556571D01*
X804524Y-556571D02*
X814048Y-575619D01*
X814048Y-575619D02*
X823571Y-613714D01*
X823571Y-613714D02*
X823571Y-661333D01*
X823571Y-661333D02*
X814048Y-699428D01*
X814048Y-699428D02*
X804524Y-718476D01*
X804524Y-718476D02*
X795000Y-728000D01*
X795000Y-728000D02*
X775952Y-737524D01*
X775952Y-737524D02*
X756905Y-737524D01*
X756905Y-737524D02*
X737857Y-728000D01*
X737857Y-728000D02*
X728333Y-718476D01*
X728333Y-718476D02*
X718809Y-699428D01*
X718809Y-699428D02*
X709286Y-661333D01*
X709286Y-661333D02*
X709286Y-613714D01*
X709286Y-613714D02*
X718809Y-575619D01*
X718809Y-575619D02*
X728333Y-556571D01*
X728333Y-556571D02*
X737857Y-547048D01*
X737857Y-547048D02*
X756905Y-537524D01*
X947381Y-537524D02*
X966429Y-537524D01*
X966429Y-537524D02*
X985476Y-547048D01*
X985476Y-547048D02*
X995000Y-556571D01*
X995000Y-556571D02*
X1004524Y-575619D01*
X1004524Y-575619D02*
X1014048Y-613714D01*
X1014048Y-613714D02*
X1014048Y-661333D01*
X1014048Y-661333D02*
X1004524Y-699428D01*
X1004524Y-699428D02*
X995000Y-718476D01*
X995000Y-718476D02*
X985476Y-728000D01*
X985476Y-728000D02*
X966429Y-737524D01*
X966429Y-737524D02*
X947381Y-737524D01*
X947381Y-737524D02*
X928333Y-728000D01*
X928333Y-728000D02*
X918809Y-718476D01*
X918809Y-718476D02*
X909286Y-699428D01*
X909286Y-699428D02*
X899762Y-661333D01*
X899762Y-661333D02*
X899762Y-613714D01*
X899762Y-613714D02*
X909286Y-575619D01*
X909286Y-575619D02*
X918809Y-556571D01*
X918809Y-556571D02*
X928333Y-547048D01*
X928333Y-547048D02*
X947381Y-537524D01*
X1099762Y-737524D02*
X1099762Y-604190D01*
X1099762Y-623238D02*
X1109286Y-613714D01*
X1109286Y-613714D02*
X1128333Y-604190D01*
X1128333Y-604190D02*
X1156905Y-604190D01*
X1156905Y-604190D02*
X1175952Y-613714D01*
X1175952Y-613714D02*
X1185476Y-632762D01*
X1185476Y-632762D02*
X1185476Y-737524D01*
X1185476Y-632762D02*
X1195000Y-613714D01*
X1195000Y-613714D02*
X1214048Y-604190D01*
X1214048Y-604190D02*
X1242619Y-604190D01*
X1242619Y-604190D02*
X1261667Y-613714D01*
X1261667Y-613714D02*
X1271191Y-632762D01*
X1271191Y-632762D02*
X1271191Y-737524D01*
X1366429Y-737524D02*
X1366429Y-604190D01*
X1366429Y-623238D02*
X1375952Y-613714D01*
X1375952Y-613714D02*
X1395000Y-604190D01*
X1395000Y-604190D02*
X1423571Y-604190D01*
X1423571Y-604190D02*
X1442619Y-613714D01*
X1442619Y-613714D02*
X1452143Y-632762D01*
X1452143Y-632762D02*
X1452143Y-737524D01*
X1452143Y-632762D02*
X1461667Y-613714D01*
X1461667Y-613714D02*
X1480714Y-604190D01*
X1480714Y-604190D02*
X1509286Y-604190D01*
X1509286Y-604190D02*
X1528333Y-613714D01*
X1528333Y-613714D02*
X1537857Y-632762D01*
X1537857Y-632762D02*
X1537857Y-737524D01*
X1928333Y-528000D02*
X1756905Y-785143D01*
X2185476Y-537524D02*
X2204524Y-537524D01*
X2204524Y-537524D02*
X2223572Y-547048D01*
X2223572Y-547048D02*
X2233095Y-556571D01*
X2233095Y-556571D02*
X2242619Y-575619D01*
X2242619Y-575619D02*
X2252143Y-613714D01*
X2252143Y-613714D02*
X2252143Y-661333D01*
X2252143Y-661333D02*
X2242619Y-699428D01*
X2242619Y-699428D02*
X2233095Y-718476D01*
X2233095Y-718476D02*
X2223572Y-728000D01*
X2223572Y-728000D02*
X2204524Y-737524D01*
X2204524Y-737524D02*
X2185476Y-737524D01*
X2185476Y-737524D02*
X2166429Y-728000D01*
X2166429Y-728000D02*
X2156905Y-718476D01*
X2156905Y-718476D02*
X2147381Y-699428D01*
X2147381Y-699428D02*
X2137857Y-661333D01*
X2137857Y-661333D02*
X2137857Y-613714D01*
X2137857Y-613714D02*
X2147381Y-575619D01*
X2147381Y-575619D02*
X2156905Y-556571D01*
X2156905Y-556571D02*
X2166429Y-547048D01*
X2166429Y-547048D02*
X2185476Y-537524D01*
X2337857Y-718476D02*
X2347381Y-728000D01*
X2347381Y-728000D02*
X2337857Y-737524D01*
X2337857Y-737524D02*
X2328334Y-728000D01*
X2328334Y-728000D02*
X2337857Y-718476D01*
X2337857Y-718476D02*
X2337857Y-737524D01*
X2471191Y-537524D02*
X2490238Y-537524D01*
X2490238Y-537524D02*
X2509286Y-547048D01*
X2509286Y-547048D02*
X2518810Y-556571D01*
X2518810Y-556571D02*
X2528334Y-575619D01*
X2528334Y-575619D02*
X2537857Y-613714D01*
X2537857Y-613714D02*
X2537857Y-661333D01*
X2537857Y-661333D02*
X2528334Y-699428D01*
X2528334Y-699428D02*
X2518810Y-718476D01*
X2518810Y-718476D02*
X2509286Y-728000D01*
X2509286Y-728000D02*
X2490238Y-737524D01*
X2490238Y-737524D02*
X2471191Y-737524D01*
X2471191Y-737524D02*
X2452143Y-728000D01*
X2452143Y-728000D02*
X2442619Y-718476D01*
X2442619Y-718476D02*
X2433095Y-699428D01*
X2433095Y-699428D02*
X2423572Y-661333D01*
X2423572Y-661333D02*
X2423572Y-613714D01*
X2423572Y-613714D02*
X2433095Y-575619D01*
X2433095Y-575619D02*
X2442619Y-556571D01*
X2442619Y-556571D02*
X2452143Y-547048D01*
X2452143Y-547048D02*
X2471191Y-537524D01*
X2728334Y-737524D02*
X2614048Y-737524D01*
X2671191Y-737524D02*
X2671191Y-537524D01*
X2671191Y-537524D02*
X2652143Y-566095D01*
X2652143Y-566095D02*
X2633095Y-585143D01*
X2633095Y-585143D02*
X2614048Y-594667D01*
X2909286Y-537524D02*
X2814048Y-537524D01*
X2814048Y-537524D02*
X2804524Y-632762D01*
X2804524Y-632762D02*
X2814048Y-623238D01*
X2814048Y-623238D02*
X2833095Y-613714D01*
X2833095Y-613714D02*
X2880714Y-613714D01*
X2880714Y-613714D02*
X2899762Y-623238D01*
X2899762Y-623238D02*
X2909286Y-632762D01*
X2909286Y-632762D02*
X2918810Y-651810D01*
X2918810Y-651810D02*
X2918810Y-699428D01*
X2918810Y-699428D02*
X2909286Y-718476D01*
X2909286Y-718476D02*
X2899762Y-728000D01*
X2899762Y-728000D02*
X2880714Y-737524D01*
X2880714Y-737524D02*
X2833095Y-737524D01*
X2833095Y-737524D02*
X2814048Y-728000D01*
X2814048Y-728000D02*
X2804524Y-718476D01*
X2985476Y-537524D02*
X3118810Y-537524D01*
X3118810Y-537524D02*
X3033095Y-737524D01*
X3185476Y-537524D02*
X3185476Y-575619D01*
X3261667Y-537524D02*
X3261667Y-575619D01*
X3556905Y-813714D02*
X3547381Y-804190D01*
X3547381Y-804190D02*
X3528334Y-775619D01*
X3528334Y-775619D02*
X3518810Y-756571D01*
X3518810Y-756571D02*
X3509286Y-728000D01*
X3509286Y-728000D02*
X3499762Y-680381D01*
X3499762Y-680381D02*
X3499762Y-642286D01*
X3499762Y-642286D02*
X3509286Y-594667D01*
X3509286Y-594667D02*
X3518810Y-566095D01*
X3518810Y-566095D02*
X3528334Y-547048D01*
X3528334Y-547048D02*
X3547381Y-518476D01*
X3547381Y-518476D02*
X3556905Y-508952D01*
X3728334Y-537524D02*
X3633095Y-537524D01*
X3633095Y-537524D02*
X3623572Y-632762D01*
X3623572Y-632762D02*
X3633095Y-623238D01*
X3633095Y-623238D02*
X3652143Y-613714D01*
X3652143Y-613714D02*
X3699762Y-613714D01*
X3699762Y-613714D02*
X3718810Y-623238D01*
X3718810Y-623238D02*
X3728334Y-632762D01*
X3728334Y-632762D02*
X3737857Y-651810D01*
X3737857Y-651810D02*
X3737857Y-699428D01*
X3737857Y-699428D02*
X3728334Y-718476D01*
X3728334Y-718476D02*
X3718810Y-728000D01*
X3718810Y-728000D02*
X3699762Y-737524D01*
X3699762Y-737524D02*
X3652143Y-737524D01*
X3652143Y-737524D02*
X3633095Y-728000D01*
X3633095Y-728000D02*
X3623572Y-718476D01*
X3804524Y-537524D02*
X3937857Y-537524D01*
X3937857Y-537524D02*
X3852143Y-737524D01*
X4166429Y-737524D02*
X4166429Y-537524D01*
X4252143Y-737524D02*
X4252143Y-632762D01*
X4252143Y-632762D02*
X4242619Y-613714D01*
X4242619Y-613714D02*
X4223572Y-604190D01*
X4223572Y-604190D02*
X4195000Y-604190D01*
X4195000Y-604190D02*
X4175953Y-613714D01*
X4175953Y-613714D02*
X4166429Y-623238D01*
X4375953Y-737524D02*
X4356905Y-728000D01*
X4356905Y-728000D02*
X4347381Y-718476D01*
X4347381Y-718476D02*
X4337858Y-699428D01*
X4337858Y-699428D02*
X4337858Y-642286D01*
X4337858Y-642286D02*
X4347381Y-623238D01*
X4347381Y-623238D02*
X4356905Y-613714D01*
X4356905Y-613714D02*
X4375953Y-604190D01*
X4375953Y-604190D02*
X4404524Y-604190D01*
X4404524Y-604190D02*
X4423572Y-613714D01*
X4423572Y-613714D02*
X4433096Y-623238D01*
X4433096Y-623238D02*
X4442619Y-642286D01*
X4442619Y-642286D02*
X4442619Y-699428D01*
X4442619Y-699428D02*
X4433096Y-718476D01*
X4433096Y-718476D02*
X4423572Y-728000D01*
X4423572Y-728000D02*
X4404524Y-737524D01*
X4404524Y-737524D02*
X4375953Y-737524D01*
X4556905Y-737524D02*
X4537858Y-728000D01*
X4537858Y-728000D02*
X4528334Y-708952D01*
X4528334Y-708952D02*
X4528334Y-537524D01*
X4709286Y-728000D02*
X4690239Y-737524D01*
X4690239Y-737524D02*
X4652143Y-737524D01*
X4652143Y-737524D02*
X4633096Y-728000D01*
X4633096Y-728000D02*
X4623572Y-708952D01*
X4623572Y-708952D02*
X4623572Y-632762D01*
X4623572Y-632762D02*
X4633096Y-613714D01*
X4633096Y-613714D02*
X4652143Y-604190D01*
X4652143Y-604190D02*
X4690239Y-604190D01*
X4690239Y-604190D02*
X4709286Y-613714D01*
X4709286Y-613714D02*
X4718810Y-632762D01*
X4718810Y-632762D02*
X4718810Y-651810D01*
X4718810Y-651810D02*
X4623572Y-670857D01*
X4795000Y-728000D02*
X4814048Y-737524D01*
X4814048Y-737524D02*
X4852143Y-737524D01*
X4852143Y-737524D02*
X4871191Y-728000D01*
X4871191Y-728000D02*
X4880715Y-708952D01*
X4880715Y-708952D02*
X4880715Y-699428D01*
X4880715Y-699428D02*
X4871191Y-680381D01*
X4871191Y-680381D02*
X4852143Y-670857D01*
X4852143Y-670857D02*
X4823572Y-670857D01*
X4823572Y-670857D02*
X4804524Y-661333D01*
X4804524Y-661333D02*
X4795000Y-642286D01*
X4795000Y-642286D02*
X4795000Y-632762D01*
X4795000Y-632762D02*
X4804524Y-613714D01*
X4804524Y-613714D02*
X4823572Y-604190D01*
X4823572Y-604190D02*
X4852143Y-604190D01*
X4852143Y-604190D02*
X4871191Y-613714D01*
X4947381Y-813714D02*
X4956905Y-804190D01*
X4956905Y-804190D02*
X4975953Y-775619D01*
X4975953Y-775619D02*
X4985477Y-756571D01*
X4985477Y-756571D02*
X4995000Y-728000D01*
X4995000Y-728000D02*
X5004524Y-680381D01*
X5004524Y-680381D02*
X5004524Y-642286D01*
X5004524Y-642286D02*
X4995000Y-594667D01*
X4995000Y-594667D02*
X4985477Y-566095D01*
X4985477Y-566095D02*
X4975953Y-547048D01*
X4975953Y-547048D02*
X4956905Y-518476D01*
X4956905Y-518476D02*
X4947381Y-508952D01*
D13*
X-5000Y-909000D02*
G75*
G03*
X-5000Y-909000I-40000J0D01*
G01*
D11*
X280714Y-801524D02*
X299762Y-801524D01*
X299762Y-801524D02*
X318810Y-811048D01*
X318810Y-811048D02*
X328333Y-820571D01*
X328333Y-820571D02*
X337857Y-839619D01*
X337857Y-839619D02*
X347381Y-877714D01*
X347381Y-877714D02*
X347381Y-925333D01*
X347381Y-925333D02*
X337857Y-963428D01*
X337857Y-963428D02*
X328333Y-982476D01*
X328333Y-982476D02*
X318810Y-992000D01*
X318810Y-992000D02*
X299762Y-1001524D01*
X299762Y-1001524D02*
X280714Y-1001524D01*
X280714Y-1001524D02*
X261667Y-992000D01*
X261667Y-992000D02*
X252143Y-982476D01*
X252143Y-982476D02*
X242619Y-963428D01*
X242619Y-963428D02*
X233095Y-925333D01*
X233095Y-925333D02*
X233095Y-877714D01*
X233095Y-877714D02*
X242619Y-839619D01*
X242619Y-839619D02*
X252143Y-820571D01*
X252143Y-820571D02*
X261667Y-811048D01*
X261667Y-811048D02*
X280714Y-801524D01*
X433095Y-982476D02*
X442619Y-992000D01*
X442619Y-992000D02*
X433095Y-1001524D01*
X433095Y-1001524D02*
X423571Y-992000D01*
X423571Y-992000D02*
X433095Y-982476D01*
X433095Y-982476D02*
X433095Y-1001524D01*
X556905Y-887238D02*
X537857Y-877714D01*
X537857Y-877714D02*
X528333Y-868190D01*
X528333Y-868190D02*
X518809Y-849143D01*
X518809Y-849143D02*
X518809Y-839619D01*
X518809Y-839619D02*
X528333Y-820571D01*
X528333Y-820571D02*
X537857Y-811048D01*
X537857Y-811048D02*
X556905Y-801524D01*
X556905Y-801524D02*
X595000Y-801524D01*
X595000Y-801524D02*
X614048Y-811048D01*
X614048Y-811048D02*
X623571Y-820571D01*
X623571Y-820571D02*
X633095Y-839619D01*
X633095Y-839619D02*
X633095Y-849143D01*
X633095Y-849143D02*
X623571Y-868190D01*
X623571Y-868190D02*
X614048Y-877714D01*
X614048Y-877714D02*
X595000Y-887238D01*
X595000Y-887238D02*
X556905Y-887238D01*
X556905Y-887238D02*
X537857Y-896762D01*
X537857Y-896762D02*
X528333Y-906286D01*
X528333Y-906286D02*
X518809Y-925333D01*
X518809Y-925333D02*
X518809Y-963428D01*
X518809Y-963428D02*
X528333Y-982476D01*
X528333Y-982476D02*
X537857Y-992000D01*
X537857Y-992000D02*
X556905Y-1001524D01*
X556905Y-1001524D02*
X595000Y-1001524D01*
X595000Y-1001524D02*
X614048Y-992000D01*
X614048Y-992000D02*
X623571Y-982476D01*
X623571Y-982476D02*
X633095Y-963428D01*
X633095Y-963428D02*
X633095Y-925333D01*
X633095Y-925333D02*
X623571Y-906286D01*
X623571Y-906286D02*
X614048Y-896762D01*
X614048Y-896762D02*
X595000Y-887238D01*
X756905Y-801524D02*
X775952Y-801524D01*
X775952Y-801524D02*
X795000Y-811048D01*
X795000Y-811048D02*
X804524Y-820571D01*
X804524Y-820571D02*
X814048Y-839619D01*
X814048Y-839619D02*
X823571Y-877714D01*
X823571Y-877714D02*
X823571Y-925333D01*
X823571Y-925333D02*
X814048Y-963428D01*
X814048Y-963428D02*
X804524Y-982476D01*
X804524Y-982476D02*
X795000Y-992000D01*
X795000Y-992000D02*
X775952Y-1001524D01*
X775952Y-1001524D02*
X756905Y-1001524D01*
X756905Y-1001524D02*
X737857Y-992000D01*
X737857Y-992000D02*
X728333Y-982476D01*
X728333Y-982476D02*
X718809Y-963428D01*
X718809Y-963428D02*
X709286Y-925333D01*
X709286Y-925333D02*
X709286Y-877714D01*
X709286Y-877714D02*
X718809Y-839619D01*
X718809Y-839619D02*
X728333Y-820571D01*
X728333Y-820571D02*
X737857Y-811048D01*
X737857Y-811048D02*
X756905Y-801524D01*
X947381Y-801524D02*
X966429Y-801524D01*
X966429Y-801524D02*
X985476Y-811048D01*
X985476Y-811048D02*
X995000Y-820571D01*
X995000Y-820571D02*
X1004524Y-839619D01*
X1004524Y-839619D02*
X1014048Y-877714D01*
X1014048Y-877714D02*
X1014048Y-925333D01*
X1014048Y-925333D02*
X1004524Y-963428D01*
X1004524Y-963428D02*
X995000Y-982476D01*
X995000Y-982476D02*
X985476Y-992000D01*
X985476Y-992000D02*
X966429Y-1001524D01*
X966429Y-1001524D02*
X947381Y-1001524D01*
X947381Y-1001524D02*
X928333Y-992000D01*
X928333Y-992000D02*
X918809Y-982476D01*
X918809Y-982476D02*
X909286Y-963428D01*
X909286Y-963428D02*
X899762Y-925333D01*
X899762Y-925333D02*
X899762Y-877714D01*
X899762Y-877714D02*
X909286Y-839619D01*
X909286Y-839619D02*
X918809Y-820571D01*
X918809Y-820571D02*
X928333Y-811048D01*
X928333Y-811048D02*
X947381Y-801524D01*
X1099762Y-1001524D02*
X1099762Y-868190D01*
X1099762Y-887238D02*
X1109286Y-877714D01*
X1109286Y-877714D02*
X1128333Y-868190D01*
X1128333Y-868190D02*
X1156905Y-868190D01*
X1156905Y-868190D02*
X1175952Y-877714D01*
X1175952Y-877714D02*
X1185476Y-896762D01*
X1185476Y-896762D02*
X1185476Y-1001524D01*
X1185476Y-896762D02*
X1195000Y-877714D01*
X1195000Y-877714D02*
X1214048Y-868190D01*
X1214048Y-868190D02*
X1242619Y-868190D01*
X1242619Y-868190D02*
X1261667Y-877714D01*
X1261667Y-877714D02*
X1271191Y-896762D01*
X1271191Y-896762D02*
X1271191Y-1001524D01*
X1366429Y-1001524D02*
X1366429Y-868190D01*
X1366429Y-887238D02*
X1375952Y-877714D01*
X1375952Y-877714D02*
X1395000Y-868190D01*
X1395000Y-868190D02*
X1423571Y-868190D01*
X1423571Y-868190D02*
X1442619Y-877714D01*
X1442619Y-877714D02*
X1452143Y-896762D01*
X1452143Y-896762D02*
X1452143Y-1001524D01*
X1452143Y-896762D02*
X1461667Y-877714D01*
X1461667Y-877714D02*
X1480714Y-868190D01*
X1480714Y-868190D02*
X1509286Y-868190D01*
X1509286Y-868190D02*
X1528333Y-877714D01*
X1528333Y-877714D02*
X1537857Y-896762D01*
X1537857Y-896762D02*
X1537857Y-1001524D01*
X1928333Y-792000D02*
X1756905Y-1049143D01*
X2185476Y-801524D02*
X2204524Y-801524D01*
X2204524Y-801524D02*
X2223572Y-811048D01*
X2223572Y-811048D02*
X2233095Y-820571D01*
X2233095Y-820571D02*
X2242619Y-839619D01*
X2242619Y-839619D02*
X2252143Y-877714D01*
X2252143Y-877714D02*
X2252143Y-925333D01*
X2252143Y-925333D02*
X2242619Y-963428D01*
X2242619Y-963428D02*
X2233095Y-982476D01*
X2233095Y-982476D02*
X2223572Y-992000D01*
X2223572Y-992000D02*
X2204524Y-1001524D01*
X2204524Y-1001524D02*
X2185476Y-1001524D01*
X2185476Y-1001524D02*
X2166429Y-992000D01*
X2166429Y-992000D02*
X2156905Y-982476D01*
X2156905Y-982476D02*
X2147381Y-963428D01*
X2147381Y-963428D02*
X2137857Y-925333D01*
X2137857Y-925333D02*
X2137857Y-877714D01*
X2137857Y-877714D02*
X2147381Y-839619D01*
X2147381Y-839619D02*
X2156905Y-820571D01*
X2156905Y-820571D02*
X2166429Y-811048D01*
X2166429Y-811048D02*
X2185476Y-801524D01*
X2337857Y-982476D02*
X2347381Y-992000D01*
X2347381Y-992000D02*
X2337857Y-1001524D01*
X2337857Y-1001524D02*
X2328334Y-992000D01*
X2328334Y-992000D02*
X2337857Y-982476D01*
X2337857Y-982476D02*
X2337857Y-1001524D01*
X2471191Y-801524D02*
X2490238Y-801524D01*
X2490238Y-801524D02*
X2509286Y-811048D01*
X2509286Y-811048D02*
X2518810Y-820571D01*
X2518810Y-820571D02*
X2528334Y-839619D01*
X2528334Y-839619D02*
X2537857Y-877714D01*
X2537857Y-877714D02*
X2537857Y-925333D01*
X2537857Y-925333D02*
X2528334Y-963428D01*
X2528334Y-963428D02*
X2518810Y-982476D01*
X2518810Y-982476D02*
X2509286Y-992000D01*
X2509286Y-992000D02*
X2490238Y-1001524D01*
X2490238Y-1001524D02*
X2471191Y-1001524D01*
X2471191Y-1001524D02*
X2452143Y-992000D01*
X2452143Y-992000D02*
X2442619Y-982476D01*
X2442619Y-982476D02*
X2433095Y-963428D01*
X2433095Y-963428D02*
X2423572Y-925333D01*
X2423572Y-925333D02*
X2423572Y-877714D01*
X2423572Y-877714D02*
X2433095Y-839619D01*
X2433095Y-839619D02*
X2442619Y-820571D01*
X2442619Y-820571D02*
X2452143Y-811048D01*
X2452143Y-811048D02*
X2471191Y-801524D01*
X2604524Y-801524D02*
X2728334Y-801524D01*
X2728334Y-801524D02*
X2661667Y-877714D01*
X2661667Y-877714D02*
X2690238Y-877714D01*
X2690238Y-877714D02*
X2709286Y-887238D01*
X2709286Y-887238D02*
X2718810Y-896762D01*
X2718810Y-896762D02*
X2728334Y-915809D01*
X2728334Y-915809D02*
X2728334Y-963428D01*
X2728334Y-963428D02*
X2718810Y-982476D01*
X2718810Y-982476D02*
X2709286Y-992000D01*
X2709286Y-992000D02*
X2690238Y-1001524D01*
X2690238Y-1001524D02*
X2633095Y-1001524D01*
X2633095Y-1001524D02*
X2614048Y-992000D01*
X2614048Y-992000D02*
X2604524Y-982476D01*
X2918810Y-1001524D02*
X2804524Y-1001524D01*
X2861667Y-1001524D02*
X2861667Y-801524D01*
X2861667Y-801524D02*
X2842619Y-830095D01*
X2842619Y-830095D02*
X2823572Y-849143D01*
X2823572Y-849143D02*
X2804524Y-858667D01*
X3099762Y-801524D02*
X3004524Y-801524D01*
X3004524Y-801524D02*
X2995000Y-896762D01*
X2995000Y-896762D02*
X3004524Y-887238D01*
X3004524Y-887238D02*
X3023572Y-877714D01*
X3023572Y-877714D02*
X3071191Y-877714D01*
X3071191Y-877714D02*
X3090238Y-887238D01*
X3090238Y-887238D02*
X3099762Y-896762D01*
X3099762Y-896762D02*
X3109286Y-915809D01*
X3109286Y-915809D02*
X3109286Y-963428D01*
X3109286Y-963428D02*
X3099762Y-982476D01*
X3099762Y-982476D02*
X3090238Y-992000D01*
X3090238Y-992000D02*
X3071191Y-1001524D01*
X3071191Y-1001524D02*
X3023572Y-1001524D01*
X3023572Y-1001524D02*
X3004524Y-992000D01*
X3004524Y-992000D02*
X2995000Y-982476D01*
X3185476Y-801524D02*
X3185476Y-839619D01*
X3261667Y-801524D02*
X3261667Y-839619D01*
X3556905Y-1077714D02*
X3547381Y-1068190D01*
X3547381Y-1068190D02*
X3528334Y-1039619D01*
X3528334Y-1039619D02*
X3518810Y-1020571D01*
X3518810Y-1020571D02*
X3509286Y-992000D01*
X3509286Y-992000D02*
X3499762Y-944381D01*
X3499762Y-944381D02*
X3499762Y-906286D01*
X3499762Y-906286D02*
X3509286Y-858667D01*
X3509286Y-858667D02*
X3518810Y-830095D01*
X3518810Y-830095D02*
X3528334Y-811048D01*
X3528334Y-811048D02*
X3547381Y-782476D01*
X3547381Y-782476D02*
X3556905Y-772952D01*
X3661667Y-887238D02*
X3642619Y-877714D01*
X3642619Y-877714D02*
X3633095Y-868190D01*
X3633095Y-868190D02*
X3623572Y-849143D01*
X3623572Y-849143D02*
X3623572Y-839619D01*
X3623572Y-839619D02*
X3633095Y-820571D01*
X3633095Y-820571D02*
X3642619Y-811048D01*
X3642619Y-811048D02*
X3661667Y-801524D01*
X3661667Y-801524D02*
X3699762Y-801524D01*
X3699762Y-801524D02*
X3718810Y-811048D01*
X3718810Y-811048D02*
X3728334Y-820571D01*
X3728334Y-820571D02*
X3737857Y-839619D01*
X3737857Y-839619D02*
X3737857Y-849143D01*
X3737857Y-849143D02*
X3728334Y-868190D01*
X3728334Y-868190D02*
X3718810Y-877714D01*
X3718810Y-877714D02*
X3699762Y-887238D01*
X3699762Y-887238D02*
X3661667Y-887238D01*
X3661667Y-887238D02*
X3642619Y-896762D01*
X3642619Y-896762D02*
X3633095Y-906286D01*
X3633095Y-906286D02*
X3623572Y-925333D01*
X3623572Y-925333D02*
X3623572Y-963428D01*
X3623572Y-963428D02*
X3633095Y-982476D01*
X3633095Y-982476D02*
X3642619Y-992000D01*
X3642619Y-992000D02*
X3661667Y-1001524D01*
X3661667Y-1001524D02*
X3699762Y-1001524D01*
X3699762Y-1001524D02*
X3718810Y-992000D01*
X3718810Y-992000D02*
X3728334Y-982476D01*
X3728334Y-982476D02*
X3737857Y-963428D01*
X3737857Y-963428D02*
X3737857Y-925333D01*
X3737857Y-925333D02*
X3728334Y-906286D01*
X3728334Y-906286D02*
X3718810Y-896762D01*
X3718810Y-896762D02*
X3699762Y-887238D01*
X3975953Y-1001524D02*
X3975953Y-801524D01*
X4061667Y-1001524D02*
X4061667Y-896762D01*
X4061667Y-896762D02*
X4052143Y-877714D01*
X4052143Y-877714D02*
X4033096Y-868190D01*
X4033096Y-868190D02*
X4004524Y-868190D01*
X4004524Y-868190D02*
X3985476Y-877714D01*
X3985476Y-877714D02*
X3975953Y-887238D01*
X4185476Y-1001524D02*
X4166429Y-992000D01*
X4166429Y-992000D02*
X4156905Y-982476D01*
X4156905Y-982476D02*
X4147381Y-963428D01*
X4147381Y-963428D02*
X4147381Y-906286D01*
X4147381Y-906286D02*
X4156905Y-887238D01*
X4156905Y-887238D02*
X4166429Y-877714D01*
X4166429Y-877714D02*
X4185476Y-868190D01*
X4185476Y-868190D02*
X4214048Y-868190D01*
X4214048Y-868190D02*
X4233096Y-877714D01*
X4233096Y-877714D02*
X4242619Y-887238D01*
X4242619Y-887238D02*
X4252143Y-906286D01*
X4252143Y-906286D02*
X4252143Y-963428D01*
X4252143Y-963428D02*
X4242619Y-982476D01*
X4242619Y-982476D02*
X4233096Y-992000D01*
X4233096Y-992000D02*
X4214048Y-1001524D01*
X4214048Y-1001524D02*
X4185476Y-1001524D01*
X4366429Y-1001524D02*
X4347381Y-992000D01*
X4347381Y-992000D02*
X4337858Y-972952D01*
X4337858Y-972952D02*
X4337858Y-801524D01*
X4518810Y-992000D02*
X4499762Y-1001524D01*
X4499762Y-1001524D02*
X4461667Y-1001524D01*
X4461667Y-1001524D02*
X4442619Y-992000D01*
X4442619Y-992000D02*
X4433096Y-972952D01*
X4433096Y-972952D02*
X4433096Y-896762D01*
X4433096Y-896762D02*
X4442619Y-877714D01*
X4442619Y-877714D02*
X4461667Y-868190D01*
X4461667Y-868190D02*
X4499762Y-868190D01*
X4499762Y-868190D02*
X4518810Y-877714D01*
X4518810Y-877714D02*
X4528334Y-896762D01*
X4528334Y-896762D02*
X4528334Y-915809D01*
X4528334Y-915809D02*
X4433096Y-934857D01*
X4604524Y-992000D02*
X4623572Y-1001524D01*
X4623572Y-1001524D02*
X4661667Y-1001524D01*
X4661667Y-1001524D02*
X4680715Y-992000D01*
X4680715Y-992000D02*
X4690239Y-972952D01*
X4690239Y-972952D02*
X4690239Y-963428D01*
X4690239Y-963428D02*
X4680715Y-944381D01*
X4680715Y-944381D02*
X4661667Y-934857D01*
X4661667Y-934857D02*
X4633096Y-934857D01*
X4633096Y-934857D02*
X4614048Y-925333D01*
X4614048Y-925333D02*
X4604524Y-906286D01*
X4604524Y-906286D02*
X4604524Y-896762D01*
X4604524Y-896762D02*
X4614048Y-877714D01*
X4614048Y-877714D02*
X4633096Y-868190D01*
X4633096Y-868190D02*
X4661667Y-868190D01*
X4661667Y-868190D02*
X4680715Y-877714D01*
X4756905Y-1077714D02*
X4766429Y-1068190D01*
X4766429Y-1068190D02*
X4785477Y-1039619D01*
X4785477Y-1039619D02*
X4795000Y-1020571D01*
X4795000Y-1020571D02*
X4804524Y-992000D01*
X4804524Y-992000D02*
X4814048Y-944381D01*
X4814048Y-944381D02*
X4814048Y-906286D01*
X4814048Y-906286D02*
X4804524Y-858667D01*
X4804524Y-858667D02*
X4795000Y-830095D01*
X4795000Y-830095D02*
X4785477Y-811048D01*
X4785477Y-811048D02*
X4766429Y-782476D01*
X4766429Y-782476D02*
X4756905Y-772952D01*
D10*
X-55000Y-1123000D02*
X-55000Y-1223000D01*
X-105000Y-1173000D02*
X-5000Y-1173000D01*
D11*
X347381Y-1265524D02*
X233095Y-1265524D01*
X290238Y-1265524D02*
X290238Y-1065524D01*
X290238Y-1065524D02*
X271190Y-1094095D01*
X271190Y-1094095D02*
X252143Y-1113143D01*
X252143Y-1113143D02*
X233095Y-1122667D01*
X433095Y-1246476D02*
X442619Y-1256000D01*
X442619Y-1256000D02*
X433095Y-1265524D01*
X433095Y-1265524D02*
X423571Y-1256000D01*
X423571Y-1256000D02*
X433095Y-1246476D01*
X433095Y-1246476D02*
X433095Y-1265524D01*
X566429Y-1065524D02*
X585476Y-1065524D01*
X585476Y-1065524D02*
X604524Y-1075048D01*
X604524Y-1075048D02*
X614048Y-1084571D01*
X614048Y-1084571D02*
X623571Y-1103619D01*
X623571Y-1103619D02*
X633095Y-1141714D01*
X633095Y-1141714D02*
X633095Y-1189333D01*
X633095Y-1189333D02*
X623571Y-1227429D01*
X623571Y-1227429D02*
X614048Y-1246476D01*
X614048Y-1246476D02*
X604524Y-1256000D01*
X604524Y-1256000D02*
X585476Y-1265524D01*
X585476Y-1265524D02*
X566429Y-1265524D01*
X566429Y-1265524D02*
X547381Y-1256000D01*
X547381Y-1256000D02*
X537857Y-1246476D01*
X537857Y-1246476D02*
X528333Y-1227429D01*
X528333Y-1227429D02*
X518809Y-1189333D01*
X518809Y-1189333D02*
X518809Y-1141714D01*
X518809Y-1141714D02*
X528333Y-1103619D01*
X528333Y-1103619D02*
X537857Y-1084571D01*
X537857Y-1084571D02*
X547381Y-1075048D01*
X547381Y-1075048D02*
X566429Y-1065524D01*
X756905Y-1065524D02*
X775952Y-1065524D01*
X775952Y-1065524D02*
X795000Y-1075048D01*
X795000Y-1075048D02*
X804524Y-1084571D01*
X804524Y-1084571D02*
X814048Y-1103619D01*
X814048Y-1103619D02*
X823571Y-1141714D01*
X823571Y-1141714D02*
X823571Y-1189333D01*
X823571Y-1189333D02*
X814048Y-1227429D01*
X814048Y-1227429D02*
X804524Y-1246476D01*
X804524Y-1246476D02*
X795000Y-1256000D01*
X795000Y-1256000D02*
X775952Y-1265524D01*
X775952Y-1265524D02*
X756905Y-1265524D01*
X756905Y-1265524D02*
X737857Y-1256000D01*
X737857Y-1256000D02*
X728333Y-1246476D01*
X728333Y-1246476D02*
X718809Y-1227429D01*
X718809Y-1227429D02*
X709286Y-1189333D01*
X709286Y-1189333D02*
X709286Y-1141714D01*
X709286Y-1141714D02*
X718809Y-1103619D01*
X718809Y-1103619D02*
X728333Y-1084571D01*
X728333Y-1084571D02*
X737857Y-1075048D01*
X737857Y-1075048D02*
X756905Y-1065524D01*
X947381Y-1065524D02*
X966429Y-1065524D01*
X966429Y-1065524D02*
X985476Y-1075048D01*
X985476Y-1075048D02*
X995000Y-1084571D01*
X995000Y-1084571D02*
X1004524Y-1103619D01*
X1004524Y-1103619D02*
X1014048Y-1141714D01*
X1014048Y-1141714D02*
X1014048Y-1189333D01*
X1014048Y-1189333D02*
X1004524Y-1227429D01*
X1004524Y-1227429D02*
X995000Y-1246476D01*
X995000Y-1246476D02*
X985476Y-1256000D01*
X985476Y-1256000D02*
X966429Y-1265524D01*
X966429Y-1265524D02*
X947381Y-1265524D01*
X947381Y-1265524D02*
X928333Y-1256000D01*
X928333Y-1256000D02*
X918809Y-1246476D01*
X918809Y-1246476D02*
X909286Y-1227429D01*
X909286Y-1227429D02*
X899762Y-1189333D01*
X899762Y-1189333D02*
X899762Y-1141714D01*
X899762Y-1141714D02*
X909286Y-1103619D01*
X909286Y-1103619D02*
X918809Y-1084571D01*
X918809Y-1084571D02*
X928333Y-1075048D01*
X928333Y-1075048D02*
X947381Y-1065524D01*
X1099762Y-1265524D02*
X1099762Y-1132190D01*
X1099762Y-1151238D02*
X1109286Y-1141714D01*
X1109286Y-1141714D02*
X1128333Y-1132190D01*
X1128333Y-1132190D02*
X1156905Y-1132190D01*
X1156905Y-1132190D02*
X1175952Y-1141714D01*
X1175952Y-1141714D02*
X1185476Y-1160762D01*
X1185476Y-1160762D02*
X1185476Y-1265524D01*
X1185476Y-1160762D02*
X1195000Y-1141714D01*
X1195000Y-1141714D02*
X1214048Y-1132190D01*
X1214048Y-1132190D02*
X1242619Y-1132190D01*
X1242619Y-1132190D02*
X1261667Y-1141714D01*
X1261667Y-1141714D02*
X1271191Y-1160762D01*
X1271191Y-1160762D02*
X1271191Y-1265524D01*
X1366429Y-1265524D02*
X1366429Y-1132190D01*
X1366429Y-1151238D02*
X1375952Y-1141714D01*
X1375952Y-1141714D02*
X1395000Y-1132190D01*
X1395000Y-1132190D02*
X1423571Y-1132190D01*
X1423571Y-1132190D02*
X1442619Y-1141714D01*
X1442619Y-1141714D02*
X1452143Y-1160762D01*
X1452143Y-1160762D02*
X1452143Y-1265524D01*
X1452143Y-1160762D02*
X1461667Y-1141714D01*
X1461667Y-1141714D02*
X1480714Y-1132190D01*
X1480714Y-1132190D02*
X1509286Y-1132190D01*
X1509286Y-1132190D02*
X1528333Y-1141714D01*
X1528333Y-1141714D02*
X1537857Y-1160762D01*
X1537857Y-1160762D02*
X1537857Y-1265524D01*
X1928333Y-1056000D02*
X1756905Y-1313143D01*
X2185476Y-1065524D02*
X2204524Y-1065524D01*
X2204524Y-1065524D02*
X2223572Y-1075048D01*
X2223572Y-1075048D02*
X2233095Y-1084571D01*
X2233095Y-1084571D02*
X2242619Y-1103619D01*
X2242619Y-1103619D02*
X2252143Y-1141714D01*
X2252143Y-1141714D02*
X2252143Y-1189333D01*
X2252143Y-1189333D02*
X2242619Y-1227429D01*
X2242619Y-1227429D02*
X2233095Y-1246476D01*
X2233095Y-1246476D02*
X2223572Y-1256000D01*
X2223572Y-1256000D02*
X2204524Y-1265524D01*
X2204524Y-1265524D02*
X2185476Y-1265524D01*
X2185476Y-1265524D02*
X2166429Y-1256000D01*
X2166429Y-1256000D02*
X2156905Y-1246476D01*
X2156905Y-1246476D02*
X2147381Y-1227429D01*
X2147381Y-1227429D02*
X2137857Y-1189333D01*
X2137857Y-1189333D02*
X2137857Y-1141714D01*
X2137857Y-1141714D02*
X2147381Y-1103619D01*
X2147381Y-1103619D02*
X2156905Y-1084571D01*
X2156905Y-1084571D02*
X2166429Y-1075048D01*
X2166429Y-1075048D02*
X2185476Y-1065524D01*
X2337857Y-1246476D02*
X2347381Y-1256000D01*
X2347381Y-1256000D02*
X2337857Y-1265524D01*
X2337857Y-1265524D02*
X2328334Y-1256000D01*
X2328334Y-1256000D02*
X2337857Y-1246476D01*
X2337857Y-1246476D02*
X2337857Y-1265524D01*
X2471191Y-1065524D02*
X2490238Y-1065524D01*
X2490238Y-1065524D02*
X2509286Y-1075048D01*
X2509286Y-1075048D02*
X2518810Y-1084571D01*
X2518810Y-1084571D02*
X2528334Y-1103619D01*
X2528334Y-1103619D02*
X2537857Y-1141714D01*
X2537857Y-1141714D02*
X2537857Y-1189333D01*
X2537857Y-1189333D02*
X2528334Y-1227429D01*
X2528334Y-1227429D02*
X2518810Y-1246476D01*
X2518810Y-1246476D02*
X2509286Y-1256000D01*
X2509286Y-1256000D02*
X2490238Y-1265524D01*
X2490238Y-1265524D02*
X2471191Y-1265524D01*
X2471191Y-1265524D02*
X2452143Y-1256000D01*
X2452143Y-1256000D02*
X2442619Y-1246476D01*
X2442619Y-1246476D02*
X2433095Y-1227429D01*
X2433095Y-1227429D02*
X2423572Y-1189333D01*
X2423572Y-1189333D02*
X2423572Y-1141714D01*
X2423572Y-1141714D02*
X2433095Y-1103619D01*
X2433095Y-1103619D02*
X2442619Y-1084571D01*
X2442619Y-1084571D02*
X2452143Y-1075048D01*
X2452143Y-1075048D02*
X2471191Y-1065524D01*
X2604524Y-1065524D02*
X2728334Y-1065524D01*
X2728334Y-1065524D02*
X2661667Y-1141714D01*
X2661667Y-1141714D02*
X2690238Y-1141714D01*
X2690238Y-1141714D02*
X2709286Y-1151238D01*
X2709286Y-1151238D02*
X2718810Y-1160762D01*
X2718810Y-1160762D02*
X2728334Y-1179810D01*
X2728334Y-1179810D02*
X2728334Y-1227429D01*
X2728334Y-1227429D02*
X2718810Y-1246476D01*
X2718810Y-1246476D02*
X2709286Y-1256000D01*
X2709286Y-1256000D02*
X2690238Y-1265524D01*
X2690238Y-1265524D02*
X2633095Y-1265524D01*
X2633095Y-1265524D02*
X2614048Y-1256000D01*
X2614048Y-1256000D02*
X2604524Y-1246476D01*
X2823572Y-1265524D02*
X2861667Y-1265524D01*
X2861667Y-1265524D02*
X2880714Y-1256000D01*
X2880714Y-1256000D02*
X2890238Y-1246476D01*
X2890238Y-1246476D02*
X2909286Y-1217905D01*
X2909286Y-1217905D02*
X2918810Y-1179810D01*
X2918810Y-1179810D02*
X2918810Y-1103619D01*
X2918810Y-1103619D02*
X2909286Y-1084571D01*
X2909286Y-1084571D02*
X2899762Y-1075048D01*
X2899762Y-1075048D02*
X2880714Y-1065524D01*
X2880714Y-1065524D02*
X2842619Y-1065524D01*
X2842619Y-1065524D02*
X2823572Y-1075048D01*
X2823572Y-1075048D02*
X2814048Y-1084571D01*
X2814048Y-1084571D02*
X2804524Y-1103619D01*
X2804524Y-1103619D02*
X2804524Y-1151238D01*
X2804524Y-1151238D02*
X2814048Y-1170286D01*
X2814048Y-1170286D02*
X2823572Y-1179810D01*
X2823572Y-1179810D02*
X2842619Y-1189333D01*
X2842619Y-1189333D02*
X2880714Y-1189333D01*
X2880714Y-1189333D02*
X2899762Y-1179810D01*
X2899762Y-1179810D02*
X2909286Y-1170286D01*
X2909286Y-1170286D02*
X2918810Y-1151238D01*
X3090238Y-1132190D02*
X3090238Y-1265524D01*
X3042619Y-1056000D02*
X2995000Y-1198857D01*
X2995000Y-1198857D02*
X3118810Y-1198857D01*
X3185476Y-1065524D02*
X3185476Y-1103619D01*
X3261667Y-1065524D02*
X3261667Y-1103619D01*
X3556905Y-1341714D02*
X3547381Y-1332190D01*
X3547381Y-1332190D02*
X3528334Y-1303619D01*
X3528334Y-1303619D02*
X3518810Y-1284571D01*
X3518810Y-1284571D02*
X3509286Y-1256000D01*
X3509286Y-1256000D02*
X3499762Y-1208381D01*
X3499762Y-1208381D02*
X3499762Y-1170286D01*
X3499762Y-1170286D02*
X3509286Y-1122667D01*
X3509286Y-1122667D02*
X3518810Y-1094095D01*
X3518810Y-1094095D02*
X3528334Y-1075048D01*
X3528334Y-1075048D02*
X3547381Y-1046476D01*
X3547381Y-1046476D02*
X3556905Y-1036952D01*
X3614048Y-1065524D02*
X3737857Y-1065524D01*
X3737857Y-1065524D02*
X3671191Y-1141714D01*
X3671191Y-1141714D02*
X3699762Y-1141714D01*
X3699762Y-1141714D02*
X3718810Y-1151238D01*
X3718810Y-1151238D02*
X3728334Y-1160762D01*
X3728334Y-1160762D02*
X3737857Y-1179810D01*
X3737857Y-1179810D02*
X3737857Y-1227429D01*
X3737857Y-1227429D02*
X3728334Y-1246476D01*
X3728334Y-1246476D02*
X3718810Y-1256000D01*
X3718810Y-1256000D02*
X3699762Y-1265524D01*
X3699762Y-1265524D02*
X3642619Y-1265524D01*
X3642619Y-1265524D02*
X3623572Y-1256000D01*
X3623572Y-1256000D02*
X3614048Y-1246476D01*
X3861667Y-1065524D02*
X3880715Y-1065524D01*
X3880715Y-1065524D02*
X3899762Y-1075048D01*
X3899762Y-1075048D02*
X3909286Y-1084571D01*
X3909286Y-1084571D02*
X3918810Y-1103619D01*
X3918810Y-1103619D02*
X3928334Y-1141714D01*
X3928334Y-1141714D02*
X3928334Y-1189333D01*
X3928334Y-1189333D02*
X3918810Y-1227429D01*
X3918810Y-1227429D02*
X3909286Y-1246476D01*
X3909286Y-1246476D02*
X3899762Y-1256000D01*
X3899762Y-1256000D02*
X3880715Y-1265524D01*
X3880715Y-1265524D02*
X3861667Y-1265524D01*
X3861667Y-1265524D02*
X3842619Y-1256000D01*
X3842619Y-1256000D02*
X3833095Y-1246476D01*
X3833095Y-1246476D02*
X3823572Y-1227429D01*
X3823572Y-1227429D02*
X3814048Y-1189333D01*
X3814048Y-1189333D02*
X3814048Y-1141714D01*
X3814048Y-1141714D02*
X3823572Y-1103619D01*
X3823572Y-1103619D02*
X3833095Y-1084571D01*
X3833095Y-1084571D02*
X3842619Y-1075048D01*
X3842619Y-1075048D02*
X3861667Y-1065524D01*
X4166429Y-1265524D02*
X4166429Y-1065524D01*
X4252143Y-1265524D02*
X4252143Y-1160762D01*
X4252143Y-1160762D02*
X4242619Y-1141714D01*
X4242619Y-1141714D02*
X4223572Y-1132190D01*
X4223572Y-1132190D02*
X4195000Y-1132190D01*
X4195000Y-1132190D02*
X4175953Y-1141714D01*
X4175953Y-1141714D02*
X4166429Y-1151238D01*
X4375953Y-1265524D02*
X4356905Y-1256000D01*
X4356905Y-1256000D02*
X4347381Y-1246476D01*
X4347381Y-1246476D02*
X4337858Y-1227429D01*
X4337858Y-1227429D02*
X4337858Y-1170286D01*
X4337858Y-1170286D02*
X4347381Y-1151238D01*
X4347381Y-1151238D02*
X4356905Y-1141714D01*
X4356905Y-1141714D02*
X4375953Y-1132190D01*
X4375953Y-1132190D02*
X4404524Y-1132190D01*
X4404524Y-1132190D02*
X4423572Y-1141714D01*
X4423572Y-1141714D02*
X4433096Y-1151238D01*
X4433096Y-1151238D02*
X4442619Y-1170286D01*
X4442619Y-1170286D02*
X4442619Y-1227429D01*
X4442619Y-1227429D02*
X4433096Y-1246476D01*
X4433096Y-1246476D02*
X4423572Y-1256000D01*
X4423572Y-1256000D02*
X4404524Y-1265524D01*
X4404524Y-1265524D02*
X4375953Y-1265524D01*
X4556905Y-1265524D02*
X4537858Y-1256000D01*
X4537858Y-1256000D02*
X4528334Y-1236952D01*
X4528334Y-1236952D02*
X4528334Y-1065524D01*
X4709286Y-1256000D02*
X4690239Y-1265524D01*
X4690239Y-1265524D02*
X4652143Y-1265524D01*
X4652143Y-1265524D02*
X4633096Y-1256000D01*
X4633096Y-1256000D02*
X4623572Y-1236952D01*
X4623572Y-1236952D02*
X4623572Y-1160762D01*
X4623572Y-1160762D02*
X4633096Y-1141714D01*
X4633096Y-1141714D02*
X4652143Y-1132190D01*
X4652143Y-1132190D02*
X4690239Y-1132190D01*
X4690239Y-1132190D02*
X4709286Y-1141714D01*
X4709286Y-1141714D02*
X4718810Y-1160762D01*
X4718810Y-1160762D02*
X4718810Y-1179810D01*
X4718810Y-1179810D02*
X4623572Y-1198857D01*
X4795000Y-1256000D02*
X4814048Y-1265524D01*
X4814048Y-1265524D02*
X4852143Y-1265524D01*
X4852143Y-1265524D02*
X4871191Y-1256000D01*
X4871191Y-1256000D02*
X4880715Y-1236952D01*
X4880715Y-1236952D02*
X4880715Y-1227429D01*
X4880715Y-1227429D02*
X4871191Y-1208381D01*
X4871191Y-1208381D02*
X4852143Y-1198857D01*
X4852143Y-1198857D02*
X4823572Y-1198857D01*
X4823572Y-1198857D02*
X4804524Y-1189333D01*
X4804524Y-1189333D02*
X4795000Y-1170286D01*
X4795000Y-1170286D02*
X4795000Y-1160762D01*
X4795000Y-1160762D02*
X4804524Y-1141714D01*
X4804524Y-1141714D02*
X4823572Y-1132190D01*
X4823572Y-1132190D02*
X4852143Y-1132190D01*
X4852143Y-1132190D02*
X4871191Y-1141714D01*
X5118810Y-1189333D02*
X5271191Y-1189333D01*
X5195001Y-1265524D02*
X5195001Y-1113143D01*
X5547381Y-1151238D02*
X5528334Y-1141714D01*
X5528334Y-1141714D02*
X5518810Y-1132190D01*
X5518810Y-1132190D02*
X5509286Y-1113143D01*
X5509286Y-1113143D02*
X5509286Y-1103619D01*
X5509286Y-1103619D02*
X5518810Y-1084571D01*
X5518810Y-1084571D02*
X5528334Y-1075048D01*
X5528334Y-1075048D02*
X5547381Y-1065524D01*
X5547381Y-1065524D02*
X5585477Y-1065524D01*
X5585477Y-1065524D02*
X5604524Y-1075048D01*
X5604524Y-1075048D02*
X5614048Y-1084571D01*
X5614048Y-1084571D02*
X5623572Y-1103619D01*
X5623572Y-1103619D02*
X5623572Y-1113143D01*
X5623572Y-1113143D02*
X5614048Y-1132190D01*
X5614048Y-1132190D02*
X5604524Y-1141714D01*
X5604524Y-1141714D02*
X5585477Y-1151238D01*
X5585477Y-1151238D02*
X5547381Y-1151238D01*
X5547381Y-1151238D02*
X5528334Y-1160762D01*
X5528334Y-1160762D02*
X5518810Y-1170286D01*
X5518810Y-1170286D02*
X5509286Y-1189333D01*
X5509286Y-1189333D02*
X5509286Y-1227429D01*
X5509286Y-1227429D02*
X5518810Y-1246476D01*
X5518810Y-1246476D02*
X5528334Y-1256000D01*
X5528334Y-1256000D02*
X5547381Y-1265524D01*
X5547381Y-1265524D02*
X5585477Y-1265524D01*
X5585477Y-1265524D02*
X5604524Y-1256000D01*
X5604524Y-1256000D02*
X5614048Y-1246476D01*
X5614048Y-1246476D02*
X5623572Y-1227429D01*
X5623572Y-1227429D02*
X5623572Y-1189333D01*
X5623572Y-1189333D02*
X5614048Y-1170286D01*
X5614048Y-1170286D02*
X5604524Y-1160762D01*
X5604524Y-1160762D02*
X5585477Y-1151238D01*
X5852143Y-1256000D02*
X5871191Y-1265524D01*
X5871191Y-1265524D02*
X5909286Y-1265524D01*
X5909286Y-1265524D02*
X5928334Y-1256000D01*
X5928334Y-1256000D02*
X5937858Y-1236952D01*
X5937858Y-1236952D02*
X5937858Y-1227429D01*
X5937858Y-1227429D02*
X5928334Y-1208381D01*
X5928334Y-1208381D02*
X5909286Y-1198857D01*
X5909286Y-1198857D02*
X5880715Y-1198857D01*
X5880715Y-1198857D02*
X5861667Y-1189333D01*
X5861667Y-1189333D02*
X5852143Y-1170286D01*
X5852143Y-1170286D02*
X5852143Y-1160762D01*
X5852143Y-1160762D02*
X5861667Y-1141714D01*
X5861667Y-1141714D02*
X5880715Y-1132190D01*
X5880715Y-1132190D02*
X5909286Y-1132190D01*
X5909286Y-1132190D02*
X5928334Y-1141714D01*
X6052143Y-1265524D02*
X6033096Y-1256000D01*
X6033096Y-1256000D02*
X6023572Y-1236952D01*
X6023572Y-1236952D02*
X6023572Y-1065524D01*
X6156905Y-1265524D02*
X6137858Y-1256000D01*
X6137858Y-1256000D02*
X6128334Y-1246476D01*
X6128334Y-1246476D02*
X6118810Y-1227429D01*
X6118810Y-1227429D02*
X6118810Y-1170286D01*
X6118810Y-1170286D02*
X6128334Y-1151238D01*
X6128334Y-1151238D02*
X6137858Y-1141714D01*
X6137858Y-1141714D02*
X6156905Y-1132190D01*
X6156905Y-1132190D02*
X6185477Y-1132190D01*
X6185477Y-1132190D02*
X6204524Y-1141714D01*
X6204524Y-1141714D02*
X6214048Y-1151238D01*
X6214048Y-1151238D02*
X6223572Y-1170286D01*
X6223572Y-1170286D02*
X6223572Y-1227429D01*
X6223572Y-1227429D02*
X6214048Y-1246476D01*
X6214048Y-1246476D02*
X6204524Y-1256000D01*
X6204524Y-1256000D02*
X6185477Y-1265524D01*
X6185477Y-1265524D02*
X6156905Y-1265524D01*
X6280715Y-1132190D02*
X6356905Y-1132190D01*
X6309286Y-1065524D02*
X6309286Y-1236952D01*
X6309286Y-1236952D02*
X6318810Y-1256000D01*
X6318810Y-1256000D02*
X6337858Y-1265524D01*
X6337858Y-1265524D02*
X6356905Y-1265524D01*
X6414048Y-1256000D02*
X6433096Y-1265524D01*
X6433096Y-1265524D02*
X6471191Y-1265524D01*
X6471191Y-1265524D02*
X6490239Y-1256000D01*
X6490239Y-1256000D02*
X6499762Y-1236952D01*
X6499762Y-1236952D02*
X6499762Y-1227429D01*
X6499762Y-1227429D02*
X6490239Y-1208381D01*
X6490239Y-1208381D02*
X6471191Y-1198857D01*
X6471191Y-1198857D02*
X6442620Y-1198857D01*
X6442620Y-1198857D02*
X6423572Y-1189333D01*
X6423572Y-1189333D02*
X6414048Y-1170286D01*
X6414048Y-1170286D02*
X6414048Y-1160762D01*
X6414048Y-1160762D02*
X6423572Y-1141714D01*
X6423572Y-1141714D02*
X6442620Y-1132190D01*
X6442620Y-1132190D02*
X6471191Y-1132190D01*
X6471191Y-1132190D02*
X6490239Y-1141714D01*
X6566429Y-1341714D02*
X6575953Y-1332190D01*
X6575953Y-1332190D02*
X6595001Y-1303619D01*
X6595001Y-1303619D02*
X6604524Y-1284571D01*
X6604524Y-1284571D02*
X6614048Y-1256000D01*
X6614048Y-1256000D02*
X6623572Y-1208381D01*
X6623572Y-1208381D02*
X6623572Y-1170286D01*
X6623572Y-1170286D02*
X6614048Y-1122667D01*
X6614048Y-1122667D02*
X6604524Y-1094095D01*
X6604524Y-1094095D02*
X6595001Y-1075048D01*
X6595001Y-1075048D02*
X6575953Y-1046476D01*
X6575953Y-1046476D02*
X6566429Y-1036952D01*
D14*
X-25502Y-1486498D02*
X-25502Y-1387502D01*
X-124498Y-1387502D01*
X-124498Y-1486498D01*
X-25502Y-1486498D01*
D11*
X347381Y-1529524D02*
X233095Y-1529524D01*
X290238Y-1529524D02*
X290238Y-1329524D01*
X290238Y-1329524D02*
X271190Y-1358095D01*
X271190Y-1358095D02*
X252143Y-1377143D01*
X252143Y-1377143D02*
X233095Y-1386667D01*
X433095Y-1510476D02*
X442619Y-1520000D01*
X442619Y-1520000D02*
X433095Y-1529524D01*
X433095Y-1529524D02*
X423571Y-1520000D01*
X423571Y-1520000D02*
X433095Y-1510476D01*
X433095Y-1510476D02*
X433095Y-1529524D01*
X614048Y-1396190D02*
X614048Y-1529524D01*
X566429Y-1320000D02*
X518809Y-1462857D01*
X518809Y-1462857D02*
X642619Y-1462857D01*
X756905Y-1329524D02*
X775952Y-1329524D01*
X775952Y-1329524D02*
X795000Y-1339048D01*
X795000Y-1339048D02*
X804524Y-1348571D01*
X804524Y-1348571D02*
X814048Y-1367619D01*
X814048Y-1367619D02*
X823571Y-1405714D01*
X823571Y-1405714D02*
X823571Y-1453333D01*
X823571Y-1453333D02*
X814048Y-1491428D01*
X814048Y-1491428D02*
X804524Y-1510476D01*
X804524Y-1510476D02*
X795000Y-1520000D01*
X795000Y-1520000D02*
X775952Y-1529524D01*
X775952Y-1529524D02*
X756905Y-1529524D01*
X756905Y-1529524D02*
X737857Y-1520000D01*
X737857Y-1520000D02*
X728333Y-1510476D01*
X728333Y-1510476D02*
X718809Y-1491428D01*
X718809Y-1491428D02*
X709286Y-1453333D01*
X709286Y-1453333D02*
X709286Y-1405714D01*
X709286Y-1405714D02*
X718809Y-1367619D01*
X718809Y-1367619D02*
X728333Y-1348571D01*
X728333Y-1348571D02*
X737857Y-1339048D01*
X737857Y-1339048D02*
X756905Y-1329524D01*
X947381Y-1329524D02*
X966429Y-1329524D01*
X966429Y-1329524D02*
X985476Y-1339048D01*
X985476Y-1339048D02*
X995000Y-1348571D01*
X995000Y-1348571D02*
X1004524Y-1367619D01*
X1004524Y-1367619D02*
X1014048Y-1405714D01*
X1014048Y-1405714D02*
X1014048Y-1453333D01*
X1014048Y-1453333D02*
X1004524Y-1491428D01*
X1004524Y-1491428D02*
X995000Y-1510476D01*
X995000Y-1510476D02*
X985476Y-1520000D01*
X985476Y-1520000D02*
X966429Y-1529524D01*
X966429Y-1529524D02*
X947381Y-1529524D01*
X947381Y-1529524D02*
X928333Y-1520000D01*
X928333Y-1520000D02*
X918809Y-1510476D01*
X918809Y-1510476D02*
X909286Y-1491428D01*
X909286Y-1491428D02*
X899762Y-1453333D01*
X899762Y-1453333D02*
X899762Y-1405714D01*
X899762Y-1405714D02*
X909286Y-1367619D01*
X909286Y-1367619D02*
X918809Y-1348571D01*
X918809Y-1348571D02*
X928333Y-1339048D01*
X928333Y-1339048D02*
X947381Y-1329524D01*
X1099762Y-1529524D02*
X1099762Y-1396190D01*
X1099762Y-1415238D02*
X1109286Y-1405714D01*
X1109286Y-1405714D02*
X1128333Y-1396190D01*
X1128333Y-1396190D02*
X1156905Y-1396190D01*
X1156905Y-1396190D02*
X1175952Y-1405714D01*
X1175952Y-1405714D02*
X1185476Y-1424762D01*
X1185476Y-1424762D02*
X1185476Y-1529524D01*
X1185476Y-1424762D02*
X1195000Y-1405714D01*
X1195000Y-1405714D02*
X1214048Y-1396190D01*
X1214048Y-1396190D02*
X1242619Y-1396190D01*
X1242619Y-1396190D02*
X1261667Y-1405714D01*
X1261667Y-1405714D02*
X1271191Y-1424762D01*
X1271191Y-1424762D02*
X1271191Y-1529524D01*
X1366429Y-1529524D02*
X1366429Y-1396190D01*
X1366429Y-1415238D02*
X1375952Y-1405714D01*
X1375952Y-1405714D02*
X1395000Y-1396190D01*
X1395000Y-1396190D02*
X1423571Y-1396190D01*
X1423571Y-1396190D02*
X1442619Y-1405714D01*
X1442619Y-1405714D02*
X1452143Y-1424762D01*
X1452143Y-1424762D02*
X1452143Y-1529524D01*
X1452143Y-1424762D02*
X1461667Y-1405714D01*
X1461667Y-1405714D02*
X1480714Y-1396190D01*
X1480714Y-1396190D02*
X1509286Y-1396190D01*
X1509286Y-1396190D02*
X1528333Y-1405714D01*
X1528333Y-1405714D02*
X1537857Y-1424762D01*
X1537857Y-1424762D02*
X1537857Y-1529524D01*
X1928333Y-1320000D02*
X1756905Y-1577143D01*
X2185476Y-1329524D02*
X2204524Y-1329524D01*
X2204524Y-1329524D02*
X2223572Y-1339048D01*
X2223572Y-1339048D02*
X2233095Y-1348571D01*
X2233095Y-1348571D02*
X2242619Y-1367619D01*
X2242619Y-1367619D02*
X2252143Y-1405714D01*
X2252143Y-1405714D02*
X2252143Y-1453333D01*
X2252143Y-1453333D02*
X2242619Y-1491428D01*
X2242619Y-1491428D02*
X2233095Y-1510476D01*
X2233095Y-1510476D02*
X2223572Y-1520000D01*
X2223572Y-1520000D02*
X2204524Y-1529524D01*
X2204524Y-1529524D02*
X2185476Y-1529524D01*
X2185476Y-1529524D02*
X2166429Y-1520000D01*
X2166429Y-1520000D02*
X2156905Y-1510476D01*
X2156905Y-1510476D02*
X2147381Y-1491428D01*
X2147381Y-1491428D02*
X2137857Y-1453333D01*
X2137857Y-1453333D02*
X2137857Y-1405714D01*
X2137857Y-1405714D02*
X2147381Y-1367619D01*
X2147381Y-1367619D02*
X2156905Y-1348571D01*
X2156905Y-1348571D02*
X2166429Y-1339048D01*
X2166429Y-1339048D02*
X2185476Y-1329524D01*
X2337857Y-1510476D02*
X2347381Y-1520000D01*
X2347381Y-1520000D02*
X2337857Y-1529524D01*
X2337857Y-1529524D02*
X2328334Y-1520000D01*
X2328334Y-1520000D02*
X2337857Y-1510476D01*
X2337857Y-1510476D02*
X2337857Y-1529524D01*
X2471191Y-1329524D02*
X2490238Y-1329524D01*
X2490238Y-1329524D02*
X2509286Y-1339048D01*
X2509286Y-1339048D02*
X2518810Y-1348571D01*
X2518810Y-1348571D02*
X2528334Y-1367619D01*
X2528334Y-1367619D02*
X2537857Y-1405714D01*
X2537857Y-1405714D02*
X2537857Y-1453333D01*
X2537857Y-1453333D02*
X2528334Y-1491428D01*
X2528334Y-1491428D02*
X2518810Y-1510476D01*
X2518810Y-1510476D02*
X2509286Y-1520000D01*
X2509286Y-1520000D02*
X2490238Y-1529524D01*
X2490238Y-1529524D02*
X2471191Y-1529524D01*
X2471191Y-1529524D02*
X2452143Y-1520000D01*
X2452143Y-1520000D02*
X2442619Y-1510476D01*
X2442619Y-1510476D02*
X2433095Y-1491428D01*
X2433095Y-1491428D02*
X2423572Y-1453333D01*
X2423572Y-1453333D02*
X2423572Y-1405714D01*
X2423572Y-1405714D02*
X2433095Y-1367619D01*
X2433095Y-1367619D02*
X2442619Y-1348571D01*
X2442619Y-1348571D02*
X2452143Y-1339048D01*
X2452143Y-1339048D02*
X2471191Y-1329524D01*
X2718810Y-1329524D02*
X2623572Y-1329524D01*
X2623572Y-1329524D02*
X2614048Y-1424762D01*
X2614048Y-1424762D02*
X2623572Y-1415238D01*
X2623572Y-1415238D02*
X2642619Y-1405714D01*
X2642619Y-1405714D02*
X2690238Y-1405714D01*
X2690238Y-1405714D02*
X2709286Y-1415238D01*
X2709286Y-1415238D02*
X2718810Y-1424762D01*
X2718810Y-1424762D02*
X2728334Y-1443809D01*
X2728334Y-1443809D02*
X2728334Y-1491428D01*
X2728334Y-1491428D02*
X2718810Y-1510476D01*
X2718810Y-1510476D02*
X2709286Y-1520000D01*
X2709286Y-1520000D02*
X2690238Y-1529524D01*
X2690238Y-1529524D02*
X2642619Y-1529524D01*
X2642619Y-1529524D02*
X2623572Y-1520000D01*
X2623572Y-1520000D02*
X2614048Y-1510476D01*
X2909286Y-1329524D02*
X2814048Y-1329524D01*
X2814048Y-1329524D02*
X2804524Y-1424762D01*
X2804524Y-1424762D02*
X2814048Y-1415238D01*
X2814048Y-1415238D02*
X2833095Y-1405714D01*
X2833095Y-1405714D02*
X2880714Y-1405714D01*
X2880714Y-1405714D02*
X2899762Y-1415238D01*
X2899762Y-1415238D02*
X2909286Y-1424762D01*
X2909286Y-1424762D02*
X2918810Y-1443809D01*
X2918810Y-1443809D02*
X2918810Y-1491428D01*
X2918810Y-1491428D02*
X2909286Y-1510476D01*
X2909286Y-1510476D02*
X2899762Y-1520000D01*
X2899762Y-1520000D02*
X2880714Y-1529524D01*
X2880714Y-1529524D02*
X2833095Y-1529524D01*
X2833095Y-1529524D02*
X2814048Y-1520000D01*
X2814048Y-1520000D02*
X2804524Y-1510476D01*
X3109286Y-1529524D02*
X2995000Y-1529524D01*
X3052143Y-1529524D02*
X3052143Y-1329524D01*
X3052143Y-1329524D02*
X3033095Y-1358095D01*
X3033095Y-1358095D02*
X3014048Y-1377143D01*
X3014048Y-1377143D02*
X2995000Y-1386667D01*
X3185476Y-1329524D02*
X3185476Y-1367619D01*
X3261667Y-1329524D02*
X3261667Y-1367619D01*
X3556905Y-1605714D02*
X3547381Y-1596190D01*
X3547381Y-1596190D02*
X3528334Y-1567619D01*
X3528334Y-1567619D02*
X3518810Y-1548571D01*
X3518810Y-1548571D02*
X3509286Y-1520000D01*
X3509286Y-1520000D02*
X3499762Y-1472381D01*
X3499762Y-1472381D02*
X3499762Y-1434286D01*
X3499762Y-1434286D02*
X3509286Y-1386667D01*
X3509286Y-1386667D02*
X3518810Y-1358095D01*
X3518810Y-1358095D02*
X3528334Y-1339048D01*
X3528334Y-1339048D02*
X3547381Y-1310476D01*
X3547381Y-1310476D02*
X3556905Y-1300952D01*
X3623572Y-1348571D02*
X3633095Y-1339048D01*
X3633095Y-1339048D02*
X3652143Y-1329524D01*
X3652143Y-1329524D02*
X3699762Y-1329524D01*
X3699762Y-1329524D02*
X3718810Y-1339048D01*
X3718810Y-1339048D02*
X3728334Y-1348571D01*
X3728334Y-1348571D02*
X3737857Y-1367619D01*
X3737857Y-1367619D02*
X3737857Y-1386667D01*
X3737857Y-1386667D02*
X3728334Y-1415238D01*
X3728334Y-1415238D02*
X3614048Y-1529524D01*
X3614048Y-1529524D02*
X3737857Y-1529524D01*
X3975953Y-1529524D02*
X3975953Y-1329524D01*
X4061667Y-1529524D02*
X4061667Y-1424762D01*
X4061667Y-1424762D02*
X4052143Y-1405714D01*
X4052143Y-1405714D02*
X4033096Y-1396190D01*
X4033096Y-1396190D02*
X4004524Y-1396190D01*
X4004524Y-1396190D02*
X3985476Y-1405714D01*
X3985476Y-1405714D02*
X3975953Y-1415238D01*
X4185476Y-1529524D02*
X4166429Y-1520000D01*
X4166429Y-1520000D02*
X4156905Y-1510476D01*
X4156905Y-1510476D02*
X4147381Y-1491428D01*
X4147381Y-1491428D02*
X4147381Y-1434286D01*
X4147381Y-1434286D02*
X4156905Y-1415238D01*
X4156905Y-1415238D02*
X4166429Y-1405714D01*
X4166429Y-1405714D02*
X4185476Y-1396190D01*
X4185476Y-1396190D02*
X4214048Y-1396190D01*
X4214048Y-1396190D02*
X4233096Y-1405714D01*
X4233096Y-1405714D02*
X4242619Y-1415238D01*
X4242619Y-1415238D02*
X4252143Y-1434286D01*
X4252143Y-1434286D02*
X4252143Y-1491428D01*
X4252143Y-1491428D02*
X4242619Y-1510476D01*
X4242619Y-1510476D02*
X4233096Y-1520000D01*
X4233096Y-1520000D02*
X4214048Y-1529524D01*
X4214048Y-1529524D02*
X4185476Y-1529524D01*
X4366429Y-1529524D02*
X4347381Y-1520000D01*
X4347381Y-1520000D02*
X4337858Y-1500952D01*
X4337858Y-1500952D02*
X4337858Y-1329524D01*
X4518810Y-1520000D02*
X4499762Y-1529524D01*
X4499762Y-1529524D02*
X4461667Y-1529524D01*
X4461667Y-1529524D02*
X4442619Y-1520000D01*
X4442619Y-1520000D02*
X4433096Y-1500952D01*
X4433096Y-1500952D02*
X4433096Y-1424762D01*
X4433096Y-1424762D02*
X4442619Y-1405714D01*
X4442619Y-1405714D02*
X4461667Y-1396190D01*
X4461667Y-1396190D02*
X4499762Y-1396190D01*
X4499762Y-1396190D02*
X4518810Y-1405714D01*
X4518810Y-1405714D02*
X4528334Y-1424762D01*
X4528334Y-1424762D02*
X4528334Y-1443809D01*
X4528334Y-1443809D02*
X4433096Y-1462857D01*
X4604524Y-1520000D02*
X4623572Y-1529524D01*
X4623572Y-1529524D02*
X4661667Y-1529524D01*
X4661667Y-1529524D02*
X4680715Y-1520000D01*
X4680715Y-1520000D02*
X4690239Y-1500952D01*
X4690239Y-1500952D02*
X4690239Y-1491428D01*
X4690239Y-1491428D02*
X4680715Y-1472381D01*
X4680715Y-1472381D02*
X4661667Y-1462857D01*
X4661667Y-1462857D02*
X4633096Y-1462857D01*
X4633096Y-1462857D02*
X4614048Y-1453333D01*
X4614048Y-1453333D02*
X4604524Y-1434286D01*
X4604524Y-1434286D02*
X4604524Y-1424762D01*
X4604524Y-1424762D02*
X4614048Y-1405714D01*
X4614048Y-1405714D02*
X4633096Y-1396190D01*
X4633096Y-1396190D02*
X4661667Y-1396190D01*
X4661667Y-1396190D02*
X4680715Y-1405714D01*
X4756905Y-1605714D02*
X4766429Y-1596190D01*
X4766429Y-1596190D02*
X4785477Y-1567619D01*
X4785477Y-1567619D02*
X4795000Y-1548571D01*
X4795000Y-1548571D02*
X4804524Y-1520000D01*
X4804524Y-1520000D02*
X4814048Y-1472381D01*
X4814048Y-1472381D02*
X4814048Y-1434286D01*
X4814048Y-1434286D02*
X4804524Y-1386667D01*
X4804524Y-1386667D02*
X4795000Y-1358095D01*
X4795000Y-1358095D02*
X4785477Y-1339048D01*
X4785477Y-1339048D02*
X4766429Y-1310476D01*
X4766429Y-1310476D02*
X4756905Y-1300952D01*
M02*
